<svg width="443" height="447" viewBox="0 0 443 447" fill="none" xmlns="http://www.w3.org/2000/svg">
<path d="M225.769 78.9965V85.4009" stroke="#263238" stroke-width="1.10721" stroke-linecap="round" stroke-linejoin="round"/>
<path d="M225.769 92.3163V102.685" stroke="#263238" stroke-width="1.10721" stroke-linecap="round" stroke-linejoin="round" stroke-dasharray="7.17 7.17"/>
<path d="M225.769 106.139V112.544" stroke="#263238" stroke-width="1.10721" stroke-linecap="round" stroke-linejoin="round"/>
<path d="M327.981 187.419H321.576" stroke="#263238" stroke-width="1.10721" stroke-linecap="round" stroke-linejoin="round"/>
<path d="M314.659 187.419H304.291" stroke="#263238" stroke-width="1.10721" stroke-linecap="round" stroke-linejoin="round" stroke-dasharray="7.17 7.17"/>
<path d="M300.838 187.419H294.434" stroke="#263238" stroke-width="1.10721" stroke-linecap="round" stroke-linejoin="round"/>
<path d="M157.114 187.419H150.7" stroke="#263238" stroke-width="1.10721" stroke-linecap="round" stroke-linejoin="round"/>
<path d="M143.795 187.419H133.427" stroke="#263238" stroke-width="1.10721" stroke-linecap="round" stroke-linejoin="round" stroke-dasharray="7.17 7.17"/>
<path d="M129.973 187.419H123.559" stroke="#263238" stroke-width="1.10721" stroke-linecap="round" stroke-linejoin="round"/>
<path d="M402.334 209.139C402.334 208.691 402.512 208.262 402.829 207.945C403.145 207.629 403.575 207.451 404.022 207.451C404.47 207.451 404.899 207.629 405.216 207.945C405.532 208.262 405.71 208.691 405.71 209.139V212.823C405.71 213.271 405.532 213.7 405.216 214.017C404.899 214.334 404.47 214.511 404.022 214.511C403.575 214.511 403.145 214.334 402.829 214.017C402.512 213.7 402.334 213.271 402.334 212.823V209.139ZM403.444 212.891C403.444 213.393 403.666 213.585 404.022 213.585C404.379 213.585 404.591 213.393 404.591 212.891V209.033C404.591 208.531 404.37 208.338 404.022 208.338C403.675 208.338 403.444 208.531 403.444 209.033V212.891Z" fill="#263238"/>
<path d="M403.127 218.439C403.405 218.473 403.685 218.4 403.91 218.236C404.136 218.071 404.291 217.826 404.342 217.551H405.095V224.67H403.986V219.278H403.127V218.439Z" fill="#263238"/>
<path d="M402.334 229.348C402.334 228.9 402.512 228.471 402.829 228.155C403.145 227.838 403.575 227.66 404.022 227.66C404.47 227.66 404.899 227.838 405.216 228.155C405.532 228.471 405.71 228.9 405.71 229.348V233.023C405.71 233.471 405.532 233.9 405.216 234.216C404.899 234.533 404.47 234.711 404.022 234.711C403.575 234.711 403.145 234.533 402.829 234.216C402.512 233.9 402.334 233.471 402.334 233.023V229.348ZM403.444 233.1C403.444 233.602 403.666 233.795 404.022 233.795C404.379 233.795 404.591 233.602 404.591 233.1V229.242C404.591 228.731 404.37 228.548 404.022 228.548C403.675 228.548 403.444 228.731 403.444 229.242V233.1Z" fill="#263238"/>
<path d="M403.127 238.646C403.405 238.68 403.685 238.607 403.91 238.442C404.136 238.278 404.291 238.033 404.342 237.758H405.095V244.819H403.986V239.427H403.127V238.646Z" fill="#263238"/>
<path d="M402.334 249.553C402.334 249.105 402.512 248.676 402.829 248.359C403.145 248.043 403.575 247.865 404.022 247.865C404.47 247.865 404.899 248.043 405.216 248.359C405.532 248.676 405.71 249.105 405.71 249.553V253.228C405.71 253.675 405.532 254.105 405.216 254.421C404.899 254.738 404.47 254.916 404.022 254.916C403.575 254.916 403.145 254.738 402.829 254.421C402.512 254.105 402.334 253.675 402.334 253.228V249.553ZM403.444 253.295C403.444 253.806 403.666 253.99 404.022 253.99C404.379 253.99 404.591 253.806 404.591 253.295V249.437C404.591 248.936 404.37 248.743 404.022 248.743C403.675 248.743 403.444 248.936 403.444 249.437V253.295Z" fill="#263238"/>
<path d="M403.127 258.842C403.405 258.876 403.685 258.804 403.91 258.639C404.136 258.474 404.291 258.229 404.342 257.955H405.095V265.025H403.986V259.633H403.127V258.842Z" fill="#263238"/>
<path d="M402.334 269.751C402.334 269.304 402.512 268.874 402.829 268.558C403.145 268.241 403.575 268.063 404.022 268.063C404.47 268.063 404.899 268.241 405.216 268.558C405.532 268.874 405.71 269.304 405.71 269.751V273.436C405.71 273.884 405.532 274.313 405.216 274.629C404.899 274.946 404.47 275.124 404.022 275.124C403.575 275.124 403.145 274.946 402.829 274.629C402.512 274.313 402.334 273.884 402.334 273.436V269.751ZM403.444 273.503C403.444 274.005 403.666 274.198 404.022 274.198C404.379 274.198 404.591 274.005 404.591 273.503V269.645C404.591 269.144 404.37 268.951 404.022 268.951C403.675 268.951 403.444 269.144 403.444 269.645V273.503Z" fill="#263238"/>
<path d="M402.334 279.86C402.334 279.412 402.512 278.983 402.829 278.667C403.145 278.35 403.575 278.172 404.022 278.172C404.47 278.172 404.899 278.35 405.216 278.667C405.532 278.983 405.71 279.412 405.71 279.86V283.506C405.71 283.954 405.532 284.383 405.216 284.7C404.899 285.016 404.47 285.194 404.022 285.194C403.575 285.194 403.145 285.016 402.829 284.7C402.512 284.383 402.334 283.954 402.334 283.506V279.86ZM403.444 283.603C403.444 284.114 403.666 284.297 404.022 284.297C404.379 284.297 404.591 284.114 404.591 283.603V279.744C404.591 279.233 404.37 279.04 404.022 279.04C403.675 279.04 403.444 279.233 403.444 279.744V283.603Z" fill="#263238"/>
<path d="M402.334 289.958C402.334 289.511 402.512 289.081 402.829 288.765C403.145 288.448 403.575 288.271 404.022 288.271C404.47 288.271 404.899 288.448 405.216 288.765C405.532 289.081 405.71 289.511 405.71 289.958V293.633C405.71 294.081 405.532 294.51 405.216 294.827C404.899 295.143 404.47 295.321 404.022 295.321C403.575 295.321 403.145 295.143 402.829 294.827C402.512 294.51 402.334 294.081 402.334 293.633V289.958ZM403.444 293.71C403.444 294.212 403.666 294.405 404.022 294.405C404.379 294.405 404.591 294.212 404.591 293.71V289.852C404.591 289.351 404.37 289.158 404.022 289.158C403.675 289.158 403.444 289.351 403.444 289.852V293.71Z" fill="#263238"/>
<path d="M403.127 309.354C403.405 309.389 403.685 309.316 403.91 309.151C404.136 308.986 404.291 308.742 404.342 308.467H405.095V315.537H403.986V310.145H403.127V309.354Z" fill="#263238"/>
<path d="M403.127 319.462C403.406 319.498 403.689 319.425 403.915 319.258C404.142 319.091 404.295 318.843 404.342 318.565H405.095V325.635H403.986V320.243H403.127V319.462Z" fill="#263238"/>
<path d="M403.127 329.561C403.405 329.595 403.685 329.523 403.91 329.358C404.136 329.193 404.291 328.949 404.342 328.674H405.095V335.734H403.986V330.352H403.127V329.561Z" fill="#263238"/>
<path d="M402.334 340.471C402.334 340.023 402.512 339.594 402.829 339.277C403.145 338.961 403.575 338.783 404.022 338.783C404.47 338.783 404.899 338.961 405.216 339.277C405.532 339.594 405.71 340.023 405.71 340.471V344.145C405.71 344.593 405.532 345.022 405.216 345.339C404.899 345.656 404.47 345.833 404.022 345.833C403.575 345.833 403.145 345.656 402.829 345.339C402.512 345.022 402.334 344.593 402.334 344.145V340.471ZM403.444 344.213C403.444 344.724 403.666 344.907 404.022 344.907C404.379 344.907 404.591 344.724 404.591 344.213V340.413C404.591 339.902 404.37 339.709 404.022 339.709C403.675 339.709 403.444 339.902 403.444 340.413V344.213Z" fill="#263238"/>
<path d="M402.334 350.569C402.334 350.121 402.512 349.692 402.829 349.375C403.145 349.059 403.575 348.881 404.022 348.881C404.47 348.881 404.899 349.059 405.216 349.375C405.532 349.692 405.71 350.121 405.71 350.569V354.244C405.71 354.691 405.532 355.121 405.216 355.437C404.899 355.754 404.47 355.932 404.022 355.932C403.575 355.932 403.145 355.754 402.829 355.437C402.512 355.121 402.334 354.691 402.334 354.244V350.569ZM403.444 354.321C403.444 354.822 403.666 355.015 404.022 355.015C404.379 355.015 404.591 354.822 404.591 354.321V350.463C404.591 349.961 404.37 349.768 404.022 349.768C403.675 349.768 403.444 349.961 403.444 350.463V354.321Z" fill="#263238"/>
<path d="M403.127 359.866C403.405 359.901 403.685 359.828 403.91 359.663C404.136 359.498 404.291 359.254 404.342 358.979H405.095V366.039H403.986V360.667H403.127V359.866Z" fill="#263238"/>
<path d="M409.086 198.23C409.365 198.264 409.646 198.192 409.874 198.027C410.101 197.862 410.257 197.618 410.311 197.342H411.054V204.412H409.945V199.021H409.086V198.23Z" fill="#263238"/>
<path d="M409.086 208.338C409.365 208.373 409.646 208.301 409.874 208.136C410.101 207.971 410.257 207.727 410.311 207.451H411.054V214.511H409.945V209.12H409.086V208.338Z" fill="#263238"/>
<path d="M408.353 229.347C408.336 229.115 408.366 228.882 408.443 228.663C408.52 228.443 408.641 228.242 408.799 228.071C408.957 227.901 409.148 227.765 409.361 227.672C409.574 227.579 409.804 227.531 410.037 227.531C410.269 227.531 410.499 227.579 410.712 227.672C410.925 227.765 411.116 227.901 411.274 228.071C411.432 228.242 411.553 228.443 411.63 228.663C411.707 228.882 411.737 229.115 411.72 229.347V233.021C411.737 233.253 411.707 233.486 411.63 233.705C411.553 233.925 411.432 234.126 411.274 234.296C411.116 234.467 410.925 234.603 410.712 234.696C410.499 234.789 410.269 234.837 410.037 234.837C409.804 234.837 409.574 234.789 409.361 234.696C409.148 234.603 408.957 234.467 408.799 234.296C408.641 234.126 408.52 233.925 408.443 233.705C408.366 233.486 408.336 233.253 408.353 233.021V229.347ZM409.463 233.099C409.463 233.6 409.684 233.793 410.032 233.793C410.379 233.793 410.61 233.6 410.61 233.099V229.24C410.61 228.729 410.389 228.546 410.032 228.546C409.675 228.546 409.463 228.729 409.463 229.24V233.099Z" fill="#263238"/>
<path d="M409.086 258.842C409.365 258.877 409.646 258.804 409.874 258.64C410.101 258.475 410.257 258.23 410.311 257.955H411.054V265.025H409.945V259.633H409.086V258.842Z" fill="#263238"/>
<path d="M408.353 269.75C408.336 269.518 408.366 269.285 408.443 269.066C408.52 268.847 408.641 268.645 408.799 268.475C408.957 268.304 409.148 268.169 409.361 268.076C409.574 267.983 409.804 267.935 410.037 267.935C410.269 267.935 410.499 267.983 410.712 268.076C410.925 268.169 411.116 268.304 411.274 268.475C411.432 268.645 411.553 268.847 411.63 269.066C411.707 269.285 411.737 269.518 411.72 269.75V273.434C411.737 273.666 411.707 273.899 411.63 274.118C411.553 274.338 411.432 274.539 411.274 274.71C411.116 274.88 410.925 275.016 410.712 275.109C410.499 275.202 410.269 275.25 410.037 275.25C409.804 275.25 409.574 275.202 409.361 275.109C409.148 275.016 408.957 274.88 408.799 274.71C408.641 274.539 408.52 274.338 408.443 274.118C408.366 273.899 408.336 273.666 408.353 273.434V269.75ZM409.463 273.502C409.463 274.004 409.684 274.196 410.032 274.196C410.379 274.196 410.61 274.004 410.61 273.502V269.644C410.61 269.142 410.389 268.949 410.032 268.949C409.675 268.949 409.463 269.142 409.463 269.644V273.502Z" fill="#263238"/>
<path d="M409.086 279.049C409.365 279.084 409.646 279.011 409.874 278.847C410.101 278.682 410.257 278.437 410.311 278.162H411.054V285.232H409.945V279.84H409.086V279.049Z" fill="#263238"/>
<path d="M409.086 289.147C409.365 289.184 409.648 289.113 409.876 288.948C410.104 288.783 410.259 288.536 410.311 288.26H411.054V295.33H409.945V289.938H409.086V289.147Z" fill="#263238"/>
<path d="M409.086 299.256C409.365 299.291 409.646 299.218 409.874 299.054C410.101 298.889 410.257 298.644 410.311 298.369H411.054V305.429H409.945V300.037H409.086V299.256Z" fill="#263238"/>
<path d="M408.353 310.164C408.336 309.932 408.366 309.699 408.443 309.48C408.52 309.26 408.641 309.059 408.799 308.889C408.957 308.718 409.148 308.582 409.361 308.489C409.574 308.396 409.804 308.349 410.037 308.349C410.269 308.349 410.499 308.396 410.712 308.489C410.925 308.582 411.116 308.718 411.274 308.889C411.432 309.059 411.553 309.26 411.63 309.48C411.707 309.699 411.737 309.932 411.72 310.164V313.839C411.737 314.071 411.707 314.303 411.63 314.523C411.553 314.742 411.432 314.943 411.274 315.114C411.116 315.284 410.925 315.42 410.712 315.513C410.499 315.606 410.269 315.654 410.037 315.654C409.804 315.654 409.574 315.606 409.361 315.513C409.148 315.42 408.957 315.284 408.799 315.114C408.641 314.943 408.52 314.742 408.443 314.523C408.366 314.303 408.336 314.071 408.353 313.839V310.164ZM409.463 313.906C409.463 314.417 409.684 314.601 410.032 314.601C410.379 314.601 410.61 314.417 410.61 313.906V310.096C410.61 309.585 410.389 309.392 410.032 309.392C409.675 309.392 409.463 309.585 409.463 310.096V313.906Z" fill="#263238"/>
<path d="M408.353 320.262C408.336 320.03 408.366 319.798 408.443 319.578C408.52 319.359 408.641 319.158 408.799 318.987C408.957 318.817 409.148 318.681 409.361 318.588C409.574 318.495 409.804 318.447 410.037 318.447C410.269 318.447 410.499 318.495 410.712 318.588C410.925 318.681 411.116 318.817 411.274 318.987C411.432 319.158 411.553 319.359 411.63 319.578C411.707 319.798 411.737 320.03 411.72 320.262V323.937C411.737 324.169 411.707 324.402 411.63 324.621C411.553 324.84 411.432 325.042 411.274 325.212C411.116 325.383 410.925 325.519 410.712 325.611C410.499 325.704 410.269 325.752 410.037 325.752C409.804 325.752 409.574 325.704 409.361 325.611C409.148 325.519 408.957 325.383 408.799 325.212C408.641 325.042 408.52 324.84 408.443 324.621C408.366 324.402 408.336 324.169 408.353 323.937V320.262ZM409.463 324.014C409.463 324.516 409.684 324.709 410.032 324.709C410.379 324.709 410.61 324.516 410.61 324.014V320.156C410.61 319.655 410.389 319.462 410.032 319.462C409.675 319.462 409.463 319.655 409.463 320.156V324.014Z" fill="#263238"/>
<path d="M397.117 258.842C397.396 258.877 397.677 258.804 397.904 258.64C398.132 258.475 398.288 258.23 398.342 257.955H399.085V265.025H397.976V259.633H397.117V258.842Z" fill="#263238"/>
<path d="M396.335 269.751C396.335 269.304 396.513 268.874 396.83 268.558C397.146 268.241 397.575 268.063 398.023 268.063C398.471 268.063 398.9 268.241 399.217 268.558C399.533 268.874 399.711 269.304 399.711 269.751V273.436C399.711 273.884 399.533 274.313 399.217 274.629C398.9 274.946 398.471 275.124 398.023 275.124C397.575 275.124 397.146 274.946 396.83 274.629C396.513 274.313 396.335 273.884 396.335 273.436V269.751ZM397.444 273.503C397.444 274.005 397.666 274.198 398.023 274.198C398.38 274.198 398.602 274.005 398.602 273.503V269.645C398.602 269.144 398.38 268.951 398.023 268.951C397.666 268.951 397.444 269.144 397.444 269.645V273.503Z" fill="#263238"/>
<path d="M396.335 279.86C396.335 279.412 396.513 278.983 396.83 278.667C397.146 278.35 397.575 278.172 398.023 278.172C398.471 278.172 398.9 278.35 399.217 278.667C399.533 278.983 399.711 279.412 399.711 279.86V283.506C399.711 283.954 399.533 284.383 399.217 284.7C398.9 285.016 398.471 285.194 398.023 285.194C397.575 285.194 397.146 285.016 396.83 284.7C396.513 284.383 396.335 283.954 396.335 283.506V279.86ZM397.444 283.603C397.444 284.114 397.666 284.297 398.023 284.297C398.38 284.297 398.602 284.114 398.602 283.603V279.744C398.602 279.233 398.38 279.04 398.023 279.04C397.666 279.04 397.444 279.233 397.444 279.744V283.603Z" fill="#263238"/>
<path d="M397.117 289.147C397.396 289.184 397.679 289.113 397.907 288.948C398.134 288.783 398.29 288.536 398.342 288.26H399.085V295.33H397.976V289.938H397.117V289.147Z" fill="#263238"/>
<path d="M397.117 309.354C397.396 309.389 397.677 309.316 397.904 309.152C398.132 308.987 398.288 308.742 398.342 308.467H399.085V315.537H397.976V310.145H397.117V309.354Z" fill="#263238"/>
<path d="M397.117 319.462C397.397 319.496 397.68 319.423 397.907 319.256C398.135 319.089 398.29 318.842 398.342 318.565H399.085V325.635H397.976V320.243H397.117V319.462Z" fill="#263238"/>
<path d="M397.117 329.561C397.396 329.596 397.677 329.523 397.904 329.359C398.132 329.194 398.288 328.949 398.342 328.674H399.085V335.734H397.976V330.352H397.117V329.561Z" fill="#263238"/>
<path d="M390.336 229.347C390.319 229.115 390.349 228.882 390.426 228.663C390.503 228.443 390.624 228.242 390.782 228.071C390.94 227.901 391.131 227.765 391.344 227.672C391.557 227.579 391.787 227.531 392.02 227.531C392.252 227.531 392.482 227.579 392.695 227.672C392.908 227.765 393.099 227.901 393.257 228.071C393.415 228.242 393.536 228.443 393.613 228.663C393.69 228.882 393.72 229.115 393.703 229.347V233.021C393.72 233.253 393.69 233.486 393.613 233.705C393.536 233.925 393.415 234.126 393.257 234.296C393.099 234.467 392.908 234.603 392.695 234.696C392.482 234.789 392.252 234.837 392.02 234.837C391.787 234.837 391.557 234.789 391.344 234.696C391.131 234.603 390.94 234.467 390.782 234.296C390.624 234.126 390.503 233.925 390.426 233.705C390.349 233.486 390.319 233.253 390.336 233.021V229.347ZM391.446 233.099C391.446 233.6 391.667 233.793 392.015 233.793C392.362 233.793 392.593 233.6 392.593 233.099V229.24C392.593 228.729 392.372 228.546 392.015 228.546C391.658 228.546 391.446 228.729 391.446 229.24V233.099Z" fill="#263238"/>
<path d="M390.336 249.554C390.319 249.322 390.349 249.089 390.426 248.87C390.503 248.65 390.624 248.449 390.782 248.278C390.94 248.108 391.131 247.972 391.344 247.879C391.557 247.786 391.787 247.738 392.02 247.738C392.252 247.738 392.482 247.786 392.695 247.879C392.908 247.972 393.099 248.108 393.257 248.278C393.415 248.449 393.536 248.65 393.613 248.87C393.69 249.089 393.72 249.322 393.703 249.554V253.228C393.72 253.46 393.69 253.693 393.613 253.912C393.536 254.132 393.415 254.333 393.257 254.504C393.099 254.674 392.908 254.81 392.695 254.903C392.482 254.996 392.252 255.044 392.02 255.044C391.787 255.044 391.557 254.996 391.344 254.903C391.131 254.81 390.94 254.674 390.782 254.504C390.624 254.333 390.503 254.132 390.426 253.912C390.349 253.693 390.319 253.46 390.336 253.228V249.554ZM391.446 253.296C391.446 253.807 391.667 253.99 392.015 253.99C392.362 253.99 392.593 253.807 392.593 253.296V249.438C392.593 248.936 392.372 248.743 392.015 248.743C391.658 248.743 391.446 248.936 391.446 249.438V253.296Z" fill="#263238"/>
<path d="M391.107 279.049C391.386 279.084 391.667 279.011 391.895 278.847C392.122 278.682 392.278 278.437 392.332 278.162H393.075V285.232H391.966V279.84H391.107V279.049Z" fill="#263238"/>
<path d="M391.107 289.147C391.386 289.184 391.669 289.113 391.897 288.948C392.125 288.783 392.281 288.536 392.332 288.26H393.075V295.33H391.966V289.938H391.107V289.147Z" fill="#263238"/>
<path d="M391.107 319.462C391.387 319.496 391.67 319.423 391.897 319.256C392.125 319.089 392.281 318.842 392.332 318.565H393.075V325.635H391.966V320.243H391.107V319.462Z" fill="#263238"/>
<path d="M390.336 330.371C390.319 330.139 390.349 329.906 390.426 329.687C390.503 329.467 390.624 329.266 390.782 329.096C390.94 328.925 391.131 328.789 391.344 328.696C391.557 328.603 391.787 328.555 392.02 328.555C392.252 328.555 392.482 328.603 392.695 328.696C392.908 328.789 393.099 328.925 393.257 329.096C393.415 329.266 393.536 329.467 393.613 329.687C393.69 329.906 393.72 330.139 393.703 330.371V334.046C393.72 334.277 393.69 334.51 393.613 334.73C393.536 334.949 393.415 335.15 393.257 335.321C393.099 335.491 392.908 335.627 392.695 335.72C392.482 335.813 392.252 335.861 392.02 335.861C391.787 335.861 391.557 335.813 391.344 335.72C391.131 335.627 390.94 335.491 390.782 335.321C390.624 335.15 390.503 334.949 390.426 334.73C390.349 334.51 390.319 334.277 390.336 334.046V330.371ZM391.446 334.113C391.446 334.615 391.667 334.808 392.015 334.808C392.362 334.808 392.593 334.615 392.593 334.113V330.255C392.593 329.754 392.372 329.561 392.015 329.561C391.658 329.561 391.446 329.754 391.446 330.255V334.113Z" fill="#263238"/>
<path d="M391.107 339.659C391.386 339.694 391.667 339.622 391.895 339.457C392.122 339.292 392.278 339.048 392.332 338.772H393.075V345.842H391.966V340.412H391.107V339.659Z" fill="#263238"/>
<path d="M141.652 240.101C141.652 239.654 141.83 239.225 142.146 238.908C142.463 238.591 142.892 238.414 143.34 238.414C143.788 238.414 144.217 238.591 144.533 238.908C144.85 239.225 145.028 239.654 145.028 240.101V243.776C145.028 244.224 144.85 244.653 144.533 244.97C144.217 245.286 143.788 245.464 143.34 245.464C142.892 245.464 142.463 245.286 142.146 244.97C141.83 244.653 141.652 244.224 141.652 243.776V240.101ZM142.761 243.844C142.761 244.355 142.983 244.548 143.34 244.548C143.697 244.548 143.909 244.355 143.909 243.844V239.986C143.909 239.475 143.687 239.282 143.34 239.282C142.993 239.282 142.761 239.475 142.761 239.986V243.844Z" fill="#263238"/>
<path d="M141.652 250.229C141.652 249.782 141.83 249.352 142.146 249.036C142.463 248.719 142.892 248.542 143.34 248.542C143.788 248.542 144.217 248.719 144.533 249.036C144.85 249.352 145.028 249.782 145.028 250.229V253.904C145.028 254.352 144.85 254.781 144.533 255.098C144.217 255.414 143.788 255.592 143.34 255.592C142.892 255.592 142.463 255.414 142.146 255.098C141.83 254.781 141.652 254.352 141.652 253.904V250.229ZM142.761 253.981C142.761 254.483 142.983 254.676 143.34 254.676C143.697 254.676 143.909 254.483 143.909 253.981V250.123C143.909 249.622 143.687 249.429 143.34 249.429C142.993 249.429 142.761 249.622 142.761 250.123V253.981Z" fill="#263238"/>
<path d="M142.434 259.527C142.712 259.561 142.992 259.489 143.217 259.324C143.443 259.159 143.598 258.914 143.649 258.64H144.402V265.71H143.293V260.357H142.434V259.527Z" fill="#263238"/>
<path d="M141.652 270.436C141.652 269.989 141.83 269.559 142.146 269.243C142.463 268.926 142.892 268.748 143.34 268.748C143.788 268.748 144.217 268.926 144.533 269.243C144.85 269.559 145.028 269.989 145.028 270.436V274.111C145.028 274.559 144.85 274.988 144.533 275.305C144.217 275.621 143.788 275.799 143.34 275.799C142.892 275.799 142.463 275.621 142.146 275.305C141.83 274.988 141.652 274.559 141.652 274.111V270.436ZM142.761 274.179C142.761 274.69 142.983 274.883 143.34 274.883C143.697 274.883 143.909 274.69 143.909 274.179V270.369C143.909 269.858 143.687 269.665 143.34 269.665C142.993 269.665 142.761 269.858 142.761 270.369V274.179Z" fill="#263238"/>
<path d="M142.434 279.734C142.712 279.768 142.992 279.696 143.217 279.531C143.443 279.366 143.598 279.121 143.649 278.847H144.402V285.907H143.293V280.515H142.434V279.734Z" fill="#263238"/>
<path d="M141.652 290.643C141.652 290.196 141.83 289.766 142.146 289.45C142.463 289.133 142.892 288.955 143.34 288.955C143.788 288.955 144.217 289.133 144.533 289.45C144.85 289.766 145.028 290.196 145.028 290.643V294.318C145.028 294.766 144.85 295.195 144.533 295.512C144.217 295.828 143.788 296.006 143.34 296.006C142.892 296.006 142.463 295.828 142.146 295.512C141.83 295.195 141.652 294.766 141.652 294.318V290.643ZM142.761 294.386C142.761 294.887 142.983 295.08 143.34 295.08C143.697 295.08 143.909 294.887 143.909 294.386V290.528C143.909 290.026 143.687 289.833 143.34 289.833C142.993 289.833 142.761 290.026 142.761 290.528V294.386Z" fill="#263238"/>
<path d="M142.434 299.903C142.712 299.937 142.992 299.864 143.217 299.7C143.443 299.535 143.598 299.29 143.649 299.016H144.402V306.085H143.293V300.694H142.434V299.903Z" fill="#263238"/>
<path d="M141.652 310.84C141.652 310.392 141.83 309.963 142.146 309.646C142.463 309.33 142.892 309.152 143.34 309.152C143.788 309.152 144.217 309.33 144.533 309.646C144.85 309.963 145.028 310.392 145.028 310.84V314.515C145.028 314.962 144.85 315.392 144.533 315.708C144.217 316.025 143.788 316.203 143.34 316.203C142.892 316.203 142.463 316.025 142.146 315.708C141.83 315.392 141.652 314.962 141.652 314.515V310.84ZM142.761 314.592C142.761 315.093 142.983 315.286 143.34 315.286C143.697 315.286 143.909 315.093 143.909 314.592V310.734C143.909 310.232 143.687 310.039 143.34 310.039C142.993 310.039 142.761 310.232 142.761 310.734V314.592Z" fill="#263238"/>
<path d="M141.652 320.949C141.652 320.501 141.83 320.072 142.146 319.755C142.463 319.438 142.892 319.261 143.34 319.261C143.788 319.261 144.217 319.438 144.533 319.755C144.85 320.072 145.028 320.501 145.028 320.949V324.623C145.028 325.071 144.85 325.5 144.533 325.817C144.217 326.133 143.788 326.311 143.34 326.311C142.892 326.311 142.463 326.133 142.146 325.817C141.83 325.5 141.652 325.071 141.652 324.623V320.949ZM142.761 324.691C142.761 325.192 142.983 325.385 143.34 325.385C143.697 325.385 143.909 325.192 143.909 324.691V320.833C143.909 320.331 143.687 320.138 143.34 320.138C142.993 320.138 142.761 320.331 142.761 320.833V324.691Z" fill="#263238"/>
<path d="M141.652 331.047C141.652 330.599 141.83 330.17 142.146 329.853C142.463 329.537 142.892 329.359 143.34 329.359C143.788 329.359 144.217 329.537 144.533 329.853C144.85 330.17 145.028 330.599 145.028 331.047V334.722C145.028 335.169 144.85 335.599 144.533 335.915C144.217 336.232 143.788 336.409 143.34 336.409C142.892 336.409 142.463 336.232 142.146 335.915C141.83 335.599 141.652 335.169 141.652 334.722V331.047ZM142.761 334.789C142.761 335.3 142.983 335.493 143.34 335.493C143.697 335.493 143.909 335.3 143.909 334.789V330.979C143.909 330.468 143.687 330.285 143.34 330.285C142.993 330.285 142.761 330.468 142.761 330.979V334.789Z" fill="#263238"/>
<path d="M142.434 340.344C142.712 340.379 142.992 340.306 143.217 340.141C143.443 339.976 143.598 339.732 143.649 339.457H144.402V346.517H143.293V341.126H142.434V340.344Z" fill="#263238"/>
<path d="M142.434 350.443C142.712 350.477 142.992 350.404 143.217 350.239C143.443 350.074 143.598 349.83 143.649 349.555H144.402V356.625H143.293V351.233H142.434V350.443Z" fill="#263238"/>
<path d="M142.434 360.543C142.712 360.577 142.992 360.504 143.217 360.34C143.443 360.175 143.598 359.93 143.649 359.656H144.402V366.725H143.293V361.334H142.434V360.543Z" fill="#263238"/>
<path d="M142.434 370.65C142.712 370.684 142.992 370.611 143.217 370.446C143.443 370.282 143.598 370.037 143.649 369.762H144.402V376.823H143.293V371.431H142.434V370.65Z" fill="#263238"/>
<path d="M142.762 385.301C142.762 385.812 142.984 385.995 143.341 385.995C143.697 385.995 143.91 385.812 143.91 385.301V381.443C143.91 380.941 143.688 380.748 143.341 380.748C142.993 380.748 142.762 380.941 142.762 381.443V385.301Z" fill="#263238"/>
<path d="M148.433 279.734C148.712 279.769 148.993 279.696 149.221 279.532C149.448 279.367 149.604 279.122 149.658 278.847H150.401V285.907H149.292V280.515H148.433V279.734Z" fill="#263238"/>
<path d="M148.433 289.832C148.712 289.867 148.993 289.794 149.221 289.63C149.448 289.465 149.604 289.22 149.658 288.945H150.401V296.044H149.292V290.652H148.433V289.832Z" fill="#263238"/>
<path d="M147.701 310.84C147.683 310.609 147.713 310.376 147.79 310.156C147.867 309.937 147.988 309.736 148.146 309.565C148.304 309.395 148.495 309.259 148.708 309.166C148.921 309.073 149.151 309.025 149.384 309.025C149.616 309.025 149.846 309.073 150.059 309.166C150.272 309.259 150.463 309.395 150.621 309.565C150.779 309.736 150.901 309.937 150.977 310.156C151.054 310.376 151.084 310.609 151.067 310.84V314.515C151.084 314.747 151.054 314.98 150.977 315.199C150.901 315.419 150.779 315.62 150.621 315.79C150.463 315.961 150.272 316.097 150.059 316.19C149.846 316.283 149.616 316.331 149.384 316.331C149.151 316.331 148.921 316.283 148.708 316.19C148.495 316.097 148.304 315.961 148.146 315.79C147.988 315.62 147.867 315.419 147.79 315.199C147.713 314.98 147.683 314.747 147.701 314.515V310.84ZM148.81 314.592C148.81 315.094 149.032 315.287 149.379 315.287C149.726 315.287 149.958 315.094 149.958 314.592V310.734C149.958 310.233 149.736 310.04 149.379 310.04C149.022 310.04 148.81 310.233 148.81 310.734V314.592Z" fill="#263238"/>
<path d="M148.433 320.156C148.712 320.191 148.993 320.119 149.221 319.954C149.448 319.789 149.604 319.544 149.658 319.269H150.401V326.339H149.292V320.928H148.433V320.156Z" fill="#263238"/>
<path d="M147.701 331.045C147.683 330.814 147.713 330.581 147.79 330.361C147.867 330.142 147.988 329.941 148.146 329.77C148.304 329.6 148.495 329.464 148.708 329.371C148.921 329.278 149.151 329.23 149.384 329.23C149.616 329.23 149.846 329.278 150.059 329.371C150.272 329.464 150.463 329.6 150.621 329.77C150.779 329.941 150.901 330.142 150.977 330.361C151.054 330.581 151.084 330.814 151.067 331.045V334.72C151.084 334.952 151.054 335.185 150.977 335.404C150.901 335.624 150.779 335.825 150.621 335.995C150.463 336.166 150.272 336.302 150.059 336.395C149.846 336.488 149.616 336.536 149.384 336.536C149.151 336.536 148.921 336.488 148.708 336.395C148.495 336.302 148.304 336.166 148.146 335.995C147.988 335.825 147.867 335.624 147.79 335.404C147.713 335.185 147.683 334.952 147.701 334.72V331.045ZM148.81 334.788C148.81 335.299 149.032 335.492 149.379 335.492C149.726 335.492 149.958 335.299 149.958 334.788V330.978C149.958 330.467 149.736 330.283 149.379 330.283C149.022 330.283 148.81 330.467 148.81 330.978V334.788Z" fill="#263238"/>
<path d="M148.77 354.996C148.77 355.497 148.991 355.69 149.339 355.69C149.686 355.69 149.917 355.497 149.917 354.996V351.137C149.917 350.636 149.696 350.443 149.339 350.443C148.982 350.443 148.77 350.636 148.77 351.137V354.996Z" fill="#263238"/>
<path d="M148.433 360.541C148.7 360.57 148.969 360.501 149.188 360.346C149.408 360.192 149.565 359.963 149.629 359.702H150.372V366.772H149.262V361.38H148.404L148.433 360.541Z" fill="#263238"/>
<path d="M148.433 370.65C148.712 370.684 148.993 370.612 149.221 370.447C149.448 370.282 149.604 370.038 149.658 369.762H150.401V376.823H149.292V371.431H148.433V370.65Z" fill="#263238"/>
<path d="M147.701 401.756C147.683 401.524 147.713 401.291 147.79 401.072C147.867 400.853 147.988 400.651 148.146 400.481C148.304 400.31 148.495 400.174 148.708 400.082C148.921 399.989 149.151 399.941 149.384 399.941C149.616 399.941 149.846 399.989 150.059 400.082C150.272 400.174 150.463 400.31 150.621 400.481C150.779 400.651 150.901 400.853 150.977 401.072C151.054 401.291 151.084 401.524 151.067 401.756V405.44C151.084 405.672 151.054 405.905 150.977 406.124C150.901 406.344 150.779 406.545 150.621 406.716C150.463 406.886 150.272 407.022 150.059 407.115C149.846 407.208 149.616 407.256 149.384 407.256C149.151 407.256 148.921 407.208 148.708 407.115C148.495 407.022 148.304 406.886 148.146 406.716C147.988 406.545 147.867 406.344 147.79 406.124C147.713 405.905 147.683 405.672 147.701 405.44V401.756ZM148.81 405.508C148.81 406.01 149.032 406.202 149.379 406.202C149.726 406.202 149.958 406.01 149.958 405.508V401.65C149.958 401.148 149.736 400.955 149.379 400.955C149.022 400.955 148.81 401.148 148.81 401.65V405.508Z" fill="#263238"/>
<path d="M135.644 270.436C135.644 269.989 135.822 269.559 136.139 269.243C136.455 268.926 136.884 268.748 137.332 268.748C137.78 268.748 138.209 268.926 138.526 269.243C138.842 269.559 139.02 269.989 139.02 270.436V274.111C139.02 274.559 138.842 274.988 138.526 275.305C138.209 275.621 137.78 275.799 137.332 275.799C136.884 275.799 136.455 275.621 136.139 275.305C135.822 274.988 135.644 274.559 135.644 274.111V270.436ZM136.753 274.179C136.753 274.69 136.975 274.883 137.332 274.883C137.689 274.883 137.911 274.69 137.911 274.179V270.369C137.911 269.858 137.689 269.665 137.332 269.665C136.975 269.665 136.753 269.858 136.753 270.369V274.179Z" fill="#263238"/>
<path d="M136.424 279.734C136.703 279.769 136.984 279.696 137.211 279.532C137.439 279.367 137.595 279.122 137.649 278.847H138.392V285.907H137.283V280.515H136.424V279.734Z" fill="#263238"/>
<path d="M136.424 289.832C136.703 289.867 136.984 289.794 137.211 289.63C137.439 289.465 137.595 289.22 137.649 288.945H138.392V296.044H137.283V290.652H136.424V289.832Z" fill="#263238"/>
<path d="M135.644 300.742C135.644 300.294 135.822 299.865 136.139 299.548C136.455 299.231 136.884 299.054 137.332 299.054C137.78 299.054 138.209 299.231 138.526 299.548C138.842 299.865 139.02 300.294 139.02 300.742V304.416C139.02 304.864 138.842 305.293 138.526 305.61C138.209 305.926 137.78 306.104 137.332 306.104C136.884 306.104 136.455 305.926 136.139 305.61C135.822 305.293 135.644 304.864 135.644 304.416V300.742ZM136.753 304.484C136.753 304.995 136.975 305.188 137.332 305.188C137.689 305.188 137.911 304.995 137.911 304.484V300.674C137.911 300.163 137.689 299.97 137.332 299.97C136.975 299.97 136.753 300.163 136.753 300.674V304.484Z" fill="#263238"/>
<path d="M135.644 320.949C135.644 320.501 135.822 320.072 136.139 319.755C136.455 319.438 136.884 319.261 137.332 319.261C137.78 319.261 138.209 319.438 138.526 319.755C138.842 320.072 139.02 320.501 139.02 320.949V324.623C139.02 325.071 138.842 325.5 138.526 325.817C138.209 326.133 137.78 326.311 137.332 326.311C136.884 326.311 136.455 326.133 136.139 325.817C135.822 325.5 135.644 325.071 135.644 324.623V320.949ZM136.753 324.691C136.753 325.192 136.975 325.385 137.332 325.385C137.689 325.385 137.911 325.192 137.911 324.691V320.833C137.911 320.331 137.689 320.138 137.332 320.138C136.975 320.138 136.753 320.331 136.753 320.833V324.691Z" fill="#263238"/>
<path d="M135.644 331.047C135.644 330.599 135.822 330.17 136.139 329.853C136.455 329.537 136.884 329.359 137.332 329.359C137.78 329.359 138.209 329.537 138.526 329.853C138.842 330.17 139.02 330.599 139.02 331.047V334.722C139.02 335.169 138.842 335.599 138.526 335.915C138.209 336.232 137.78 336.409 137.332 336.409C136.884 336.409 136.455 336.232 136.139 335.915C135.822 335.599 135.644 335.169 135.644 334.722V331.047ZM136.753 334.789C136.753 335.3 136.975 335.493 137.332 335.493C137.689 335.493 137.911 335.3 137.911 334.789V330.979C137.911 330.468 137.689 330.285 137.332 330.285C136.975 330.285 136.753 330.468 136.753 330.979V334.789Z" fill="#263238"/>
<path d="M136.424 340.344C136.703 340.379 136.984 340.307 137.211 340.142C137.439 339.977 137.595 339.732 137.649 339.457H138.392V346.517H137.283V341.126H136.424V340.344Z" fill="#263238"/>
<path d="M135.644 351.254C135.644 350.806 135.822 350.377 136.139 350.06C136.455 349.744 136.884 349.566 137.332 349.566C137.78 349.566 138.209 349.744 138.526 350.06C138.842 350.377 139.02 350.806 139.02 351.254V354.929C139.02 355.376 138.842 355.806 138.526 356.122C138.209 356.439 137.78 356.616 137.332 356.616C136.884 356.616 136.455 356.439 136.139 356.122C135.822 355.806 135.644 355.376 135.644 354.929V351.254ZM136.753 354.996C136.753 355.498 136.975 355.691 137.332 355.691C137.689 355.691 137.911 355.498 137.911 354.996V351.138C137.911 350.636 137.689 350.444 137.332 350.444C136.975 350.444 136.753 350.636 136.753 351.138V354.996Z" fill="#263238"/>
<path d="M136.424 360.543C136.703 360.577 136.984 360.505 137.211 360.34C137.439 360.176 137.595 359.931 137.649 359.656H138.392V366.725H137.283V361.334H136.424V360.543Z" fill="#263238"/>
<path d="M129.643 250.23C129.626 249.998 129.656 249.765 129.733 249.546C129.81 249.327 129.931 249.125 130.089 248.955C130.247 248.784 130.438 248.649 130.651 248.556C130.864 248.463 131.094 248.415 131.326 248.415C131.559 248.415 131.789 248.463 132.002 248.556C132.215 248.649 132.406 248.784 132.564 248.955C132.722 249.125 132.843 249.327 132.92 249.546C132.997 249.765 133.027 249.998 133.01 250.23V253.905C133.027 254.137 132.997 254.369 132.92 254.589C132.843 254.808 132.722 255.009 132.564 255.18C132.406 255.35 132.215 255.486 132.002 255.579C131.789 255.672 131.559 255.72 131.326 255.72C131.094 255.72 130.864 255.672 130.651 255.579C130.438 255.486 130.247 255.35 130.089 255.18C129.931 255.009 129.81 254.808 129.733 254.589C129.656 254.369 129.626 254.137 129.643 253.905V250.23ZM130.753 253.982C130.753 254.484 130.974 254.676 131.322 254.676C131.669 254.676 131.9 254.484 131.9 253.982V250.124C131.9 249.622 131.679 249.429 131.322 249.429C130.965 249.429 130.753 249.622 130.753 250.124V253.982Z" fill="#263238"/>
<path d="M130.417 269.625C130.695 269.66 130.976 269.587 131.204 269.423C131.431 269.258 131.587 269.013 131.641 268.738H132.384V275.788H131.304V270.397H130.445L130.417 269.625Z" fill="#263238"/>
<path d="M130.417 289.832C130.695 289.867 130.976 289.794 131.204 289.63C131.431 289.465 131.587 289.22 131.641 288.945H132.384V296.044H131.304V290.652H130.445L130.417 289.832Z" fill="#263238"/>
<path d="M129.643 300.742C129.626 300.51 129.656 300.278 129.733 300.058C129.81 299.839 129.931 299.638 130.089 299.467C130.247 299.297 130.438 299.161 130.651 299.068C130.864 298.975 131.094 298.927 131.326 298.927C131.559 298.927 131.789 298.975 132.002 299.068C132.215 299.161 132.406 299.297 132.564 299.467C132.722 299.638 132.843 299.839 132.92 300.058C132.997 300.278 133.027 300.51 133.01 300.742V304.417C133.027 304.649 132.997 304.882 132.92 305.101C132.843 305.32 132.722 305.522 132.564 305.692C132.406 305.863 132.215 305.999 132.002 306.092C131.789 306.184 131.559 306.232 131.326 306.232C131.094 306.232 130.864 306.184 130.651 306.092C130.438 305.999 130.247 305.863 130.089 305.692C129.931 305.522 129.81 305.32 129.733 305.101C129.656 304.882 129.626 304.649 129.643 304.417V300.742ZM130.753 304.494C130.753 304.996 130.974 305.189 131.322 305.189C131.669 305.189 131.9 304.996 131.9 304.494V300.636C131.9 300.125 131.679 299.942 131.322 299.942C130.965 299.942 130.753 300.125 130.753 300.636V304.494Z" fill="#263238"/>
<path d="M130.417 330.236C130.695 330.27 130.976 330.198 131.204 330.033C131.431 329.868 131.587 329.624 131.641 329.348H132.384V336.418H131.304V331.026H130.445L130.417 330.236Z" fill="#263238"/>
<path d="M130.417 340.344C130.695 340.379 130.976 340.307 131.204 340.142C131.431 339.977 131.587 339.732 131.641 339.457H132.384V346.517H131.304V341.126H130.445L130.417 340.344Z" fill="#263238"/>
<path d="M130.417 350.443C130.695 350.477 130.976 350.405 131.204 350.24C131.431 350.075 131.587 349.831 131.641 349.555H132.384V356.625H131.304V351.233H130.445L130.417 350.443Z" fill="#263238"/>
<path d="M318.528 7.27422C318.528 6.82656 318.706 6.39723 319.022 6.08068C319.339 5.76414 319.768 5.5863 320.216 5.5863C320.664 5.5863 321.093 5.76414 321.41 6.08068C321.726 6.39723 321.904 6.82656 321.904 7.27422V10.9491C321.904 11.3967 321.726 11.8261 321.41 12.1426C321.093 12.4592 320.664 12.637 320.216 12.637C319.768 12.637 319.339 12.4592 319.022 12.1426C318.706 11.8261 318.528 11.3967 318.528 10.9491V7.27422ZM319.637 11.0166C319.637 11.5181 319.859 11.711 320.216 11.711C320.573 11.711 320.785 11.5181 320.785 11.0166V7.15848C320.785 6.65693 320.563 6.46402 320.216 6.46402C319.869 6.46402 319.637 6.65693 319.637 7.15848V11.0166Z" fill="#263238"/>
<path d="M318.528 17.3724C318.528 16.9248 318.706 16.4954 319.022 16.1789C319.339 15.8623 319.768 15.6845 320.216 15.6845C320.664 15.6845 321.093 15.8623 321.41 16.1789C321.726 16.4954 321.904 16.9248 321.904 17.3724V21.0473C321.904 21.4949 321.726 21.9243 321.41 22.2408C321.093 22.5574 320.664 22.7352 320.216 22.7352C319.768 22.7352 319.339 22.5574 319.022 22.2408C318.706 21.9243 318.528 21.4949 318.528 21.0473V17.3724ZM319.637 21.1534C319.637 21.6646 319.859 21.8575 320.216 21.8575C320.573 21.8575 320.785 21.6646 320.785 21.1534V17.2953C320.785 16.7841 320.563 16.5912 320.216 16.5912C319.869 16.5912 319.637 16.7841 319.637 17.2953V21.1534Z" fill="#263238"/>
<path d="M319.308 46.8686C319.586 46.9029 319.866 46.8302 320.091 46.6654C320.317 46.5006 320.472 46.2559 320.523 45.9813H321.314V53.0512H320.205V47.6595H319.347L319.308 46.8686Z" fill="#263238"/>
<path d="M319.308 56.9753C319.586 57.0095 319.866 56.9369 320.091 56.772C320.317 56.6072 320.472 56.3626 320.523 56.0879H321.314V63.1482H320.205V57.8047H319.347L319.308 56.9753Z" fill="#263238"/>
<path d="M318.528 88.0831C318.528 87.6355 318.706 87.2061 319.022 86.8896C319.339 86.573 319.768 86.3952 320.216 86.3952C320.664 86.3952 321.093 86.573 321.41 86.8896C321.726 87.2061 321.904 87.6355 321.904 88.0831V91.758C321.904 92.2056 321.726 92.635 321.41 92.9515C321.093 93.2681 320.664 93.4459 320.216 93.4459C319.768 93.4459 319.339 93.2681 319.022 92.9515C318.706 92.635 318.528 92.2056 318.528 91.758V88.0831ZM319.637 91.8351C319.637 92.3367 319.859 92.5296 320.216 92.5296C320.573 92.5296 320.785 92.3367 320.785 91.8351V87.977C320.785 87.4755 320.563 87.2826 320.216 87.2826C319.869 87.2826 319.637 87.4755 319.637 87.977V91.8351Z" fill="#263238"/>
<path d="M318.528 108.288C318.528 107.84 318.706 107.411 319.022 107.094C319.339 106.778 319.768 106.6 320.216 106.6C320.664 106.6 321.093 106.778 321.41 107.094C321.726 107.411 321.904 107.84 321.904 108.288V111.963C321.904 112.41 321.726 112.84 321.41 113.156C321.093 113.473 320.664 113.651 320.216 113.651C319.768 113.651 319.339 113.473 319.022 113.156C318.706 112.84 318.528 112.41 318.528 111.963V108.288ZM319.637 112.03C319.637 112.542 319.859 112.734 320.216 112.734C320.573 112.734 320.785 112.542 320.785 112.03V108.22C320.785 107.709 320.563 107.526 320.216 107.526C319.869 107.526 319.637 107.709 319.637 108.22V112.03Z" fill="#263238"/>
<path d="M300.511 27.4706C300.511 27.023 300.689 26.5936 301.005 26.2771C301.322 25.9606 301.751 25.7827 302.199 25.7827C302.647 25.7827 303.076 25.9606 303.393 26.2771C303.709 26.5936 303.887 27.023 303.887 27.4706V31.1455C303.887 31.5931 303.709 32.0225 303.393 32.339C303.076 32.6556 302.647 32.8334 302.199 32.8334C301.751 32.8334 301.322 32.6556 301.005 32.339C300.689 32.0225 300.511 31.5931 300.511 31.1455V27.4706ZM301.62 31.2226C301.62 31.7242 301.842 31.9171 302.199 31.9171C302.556 31.9171 302.768 31.7242 302.768 31.2226V27.3645C302.768 26.863 302.546 26.6701 302.199 26.6701C301.852 26.6701 301.62 26.863 301.62 27.3645V31.2226Z" fill="#263238"/>
<path d="M300.511 37.5519C300.511 37.1043 300.689 36.6749 301.005 36.3584C301.322 36.0418 301.751 35.864 302.199 35.864C302.647 35.864 303.076 36.0418 303.393 36.3584C303.709 36.6749 303.887 37.1043 303.887 37.5519V41.2268C303.887 41.6744 303.709 42.1038 303.393 42.4203C303.076 42.7369 302.647 42.9147 302.199 42.9147C301.751 42.9147 301.322 42.7369 301.005 42.4203C300.689 42.1038 300.511 41.6744 300.511 41.2268V37.5519ZM301.62 41.2943C301.62 41.7958 301.842 41.9888 302.199 41.9888C302.556 41.9888 302.768 41.7958 302.768 41.2943V37.5519C302.768 37.0504 302.546 36.8575 302.199 36.8575C301.852 36.8575 301.62 37.0504 301.62 37.5519V41.2943Z" fill="#263238"/>
<path d="M300.511 47.6776C300.511 47.2299 300.689 46.8006 301.005 46.4841C301.322 46.1675 301.751 45.9897 302.199 45.9897C302.647 45.9897 303.076 46.1675 303.393 46.4841C303.709 46.8006 303.887 47.2299 303.887 47.6776V51.3524C303.887 51.8001 303.709 52.2294 303.393 52.546C303.076 52.8625 302.647 53.0404 302.199 53.0404C301.751 53.0404 301.322 52.8625 301.005 52.546C300.689 52.2294 300.511 51.8001 300.511 51.3524V47.6776ZM301.62 51.42C301.62 51.9312 301.842 52.1241 302.199 52.1241C302.556 52.1241 302.768 51.9312 302.768 51.42V47.6101C302.768 47.0989 302.546 46.906 302.199 46.906C301.852 46.906 301.62 47.0989 301.62 47.6101V51.42Z" fill="#263238"/>
<path d="M301.291 56.9753C301.569 57.0095 301.849 56.9369 302.074 56.772C302.3 56.6072 302.455 56.3626 302.506 56.0879H303.259V63.1482H302.15V57.8047H301.291V56.9753Z" fill="#263238"/>
<path d="M301.291 77.1738C301.569 77.2081 301.849 77.1354 302.074 76.9706C302.3 76.8057 302.455 76.5611 302.506 76.2864H303.259V83.3564H302.15V77.9647H301.291V77.1738Z" fill="#263238"/>
<path d="M301.291 87.2826C301.569 87.3168 301.849 87.2442 302.074 87.0793C302.3 86.9145 302.455 86.6699 302.506 86.3952H303.259V93.4941H302.15V88.1024H301.291V87.2826Z" fill="#263238"/>
<path d="M300.511 108.288C300.511 107.84 300.689 107.411 301.005 107.094C301.322 106.778 301.751 106.6 302.199 106.6C302.647 106.6 303.076 106.778 303.393 107.094C303.709 107.411 303.887 107.84 303.887 108.288V111.963C303.887 112.41 303.709 112.84 303.393 113.156C303.076 113.473 302.647 113.651 302.199 113.651C301.751 113.651 301.322 113.473 301.005 113.156C300.689 112.84 300.511 112.41 300.511 111.963V108.288ZM301.62 112.03C301.62 112.542 301.842 112.734 302.199 112.734C302.556 112.734 302.768 112.542 302.768 112.03V108.22C302.768 107.709 302.546 107.526 302.199 107.526C301.852 107.526 301.62 107.709 301.62 108.22V112.03Z" fill="#263238"/>
<path d="M301.291 117.607C301.569 117.641 301.849 117.568 302.074 117.403C302.3 117.239 302.455 116.994 302.506 116.719H303.259V123.78H302.15V118.388H301.291V117.607Z" fill="#263238"/>
<path d="M312.518 7.27422C312.518 6.82656 312.696 6.39723 313.013 6.08068C313.329 5.76414 313.758 5.5863 314.206 5.5863C314.654 5.5863 315.083 5.76414 315.4 6.08068C315.716 6.39723 315.894 6.82656 315.894 7.27422V10.9491C315.894 11.3967 315.716 11.8261 315.4 12.1426C315.083 12.4592 314.654 12.637 314.206 12.637C313.758 12.637 313.329 12.4592 313.013 12.1426C312.696 11.8261 312.518 11.3967 312.518 10.9491V7.27422ZM313.598 11.0166C313.598 11.5181 313.82 11.711 314.168 11.711C314.515 11.711 314.746 11.5181 314.746 11.0166V7.15848C314.746 6.65693 314.524 6.46402 314.168 6.46402C313.811 6.46402 313.598 6.65693 313.598 7.15848V11.0166Z" fill="#263238"/>
<path d="M313.3 16.5613C313.579 16.5959 313.86 16.5235 314.088 16.3588C314.315 16.1941 314.471 15.9494 314.525 15.674H315.268V22.7439H314.159V17.3522H313.3V16.5613Z" fill="#263238"/>
<path d="M312.518 27.4706C312.518 27.023 312.696 26.5936 313.013 26.2771C313.329 25.9606 313.758 25.7827 314.206 25.7827C314.654 25.7827 315.083 25.9606 315.4 26.2771C315.716 26.5936 315.894 27.023 315.894 27.4706V31.1455C315.894 31.5931 315.716 32.0225 315.4 32.339C315.083 32.6556 314.654 32.8334 314.206 32.8334C313.758 32.8334 313.329 32.6556 313.013 32.339C312.696 32.0225 312.518 31.5931 312.518 31.1455V27.4706ZM313.598 31.2226C313.598 31.7242 313.82 31.9171 314.168 31.9171C314.515 31.9171 314.746 31.7242 314.746 31.2226V27.3645C314.746 26.863 314.524 26.6701 314.168 26.6701C313.811 26.6701 313.598 26.863 313.598 27.3645V31.2226Z" fill="#263238"/>
<path d="M313.3 36.7704C313.579 36.805 313.86 36.7326 314.088 36.5679C314.315 36.4032 314.471 36.1585 314.525 35.8831H315.268V42.953H314.159V37.5517H313.3V36.7704Z" fill="#263238"/>
<path d="M313.3 46.8686C313.579 46.9032 313.86 46.8308 314.088 46.6661C314.315 46.5015 314.471 46.2567 314.525 45.9813H315.268V53.0512H314.159V47.6595H313.3V46.8686Z" fill="#263238"/>
<path d="M313.3 56.9753C313.579 57.0098 313.86 56.9374 314.088 56.7728C314.315 56.6081 314.471 56.3633 314.525 56.0879H315.268V63.1482H314.159V57.8047H313.3V56.9753Z" fill="#263238"/>
<path d="M312.518 67.8846C312.518 67.4369 312.696 67.0076 313.013 66.691C313.329 66.3745 313.758 66.1967 314.206 66.1967C314.654 66.1967 315.083 66.3745 315.4 66.691C315.716 67.0076 315.894 67.4369 315.894 67.8846V71.5594C315.894 72.0071 315.716 72.4364 315.4 72.753C315.083 73.0695 314.654 73.2473 314.206 73.2473C313.758 73.2473 313.329 73.0695 313.013 72.753C312.696 72.4364 312.518 72.0071 312.518 71.5594V67.8846ZM313.598 71.6269C313.598 72.1285 313.82 72.3214 314.168 72.3214C314.515 72.3214 314.746 72.1285 314.746 71.6269V67.7688C314.746 67.2673 314.524 67.0744 314.168 67.0744C313.811 67.0744 313.598 67.2673 313.598 67.7688V71.6269Z" fill="#263238"/>
<path d="M312.518 77.9828C312.518 77.5351 312.696 77.1058 313.013 76.7892C313.329 76.4727 313.758 76.2949 314.206 76.2949C314.654 76.2949 315.083 76.4727 315.4 76.7892C315.716 77.1058 315.894 77.5351 315.894 77.9828V81.6576C315.894 82.1053 315.716 82.5346 315.4 82.8512C315.083 83.1677 314.654 83.3456 314.206 83.3456C313.758 83.3456 313.329 83.1677 313.013 82.8512C312.696 82.5346 312.518 82.1053 312.518 81.6576V77.9828ZM313.598 81.7252C313.598 82.2363 313.82 82.4293 314.168 82.4293C314.515 82.4293 314.746 82.2363 314.746 81.7252V77.867C314.746 77.3558 314.524 77.1726 314.168 77.1726C313.811 77.1726 313.598 77.3558 313.598 77.867V81.7252Z" fill="#263238"/>
<path d="M307.29 16.5613C307.569 16.5959 307.85 16.5235 308.078 16.3588C308.305 16.1941 308.461 15.9494 308.515 15.674H309.258V22.7439H308.149V17.3522H307.29V16.5613Z" fill="#263238"/>
<path d="M306.519 27.4713C306.502 27.2396 306.532 27.0067 306.609 26.7873C306.686 26.5679 306.807 26.3667 306.965 26.1962C307.123 26.0258 307.314 25.8898 307.527 25.7969C307.74 25.7039 307.97 25.6559 308.203 25.6559C308.435 25.6559 308.665 25.7039 308.878 25.7969C309.091 25.8898 309.282 26.0258 309.44 26.1962C309.598 26.3667 309.719 26.5679 309.796 26.7873C309.873 27.0067 309.903 27.2396 309.886 27.4713V31.1462C309.903 31.3779 309.873 31.6108 309.796 31.8302C309.719 32.0496 309.598 32.2508 309.44 32.4212C309.282 32.5917 309.091 32.7276 308.878 32.8206C308.665 32.9136 308.435 32.9616 308.203 32.9616C307.97 32.9616 307.74 32.9136 307.527 32.8206C307.314 32.7276 307.123 32.5917 306.965 32.4212C306.807 32.2508 306.686 32.0496 306.609 31.8302C306.532 31.6108 306.502 31.3779 306.519 31.1462V27.4713ZM307.629 31.2233C307.629 31.7249 307.851 31.9178 308.198 31.9178C308.545 31.9178 308.776 31.7249 308.776 31.2233V27.3652C308.776 26.8637 308.555 26.6708 308.198 26.6708C307.841 26.6708 307.629 26.8637 307.629 27.3652V31.2233Z" fill="#263238"/>
<path d="M306.519 37.5505C306.502 37.3187 306.532 37.0859 306.609 36.8665C306.686 36.647 306.807 36.4458 306.965 36.2754C307.123 36.105 307.314 35.969 307.527 35.876C307.74 35.783 307.97 35.735 308.203 35.735C308.435 35.735 308.665 35.783 308.878 35.876C309.091 35.969 309.282 36.105 309.44 36.2754C309.598 36.4458 309.719 36.647 309.796 36.8665C309.873 37.0859 309.903 37.3187 309.886 37.5505V41.2253C309.903 41.4571 309.873 41.6899 309.796 41.9093C309.719 42.1288 309.598 42.33 309.44 42.5004C309.282 42.6708 309.091 42.8068 308.878 42.8998C308.665 42.9928 308.435 43.0407 308.203 43.0407C307.97 43.0407 307.74 42.9928 307.527 42.8998C307.314 42.8068 307.123 42.6708 306.965 42.5004C306.807 42.33 306.686 42.1288 306.609 41.9093C306.532 41.6899 306.502 41.4571 306.519 41.2253V37.5505ZM307.629 41.2928C307.629 41.7944 307.851 41.9873 308.198 41.9873C308.545 41.9873 308.776 41.7944 308.776 41.2928V37.5505C308.776 37.0489 308.555 36.856 308.198 36.856C307.841 36.856 307.629 37.0489 307.629 37.5505V41.2928Z" fill="#263238"/>
<path d="M307.29 46.8686C307.569 46.9032 307.85 46.8308 308.078 46.6661C308.305 46.5015 308.461 46.2567 308.515 45.9813H309.258V53.0512H308.149V47.6595H307.29V46.8686Z" fill="#263238"/>
<path d="M307.29 67.0735C307.569 67.108 307.85 67.0356 308.078 66.871C308.305 66.7063 308.461 66.4616 308.515 66.1861H309.258V73.2368H308.149V67.8644H307.29V67.0735Z" fill="#263238"/>
<path d="M307.29 77.1738C307.569 77.2083 307.85 77.136 308.078 76.9713C308.305 76.8066 308.461 76.5619 308.515 76.2864H309.258V83.3564H308.149V77.9647H307.29V77.1738Z" fill="#263238"/>
<path d="M307.29 87.2826C307.569 87.3171 307.85 87.2447 308.078 87.0801C308.305 86.9154 308.461 86.6707 308.515 86.3952H309.258V93.4941H308.149V88.1024H307.29V87.2826Z" fill="#263238"/>
<path d="M35.8143 119.122C35.8143 118.674 35.9921 118.245 36.3087 117.928C36.6252 117.612 37.0545 117.434 37.5022 117.434C37.9499 117.434 38.3792 117.612 38.6957 117.928C39.0123 118.245 39.1901 118.674 39.1901 119.122V122.806C39.1901 123.254 39.0123 123.683 38.6957 124C38.3792 124.316 37.9499 124.494 37.5022 124.494C37.0545 124.494 36.6252 124.316 36.3087 124C35.9921 123.683 35.8143 123.254 35.8143 122.806V119.122ZM36.9235 122.874C36.9235 123.375 37.1453 123.568 37.5022 123.568C37.8591 123.568 38.0713 123.375 38.0713 122.874V119.016C38.0713 118.514 37.8494 118.321 37.5022 118.321C37.155 118.321 36.9235 118.514 36.9235 119.016V122.874Z" fill="#263238"/>
<path d="M35.8143 129.228C35.8143 128.781 35.9921 128.351 36.3087 128.035C36.6252 127.718 37.0545 127.541 37.5022 127.541C37.9499 127.541 38.3792 127.718 38.6957 128.035C39.0123 128.351 39.1901 128.781 39.1901 129.228V132.903C39.1901 133.351 39.0123 133.78 38.6957 134.097C38.3792 134.413 37.9499 134.591 37.5022 134.591C37.0545 134.591 36.6252 134.413 36.3087 134.097C35.9921 133.78 35.8143 133.351 35.8143 132.903V129.228ZM36.9235 132.971C36.9235 133.482 37.1453 133.665 37.5022 133.665C37.8591 133.665 38.0713 133.482 38.0713 132.971V129.113C38.0713 128.611 37.8494 128.418 37.5022 128.418C37.155 128.418 36.9235 128.611 36.9235 129.113V132.971Z" fill="#263238"/>
<path d="M36.588 138.518C36.8654 138.552 37.1454 138.479 37.3712 138.314C37.5969 138.15 37.7514 137.905 37.8033 137.63H38.5556V144.7H37.4464V139.309H36.588V138.518Z" fill="#263238"/>
<path d="M35.8143 149.435C35.8143 148.988 35.9921 148.558 36.3087 148.242C36.6252 147.925 37.0545 147.748 37.5022 147.748C37.9499 147.748 38.3792 147.925 38.6957 148.242C39.0123 148.558 39.1901 148.988 39.1901 149.435V153.12C39.1901 153.568 39.0123 153.997 38.6957 154.314C38.3792 154.63 37.9499 154.808 37.5022 154.808C37.0545 154.808 36.6252 154.63 36.3087 154.314C35.9921 153.997 35.8143 153.568 35.8143 153.12V149.435ZM36.9235 153.187C36.9235 153.689 37.1453 153.882 37.5022 153.882C37.8591 153.882 38.0713 153.689 38.0713 153.187V149.329C38.0713 148.828 37.8494 148.635 37.5022 148.635C37.155 148.635 36.9235 148.828 36.9235 149.329V153.187Z" fill="#263238"/>
<path d="M36.588 158.725C36.8654 158.759 37.1454 158.686 37.3712 158.521C37.5969 158.357 37.7514 158.112 37.8033 157.837H38.5556V164.869H37.4464V159.477H36.588V158.725Z" fill="#263238"/>
<path d="M35.8143 169.634C35.8143 169.186 35.9921 168.757 36.3087 168.44C36.6252 168.124 37.0545 167.946 37.5022 167.946C37.9499 167.946 38.3792 168.124 38.6957 168.44C39.0123 168.757 39.1901 169.186 39.1901 169.634V173.309C39.1901 173.756 39.0123 174.186 38.6957 174.502C38.3792 174.819 37.9499 174.997 37.5022 174.997C37.0545 174.997 36.6252 174.819 36.3087 174.502C35.9921 174.186 35.8143 173.756 35.8143 173.309V169.634ZM36.9235 173.386C36.9235 173.888 37.1453 174.08 37.5022 174.08C37.8591 174.08 38.0713 173.888 38.0713 173.386V169.528C38.0713 169.017 37.8494 168.833 37.5022 168.833C37.155 168.833 36.9235 169.017 36.9235 169.528V173.386Z" fill="#263238"/>
<path d="M36.588 178.932C36.8654 178.966 37.1454 178.893 37.3712 178.728C37.5969 178.564 37.7514 178.319 37.8033 178.044H38.5556V185.124H37.4464V179.732H36.588V178.932Z" fill="#263238"/>
<path d="M35.8143 189.839C35.8143 189.391 35.9921 188.962 36.3087 188.645C36.6252 188.329 37.0545 188.151 37.5022 188.151C37.9499 188.151 38.3792 188.329 38.6957 188.645C39.0123 188.962 39.1901 189.391 39.1901 189.839V193.514C39.1901 193.961 39.0123 194.391 38.6957 194.707C38.3792 195.024 37.9499 195.202 37.5022 195.202C37.0545 195.202 36.6252 195.024 36.3087 194.707C35.9921 194.391 35.8143 193.961 35.8143 193.514V189.839ZM36.9235 193.581C36.9235 194.092 37.1453 194.276 37.5022 194.276C37.8591 194.276 38.0713 194.092 38.0713 193.581V189.723C38.0713 189.222 37.8494 189.029 37.5022 189.029C37.155 189.029 36.9235 189.222 36.9235 189.723V193.581Z" fill="#263238"/>
<path d="M35.8143 199.939C35.8143 199.491 35.9921 199.062 36.3087 198.746C36.6252 198.429 37.0545 198.251 37.5022 198.251C37.9499 198.251 38.3792 198.429 38.6957 198.746C39.0123 199.062 39.1901 199.491 39.1901 199.939V203.614C39.1901 204.062 39.0123 204.491 38.6957 204.808C38.3792 205.124 37.9499 205.302 37.5022 205.302C37.0545 205.302 36.6252 205.124 36.3087 204.808C35.9921 204.491 35.8143 204.062 35.8143 203.614V199.939ZM36.9235 203.691C36.9235 204.193 37.1453 204.386 37.5022 204.386C37.8591 204.386 38.0713 204.193 38.0713 203.691V199.833C38.0713 199.331 37.8494 199.139 37.5022 199.139C37.155 199.139 36.9235 199.331 36.9235 199.833V203.691Z" fill="#263238"/>
<path d="M35.8143 210.048C35.8143 209.6 35.9921 209.171 36.3087 208.854C36.6252 208.538 37.0545 208.36 37.5022 208.36C37.9499 208.36 38.3792 208.538 38.6957 208.854C39.0123 209.171 39.1901 209.6 39.1901 210.048V213.723C39.1901 214.17 39.0123 214.6 38.6957 214.916C38.3792 215.233 37.9499 215.411 37.5022 215.411C37.0545 215.411 36.6252 215.233 36.3087 214.916C35.9921 214.6 35.8143 214.17 35.8143 213.723V210.048ZM36.9235 213.79C36.9235 214.292 37.1453 214.485 37.5022 214.485C37.8591 214.485 38.0713 214.292 38.0713 213.79V209.932C38.0713 209.431 37.8494 209.238 37.5022 209.238C37.155 209.238 36.9235 209.431 36.9235 209.932V213.79Z" fill="#263238"/>
<path d="M36.588 229.433C36.8658 229.47 37.147 229.398 37.3733 229.233C37.5996 229.068 37.7536 228.822 37.8033 228.546H38.5556V235.616H37.4464V230.224H36.588V229.433Z" fill="#263238"/>
<path d="M42.5661 158.725C42.8447 158.759 43.126 158.687 43.3533 158.522C43.5807 158.357 43.7371 158.113 43.7911 157.837H44.5338V164.869H43.4439V159.477H42.5661V158.725Z" fill="#263238"/>
<path d="M42.5661 168.823C42.8447 168.857 43.126 168.785 43.3533 168.62C43.5807 168.456 43.7371 168.211 43.7911 167.935H44.5338V175.005H43.4439V169.614H42.5661V168.823Z" fill="#263238"/>
<path d="M41.8142 179.733C41.7966 179.501 41.8271 179.268 41.9037 179.049C41.9804 178.829 42.1015 178.628 42.2595 178.458C42.4175 178.287 42.609 178.151 42.822 178.058C43.035 177.965 43.2649 177.917 43.4973 177.917C43.7297 177.917 43.9596 177.965 44.1726 178.058C44.3856 178.151 44.5771 178.287 44.7351 178.458C44.8931 178.628 45.0142 178.829 45.0908 179.049C45.1674 179.268 45.1979 179.501 45.1804 179.733V183.417C45.1979 183.649 45.1674 183.882 45.0908 184.101C45.0142 184.321 44.8931 184.522 44.7351 184.692C44.5771 184.863 44.3856 184.999 44.1726 185.092C43.9596 185.185 43.7297 185.233 43.4973 185.233C43.2649 185.233 43.035 185.185 42.822 185.092C42.609 184.999 42.4175 184.863 42.2595 184.692C42.1015 184.522 41.9804 184.321 41.9037 184.101C41.8271 183.882 41.7966 183.649 41.8142 183.417V179.733ZM42.9234 183.485C42.9234 183.986 43.1452 184.179 43.4925 184.179C43.8397 184.179 44.0712 183.986 44.0712 183.485V179.627C44.0712 179.125 43.8493 178.932 43.4925 178.932C43.1356 178.932 42.9234 179.125 42.9234 179.627V183.485Z" fill="#263238"/>
<path d="M41.8142 189.84C41.7966 189.608 41.8271 189.375 41.9037 189.156C41.9804 188.936 42.1015 188.735 42.2595 188.564C42.4175 188.394 42.609 188.258 42.822 188.165C43.035 188.072 43.2649 188.024 43.4973 188.024C43.7297 188.024 43.9596 188.072 44.1726 188.165C44.3856 188.258 44.5771 188.394 44.7351 188.564C44.8931 188.735 45.0142 188.936 45.0908 189.156C45.1674 189.375 45.1979 189.608 45.1804 189.84V193.514C45.1979 193.746 45.1674 193.979 45.0908 194.198C45.0142 194.418 44.8931 194.619 44.7351 194.789C44.5771 194.96 44.3856 195.096 44.1726 195.189C43.9596 195.282 43.7297 195.33 43.4973 195.33C43.2649 195.33 43.035 195.282 42.822 195.189C42.609 195.096 42.4175 194.96 42.2595 194.789C42.1015 194.619 41.9804 194.418 41.9037 194.198C41.8271 193.979 41.7966 193.746 41.8142 193.514V189.84ZM42.9234 193.582C42.9234 194.093 43.1452 194.276 43.4925 194.276C43.8397 194.276 44.0712 194.093 44.0712 193.582V189.724C44.0712 189.222 43.8493 189.029 43.4925 189.029C43.1356 189.029 42.9234 189.222 42.9234 189.724V193.582Z" fill="#263238"/>
<path d="M42.5661 199.128C42.8451 199.165 43.1276 199.094 43.3554 198.928C43.5833 198.763 43.7392 198.517 43.7911 198.241H44.5338V205.311H43.4439V199.919H42.5661V199.128Z" fill="#263238"/>
<path d="M42.5661 219.335C42.8447 219.37 43.126 219.297 43.3533 219.132C43.5807 218.968 43.7371 218.723 43.7911 218.448H44.5338V225.518H43.4439V220.126H42.5661V219.335Z" fill="#263238"/>
<path d="M29.7959 149.435C29.7959 148.988 29.9738 148.558 30.2903 148.242C30.6069 147.925 31.0362 147.748 31.4839 147.748C31.9315 147.748 32.3609 147.925 32.6774 148.242C32.994 148.558 33.1718 148.988 33.1718 149.435V153.12C33.1718 153.568 32.994 153.997 32.6774 154.314C32.3609 154.63 31.9315 154.808 31.4839 154.808C31.0362 154.808 30.6069 154.63 30.2903 154.314C29.9738 153.997 29.7959 153.568 29.7959 153.12V149.435ZM30.9148 153.187C30.9148 153.689 31.1366 153.882 31.4839 153.882C31.8311 153.882 32.0626 153.689 32.0626 153.187V149.329C32.0626 148.828 31.8407 148.635 31.4839 148.635C31.127 148.635 30.9148 148.828 30.9148 149.329V153.187Z" fill="#263238"/>
<path d="M30.5781 158.725C30.8567 158.759 31.138 158.687 31.3653 158.522C31.5926 158.357 31.749 158.113 31.803 157.837H32.5457V164.869H31.4365V159.477H30.5781V158.725Z" fill="#263238"/>
<path d="M30.5781 168.823C30.8567 168.857 31.138 168.785 31.3653 168.62C31.5926 168.456 31.749 168.211 31.803 167.935H32.5457V175.005H31.4365V169.614H30.5781V168.823Z" fill="#263238"/>
<path d="M29.7959 179.732C29.7959 179.285 29.9738 178.855 30.2903 178.539C30.6069 178.222 31.0362 178.044 31.4839 178.044C31.9315 178.044 32.3609 178.222 32.6774 178.539C32.994 178.855 33.1718 179.285 33.1718 179.732V183.417C33.1718 183.864 32.994 184.294 32.6774 184.61C32.3609 184.927 31.9315 185.105 31.4839 185.105C31.0362 185.105 30.6069 184.927 30.2903 184.61C29.9738 184.294 29.7959 183.864 29.7959 183.417V179.732ZM30.9148 183.484C30.9148 183.986 31.1366 184.179 31.4839 184.179C31.8311 184.179 32.0626 183.986 32.0626 183.484V179.626C32.0626 179.125 31.8407 178.932 31.4839 178.932C31.127 178.932 30.9148 179.125 30.9148 179.626V183.484Z" fill="#263238"/>
<path d="M30.5781 189.03C30.8567 189.064 31.138 188.992 31.3653 188.827C31.5926 188.663 31.749 188.418 31.803 188.142H32.5457V195.212H31.4365V189.821H30.5781V189.03Z" fill="#263238"/>
<path d="M29.7959 199.939C29.7959 199.491 29.9738 199.062 30.2903 198.746C30.6069 198.429 31.0362 198.251 31.4839 198.251C31.9315 198.251 32.3609 198.429 32.6774 198.746C32.994 199.062 33.1718 199.491 33.1718 199.939V203.614C33.1718 204.062 32.994 204.491 32.6774 204.808C32.3609 205.124 31.9315 205.302 31.4839 205.302C31.0362 205.302 30.6069 205.124 30.2903 204.808C29.9738 204.491 29.7959 204.062 29.7959 203.614V199.939ZM30.9148 203.691C30.9148 204.193 31.1366 204.386 31.4839 204.386C31.8311 204.386 32.0626 204.193 32.0626 203.691V199.833C32.0626 199.331 31.8407 199.139 31.4839 199.139C31.127 199.139 30.9148 199.331 30.9148 199.833V203.691Z" fill="#263238"/>
<path d="M23.7972 129.229C23.7797 128.997 23.8102 128.765 23.8868 128.545C23.9634 128.326 24.0845 128.124 24.2425 127.954C24.4005 127.784 24.592 127.648 24.805 127.555C25.018 127.462 25.2479 127.414 25.4803 127.414C25.7127 127.414 25.9426 127.462 26.1556 127.555C26.3686 127.648 26.5601 127.784 26.7181 127.954C26.8761 128.124 26.9972 128.326 27.0739 128.545C27.1505 128.765 27.181 128.997 27.1634 129.229V132.904C27.181 133.136 27.1505 133.369 27.0739 133.588C26.9972 133.807 26.8761 134.009 26.7181 134.179C26.5601 134.349 26.3686 134.485 26.1556 134.578C25.9426 134.671 25.7127 134.719 25.4803 134.719C25.2479 134.719 25.018 134.671 24.805 134.578C24.592 134.485 24.4005 134.349 24.2425 134.179C24.0845 134.009 23.9634 133.807 23.8868 133.588C23.8102 133.369 23.7797 133.136 23.7972 132.904V129.229ZM24.9064 132.971C24.9064 133.483 25.1283 133.666 25.4755 133.666C25.8227 133.666 26.0542 133.483 26.0542 132.971V129.113C26.0542 128.602 25.8324 128.409 25.4755 128.409C25.1186 128.409 24.9064 128.602 24.9064 129.113V132.971Z" fill="#263238"/>
<path d="M24.5703 148.626C24.8489 148.661 25.1302 148.589 25.3575 148.424C25.5848 148.259 25.7413 148.015 25.7953 147.739H26.538V154.799H25.4288V149.437H24.5703V148.626Z" fill="#263238"/>
<path d="M23.7972 159.534C23.7797 159.303 23.8102 159.07 23.8868 158.85C23.9634 158.631 24.0845 158.43 24.2425 158.259C24.4005 158.089 24.592 157.953 24.805 157.86C25.018 157.767 25.2479 157.719 25.4803 157.719C25.7127 157.719 25.9426 157.767 26.1556 157.86C26.3686 157.953 26.5601 158.089 26.7181 158.259C26.8761 158.43 26.9972 158.631 27.0739 158.85C27.1505 159.07 27.181 159.303 27.1634 159.534V163.209C27.181 163.441 27.1505 163.674 27.0739 163.893C26.9972 164.113 26.8761 164.314 26.7181 164.484C26.5601 164.655 26.3686 164.791 26.1556 164.884C25.9426 164.977 25.7127 165.025 25.4803 165.025C25.2479 165.025 25.018 164.977 24.805 164.884C24.592 164.791 24.4005 164.655 24.2425 164.484C24.0845 164.314 23.9634 164.113 23.8868 163.893C23.8102 163.674 23.7797 163.441 23.7972 163.209V159.534ZM24.9064 163.277C24.9064 163.788 25.1283 163.971 25.4755 163.971C25.8227 163.971 26.0542 163.788 26.0542 163.277V159.467C26.0542 158.956 25.8324 158.763 25.4755 158.763C25.1186 158.763 24.9064 158.956 24.9064 159.467V163.277Z" fill="#263238"/>
<path d="M23.7972 179.741C23.7797 179.51 23.8102 179.277 23.8868 179.057C23.9634 178.838 24.0845 178.637 24.2425 178.466C24.4005 178.296 24.592 178.16 24.805 178.067C25.018 177.974 25.2479 177.926 25.4803 177.926C25.7127 177.926 25.9426 177.974 26.1556 178.067C26.3686 178.16 26.5601 178.296 26.7181 178.466C26.8761 178.637 26.9972 178.838 27.0739 179.057C27.1505 179.277 27.181 179.51 27.1634 179.741V183.416C27.181 183.648 27.1505 183.881 27.0739 184.1C26.9972 184.32 26.8761 184.521 26.7181 184.691C26.5601 184.862 26.3686 184.998 26.1556 185.091C25.9426 185.184 25.7127 185.232 25.4803 185.232C25.2479 185.232 25.018 185.184 24.805 185.091C24.592 184.998 24.4005 184.862 24.2425 184.691C24.0845 184.521 23.9634 184.32 23.8868 184.1C23.8102 183.881 23.7797 183.648 23.7972 183.416V179.741ZM24.9064 183.484C24.9064 183.985 25.1283 184.178 25.4755 184.178C25.8227 184.178 26.0542 183.985 26.0542 183.484V179.626C26.0542 179.124 25.8324 178.931 25.4755 178.931C25.1186 178.931 24.9064 179.124 24.9064 179.626V183.484Z" fill="#263238"/>
<path d="M23.7972 189.84C23.7797 189.608 23.8102 189.375 23.8868 189.156C23.9634 188.936 24.0845 188.735 24.2425 188.564C24.4005 188.394 24.592 188.258 24.805 188.165C25.018 188.072 25.2479 188.024 25.4803 188.024C25.7127 188.024 25.9426 188.072 26.1556 188.165C26.3686 188.258 26.5601 188.394 26.7181 188.564C26.8761 188.735 26.9972 188.936 27.0739 189.156C27.1505 189.375 27.181 189.608 27.1634 189.84V193.514C27.181 193.746 27.1505 193.979 27.0739 194.198C26.9972 194.418 26.8761 194.619 26.7181 194.789C26.5601 194.96 26.3686 195.096 26.1556 195.189C25.9426 195.282 25.7127 195.33 25.4803 195.33C25.2479 195.33 25.018 195.282 24.805 195.189C24.592 195.096 24.4005 194.96 24.2425 194.789C24.0845 194.619 23.9634 194.418 23.8868 194.198C23.8102 193.979 23.7797 193.746 23.7972 193.514V189.84ZM24.9064 193.582C24.9064 194.093 25.1283 194.286 25.4755 194.286C25.8227 194.286 26.0542 194.093 26.0542 193.582V189.724C26.0542 189.213 25.8324 189.02 25.4755 189.02C25.1186 189.02 24.9064 189.213 24.9064 189.724V193.582Z" fill="#263238"/>
<path d="M23.7972 199.938C23.7797 199.706 23.8102 199.473 23.8868 199.254C23.9634 199.034 24.0845 198.833 24.2425 198.663C24.4005 198.492 24.592 198.356 24.805 198.263C25.018 198.17 25.2479 198.122 25.4803 198.122C25.7127 198.122 25.9426 198.17 26.1556 198.263C26.3686 198.356 26.5601 198.492 26.7181 198.663C26.8761 198.833 26.9972 199.034 27.0739 199.254C27.1505 199.473 27.181 199.706 27.1634 199.938V203.613C27.181 203.844 27.1505 204.077 27.0739 204.297C26.9972 204.516 26.8761 204.717 26.7181 204.888C26.5601 205.058 26.3686 205.194 26.1556 205.287C25.9426 205.38 25.7127 205.428 25.4803 205.428C25.2479 205.428 25.018 205.38 24.805 205.287C24.592 205.194 24.4005 205.058 24.2425 204.888C24.0845 204.717 23.9634 204.516 23.8868 204.297C23.8102 204.077 23.7797 203.844 23.7972 203.613V199.938ZM24.9064 203.69C24.9064 204.191 25.1283 204.384 25.4755 204.384C25.8227 204.384 26.0542 204.191 26.0542 203.69V199.832C26.0542 199.33 25.8324 199.137 25.4755 199.137C25.1186 199.137 24.9064 199.33 24.9064 199.832V203.69Z" fill="#263238"/>
<path d="M24.5703 229.491C24.8503 229.526 25.1328 229.452 25.3603 229.285C25.5879 229.119 25.7434 228.872 25.7953 228.594H26.538V235.664H25.4288V230.273H24.5703V229.491Z" fill="#263238"/>
<path d="M362.914 223.327C331.393 210.566 329.107 166.68 329.107 166.68H335.859V161.433C351.86 161.433 362.914 151.508 362.914 151.508C362.914 151.508 373.967 161.433 389.969 161.433V166.68H396.721C396.721 166.68 394.425 210.566 362.914 223.327Z" stroke="#263238" stroke-width="1.10721" stroke-linecap="round" stroke-linejoin="round"/>
<path d="M362.913 217.529C342.262 207.884 336.282 182.266 334.633 171.232H340.806V165.715C348.742 164.735 356.326 161.857 362.913 157.324C369.504 161.856 377.09 164.735 385.03 165.715V171.232H391.183C389.515 182.228 383.496 207.884 362.913 217.529Z" stroke="#263238" stroke-width="1.10721" stroke-linecap="round" stroke-linejoin="round"/>
<path d="M374.046 181.234H351.775C351.056 181.234 350.473 181.817 350.473 182.536V195.914C350.473 196.633 351.056 197.216 351.775 197.216H374.046C374.765 197.216 375.348 196.633 375.348 195.914V182.536C375.348 181.817 374.765 181.234 374.046 181.234Z" fill="#263238"/>
<path d="M363.358 167.76C362.148 167.701 360.939 167.889 359.804 168.311C358.669 168.733 357.631 169.381 356.754 170.216C355.876 171.052 355.177 172.056 354.699 173.169C354.222 174.282 353.975 175.48 353.973 176.692V177.656C353.973 177.738 353.99 177.82 354.021 177.896C354.053 177.972 354.099 178.041 354.157 178.099C354.215 178.158 354.284 178.204 354.36 178.235C354.436 178.267 354.518 178.283 354.6 178.283H356.857C356.94 178.283 357.021 178.267 357.097 178.235C357.173 178.204 357.242 178.158 357.301 178.099C357.359 178.041 357.405 177.972 357.437 177.896C357.468 177.82 357.484 177.738 357.484 177.656V176.913C357.467 175.516 357.977 174.163 358.915 173.125C359.852 172.088 361.146 171.443 362.538 171.319C363.279 171.27 364.022 171.374 364.722 171.624C365.421 171.874 366.062 172.264 366.604 172.771C367.146 173.278 367.579 173.891 367.875 174.572C368.171 175.253 368.324 175.988 368.326 176.73V177.695C368.326 177.861 368.392 178.02 368.509 178.138C368.627 178.256 368.786 178.322 368.952 178.322H371.209C371.376 178.322 371.535 178.256 371.653 178.138C371.77 178.02 371.836 177.861 371.836 177.695V177.02C371.879 174.684 371.023 172.42 369.446 170.697C367.868 168.974 365.689 167.923 363.358 167.76Z" fill="#263238"/>
<path d="M365.248 187.438C365.249 187.021 365.138 186.611 364.927 186.252C364.716 185.892 364.413 185.596 364.048 185.393C363.684 185.19 363.272 185.089 362.855 185.099C362.439 185.11 362.032 185.231 361.678 185.452C361.325 185.673 361.037 185.984 360.844 186.354C360.651 186.723 360.561 187.138 360.583 187.554C360.604 187.97 360.737 188.373 360.967 188.721C361.197 189.069 361.516 189.348 361.891 189.531L361.042 193.283H364.775L363.926 189.531C364.32 189.34 364.652 189.043 364.886 188.673C365.119 188.303 365.245 187.875 365.248 187.438Z" fill="white" stroke="#263238" stroke-width="1.10721" stroke-linecap="round" stroke-linejoin="round"/>
<path d="M263.328 22.2341H187.169C185.4 22.2341 183.967 23.6678 183.967 25.4363V68.3191C183.967 70.0877 185.4 71.5214 187.169 71.5214H263.328C265.096 71.5214 266.53 70.0877 266.53 68.3191V25.4363C266.53 23.6678 265.096 22.2341 263.328 22.2341Z" stroke="#263238" stroke-width="1.10721" stroke-linecap="round" stroke-linejoin="round"/>
<path d="M191.654 64.6351H215.545C216.157 64.6351 216.654 64.1385 216.654 63.5259V30.2401C216.654 29.6275 216.157 29.1309 215.545 29.1309H191.654C191.041 29.1309 190.544 29.6275 190.544 30.2401V63.5259C190.544 64.1385 191.041 64.6351 191.654 64.6351Z" stroke="#263238" stroke-width="1.10721" stroke-linecap="round" stroke-linejoin="round"/>
<path d="M203.641 64.6247H191.72C191.408 64.6247 191.108 64.5007 190.888 64.2801C190.667 64.0594 190.543 63.7601 190.543 63.448V55.2495C190.543 55.2495 197.208 54.9602 198.327 53.5423C199.446 52.1244 198.211 49.906 198.211 49.906C197.806 49.4045 197.709 45.8454 197.709 45.8454L197.304 45.7393C196.909 45.6428 196.34 42.6914 196.34 41.5822C196.339 41.2627 196.429 40.9496 196.6 40.6796C196.771 40.4097 197.015 40.1941 197.304 40.0582C197.304 40.0582 196.34 32.8629 203.603 32.8629C210.866 32.8629 209.891 40.0582 209.891 40.0582C210.18 40.1941 210.425 40.4097 210.596 40.6796C210.767 40.9496 210.857 41.2627 210.856 41.5822C210.856 42.6914 210.335 45.6428 209.891 45.7393L209.486 45.8454C209.486 45.8454 209.39 49.4045 208.985 49.906C208.985 49.906 207.74 52.1244 208.869 53.5423C209.997 54.9602 216.653 55.2495 216.653 55.2495V63.448C216.654 63.6029 216.624 63.7565 216.566 63.8998C216.507 64.0432 216.42 64.1734 216.311 64.2829C216.201 64.3924 216.071 64.4791 215.928 64.5378C215.784 64.5964 215.631 64.626 215.476 64.6247H203.641Z" fill="#263238"/>
<path d="M258.253 64.7986H242.03C241.707 64.7987 241.397 64.6726 241.167 64.4473C240.936 64.222 240.803 63.9154 240.795 63.593C240.795 63.2656 240.925 62.9515 241.157 62.72C241.388 62.4885 241.702 62.3584 242.03 62.3584H258.253C258.58 62.3584 258.894 62.4885 259.126 62.72C259.358 62.9515 259.488 63.2656 259.488 63.593C259.48 63.9154 259.347 64.222 259.116 64.4473C258.885 64.6726 258.575 64.7987 258.253 64.7986Z" fill="#263238"/>
<path d="M258.255 31.4255H224.622C224.294 31.4255 223.98 31.2955 223.749 31.0639C223.517 30.8324 223.387 30.5184 223.387 30.191C223.387 29.8635 223.517 29.5495 223.749 29.318C223.98 29.0864 224.294 28.9564 224.622 28.9564H258.255C258.582 28.9564 258.896 29.0864 259.128 29.318C259.359 29.5495 259.489 29.8635 259.489 30.191C259.489 30.5184 259.359 30.8324 259.128 31.0639C258.896 31.2955 258.582 31.4255 258.255 31.4255Z" fill="#263238"/>
<path d="M243.912 39.7694H224.622C224.458 39.7694 224.296 39.7369 224.145 39.6736C223.994 39.6104 223.857 39.5177 223.742 39.401C223.627 39.2843 223.536 39.1459 223.475 38.9939C223.415 38.8419 223.385 38.6793 223.387 38.5155C223.387 38.1881 223.517 37.8741 223.749 37.6425C223.98 37.411 224.294 37.2809 224.622 37.2809H243.912C244.235 37.2885 244.541 37.4219 244.767 37.6526C244.992 37.8833 245.118 38.1931 245.118 38.5155C245.123 38.8413 244.999 39.156 244.773 39.3909C244.547 39.6258 244.238 39.7618 243.912 39.7694Z" fill="#263238"/>
<path d="M237.768 48.1593H224.622C224.294 48.1593 223.98 48.0292 223.749 47.7977C223.517 47.5662 223.387 47.2522 223.387 46.9247C223.387 46.5973 223.517 46.2833 223.749 46.0517C223.98 45.8202 224.294 45.6901 224.622 45.6901H237.768C238.095 45.6901 238.409 45.8202 238.641 46.0517C238.873 46.2833 239.003 46.5973 239.003 46.9247C239.003 47.2522 238.873 47.5662 238.641 47.7977C238.409 48.0292 238.095 48.1593 237.768 48.1593Z" fill="#263238"/>
<path d="M243.911 56.4549H224.62C224.293 56.4549 223.979 56.3248 223.747 56.0933C223.515 55.8618 223.385 55.5478 223.385 55.2203C223.38 55.055 223.408 54.8903 223.468 54.736C223.528 54.5817 223.618 54.441 223.733 54.3223C223.848 54.2035 223.986 54.1091 224.138 54.0447C224.291 53.9802 224.455 53.9471 224.62 53.9471H243.911C244.073 53.9509 244.234 53.9869 244.383 54.053C244.532 54.1192 244.667 54.2141 244.779 54.3325C244.891 54.4509 244.978 54.5903 245.036 54.7427C245.094 54.895 245.121 55.0574 245.116 55.2203C245.116 55.5428 244.99 55.8525 244.765 56.0832C244.54 56.314 244.233 56.4474 243.911 56.4549Z" fill="#263238"/>
<path d="M106.379 153.469V200.923L93.6085 213.694H59.6958V153.469H106.379Z" stroke="#263238" stroke-width="1.10721" stroke-linecap="round" stroke-linejoin="round"/>
<path d="M106.38 200.924L93.6094 213.694V200.924H106.38Z" fill="#263238" stroke="#263238" stroke-width="1.10721" stroke-linecap="round" stroke-linejoin="round"/>
<path d="M71.0686 161.146H99.2425" stroke="#263238" stroke-width="1.10721" stroke-linecap="round" stroke-linejoin="round"/>
<path d="M66.8239 166.452H99.2416" stroke="#263238" stroke-width="1.10721" stroke-linecap="round" stroke-linejoin="round"/>
<path d="M66.8239 171.756H99.2416" stroke="#263238" stroke-width="1.10721" stroke-linecap="round" stroke-linejoin="round"/>
<path d="M66.8239 177.06H99.2416" stroke="#263238" stroke-width="1.10721" stroke-linecap="round" stroke-linejoin="round"/>
<path d="M66.8239 182.366H99.2416" stroke="#263238" stroke-width="1.10721" stroke-linecap="round" stroke-linejoin="round"/>
<path d="M66.8239 187.672H99.2416" stroke="#263238" stroke-width="1.10721" stroke-linecap="round" stroke-linejoin="round"/>
<path d="M66.8239 192.967H99.2416" stroke="#263238" stroke-width="1.10721" stroke-linecap="round" stroke-linejoin="round"/>
<path d="M66.8239 198.271H95.0074" stroke="#263238" stroke-width="1.10721" stroke-linecap="round" stroke-linejoin="round"/>
<path d="M108.597 161.146H114.047V208.601L101.286 221.371H67.3735V215.758" stroke="#263238" stroke-width="1.10721" stroke-linecap="round" stroke-linejoin="round"/>
<path d="M114.046 208.602L101.285 221.372V208.602H114.046Z" fill="#263238" stroke="#263238" stroke-width="1.10721" stroke-linecap="round" stroke-linejoin="round"/>
<path d="M281.749 120.472H168.745C166.487 120.472 164.656 122.303 164.656 124.562V250.278C164.656 252.537 166.487 254.368 168.745 254.368H281.749C284.008 254.368 285.839 252.537 285.839 250.278V124.562C285.839 122.303 284.008 120.472 281.749 120.472Z" fill="#B9AFFF" stroke="#263238" stroke-width="1.10721" stroke-linecap="round" stroke-linejoin="round"/>
<g opacity="0.5">
<path opacity="0.5" d="M283.397 165.109H167.095" stroke="white" stroke-width="1.10721" stroke-linecap="round" stroke-linejoin="round"/>
<path opacity="0.5" d="M283.397 179.983H167.095" stroke="white" stroke-width="1.10721" stroke-linecap="round" stroke-linejoin="round"/>
<path opacity="0.5" d="M283.397 194.856H167.095" stroke="white" stroke-width="1.10721" stroke-linecap="round" stroke-linejoin="round"/>
<path opacity="0.5" d="M283.397 209.73H167.095" stroke="white" stroke-width="1.10721" stroke-linecap="round" stroke-linejoin="round"/>
<path opacity="0.5" d="M283.397 224.603H167.095" stroke="white" stroke-width="1.10721" stroke-linecap="round" stroke-linejoin="round"/>
<path opacity="0.5" d="M283.397 239.485H167.095" stroke="white" stroke-width="1.10721" stroke-linecap="round" stroke-linejoin="round"/>
<path opacity="0.5" d="M283.397 150.227H167.095" stroke="white" stroke-width="1.10721" stroke-linecap="round" stroke-linejoin="round"/>
<path opacity="0.5" d="M283.397 135.354H167.095" stroke="white" stroke-width="1.10721" stroke-linecap="round" stroke-linejoin="round"/>
<path opacity="0.5" d="M255.609 251.975V122.854" stroke="white" stroke-width="1.10721" stroke-linecap="round" stroke-linejoin="round"/>
<path opacity="0.5" d="M240.427 251.975V122.854" stroke="white" stroke-width="1.10721" stroke-linecap="round" stroke-linejoin="round"/>
<path opacity="0.5" d="M225.247 251.975V122.854" stroke="white" stroke-width="1.10721" stroke-linecap="round" stroke-linejoin="round"/>
<path opacity="0.5" d="M210.064 251.975V122.854" stroke="white" stroke-width="1.10721" stroke-linecap="round" stroke-linejoin="round"/>
<path opacity="0.5" d="M194.882 251.975V122.854" stroke="white" stroke-width="1.10721" stroke-linecap="round" stroke-linejoin="round"/>
<path opacity="0.5" d="M179.711 251.975V122.854" stroke="white" stroke-width="1.10721" stroke-linecap="round" stroke-linejoin="round"/>
<path opacity="0.5" d="M270.791 251.975V122.854" stroke="white" stroke-width="1.10721" stroke-linecap="round" stroke-linejoin="round"/>
</g>
<path d="M221.004 228.211C222.302 221.498 224.078 214.888 226.318 208.428C226.772 207.126 227.283 205.814 227.842 204.416C229.164 201.04 231.874 194.144 230.852 192.089C230.75 191.871 230.592 191.683 230.393 191.546C230.195 191.408 229.964 191.326 229.723 191.308C229.672 191.306 229.62 191.314 229.572 191.332C229.524 191.35 229.48 191.378 229.443 191.414C226.434 193.874 224.495 200.693 223.087 205.67L222.615 207.348C220.747 214.04 219.424 220.871 218.66 227.777" stroke="#263238" stroke-width="1.10721" stroke-linecap="round" stroke-linejoin="round"/>
<path d="M225.469 228.528C226.715 222.21 228.401 215.986 230.513 209.903C230.937 208.659 231.478 207.356 231.989 205.987C234.101 200.614 236.725 193.959 234.834 190.149C234.364 189.199 233.643 188.396 232.748 187.828C231.854 187.26 230.82 186.949 229.761 186.928C228.642 186.917 227.555 187.303 226.693 188.018C222.614 191.345 220.549 198.627 218.89 204.473L218.418 206.141C216.55 212.775 215.218 219.549 214.434 226.396" stroke="#263238" stroke-width="1.10721" stroke-linecap="round" stroke-linejoin="round"/>
<path d="M230.04 228.094C231.216 222.413 232.759 216.813 234.66 211.331C236.955 204.782 242.125 194.934 238.769 188.182C236.02 182.656 228.824 180.601 223.915 184.614C218.301 189.185 216.073 198.358 214.183 204.927C212.399 211.251 211.087 217.699 210.257 224.217" stroke="#263238" stroke-width="1.10721" stroke-linecap="round" stroke-linejoin="round"/>
<path d="M234.845 226.762C235.894 222.03 237.221 217.363 238.819 212.786C239.195 211.696 239.677 210.481 240.189 209.179C242.928 202.206 246.342 193.515 242.706 186.204C241.505 183.791 239.661 181.758 237.377 180.328C235.092 178.898 232.457 178.128 229.762 178.102C226.617 178.092 223.567 179.18 221.139 181.179C214.908 186.262 212.458 195.029 210.423 202.061L209.96 203.691C208.335 209.417 207.101 215.246 206.266 221.139" stroke="#263238" stroke-width="1.10721" stroke-linecap="round" stroke-linejoin="round"/>
<path d="M239.975 224.227C240.872 220.697 241.856 217.427 242.965 214.244C243.331 213.212 243.785 212.045 244.267 210.82C247.161 203.412 251.144 193.304 246.64 184.257C245.076 181.11 242.671 178.458 239.692 176.595C236.712 174.733 233.274 173.732 229.76 173.705C225.602 173.69 221.569 175.13 218.36 177.775C211.049 183.736 208.358 193.208 206.187 200.866L205.724 202.487C204.364 207.267 203.272 212.12 202.455 217.022" stroke="#263238" stroke-width="1.10721" stroke-linecap="round" stroke-linejoin="round"/>
<path d="M245.27 219.934C246.235 212.874 251.925 204.502 252.485 194.712C252.996 185.742 250.045 179.993 247.951 177.109C247.454 176.399 247.138 175.577 247.03 174.717C246.923 173.856 247.027 172.982 247.334 172.171C248.733 168.061 248.686 163.596 247.199 159.516" stroke="#263238" stroke-width="1.10721" stroke-linecap="round" stroke-linejoin="round"/>
<path d="M231.903 146.332C239.33 150.981 244.152 158.302 244.529 167.764C244.654 171.159 241.895 172.326 238.442 171.274C231.218 169.075 214.001 163.442 203.507 192.947C201.497 199.069 200.012 205.352 199.07 211.727" stroke="#263238" stroke-width="1.10721" stroke-linecap="round" stroke-linejoin="round"/>
<path d="M217.146 146.814C221.781 146.752 226.36 147.824 230.485 149.939C237.536 153.73 241.973 162.642 239.706 164.909C237.188 167.426 232.511 161.35 218.207 167.214C211.33 170.03 206.449 175.769 203.131 182.29C201.635 185.268 200.371 188.357 199.35 191.53C198.02 195.611 196.925 199.765 196.071 203.972" stroke="#263238" stroke-width="1.10721" stroke-linecap="round" stroke-linejoin="round"/>
<path d="M209.014 152.254C211.533 151.59 214.125 151.243 216.73 151.222C229.356 150.933 234.092 157.665 232.703 159.372C231.536 160.809 228.941 159.999 225.382 160.433C215.11 161.697 206.988 167.542 201.52 176.184C198.822 180.56 196.671 185.251 195.115 190.15C194.826 191.028 194.546 191.915 194.276 192.803" stroke="#263238" stroke-width="1.10721" stroke-linecap="round" stroke-linejoin="round"/>
<path d="M203.064 159.515C207.272 156.117 212.571 154.362 217.976 154.577C219.577 154.577 223.531 155.098 224.062 156.612C224.766 158.599 218.342 155.898 209.034 162.1C197.103 170.057 195.656 177.6 195.656 177.6" stroke="#263238" stroke-width="1.10721" stroke-linecap="round" stroke-linejoin="round"/>
<path d="M250.335 214.59C250.335 214.59 256.807 200.614 256.122 189.811C255.698 182.857 252.264 178.498 251.724 175.401C251.184 172.305 252.689 171.543 252.283 168.708" stroke="#263238" stroke-width="1.10721" stroke-linecap="round" stroke-linejoin="round"/>
<path d="M172.815 148.799V129.065H192.55" stroke="#263238" stroke-width="1.10721" stroke-linecap="round" stroke-linejoin="round"/>
<path d="M192.55 245.774H172.815V226.039" stroke="#263238" stroke-width="1.10721" stroke-linecap="round" stroke-linejoin="round"/>
<path d="M277.688 148.799V129.065H257.954" stroke="#263238" stroke-width="1.10721" stroke-linecap="round" stroke-linejoin="round"/>
<path d="M257.954 245.774H277.688V226.039" stroke="#263238" stroke-width="1.10721" stroke-linecap="round" stroke-linejoin="round"/>
<path d="M361.514 427.222C356.363 419.506 350.962 411.365 346.525 404.623C340.854 396.029 336.764 389.75 336.764 389.75C334.594 379.594 331.517 375.61 328.421 367.267C325.325 358.924 327.881 351.487 329.164 341.157C330.447 330.827 328.421 321.201 327.341 314.671C326.261 308.141 327.524 301.978 327.341 300.531C327.158 299.085 320.994 291.465 318.66 285.842C317.603 283.333 316.125 281.024 314.291 279.013C312.265 276.694 309.729 274.875 306.883 273.698C305.698 273.232 304.461 272.908 303.199 272.734C300.305 272.319 297.971 272.782 295.637 272.782C292.367 272.782 285.48 267.168 280.947 266.271C280.106 266.105 279.256 265.985 278.401 265.914C274.649 265.558 270.685 265.914 266.296 266.262C261.907 266.609 256.805 262.452 252.696 261.15H252.629C251.719 260.832 250.749 260.727 249.793 260.841C245.443 261.564 237.254 262.288 237.254 262.288C237.254 262.288 236.531 256.674 236.164 249.055C236.097 247.733 236 246.46 235.884 245.196C235.46 240.49 234.785 236.284 234.679 232.436C234.679 231.471 234.679 230.439 234.679 229.475C235.036 224.054 234.872 219.829 234.679 211.496C234.679 211.216 234.679 210.917 234.679 210.618C234.679 208.024 234.679 205.545 234.524 203.307C234.225 197.877 233.02 193.864 227.618 193.035C222.902 192.311 219.642 194.665 217.645 202.468C215.649 210.271 214.202 209.721 213.662 221.141C213.122 232.561 210.566 239.834 210.932 245.63C211.299 251.427 210.026 262.674 210.026 262.674C207.855 261.584 205.859 262.49 205.483 263.397C205.106 264.304 203.505 273.197 202.223 279.543C201.104 285.186 195.963 290.404 194.072 294.291V294.378C193.87 294.797 193.702 295.233 193.571 295.68C192.481 299.673 193.031 308.219 193.031 319.079C193.031 329.94 190.311 341.205 193.031 348.449C193.61 349.925 194.421 351.299 195.432 352.519C199.609 357.68 207.277 362.165 214.25 370.392C222.931 380.732 229.123 388.351 234.92 391.804C239.077 394.254 240.9 396.261 241.672 398.903C241.975 400.049 242.133 401.229 242.144 402.414C242.221 404.729 243.475 406.494 245.597 409.426C248.908 413.911 251.813 418.682 254.278 423.682C256.603 428.341 260.162 437.185 263.923 446.985L361.514 427.222Z" fill="white"/>
<path opacity="0.4" d="M234.651 229.426C234.593 230.391 234.583 231.355 234.651 232.387C227.716 231.076 214.328 234.5 214.125 238.589C213.894 243.576 213.286 255.362 215.823 258.111C218.36 260.86 223.8 262.616 223.8 262.616C223.399 262.646 222.999 262.698 222.604 262.77H222.469C220.733 263.136 219.151 264.024 217.935 265.316C212.63 270.756 212.409 282.813 214.145 288.619C221.408 312.732 209.65 331.811 205.464 329.496C201.278 327.181 200.94 306.453 202.204 301.602C202.967 298.772 203.34 295.852 203.313 292.921C201.461 292.304 197.574 293.201 194.005 294.31V294.223C195.934 290.365 201.037 285.118 202.156 279.476C203.438 273.129 205.049 264.236 205.416 263.329C205.782 262.423 207.788 261.516 209.959 262.606C209.959 262.606 211.232 251.369 210.865 245.563C210.499 239.756 213.045 232.503 213.595 221.074C214.145 209.644 215.582 210.203 217.578 202.4C219.575 194.597 222.835 192.244 227.552 192.967C232.953 193.797 234.159 197.79 234.458 203.239C233.851 202.664 233.206 202.129 232.529 201.638C230.82 200.312 228.675 199.678 226.52 199.864C224.021 200.211 221.832 202.757 220.443 205.381C218.446 209.239 218.119 213.377 220.925 211.959C224.108 210.367 230.677 210.898 234.679 211.428C234.843 219.752 235.007 224.006 234.651 229.426Z" fill="#B9AFFF"/>
<path opacity="0.4" d="M242.058 402.386C242.047 401.2 241.888 400.021 241.585 398.875C240.823 396.232 239 394.226 234.833 391.776C229.046 388.323 222.864 380.703 214.164 370.364C207.19 362.098 199.522 357.651 195.346 352.491C200.602 355.336 207.74 353.87 209.987 358.374C213.257 364.875 228.612 374.771 228.612 374.771C243.601 389.606 242.058 402.386 242.058 402.386Z" fill="#B9AFFF"/>
<path opacity="0.4" d="M252.543 261.111C250.778 260.754 245.994 272.55 245.541 276.736C244.335 287.587 249.9 321.037 242.743 320.284C239.782 319.976 236.31 304.35 236.107 297.068C235.461 274.952 236.349 265.76 236.349 265.76C236.349 265.76 234.767 253.51 235.828 245.167C235.943 246.421 236.04 247.694 236.107 249.025C236.474 256.645 237.197 262.258 237.197 262.258C237.197 262.258 245.357 261.535 249.736 260.812C250.682 260.699 251.642 260.801 252.543 261.111Z" fill="#B9AFFF"/>
<path opacity="0.4" d="M278.314 265.904C274.456 266.252 270.598 270.023 267.425 270.727C263.567 271.547 256.477 262.857 252.61 261.159C256.719 262.461 261.869 266.551 266.209 266.271C270.55 265.991 274.562 265.548 278.314 265.904Z" fill="#B9AFFF"/>
<path opacity="0.4" d="M303.15 272.724C301.238 275.118 299.7 277.788 298.588 280.643C295.482 290.684 298.414 328.676 293.408 322.455C286.888 314.372 293.697 286.334 288.942 275.627C287.438 272.203 282.065 266.725 280.898 266.262C285.431 267.159 292.318 272.772 295.588 272.772C297.922 272.772 300.266 272.309 303.15 272.724Z" fill="#B9AFFF"/>
<path opacity="0.4" d="M346.507 404.613C341.424 398.884 336.1 393.424 332.618 391.38C324.14 386.383 321.709 381.214 320.976 372.6C320.243 363.987 322.433 364.17 324.97 355.654C327.506 347.137 322.79 336.604 323.156 338.881C323.523 341.157 319.52 356.917 316.578 357.698C313.636 358.48 312.643 347.851 312.276 339.189C311.91 330.528 316.626 290.191 315.305 282.282C315.126 281.134 314.768 280.021 314.244 278.983C316.078 280.995 317.556 283.304 318.613 285.812C320.976 291.435 327.14 299.055 327.294 300.502C327.448 301.949 326.204 308.122 327.294 314.642C328.384 321.162 330.381 330.778 329.117 341.128C327.854 351.477 325.259 358.894 328.374 367.238C331.49 375.581 334.547 379.564 336.718 389.721C336.746 389.74 340.836 396.019 346.507 404.613Z" fill="#B9AFFF"/>
<path opacity="0.4" d="M269.952 287.366C271.881 289.391 273.097 315.935 274.187 322.465C275.276 328.995 271.891 344.649 269.952 339.884C268.014 335.119 262.101 279.109 269.952 287.366Z" fill="#B9AFFF"/>
<path d="M262.477 443.234C259.275 434.959 256.314 427.715 254.289 423.655C251.824 418.655 248.919 413.884 245.608 409.399C243.486 406.505 242.232 404.702 242.155 402.387C242.144 401.201 241.985 400.022 241.682 398.876V398.876C240.92 396.233 239.097 394.227 234.931 391.777C229.143 388.324 222.961 380.704 214.261 370.365C207.287 362.099 199.619 357.652 195.443 352.492C194.431 351.271 193.62 349.897 193.041 348.422C190.321 341.178 193.041 329.922 193.041 319.052C193.041 308.181 192.491 299.645 193.581 295.652C193.713 295.205 193.88 294.77 194.083 294.35V294.263C196.012 290.405 201.114 285.158 202.233 279.516C203.516 273.169 205.127 264.276 205.493 263.37C205.86 262.463 207.866 261.556 210.036 262.646C210.036 262.646 211.309 251.409 210.943 245.603C210.576 239.797 213.123 232.543 213.672 221.114C214.222 209.684 215.659 210.243 217.656 202.44C219.652 194.637 222.913 192.284 227.629 193.007C233.03 193.837 234.236 197.83 234.535 203.28C234.66 205.517 234.641 207.996 234.689 210.591C234.689 210.89 234.689 211.189 234.689 211.468C234.863 219.773 235.027 224.007 234.689 229.447C234.632 230.412 234.622 231.376 234.689 232.408C234.796 236.266 235.471 240.462 235.895 245.169C236.011 246.423 236.107 247.696 236.175 249.027C236.541 256.647 237.265 262.26 237.265 262.26C237.265 262.26 245.425 261.537 249.804 260.814C250.76 260.699 251.73 260.805 252.639 261.122H252.707C256.816 262.424 261.966 266.514 266.307 266.234C270.647 265.955 274.659 265.53 278.411 265.887C279.266 265.958 280.116 266.077 280.958 266.244C285.491 267.141 292.378 272.754 295.647 272.754C297.982 272.754 300.325 272.291 303.209 272.706C304.471 272.881 305.708 273.204 306.894 273.671C309.74 274.847 312.275 276.666 314.301 278.985C316.135 280.997 317.613 283.306 318.671 285.814C321.034 291.437 327.197 299.057 327.351 300.504C327.506 301.951 326.262 308.124 327.351 314.644C328.441 321.164 330.438 330.78 329.174 341.13C327.911 351.479 325.316 358.896 328.432 367.239C331.547 375.583 334.605 379.566 336.775 389.723C336.775 389.723 340.864 396.002 346.536 404.596C350.471 410.566 355.159 417.665 359.769 424.561" stroke="#263238" stroke-width="1.10721" stroke-linecap="round" stroke-linejoin="round"/>
<path d="M209.987 262.615C209.987 270.602 209.263 280.507 208.058 284.626C206.852 288.744 207.662 302.518 205.444 308.315" stroke="#263238" stroke-width="1.10721" stroke-linecap="round" stroke-linejoin="round"/>
<path d="M214.105 268.904C214.105 268.904 219.66 262.615 223.75 262.615C227.839 262.615 231.977 265.277 236.289 265.759C240.6 266.242 245.172 263.03 249.348 262.258" stroke="#263238" stroke-width="1.10721" stroke-linecap="round" stroke-linejoin="round"/>
<path d="M217.242 239.804C217.242 239.804 224.746 237.065 228.613 239.804" stroke="#263238" stroke-width="1.10721" stroke-linecap="round" stroke-linejoin="round"/>
<path d="M222.932 236.246C222.932 236.246 225.228 235.619 228.613 237.258" stroke="#263238" stroke-width="1.10721" stroke-linecap="round" stroke-linejoin="round"/>
<path d="M220.924 216.954C223.465 216.388 226.099 216.388 228.64 216.954" stroke="#263238" stroke-width="1.10721" stroke-linecap="round" stroke-linejoin="round"/>
<path d="M193.995 294.222C193.995 294.222 198.817 291.879 200.746 291.637" stroke="#263238" stroke-width="1.10721" stroke-linecap="round" stroke-linejoin="round"/>
<path d="M206.736 301.651C206.736 301.651 203.843 306.146 203.302 308.316" stroke="#263238" stroke-width="1.10721" stroke-linecap="round" stroke-linejoin="round"/>
<path d="M220.925 197.336C220.925 197.336 219.767 206.567 220.925 207.386C222.082 208.206 231.023 208.988 231.756 207.386C232.489 205.785 232.615 199.024 232.615 199.024C232.615 199.024 227.262 189.832 220.925 197.336Z" stroke="#263238" stroke-width="1.10721" stroke-linecap="round" stroke-linejoin="round"/>
<path d="M202.193 279.485C202.193 279.485 209.61 275.743 209.783 270.39C209.957 265.036 207.777 265.094 205.019 265.065" stroke="#263238" stroke-width="1.10721" stroke-linecap="round" stroke-linejoin="round"/>
<path d="M317.83 291.637C318.072 300.096 315.66 324.759 315.409 328.386C315.159 332.013 315.409 341.282 315.409 341.282" stroke="#263238" stroke-width="1.10721" stroke-linecap="round" stroke-linejoin="round"/>
<path d="M264.879 272.27C272.855 283.844 264.879 279.484 269.952 334.916" stroke="#263238" stroke-width="1.10721" stroke-linecap="round" stroke-linejoin="round"/>
<path d="M336.745 389.741C336.745 389.741 329.675 384.243 328.459 381.061" stroke="#263238" stroke-width="1.10721" stroke-linecap="round" stroke-linejoin="round"/>
<path d="M238.036 387.136C240.158 390.656 241.499 398.373 241.576 398.845" stroke="#263238" stroke-width="1.10721" stroke-linecap="round" stroke-linejoin="round"/>
</svg>
