<svg width="411" height="405" viewBox="0 0 411 405" fill="none" xmlns="http://www.w3.org/2000/svg">
<path d="M354.864 117.306H10.1473V140.674H354.864V117.306Z" fill="#263238"/>
<path d="M35.4575 1.38184V124.04" stroke="#263238" stroke-width="2" stroke-miterlimit="10"/>
<path d="M84.4778 1.38184V124.04" stroke="#263238" stroke-width="2" stroke-miterlimit="10"/>
<path d="M133.49 1.38184V124.04" stroke="#263238" stroke-width="2" stroke-miterlimit="10"/>
<path d="M182.51 1.38184V124.04" stroke="#263238" stroke-width="2" stroke-miterlimit="10"/>
<path d="M231.522 1.38184V124.04" stroke="#263238" stroke-width="2" stroke-miterlimit="10"/>
<path d="M280.542 1.38184V124.04" stroke="#263238" stroke-width="2" stroke-miterlimit="10"/>
<path d="M329.554 1.38184V124.04" stroke="#263238" stroke-width="2" stroke-miterlimit="10"/>
<path d="M10.9516 32.8357H354.06" stroke="#263238" stroke-width="2" stroke-miterlimit="10"/>
<path d="M10.9516 79.5627H354.06" stroke="#263238" stroke-width="2" stroke-miterlimit="10"/>
<path d="M406.648 0.808594H319.363V140.665H406.648V0.808594Z" fill="#263238"/>
<path d="M35.3548 376.123V350.959" stroke="#B5ACFF" stroke-linecap="round" stroke-linejoin="round"/>
<path d="M30.2209 376.046H40.3689L37.8362 403.795H32.7622L30.2209 376.046Z" fill="#263238" stroke="#263238" stroke-linecap="round" stroke-linejoin="round"/>
<path d="M35.158 373.856C34.3447 372.722 33.3188 371.758 32.1376 371.015C30.7031 370.395 29.1569 370.075 27.5941 370.074C27.5941 370.074 29.1086 375.559 35.158 373.856Z" fill="#B5ACFF"/>
<path d="M35.3548 373.856C36.1682 372.722 37.194 371.758 38.3752 371.015C39.8097 370.395 41.3559 370.075 42.9188 370.074C42.9188 370.074 41.4043 375.559 35.3548 373.856Z" fill="#B5ACFF"/>
<path d="M35.158 367.045C34.3472 365.909 33.3209 364.944 32.1376 364.204C30.7045 363.579 29.1578 363.255 27.5941 363.254C27.5941 363.254 29.1086 368.748 35.158 367.045Z" fill="#B5ACFF"/>
<path d="M35.3548 367.045C36.1657 365.909 37.1919 364.944 38.3752 364.204C39.8083 363.579 41.3551 363.255 42.9188 363.254C42.9188 363.254 41.4043 368.748 35.3548 367.045Z" fill="#B5ACFF"/>
<path d="M35.158 360.225C34.3458 359.093 33.3197 358.131 32.1376 357.393C30.7045 356.768 29.1578 356.444 27.5941 356.443C27.5941 356.443 29.1086 361.928 35.158 360.225Z" fill="#B5ACFF"/>
<path d="M35.3548 360.225C36.167 359.093 37.1932 358.131 38.3752 357.393C39.8083 356.768 41.3551 356.444 42.9188 356.443C42.9188 356.443 41.4043 361.928 35.3548 360.225Z" fill="#B5ACFF"/>
<path d="M35.158 353.414C34.3447 352.281 33.3188 351.316 32.1376 350.574C30.7031 349.953 29.1569 349.633 27.5941 349.632C27.5941 349.632 29.1086 355.117 35.158 353.414Z" fill="#B5ACFF"/>
<path d="M35.3548 353.414C36.1682 352.281 37.194 351.316 38.3752 350.574C39.8097 349.953 41.3559 349.633 42.9188 349.632C42.9188 349.632 41.4043 355.117 35.3548 353.414Z" fill="#B5ACFF"/>
<path d="M35.3548 350.959C34.4957 349.786 33.9482 348.414 33.7633 346.971C33.8516 345.411 34.2593 343.885 34.9612 342.488C34.9612 342.488 39.5989 346.321 35.3548 350.959Z" fill="#B5ACFF"/>
<path d="M373.825 376.123V350.959" stroke="#B5ACFF" stroke-linecap="round" stroke-linejoin="round"/>
<path d="M368.7 376.046H378.848L376.307 403.795H371.233L368.7 376.046Z" fill="#263238" stroke="#263238" stroke-linecap="round" stroke-linejoin="round"/>
<path d="M373.611 373.856C372.794 372.723 371.765 371.759 370.582 371.015C369.151 370.395 367.607 370.075 366.047 370.074C366.047 370.074 367.622 375.559 373.611 373.856Z" fill="#B5ACFF"/>
<path d="M373.825 373.856C374.643 372.723 375.671 371.759 376.854 371.015C378.289 370.395 379.835 370.075 381.398 370.074C381.398 370.074 379.883 375.559 373.825 373.856Z" fill="#B5ACFF"/>
<path d="M373.611 367.045C372.796 365.91 371.767 364.945 370.582 364.204C369.152 363.579 367.608 363.255 366.047 363.254C366.047 363.254 367.622 368.748 373.611 367.045Z" fill="#B5ACFF"/>
<path d="M373.825 367.045C374.64 365.91 375.669 364.945 376.854 364.204C378.287 363.579 379.834 363.255 381.398 363.254C381.398 363.254 379.883 368.748 373.825 367.045Z" fill="#B5ACFF"/>
<path d="M373.611 360.225C372.795 359.094 371.766 358.132 370.582 357.393C369.152 356.768 367.608 356.444 366.047 356.443C366.047 356.443 367.622 361.928 373.611 360.225Z" fill="#B5ACFF"/>
<path d="M373.825 360.225C374.642 359.094 375.671 358.132 376.854 357.393C378.287 356.768 379.834 356.444 381.398 356.443C381.398 356.443 379.883 361.928 373.825 360.225Z" fill="#B5ACFF"/>
<path d="M373.611 353.414C372.794 352.281 371.765 351.317 370.582 350.574C369.151 349.954 367.607 349.633 366.047 349.632C366.047 349.632 367.622 355.117 373.611 353.414Z" fill="#B5ACFF"/>
<path d="M373.825 353.414C374.643 352.281 375.671 351.317 376.854 350.574C378.289 349.953 379.835 349.633 381.398 349.632C381.398 349.632 379.883 355.117 373.825 353.414Z" fill="#B5ACFF"/>
<path d="M373.825 350.959C372.966 349.786 372.419 348.414 372.234 346.971C372.323 345.41 372.734 343.883 373.44 342.488C373.44 342.488 378.078 346.321 373.825 350.959Z" fill="#B5ACFF"/>
<path d="M330.692 111.316V86.1428" stroke="#B5ACFF" stroke-linecap="round" stroke-linejoin="round"/>
<path d="M325.566 111.23H335.714L333.173 138.979H328.099L325.566 111.23Z" fill="white" stroke="#263238" stroke-linecap="round" stroke-linejoin="round"/>
<path d="M330.504 109.031C329.686 107.899 328.657 106.934 327.475 106.191C326.043 105.571 324.5 105.251 322.94 105.25C322.94 105.25 324.454 110.743 330.504 109.031Z" fill="#B5ACFF"/>
<path d="M330.692 109.031C331.509 107.899 332.538 106.934 333.721 106.191C335.155 105.57 336.701 105.25 338.264 105.25C338.264 105.25 336.75 110.743 330.692 109.031Z" fill="#B5ACFF"/>
<path d="M330.504 102.229C329.686 101.096 328.657 100.132 327.475 99.3882C326.043 98.7684 324.5 98.448 322.94 98.447C322.94 98.447 324.454 103.898 330.504 102.229Z" fill="#B5ACFF"/>
<path d="M330.692 102.229C331.509 101.096 332.538 100.132 333.721 99.3882C335.155 98.7679 336.701 98.4476 338.264 98.447C338.264 98.447 336.75 103.898 330.692 102.229Z" fill="#B5ACFF"/>
<path d="M330.504 95.418C329.686 94.2851 328.657 93.3206 327.475 92.5772C326.044 91.9518 324.5 91.6285 322.94 91.6274C322.94 91.6274 324.454 97.1207 330.504 95.418Z" fill="#B5ACFF"/>
<path d="M330.692 95.418C331.509 94.2851 332.538 93.3206 333.721 92.5772C335.154 91.9516 336.701 91.6283 338.264 91.6274C338.264 91.6274 336.75 97.1207 330.692 95.418Z" fill="#B5ACFF"/>
<path d="M330.504 88.6072C329.688 87.4722 328.659 86.5072 327.475 85.7664C326.044 85.141 324.5 84.8177 322.94 84.8167C322.94 84.8167 324.454 90.3099 330.504 88.6072Z" fill="#B5ACFF"/>
<path d="M330.692 88.6072C331.507 87.4722 332.536 86.5072 333.721 85.7664C335.154 85.1408 336.701 84.8175 338.264 84.8167C338.264 84.8167 336.75 90.3099 330.692 88.6072Z" fill="#B5ACFF"/>
<path d="M330.692 86.1428C329.833 84.9696 329.285 83.5978 329.1 82.1555C329.195 80.5975 329.606 79.075 330.307 77.6804C330.307 77.6804 334.944 81.5052 330.692 86.1428Z" fill="#B5ACFF"/>
<path d="M358.218 6.14795H328.356V46.3978H358.218V6.14795Z" fill="#B5ACFF" stroke="#263238" stroke-linecap="round" stroke-linejoin="round"/>
<path d="M353.88 11.9919H332.685V40.5622H353.88V11.9919Z" fill="white" stroke="#263238" stroke-linecap="round" stroke-linejoin="round"/>
<path d="M394.156 21.8406H369.855V54.5949H394.156V21.8406Z" fill="#B5ACFF" stroke="#263238" stroke-linecap="round" stroke-linejoin="round"/>
<path d="M390.622 26.5896H373.38V49.8291H390.622V26.5896Z" fill="white" stroke="#263238" stroke-linecap="round" stroke-linejoin="round"/>
<path d="M368.572 57.9321H347.796V85.9291H368.572V57.9321Z" fill="#B5ACFF" stroke="#263238" stroke-linecap="round" stroke-linejoin="round"/>
<path d="M365.56 61.9963H350.817V81.8646H365.56V61.9963Z" fill="white" stroke="#263238" stroke-linecap="round" stroke-linejoin="round"/>
<path d="M175.742 74.6001H148.729C148.435 74.6024 148.155 74.7205 147.948 74.9289C147.741 75.1373 147.625 75.4189 147.625 75.7124C147.625 76.0052 147.741 76.2859 147.948 76.4929C148.155 76.6999 148.436 76.8162 148.729 76.8162H176.811V75.7124C176.814 75.4241 176.703 75.1462 176.503 74.9383C176.303 74.7304 176.03 74.609 175.742 74.6001Z" fill="white" stroke="#263238" stroke-linecap="round" stroke-linejoin="round"/>
<path d="M164.319 46.8855H129.93C129.235 46.8855 128.672 47.4486 128.672 48.1433V71.1176C128.672 71.8122 129.235 72.3754 129.93 72.3754H164.319C165.013 72.3754 165.577 71.8122 165.577 71.1176V48.1433C165.577 47.4486 165.013 46.8855 164.319 46.8855Z" fill="#263238" stroke="#263238" stroke-linecap="round" stroke-linejoin="round"/>
<path d="M158.244 53.688H134.542C133.847 53.688 133.284 54.2511 133.284 54.9458V71.1262C133.284 71.8209 133.847 72.384 134.542 72.384H158.244C158.938 72.384 159.501 71.8209 159.501 71.1262V54.9458C159.501 54.2511 158.938 53.688 158.244 53.688Z" fill="#474747" stroke="#263238" stroke-linecap="round" stroke-linejoin="round"/>
<path d="M147.565 65.342H144.981C144.286 65.342 143.723 65.9052 143.723 66.5999V76.9532C143.723 77.6479 144.286 78.2111 144.981 78.2111H147.565C148.26 78.2111 148.823 77.6479 148.823 76.9532V66.5999C148.823 65.9052 148.26 65.342 147.565 65.342Z" fill="white" stroke="#263238" stroke-linecap="round" stroke-linejoin="round"/>
<path d="M200.539 78.6987L210.182 42.5987C210.514 41.3611 211.28 40.2843 212.341 39.5649C213.401 38.8454 214.685 38.5313 215.957 38.6798L230.213 39.2189C230.908 39.3016 231.581 39.5206 232.192 39.8635C232.803 40.2063 233.34 40.6663 233.773 41.217C234.207 41.7677 234.527 42.3984 234.716 43.073C234.905 43.7476 234.959 44.4529 234.876 45.1485L230.717 78.8869L200.539 78.6987Z" fill="#B5B5B5" stroke="#263238" stroke-linecap="round" stroke-linejoin="round"/>
<path d="M205.21 53.1062H196.098L181.09 60.0113L181.817 66.3346L194.172 64.127L194.463 79.4175H213.604L216.984 70.0053L221.262 78.5619C221.295 78.6289 221.343 78.6871 221.403 78.7318C221.463 78.7765 221.532 78.8063 221.606 78.8189C221.68 78.8314 221.755 78.8263 221.826 78.8039C221.897 78.7815 221.962 78.7426 222.015 78.6902L236.707 63.8361L234.645 61.9194L223.769 67.6523L218.473 55.4507L205.21 53.1062Z" fill="#B5ACFF" stroke="#263238" stroke-linecap="round" stroke-linejoin="round"/>
<path d="M201.386 53.106C201.386 53.106 197.86 60.8925 197.86 65.8895C197.86 70.8865 200.949 77.0643 200.949 77.0643L206.237 78.0911C208.81 74.6772 210.523 70.6949 211.234 66.4799C211.771 62.4849 211.92 58.4474 211.679 54.4237C211.679 54.4237 208 52.952 201.386 53.106Z" fill="#B5ACFF" stroke="#263238" stroke-linecap="round" stroke-linejoin="round"/>
<path d="M203.448 54.2698C202.47 58.2298 201.831 62.266 201.54 66.3345C201.24 72.0674 200.949 79.4174 200.949 79.4174H205.655C205.655 79.4174 208 62.3643 208.89 58.394C209.78 54.4238 208 51.7799 203.448 54.2698Z" fill="white" stroke="#263238" stroke-linecap="round" stroke-linejoin="round"/>
<path d="M200.77 38.7996C200.77 38.7996 197.578 38.2006 197.219 35.5738C196.859 32.9469 200.744 29.9008 205.775 28.7714C210.806 27.6419 216.36 32.3737 217.095 36.7204C217.831 41.0671 219.466 46.4834 218.439 48.6995C217.412 50.9156 212.62 51.7199 207.521 52.4216C202.421 53.1232 199.691 50.522 199.597 48.7508C199.503 46.9796 200.77 38.7996 200.77 38.7996Z" fill="#263238" stroke="#263238" stroke-linecap="round" stroke-linejoin="round"/>
<path d="M205.21 52.3703C205.21 52.3703 203.739 52.3703 203.302 53.1061C202.866 53.842 199.88 59.0957 199.88 59.0957L205.313 58.3599L211.345 60.5674C211.345 60.5674 211.491 54.8346 210.9 53.5083C210.31 52.182 205.21 52.3703 205.21 52.3703Z" fill="white" stroke="#263238" stroke-linecap="round" stroke-linejoin="round"/>
<path d="M204.774 49.4268C204.774 49.4268 204.475 56.041 204.475 57.5127C204.484 57.893 204.62 58.2593 204.861 58.5536C205.102 58.848 205.435 59.0536 205.806 59.138C206.177 59.2224 206.565 59.1808 206.91 59.0197C207.254 58.8586 207.536 58.5873 207.709 58.2485C208.736 56.6314 209.617 49.4268 209.617 49.4268H204.774Z" fill="white" stroke="#263238" stroke-linecap="round" stroke-linejoin="round"/>
<path d="M192.273 37.9611L196.979 48.6909L201.54 46.9283L196.979 36.7888L192.273 37.9611Z" fill="#263238" stroke="#263238" stroke-linecap="round" stroke-linejoin="round"/>
<path d="M205.159 34.1963C205.51 34.5386 202.857 37.3708 200.804 37.9612C199.811 38.2435 200.804 42.8127 200.504 44.7208C200.188 46.8 204.517 51.1981 206.263 50.9585C210.062 50.4366 211.517 49.2472 212.021 47.5359C212.2 46.766 212.332 45.9859 212.415 45.2C212.415 45.2 214.323 46.5177 214.623 44.6096C214.922 42.7015 213.887 42.1111 213.887 42.1111C213.887 42.1111 205.501 40.5795 205.159 34.1963Z" fill="white" stroke="#263238" stroke-linecap="round" stroke-linejoin="round"/>
<path d="M234.611 61.9194L236.519 56.9224L239.813 55.4935L239.907 55.4592V56.7769L237.99 57.9577H241.37L243.287 55.8956L244.023 56.3405L242.252 61.0381L236.673 63.8361L234.611 61.9194Z" fill="white" stroke="#263238" stroke-linecap="round" stroke-linejoin="round"/>
<path d="M194.19 48.9905L191.982 42.8126L195.216 39.2874L196.072 39.8692C196.072 39.8692 195.336 42.9581 195.336 43.403C195.987 45.0074 196.724 46.5755 197.544 48.1006L192.41 54.4238L190.211 52.0708L194.19 48.9905Z" fill="white" stroke="#263238" stroke-linecap="round" stroke-linejoin="round"/>
<path d="M190.219 52.0708L179.258 59.7717C178.749 60.1274 178.341 60.6094 178.074 61.1704C177.807 61.7314 177.69 62.3522 177.735 62.9718L177.795 63.8275C177.859 64.6719 178.221 65.4661 178.817 66.068C179.413 66.67 180.203 67.0404 181.047 67.1132C181.688 67.1681 182.333 67.0493 182.912 66.7692C183.492 66.4892 183.985 66.0583 184.341 65.5217L192.418 54.4923L190.219 52.0708Z" fill="#B5ACFF" stroke="#263238" stroke-linecap="round" stroke-linejoin="round"/>
<path d="M124.676 76.6965H272.961V136.592H124.676C124.343 136.592 124.023 136.46 123.787 136.224C123.551 135.988 123.419 135.668 123.419 135.334V78.0057C123.412 77.8362 123.439 77.6671 123.499 77.5086C123.559 77.35 123.651 77.2052 123.768 77.0829C123.886 76.9606 124.027 76.8633 124.183 76.7969C124.339 76.7305 124.507 76.6964 124.676 76.6965Z" fill="white" stroke="#263238" stroke-linecap="round" stroke-linejoin="round"/>
<path d="M225.173 70.6299H240.266L238.119 76.8077H223.025L225.173 70.6299Z" fill="#263238" stroke="#263238" stroke-linecap="round" stroke-linejoin="round"/>
<path d="M251.407 70.6299H225.566L227.714 76.8077H253.555L251.407 70.6299Z" fill="white" stroke="#263238" stroke-linecap="round" stroke-linejoin="round"/>
<path d="M233.199 72.7605L233.378 73.2226C233.609 73.7958 233.455 74.0782 232.899 74.0782H232.634L233.173 75.413H232.608L231.197 71.8621H232.052C232.314 71.8705 232.566 71.9622 232.772 72.1237C232.979 72.2853 233.128 72.5083 233.199 72.7605ZM231.958 72.3926L232.437 73.599H232.702C232.874 73.599 232.942 73.5135 232.839 73.2568L232.625 72.7263C232.523 72.4696 232.394 72.3926 232.215 72.3926H231.958Z" fill="#263238"/>
<path d="M235.697 75.4386C235.598 75.306 235.52 75.1588 235.466 75.0022L235.244 74.446C235.115 74.1123 234.953 73.9925 234.696 73.9925H234.508L235.081 75.4386H234.525L233.105 71.8876H233.96C234.222 71.8772 234.479 71.9563 234.689 72.112C234.899 72.2676 235.049 72.4903 235.115 72.7433L235.227 73.0257C235.369 73.385 235.344 73.6246 235.15 73.7444C235.309 73.813 235.452 73.9161 235.568 74.0462C235.683 74.1764 235.768 74.3305 235.817 74.4974L236.04 75.045C236.09 75.2029 236.168 75.3506 236.271 75.4814L235.697 75.4386ZM233.866 72.3925L234.303 73.4791H234.525C234.73 73.4791 234.825 73.3936 234.705 73.1112L234.568 72.7604C234.465 72.5037 234.337 72.3925 234.14 72.3925H233.866Z" fill="#263238"/>
<path d="M236.305 73.3851H237.066L237.272 73.8899H236.51L236.921 74.9253H237.888L238.093 75.4387H236.57L235.15 71.8877H236.707L236.904 72.3925H235.945L236.305 73.3851Z" fill="#263238"/>
<path d="M237.751 71.845C238.012 71.8485 238.265 71.9326 238.477 72.0858C238.688 72.2389 238.847 72.4537 238.932 72.7006V72.8119H238.418L238.358 72.6664C238.264 72.4097 238.119 72.3156 237.939 72.3156C237.759 72.3156 237.699 72.4097 237.802 72.6664C238.093 73.4023 239.24 73.522 239.65 74.5488C239.873 75.1221 239.719 75.4473 239.171 75.4473C238.903 75.4438 238.643 75.3548 238.429 75.1932C238.215 75.0316 238.058 74.8058 237.982 74.5488L237.896 74.3349H238.418L238.512 74.5831C238.615 74.8398 238.769 74.9339 238.94 74.9339C239.111 74.9339 239.197 74.8398 239.094 74.5831C238.803 73.8558 237.657 73.7274 237.255 72.7006C237.058 72.1701 237.212 71.845 237.751 71.845Z" fill="#263238"/>
<path d="M238.915 71.8877H239.471L240.891 75.4387H240.335L238.915 71.8877Z" fill="#263238"/>
<path d="M239.881 71.8878H240.737C241 71.8848 241.256 71.9664 241.469 72.1205C241.682 72.2746 241.839 72.493 241.918 72.7434L242.637 74.5403C242.868 75.1136 242.714 75.396 242.157 75.396H241.302L239.881 71.8878ZM240.643 72.3926L241.653 74.9596H241.969C242.149 74.9596 242.217 74.874 242.115 74.6173L241.379 72.7691C241.276 72.521 241.131 72.4268 240.951 72.4268L240.643 72.3926Z" fill="#263238"/>
<path d="M243.107 73.3851H243.869L244.074 73.8899H243.313L243.723 74.9253H244.69L244.896 75.4387H243.372L241.952 71.8877H243.475L243.672 72.3925H242.697L243.107 73.3851Z" fill="#263238"/>
<path d="M244.707 72.8632L245.734 75.4301H245.263L243.852 71.8792H244.545L245.974 74.0012L245.118 71.8792H245.614L246.975 75.4387H246.401L244.707 72.8632Z" fill="#263238"/>
<path d="M245.82 71.8877H247.531L247.736 72.3925H247.154L248.369 75.4387H247.83L246.607 72.3925H246.025L245.82 71.8877Z" fill="#263238"/>
<path d="M122.169 76.6965H275.468V79.6999H122.169C121.836 79.6999 121.516 79.5674 121.28 79.3315C121.044 79.0956 120.911 78.7757 120.911 78.4421V77.9543C120.911 77.6208 121.044 77.3008 121.28 77.0649C121.516 76.8291 121.836 76.6965 122.169 76.6965Z" fill="#263238"/>
<path d="M260.828 225.939L283.631 231.501C283.873 231.577 284.095 231.705 284.282 231.876C284.468 232.048 284.614 232.259 284.709 232.494C284.804 232.729 284.846 232.982 284.831 233.235C284.816 233.488 284.745 233.735 284.623 233.957L265.722 269.116L273.714 275.815L265.217 274.01L258.518 271.28L259.51 267.062L271.583 237.919C271.643 237.761 271.663 237.591 271.643 237.423C271.622 237.256 271.561 237.096 271.465 236.957C271.369 236.818 271.241 236.705 271.092 236.627C270.943 236.548 270.777 236.507 270.608 236.507H245.263C245.263 236.507 240.13 231.724 245.092 225.229L260.828 225.939Z" fill="#263238" stroke="#263238" stroke-linecap="round" stroke-linejoin="round"/>
<path d="M253.264 269.287V246.278H250.021V243.198H258.389V246.278H255.146V268.979L270.865 273.069V274.266H269.153L255.146 271.631V274.266H253.264V271.854L240.446 274.266H238.743V273.069L253.264 269.287Z" fill="#263238"/>
<path d="M262.317 243.369H237.374L234.996 239.399C234.104 237.927 233.568 236.267 233.43 234.552C233.292 232.836 233.555 231.112 234.2 229.516L235.706 225.768" stroke="#263238" stroke-width="2" stroke-linecap="round" stroke-linejoin="round"/>
<path d="M263.172 202.871L268.306 209.451L281.629 210.649C281.629 210.649 287.173 208.082 288.371 208.082C289.569 208.082 292.863 213.327 292.863 213.327H281.004L267.228 215.578L260.939 211.376L263.172 202.871Z" fill="#5C5C5C" stroke="#263238" stroke-linecap="round" stroke-linejoin="round"/>
<path d="M262.83 199.799L266.013 219.479C266.27 221.062 266.39 225.649 264.558 226.521C264.208 226.659 263.831 226.717 263.455 226.692C260.93 226.692 258.492 225.965 256.01 225.965H246.658C246.081 225.965 245.515 225.798 245.031 225.484C244.547 225.17 244.164 224.721 243.929 224.194L243.758 223.809C243.494 223.215 243.431 222.551 243.578 221.918C244.682 217.203 249.473 199.055 250.534 197.104C251.724 194.888 255.831 193.348 255.831 193.348L262.83 199.799Z" fill="#B5ACFF" stroke="#263238" stroke-linecap="round" stroke-linejoin="round"/>
<path d="M266.398 192.791L263.669 194.006L261.692 198.285L256.224 192.971L257.739 189.48C257.739 189.48 255.762 186.588 256.224 184.004C256.686 181.42 261.538 178.69 264.122 181.12C266.706 183.55 266.398 192.791 266.398 192.791Z" fill="white" stroke="#263238" stroke-linecap="round" stroke-linejoin="round"/>
<path d="M267.416 180.906C267.416 180.906 269.222 180.504 269.025 178.904C268.828 177.304 267.416 179.101 267.416 177.304C267.416 175.507 269.025 174.9 268.024 173.881C267.023 172.863 263.814 172.281 263.018 173.685C262.223 175.088 262.411 175.884 261.812 175.884C261.213 175.884 259.613 174.48 258.389 176.286C257.166 178.091 257.593 178.69 257.593 178.69C257.593 178.69 252.99 180.487 252.99 183.49C252.99 186.494 257.722 189.412 257.722 189.412C257.722 189.412 260.794 189.694 262.197 188.299C263.6 186.905 264.002 184.492 264.396 183.49C264.789 182.489 267.416 180.906 267.416 180.906Z" fill="#263238" stroke="#263238" stroke-linecap="round" stroke-linejoin="round"/>
<path d="M266.706 179.58L268.067 183.679V184.74L270.017 186.691V186.742L268.52 188.539L268.666 192.492L265.243 192.74C264.433 192.798 263.625 192.594 262.94 192.158C262.254 191.722 261.727 191.077 261.435 190.319L260.622 188.231C260.203 188.06 259.847 187.763 259.604 187.382C259.36 187 259.241 186.552 259.262 186.1C259.262 184.389 259.108 183.824 260.015 183.824C260.683 183.847 261.346 183.947 261.991 184.124L262.907 183.67L262.753 182.147L264.122 181.086L264.276 179.572L266.706 179.58Z" fill="white" stroke="#263238" stroke-linecap="round" stroke-linejoin="round"/>
<path d="M256.678 190.746L264.712 198.601L263.172 202.871L254.633 193.305L256.678 190.746Z" fill="#B5ACFF" stroke="#263238" stroke-linecap="round" stroke-linejoin="round"/>
<path d="M243.184 242.522H269.324C270.459 242.522 271.378 241.603 271.378 240.468V238.081C271.378 236.947 270.459 236.028 269.324 236.028H243.184C242.05 236.028 241.131 236.947 241.131 238.081V240.468C241.131 241.603 242.05 242.522 243.184 242.522Z" fill="#B5B5B5" stroke="#263238" stroke-linecap="round" stroke-linejoin="round"/>
<path d="M237.929 233.377L240.636 233.026C241.386 232.929 241.915 232.242 241.818 231.492L239.379 212.689C239.281 211.939 238.595 211.41 237.845 211.507L235.138 211.858C234.388 211.955 233.859 212.642 233.956 213.392L236.395 232.196C236.493 232.946 237.179 233.475 237.929 233.377Z" fill="#B5B5B5" stroke="#263238" stroke-linecap="round" stroke-linejoin="round"/>
<path d="M256.678 197.574L264.516 211.504L279.233 210.906C279.233 210.906 285.556 209.536 286.583 209.365C287.61 209.194 290.51 212.617 290.51 212.617H280.243L261.598 218.17L250.004 204.069" fill="#B5ACFF"/>
<path d="M256.678 197.574L264.516 211.504L279.233 210.906C279.233 210.906 285.556 209.536 286.583 209.365C287.61 209.194 290.51 212.617 290.51 212.617H280.243L261.598 218.17L250.004 204.069" stroke="#263238" stroke-linecap="round" stroke-linejoin="round"/>
<path d="M279.259 212.848L278.882 210.897H279.233C279.233 210.897 285.556 209.528 286.583 209.357C287.61 209.186 290.51 212.608 290.51 212.608H280.243L279.259 212.848Z" fill="white" stroke="#263238" stroke-linecap="round" stroke-linejoin="round"/>
<path d="M360.391 235.668C360.391 235.668 376.23 264.974 376.726 266.146C377.202 267.487 377.445 268.899 377.445 270.322C377.445 270.322 377.265 270.681 376.538 270.681C375.81 270.681 368.375 273.95 366.381 273.95H362.753L365.474 271.588L368.554 268.166C368.554 268.166 370.266 268.559 370.266 265.291C370.266 262.022 350.962 236.053 350.235 234.059C349.508 232.066 353.504 230.799 354.77 230.979C356.036 231.159 359.673 231.706 359.673 231.706L360.391 235.668Z" fill="#5C5C5C" stroke="#263238" stroke-linecap="round" stroke-linejoin="round"/>
<path d="M374.364 224.322L347.206 232.092C346.958 232.164 346.729 232.291 346.537 232.464C346.345 232.638 346.195 232.852 346.098 233.092C346 233.331 345.959 233.59 345.976 233.848C345.993 234.106 346.068 234.357 346.196 234.582L367.622 267.327L358.945 275.105L364.935 275.85L369.65 274.138L372.311 271.931L371.318 267.712L359.236 238.535C359.177 238.377 359.156 238.208 359.177 238.041C359.197 237.874 359.258 237.714 359.354 237.576C359.45 237.438 359.578 237.325 359.728 237.247C359.877 237.17 360.043 237.13 360.212 237.131H388.876C388.876 237.131 395.285 230.996 390.331 224.502L374.364 224.322Z" fill="white" stroke="#263238" stroke-linecap="round" stroke-linejoin="round"/>
<path d="M364.439 192.791L367.168 194.006L369.145 198.285L374.612 192.971L373.098 189.463C373.098 189.463 375.066 186.571 374.612 183.987C374.159 181.403 369.299 178.673 366.715 181.103C364.131 183.533 364.439 192.791 364.439 192.791Z" fill="white" stroke="#263238" stroke-linecap="round" stroke-linejoin="round"/>
<path d="M364.131 179.58L362.77 183.679V184.74L360.819 186.691V186.742L362.317 188.539L362.171 192.492L365.594 192.74C366.404 192.799 367.212 192.596 367.899 192.162C368.586 191.728 369.116 191.085 369.41 190.327L370.214 188.239C370.635 188.07 370.993 187.774 371.238 187.392C371.483 187.01 371.604 186.562 371.583 186.109C371.583 184.397 371.737 183.833 370.822 183.833C370.157 183.856 369.496 183.957 368.854 184.132L367.938 183.679L368.092 182.156L366.723 181.095L366.569 179.58H364.131Z" fill="white" stroke="#263238" stroke-linecap="round" stroke-linejoin="round"/>
<path d="M369.102 202.298L362.514 210.683L343.492 210.229C343.492 210.229 337.802 207.834 336.904 208.287C336.005 208.741 334.055 212.026 334.055 212.026L338.555 211.282C339.555 211.726 340.612 212.028 341.696 212.18C342.464 212.145 343.223 211.992 343.946 211.727L367.006 216.373L373.748 209.631L369.102 202.298Z" fill="#5C5C5C" stroke="#263238" stroke-linecap="round" stroke-linejoin="round"/>
<path d="M368.195 200.33C368.195 200.33 367.108 210.846 368.195 212.309C369.282 213.772 373.817 215.389 374.005 215.937C374.193 216.484 374.005 223.193 374.364 223.74C375.353 224.637 376.519 225.316 377.787 225.734H389.21C389.21 225.734 391.032 224.279 391.032 223.013C391.032 221.747 387.088 217.023 387.088 217.023C387.088 217.023 385.223 202.7 383.409 199.055C381.595 195.41 374.116 193.176 373.5 192.945C372.884 192.714 368.195 200.33 368.195 200.33Z" fill="#B5ACFF" stroke="#263238" stroke-linecap="round" stroke-linejoin="round"/>
<path d="M374.15 190.746L366.124 198.601L367.665 202.871L376.204 193.305L374.15 190.746Z" fill="#B5ACFF" stroke="#263238" stroke-linecap="round" stroke-linejoin="round"/>
<path d="M374.15 197.574L366.321 211.504L351.595 210.906C351.595 210.906 345.281 209.536 344.254 209.365C343.227 209.194 340.318 212.617 340.318 212.617H350.586L369.23 218.17L380.824 204.069" fill="#B5ACFF"/>
<path d="M374.15 197.574L366.321 211.504L351.595 210.906C351.595 210.906 345.281 209.536 344.254 209.365C343.227 209.194 340.318 212.617 340.318 212.617H350.586L369.23 218.17L380.824 204.069" stroke="#263238" stroke-linecap="round" stroke-linejoin="round"/>
<path d="M351.578 212.848L351.955 210.897H351.595C351.595 210.897 345.281 209.528 344.254 209.357C343.227 209.186 340.318 212.608 340.318 212.608H350.586L351.578 212.848Z" fill="white" stroke="#263238" stroke-linecap="round" stroke-linejoin="round"/>
<path d="M361.632 179.469C361.632 179.469 370.522 189.882 373.971 189.985C380.131 190.165 378.865 180.735 376.871 178.374C375.639 176.876 362.753 171.665 361.632 179.469Z" fill="#263238" stroke="#263238" stroke-linecap="round" stroke-linejoin="round"/>
<path d="M370.916 183.473C370.916 183.473 371.823 187.829 370.377 190.909C368.931 193.989 366.561 193.63 367.108 194.178C367.656 194.725 371.096 197.806 374.364 196.171C377.633 194.537 378.745 187.991 378.745 185.27" fill="#263238"/>
<path d="M370.916 183.473C370.916 183.473 371.823 187.829 370.377 190.909C368.931 193.989 366.561 193.63 367.108 194.178C367.656 194.725 371.096 197.806 374.364 196.171C377.633 194.537 378.745 187.991 378.745 185.27" stroke="#263238" stroke-linecap="round" stroke-linejoin="round"/>
<path d="M390.331 223.911L374.364 223.732L349.55 230.834C351.535 231.912 356.088 234.949 359.296 237.131C359.459 236.789 363.985 237.542 364.43 237.542L388.876 236.524C388.876 236.524 395.285 230.406 390.331 223.911Z" fill="#263238"/>
<path d="M387.191 269.287V246.278H390.433V243.198H382.065V246.278H385.308V268.979L369.59 273.069V274.266H371.293L385.308 271.631V274.266H387.191V271.854L400 274.266H401.711V273.069L387.191 269.287Z" fill="#263238"/>
<path d="M378.129 243.369H403.08L405.493 239.399C406.388 237.928 406.927 236.269 407.066 234.553C407.206 232.837 406.943 231.112 406.297 229.516L404.783 225.768" stroke="#263238" stroke-width="2" stroke-linecap="round" stroke-linejoin="round"/>
<path d="M397.27 236.019H371.13C369.996 236.019 369.076 236.938 369.076 238.073V240.46C369.076 241.594 369.996 242.513 371.13 242.513H397.27C398.404 242.513 399.324 241.594 399.324 240.46V238.073C399.324 236.938 398.404 236.019 397.27 236.019Z" fill="#B5B5B5" stroke="#263238" stroke-linecap="round" stroke-linejoin="round"/>
<path d="M404.298 212.058L401.596 211.704C400.848 211.605 400.161 212.132 400.063 212.881L397.598 231.653C397.5 232.401 398.027 233.088 398.775 233.186L401.477 233.541C402.226 233.639 402.912 233.112 403.011 232.363L405.476 213.592C405.574 212.843 405.047 212.157 404.298 212.058Z" fill="#B5B5B5" stroke="#263238" stroke-width="0.998499" stroke-linecap="round" stroke-linejoin="round"/>
<path d="M309.061 213.704L306.314 198.952H304.911L307.658 213.704H302.233V214.713H307.846H309.249L309.061 213.704Z" fill="white" stroke="#263238" stroke-width="0.75" stroke-linecap="round" stroke-linejoin="round"/>
<path d="M300.992 208.031L302.524 208.322L305.125 188.051L303.593 187.752L300.992 208.031Z" fill="white" stroke="#263238" stroke-width="0.75" stroke-linecap="round" stroke-linejoin="round"/>
<path d="M304.911 189.112L306.314 191.448L304.132 207.372L302.524 208.321L304.911 189.112Z" fill="white" stroke="#263238" stroke-width="0.75" stroke-linecap="round" stroke-linejoin="round"/>
<path d="M298.725 213.875H285.684V214.628H298.725V213.875Z" fill="white" stroke="#263238" stroke-width="0.75" stroke-linecap="round" stroke-linejoin="round"/>
<path d="M325.772 213.704L328.527 198.952H329.93L327.184 213.704H332.608V214.713H326.995H325.592L325.772 213.704Z" fill="white" stroke="#263238" stroke-width="0.75" stroke-linecap="round" stroke-linejoin="round"/>
<path d="M333.849 208.031L332.318 208.322L329.716 188.051L331.248 187.752L333.849 208.031Z" fill="white" stroke="#263238" stroke-width="0.75" stroke-linecap="round" stroke-linejoin="round"/>
<path d="M329.93 189.112L328.527 191.448L330.709 207.372L332.318 208.321L329.93 189.112Z" fill="white" stroke="#263238" stroke-width="0.75" stroke-linecap="round" stroke-linejoin="round"/>
<path d="M336.117 214.628H349.157V213.875H336.117V214.628Z" fill="white" stroke="#263238" stroke-width="0.75" stroke-linecap="round" stroke-linejoin="round"/>
<path d="M362.368 217.845H279.969V275.841H362.368V217.845Z" fill="white" stroke="#263238" stroke-linecap="round" stroke-linejoin="round"/>
<path d="M315.658 236.216H275.75V275.85H315.658V236.216Z" fill="white" stroke="#263238" stroke-linecap="round" stroke-linejoin="round"/>
<path d="M367.647 236.216H327.74V275.85H367.647V236.216Z" fill="white" stroke="#263238" stroke-linecap="round" stroke-linejoin="round"/>
<path d="M363.951 214.32H278.386V218.119H363.951V214.32Z" fill="white" stroke="#263238" stroke-linecap="round" stroke-linejoin="round"/>
<path d="M139.556 211.556H122.717C120.827 211.556 119.294 213.088 119.294 214.979V229.713C119.294 231.603 120.827 233.135 122.717 233.135H139.556C141.446 233.135 142.979 231.603 142.979 229.713V214.979C142.979 213.088 141.446 211.556 139.556 211.556Z" fill="#B5B5B5" stroke="#263238" stroke-linecap="round" stroke-linejoin="round"/>
<path d="M133.43 180.555C133.43 180.555 136.852 178.066 139.556 180.941C142.26 183.816 140.318 185.527 140.129 188.017C139.941 190.507 144.724 191.842 143.766 195.281C142.808 198.721 139.171 199.115 139.368 200.638C139.565 202.161 141.276 202.349 139.171 204.06C137.066 205.772 132.095 205.592 129.605 202.349C127.115 199.106 130.563 196.419 131.316 193.356C132.069 190.293 129.605 186.853 129.4 184.363C129.194 181.873 133.43 180.555 133.43 180.555Z" fill="#263238" stroke="#263238" stroke-linecap="round" stroke-linejoin="round"/>
<path d="M141.276 221.764L139.068 201.562C139.068 201.562 128.655 197.771 125.592 197.771C124.822 197.771 115.384 201.562 115.384 201.562L111.174 213.84L111.328 214.046C111.671 214.492 112.101 214.864 112.591 215.14C113.082 215.416 113.623 215.59 114.182 215.652C114.742 215.714 115.308 215.661 115.847 215.499C116.386 215.336 116.886 215.066 117.318 214.705L117.746 214.354L120.27 221.918L134.593 221.644L136.245 221.764H141.276Z" fill="white" stroke="#263238" stroke-linecap="round" stroke-linejoin="round"/>
<path d="M117.489 213.926L117.942 205.806" stroke="#263238" stroke-linecap="round" stroke-linejoin="round"/>
<path d="M135.381 220.241L134.773 206.576" stroke="#263238" stroke-linecap="round" stroke-linejoin="round"/>
<path d="M126.55 194.52C126.55 194.52 123.487 195.281 122.717 196.625C121.947 197.968 120.424 205.044 120.424 205.044L127.124 202.169L132.48 206.576C132.48 206.576 133.815 200.449 132.856 197.96C131.898 195.47 128.458 193.741 126.55 194.52Z" fill="white" stroke="#263238" stroke-linecap="round" stroke-linejoin="round"/>
<path d="M125.78 192.988C125.78 192.988 125.019 205.232 126.353 204.471C127.688 203.709 131.333 193.347 131.333 193.347L125.78 192.988Z" fill="white" stroke="#263238" stroke-linecap="round" stroke-linejoin="round"/>
<path d="M122.186 185.741C122.186 185.741 120.347 184.029 120.039 186.554C119.731 189.078 122.606 189.625 122.606 189.625L122.186 185.741Z" fill="white" stroke="#263238" stroke-linecap="round" stroke-linejoin="round"/>
<path d="M133.806 185.741C133.806 185.741 135.646 184.029 135.954 186.554C136.262 189.078 133.387 189.625 133.387 189.625L133.806 185.741Z" fill="white" stroke="#263238" stroke-linecap="round" stroke-linejoin="round"/>
<path d="M134.354 185.407C134.354 189.685 131.564 195.093 128.125 195.093C124.685 195.093 121.896 189.702 121.896 185.407C121.896 181.112 124.685 177.612 128.125 177.612C131.564 177.612 134.354 181.103 134.354 185.407Z" fill="white" stroke="#263238" stroke-linecap="round" stroke-linejoin="round"/>
<path d="M132.72 180.17C132.32 180.69 132.082 181.315 132.033 181.969C131.984 182.623 132.128 183.276 132.446 183.85C132.613 184.292 132.866 184.697 133.19 185.041C133.515 185.384 133.905 185.66 134.337 185.852C134.337 185.706 134.337 185.552 134.337 185.407C134.363 183.535 133.797 181.702 132.72 180.17Z" fill="#263238" stroke="#263238" stroke-linecap="round" stroke-linejoin="round"/>
<path d="M132.702 180.136C132.195 179.382 131.515 178.76 130.718 178.321C129.922 177.882 129.033 177.639 128.125 177.612C124.702 177.612 121.896 181.103 121.896 185.407C125.53 184.53 128.952 182.933 131.958 180.71C132.206 180.53 132.454 180.333 132.702 180.136Z" fill="#263238" stroke="#263238" stroke-linecap="round" stroke-linejoin="round"/>
<path d="M113.801 209.716C113.801 209.716 110.644 208.929 109.326 209.981C108.432 210.843 107.795 211.936 107.486 213.139H112.483L114.588 212.352C114.588 212.352 114.854 213.661 116.436 212.608C118.019 211.556 113.801 209.716 113.801 209.716Z" fill="white" stroke="#263238" stroke-linecap="round" stroke-linejoin="round"/>
<path d="M128.227 270.579V247.562H131.47V242.864H123.093V247.562H126.345V270.271L110.627 274.361V275.559H112.329L126.345 272.923V275.559H128.227V273.146L141.036 275.559H142.748V274.361L128.227 270.579Z" fill="#263238"/>
<path d="M139.659 237.311H113.519C112.384 237.311 111.465 238.23 111.465 239.365V241.752C111.465 242.886 112.384 243.805 113.519 243.805H139.659C140.793 243.805 141.712 242.886 141.712 241.752V239.365C141.712 238.23 140.793 237.311 139.659 237.311Z" fill="#B5B5B5" stroke="#263238" stroke-linecap="round" stroke-linejoin="round"/>
<path d="M120.236 221.918C120.236 221.918 117.403 228.977 115.102 229.336C104.834 230.971 101.865 235.429 101.865 235.429C101.566 236.508 101.663 237.658 102.138 238.672C102.994 240.015 112.672 269.201 112.672 269.201L107.272 275.679H109.429C109.429 275.679 113.758 274.874 114.563 273.522C115.367 272.17 116.454 271.092 116.727 270.006C117.001 268.919 117.54 268.654 116.454 267.575C115.858 266.954 115.117 266.489 114.297 266.224L111.465 239.365L121.861 268.115C121.861 268.115 125.96 274.617 126.345 275.559C126.73 276.5 129.964 275.139 128.056 271.631C127.149 269.762 125.861 268.104 124.274 266.763L119.679 238.398L135.894 237.32C136.641 237.019 137.276 236.493 137.712 235.816C138.147 235.138 138.361 234.342 138.324 233.538C138.324 230.56 134.542 221.644 134.542 221.644L120.236 221.918Z" fill="#263238" stroke="#263238" stroke-linecap="round" stroke-linejoin="round"/>
<path d="M135.381 220.266L123.273 227.634L118.276 228.429L115.649 230.534C115.649 230.534 121.433 231.27 123.016 230.74C123.888 230.477 124.693 230.03 125.378 229.43L138.803 224.69C138.803 224.69 141.43 222.32 141.173 221.002C140.917 219.685 135.381 219.454 135.381 220.266Z" fill="white" stroke="#263238" stroke-linecap="round" stroke-linejoin="round"/>
<path d="M102.138 238.671C102.994 240.015 112.021 266.386 112.021 266.386L110.31 273.086L107.298 275.653H109.454C109.454 275.653 113.784 274.848 114.588 273.496C115.393 272.144 116.479 271.066 116.753 269.98C117.027 268.893 117.566 268.628 116.479 267.55C115.883 266.928 115.142 266.463 114.323 266.198L111.491 239.339L121.887 268.089C121.887 268.089 125.986 274.592 126.371 275.533C126.756 276.474 129.99 275.114 128.082 271.605C127.174 269.737 125.886 268.078 124.3 266.737L119.705 238.372L120.364 238.329C120.364 238.329 119.688 235.625 118.901 235.403C106.639 231.92 101.873 235.403 101.873 235.403C101.565 236.489 101.66 237.649 102.138 238.671Z" fill="white" stroke="#263238" stroke-linecap="round" stroke-linejoin="round"/>
<path d="M111.465 239.364C111.465 239.364 109.403 235.206 109.566 234.393L111.465 239.364Z" fill="white"/>
<path d="M111.465 239.364C111.465 239.364 109.403 235.206 109.566 234.393" stroke="#263238" stroke-linecap="round" stroke-linejoin="round"/>
<path d="M187.772 226.162L167.237 232.211C166.988 232.283 166.759 232.411 166.568 232.584C166.376 232.757 166.225 232.972 166.128 233.212C166.031 233.451 165.989 233.71 166.006 233.968C166.024 234.226 166.099 234.476 166.227 234.701L182.844 269.355L175.904 275.884L183.366 274.292L190.065 271.563L189.073 267.327L177 238.184C176.94 238.026 176.919 237.857 176.94 237.69C176.96 237.523 177.021 237.363 177.117 237.225C177.213 237.087 177.342 236.974 177.491 236.896C177.641 236.819 177.807 236.779 177.975 236.78H203.336C203.336 236.78 208.47 231.997 203.508 225.503L187.772 226.162Z" fill="#263238" stroke="#263238" stroke-linecap="round" stroke-linejoin="round"/>
<path d="M187.935 199.132L174.484 207.038L171.001 210.64L173.183 212.232L186.763 210.315L187.935 199.132Z" fill="white" stroke="#263238" stroke-width="0.75" stroke-linecap="round" stroke-linejoin="round"/>
<path d="M176.674 198.405C176.674 198.405 169.607 208.227 169.59 209.152C169.572 210.076 171.301 211.522 172.413 212.129C173.526 212.737 175.648 211.111 175.648 211.111L178.959 199.782L176.674 198.405Z" fill="white" stroke="#263238" stroke-width="0.75" stroke-linecap="round" stroke-linejoin="round"/>
<path d="M185.761 200.013L184.786 223.056C184.756 223.838 185.035 224.601 185.565 225.178C185.843 225.487 186.183 225.735 186.564 225.904C186.944 226.074 187.356 226.162 187.772 226.162H201.942C202.519 226.16 203.083 225.99 203.566 225.675C204.049 225.359 204.43 224.91 204.663 224.382L204.842 223.997C205.102 223.405 205.165 222.745 205.022 222.114C203.918 217.391 199.127 199.243 198.066 197.301C196.868 195.076 192.769 193.536 192.769 193.536L185.761 200.013Z" fill="white" stroke="#263238" stroke-linecap="round" stroke-linejoin="round"/>
<path d="M181.757 194.571L181.92 192.637L180.508 192.312L179.849 193.544L177.667 194.109L176.623 198.747L179.036 199.902L182.801 195.855L181.757 194.571Z" fill="white" stroke="#263238" stroke-width="0.75" stroke-linecap="round" stroke-linejoin="round"/>
<path d="M181.757 194.597L178.685 194.374L178.514 195.23L180.225 195.701C180.225 195.701 178.908 196.599 178.779 197.104" fill="white"/>
<path d="M181.757 194.597L178.685 194.374L178.514 195.23L180.225 195.701C180.225 195.701 178.908 196.599 178.779 197.104" stroke="#263238" stroke-width="0.75" stroke-linecap="round" stroke-linejoin="round"/>
<path d="M182.202 193.005L184.931 194.22L186.908 198.498L192.376 193.185L190.861 189.694C190.861 189.694 192.829 186.81 192.376 184.226C191.922 181.642 187.062 178.904 184.478 181.334C181.894 183.764 182.202 193.005 182.202 193.005Z" fill="white" stroke="#263238" stroke-linecap="round" stroke-linejoin="round"/>
<path d="M181.594 180.855C181.594 180.855 180.379 179.34 180.379 178.288C180.379 177.236 182.809 176.012 184.024 176.012C185.239 176.012 190.553 176.32 192.376 177.989C193.314 178.927 194.001 180.087 194.374 181.361C194.746 182.635 194.792 183.982 194.506 185.279C193.899 187.846 192.076 190.139 190.228 190.293C188.38 190.447 187.19 188.316 186.882 187.555C185.901 185.654 184.783 183.826 183.537 182.087C183.016 181.504 182.344 181.077 181.594 180.855Z" fill="#263238" stroke="#263238" stroke-linecap="round" stroke-linejoin="round"/>
<path d="M181.894 179.794L180.525 183.893V184.962L178.523 186.896L180.037 188.718L179.883 192.672L183.306 192.92C184.116 192.979 184.924 192.776 185.611 192.342C186.298 191.907 186.828 191.264 187.122 190.507L187.926 188.419C188.348 188.25 188.706 187.955 188.951 187.573C189.197 187.191 189.317 186.742 189.295 186.288C189.295 184.577 189.449 184.012 188.534 184.012C187.868 184.036 187.208 184.136 186.566 184.312L185.65 183.858L185.804 182.344L184.435 181.274L184.281 179.76L181.894 179.794Z" fill="white" stroke="#263238" stroke-linecap="round" stroke-linejoin="round"/>
<path d="M191.914 190.96L183.888 198.815L185.419 203.093L193.967 193.519L191.914 190.96Z" fill="white" stroke="#263238" stroke-linecap="round" stroke-linejoin="round"/>
<path d="M191.914 197.797L185.428 210.777L169.359 211.119C169.359 211.119 163.035 209.75 162.017 209.579C160.999 209.408 158.081 212.831 158.081 212.831H168.349L188.337 217.443L198.605 204.283" fill="white"/>
<path d="M191.914 197.797L185.428 210.777L169.359 211.119C169.359 211.119 163.035 209.75 162.017 209.579C160.999 209.408 158.081 212.831 158.081 212.831H168.349L188.337 217.443L198.605 204.283" stroke="#263238" stroke-linecap="round" stroke-linejoin="round"/>
<path d="M169.341 213.062L169.709 211.111H169.359C169.359 211.111 163.035 209.742 162.017 209.571C160.999 209.4 158.081 212.822 158.081 212.822H168.349L169.341 213.062Z" fill="white" stroke="#263238" stroke-linecap="round" stroke-linejoin="round"/>
<path d="M195.336 269.509V246.492H198.579V243.42H190.211V246.492H193.454V269.193L177.735 273.291V274.489H179.447L193.454 271.845V274.489H195.336V272.076L208.154 274.489H209.857V273.291L195.336 269.509Z" fill="#263238"/>
<path d="M186.275 243.583H211.226L213.639 239.613C214.533 238.142 215.072 236.483 215.212 234.767C215.352 233.051 215.088 231.326 214.443 229.73L212.937 225.991" stroke="#263238" stroke-width="2" stroke-linecap="round" stroke-linejoin="round"/>
<path d="M205.416 236.241H179.276C178.141 236.241 177.222 237.161 177.222 238.295V240.682C177.222 241.816 178.141 242.736 179.276 242.736H205.416C206.55 242.736 207.469 241.816 207.469 240.682V238.295C207.469 237.161 206.55 236.241 205.416 236.241Z" fill="#B5B5B5" stroke="#263238" stroke-linecap="round" stroke-linejoin="round"/>
<path d="M213.47 212.066L210.763 211.715C210.013 211.618 209.326 212.147 209.229 212.897L206.79 231.701C206.693 232.45 207.222 233.137 207.972 233.234L210.679 233.585C211.429 233.683 212.115 233.154 212.213 232.404L214.651 213.6C214.749 212.85 214.22 212.163 213.47 212.066Z" fill="#B5B5B5" stroke="#263238" stroke-linecap="round" stroke-linejoin="round"/>
<path d="M155.3 212.856H147.839L143.8 201.194H151.253L155.3 212.856Z" fill="white" stroke="#263238" stroke-width="0.75" stroke-linecap="round" stroke-linejoin="round"/>
<path d="M166.774 211.71H147.839V212.856H166.774V211.71Z" fill="white" stroke="#263238" stroke-width="0.75" stroke-linecap="round" stroke-linejoin="round"/>
<path d="M166.774 211.71H158.346V212.856H166.774V211.71Z" fill="white" stroke="#263238" stroke-width="0.75" stroke-linecap="round" stroke-linejoin="round"/>
<path d="M112.518 201.108H92.7434V211.667H112.518V201.108Z" fill="white" stroke="#263238" stroke-width="0.75" stroke-linecap="round" stroke-linejoin="round"/>
<path d="M123.958 211.812H92.7434V212.856H123.958V211.812Z" fill="white" stroke="#263238" stroke-width="0.75" stroke-linecap="round" stroke-linejoin="round"/>
<path d="M123.958 211.812H112.364V212.856H123.958V211.812Z" fill="white" stroke="#263238" stroke-width="0.75" stroke-linecap="round" stroke-linejoin="round"/>
<path d="M173.714 275.841H175.63L176.589 219.171H172.755L173.714 275.841Z" fill="white" stroke="#263238" stroke-linecap="round" stroke-linejoin="round"/>
<path d="M85.1452 275.841H87.0619L88.0117 219.171H84.1869L85.1452 275.841Z" fill="white" stroke="#263238" stroke-linecap="round" stroke-linejoin="round"/>
<path d="M179.079 214.2H81.7055V220.514H179.079V214.2Z" fill="white" stroke="#263238" stroke-linecap="round" stroke-linejoin="round"/>
<path d="M180.747 212.651H79.7888V214.97H180.747V212.651Z" fill="#263238" stroke="#263238" stroke-linecap="round" stroke-linejoin="round"/>
<path d="M61.5806 170.194L51.1929 174.523L56.3867 203.324H77.393L79.1214 175.824L69.7264 170.288L61.5806 170.194Z" fill="white" stroke="#263238" stroke-linecap="round" stroke-linejoin="round"/>
<path d="M63.8823 176.192L65.7733 179.708L63.3432 194.041L66.0471 199.457L70.9157 192.962L67.399 179.708L68.7509 176.465L66.0471 172.41L63.8823 176.192Z" fill="#B5ACFF" stroke="#263238" stroke-linecap="round" stroke-linejoin="round"/>
<path d="M63.5229 168.234C63.5229 168.234 61.9742 168.405 61.6233 169.27C61.2725 170.134 61.803 178.425 61.803 178.425L66.2867 175.858L70.5649 178.425C70.5649 178.425 70.043 172.897 68.8536 170.305C67.6643 167.712 63.5229 168.234 63.5229 168.234Z" fill="white" stroke="#263238" stroke-linecap="round" stroke-linejoin="round"/>
<path d="M62.8811 166.292C62.8811 166.292 62.6672 168.457 62.6672 169.757C62.6672 171.058 65.4823 176.688 66.3465 176.252C67.2108 175.815 69.3756 172.35 69.3756 172.35L70.4622 171.049L72.627 169.098C72.627 169.098 67.5701 163.391 66.1326 163.04C64.6951 162.69 62.8811 166.292 62.8811 166.292Z" fill="white" stroke="#263238" stroke-linecap="round" stroke-linejoin="round"/>
<path d="M72.4217 157.23C72.4217 157.23 73.6367 155.707 73.6367 154.663C73.6367 153.62 71.2066 152.387 69.9916 152.387C68.7766 152.387 63.463 152.687 61.6405 154.364C60.7006 155.302 60.0126 156.461 59.6401 157.736C59.2677 159.01 59.2229 160.358 59.5099 161.654C60.1174 164.221 61.9399 166.514 63.7881 166.668C65.6364 166.822 66.8257 164.692 67.1337 163.93C68.1083 162.027 69.2238 160.199 70.4708 158.463C70.9924 157.877 71.6686 157.45 72.4217 157.23Z" fill="#263238" stroke="#263238" stroke-linecap="round" stroke-linejoin="round"/>
<path d="M72.1307 156.169L73.4998 160.268V161.329L75.4763 163.306L73.9533 165.128L74.1073 169.081L70.6847 169.329C69.8739 169.39 69.0653 169.188 68.3781 168.753C67.691 168.319 67.1617 167.675 66.8685 166.916L66.0128 164.829C65.6065 164.647 65.2652 164.346 65.0343 163.965C64.8035 163.584 64.6941 163.142 64.7208 162.698C64.7208 161.03 64.5668 160.422 65.4737 160.422C66.142 160.445 66.8053 160.545 67.4503 160.722L68.3659 160.268L68.2118 158.745L69.5809 157.684L69.7263 156.169H72.1307Z" fill="white" stroke="#263238" stroke-linecap="round" stroke-linejoin="round"/>
<path d="M56.3868 203.324L52.4935 268.063H56.6092L66.3465 218.692H68.2974L77.1706 268.063L81.2862 267.841L77.393 203.324H56.3868Z" fill="#263238" stroke="#263238" stroke-linecap="round" stroke-linejoin="round"/>
<path d="M51.1929 174.523L46.5724 190.781L35.7227 182.618L33.6178 185.51L47.6248 199.2L54.47 192.09C54.47 192.09 52.1341 178.767 51.1929 174.523Z" fill="white" stroke="#263238" stroke-linecap="round" stroke-linejoin="round"/>
<path d="M77.5555 174.506L68.3658 191.388L52.6561 199.089L53.3919 201.784L74.2014 197.652L80.7814 186.896C80.7814 186.896 83.5451 175.31 77.5555 174.506Z" fill="white" stroke="#263238" stroke-linecap="round" stroke-linejoin="round"/>
<path d="M35.7228 182.618L34.4136 179.195L30.991 177.621L29.6733 178.143L31.2477 179.195L28.0903 178.143L26.2507 176.303L24.933 176.56L27.3031 181.83L33.6179 185.51L35.7228 182.618Z" fill="white" stroke="#263238" stroke-linecap="round" stroke-linejoin="round"/>
<path d="M52.6561 199.089L48.4548 197.754L45.2461 199.731L44.9638 201.117L46.7093 200.381L44.091 202.435L41.5326 202.957L41.0278 204.197L46.7264 205.13L53.2807 201.896L52.6561 199.089Z" fill="white" stroke="#263238" stroke-linecap="round" stroke-linejoin="round"/>
<path d="M52.4935 268.063L49.6014 272.127L45.4429 275.841H56.6006L56.6092 268.063H52.4935Z" fill="#263238" stroke="#263238" stroke-linecap="round" stroke-linejoin="round"/>
<path d="M81.2862 267.841L84.1783 272.127L88.3368 275.841H77.1791L77.1705 268.063L81.2862 267.841Z" fill="#263238" stroke="#263238" stroke-linecap="round" stroke-linejoin="round"/>
<path d="M25.0955 153.423H21.2109V227.779H25.0955V153.423Z" fill="#263238" stroke="#263238" stroke-linecap="round" stroke-linejoin="round"/>
<path d="M28.0304 153.423H24.1458V227.779H28.0304V153.423Z" fill="white" stroke="#263238" stroke-linecap="round" stroke-linejoin="round"/>
<path d="M29.7161 227.779H18.9605V230.714H29.7161V227.779Z" fill="#263238" stroke="#263238" stroke-linecap="round" stroke-linejoin="round"/>
<path d="M21.2451 195.179L4.29462 275.379H7.5461L23.196 199.739L21.2451 195.179Z" fill="#263238" stroke="#263238" stroke-linecap="round" stroke-linejoin="round"/>
<path d="M24.3425 229.242L33.3012 274.72H36.5698L27.44 229.405L24.3425 229.242Z" fill="#263238" stroke="#263238" stroke-linecap="round" stroke-linejoin="round"/>
<path d="M111.585 322.115L107.7 324.399V343.822H121.297V324.057L116.839 322.234L111.585 322.115Z" fill="white" stroke="#263238" stroke-linecap="round" stroke-linejoin="round"/>
<path d="M110.558 322.945V344.079H94.9082L99.2464 327.967C99.2464 327.967 109.643 322.688 110.558 322.945Z" fill="#B5ACFF" stroke="#263238" stroke-linecap="round" stroke-linejoin="round"/>
<path d="M103.011 343.934V334.564" stroke="#263238" stroke-linecap="round" stroke-linejoin="round"/>
<path d="M118.781 322.945V344.079H134.431L130.084 327.967C130.084 327.967 119.696 322.688 118.781 322.945Z" fill="#B5ACFF" stroke="#263238" stroke-linecap="round" stroke-linejoin="round"/>
<path d="M126.319 343.934V334.564" stroke="#263238" stroke-linecap="round" stroke-linejoin="round"/>
<path d="M112.637 320.061C112.637 320.061 110.806 320.292 110.353 321.43C109.899 322.568 108.179 332.057 108.179 332.057L112.526 329.884L114.58 331.253L117.095 329.653L121.314 333.315C121.314 333.315 120.287 322.457 118.233 320.292C116.18 318.127 112.637 320.061 112.637 320.061Z" fill="white" stroke="#263238" stroke-linecap="round" stroke-linejoin="round"/>
<path d="M112.15 319.607C112.199 322.433 112.39 325.255 112.723 328.061C113.185 330.799 114.554 331.595 115.35 330.799C116.145 330.004 116.496 327.83 116.496 327.83L117.634 319.719L112.15 319.607Z" fill="white" stroke="#263238" stroke-linecap="round" stroke-linejoin="round"/>
<path d="M115.008 308.185C118.037 308.185 120.492 305.729 120.492 302.7C120.492 299.671 118.037 297.215 115.008 297.215C111.978 297.215 109.523 299.671 109.523 302.7C109.523 305.729 111.978 308.185 115.008 308.185Z" fill="#263238" stroke="#263238" stroke-linecap="round" stroke-linejoin="round"/>
<path d="M108.496 310.692C108.496 310.692 106.442 308.749 106.1 311.607C105.758 314.465 108.958 315.03 108.958 315.03L108.496 310.692Z" fill="white" stroke="#263238" stroke-linecap="round" stroke-linejoin="round"/>
<path d="M121.468 310.692C121.468 310.692 123.53 308.749 123.872 311.607C124.214 314.465 121.014 315.03 121.014 315.03L121.468 310.692Z" fill="white" stroke="#263238" stroke-linecap="round" stroke-linejoin="round"/>
<path d="M122.05 310.324C122.05 315.124 118.935 321.148 115.093 321.148C111.251 321.148 108.128 315.158 108.128 310.324C108.128 305.489 111.243 301.622 115.093 301.622C118.943 301.622 122.05 305.515 122.05 310.324Z" fill="white" stroke="#263238" stroke-linecap="round" stroke-linejoin="round"/>
<path d="M120.261 304.471C119.814 305.051 119.547 305.749 119.492 306.478C119.438 307.208 119.598 307.938 119.953 308.578C120.333 309.575 121.089 310.383 122.058 310.828C122.058 310.657 122.058 310.486 122.058 310.324C122.09 308.232 121.461 306.184 120.261 304.471Z" fill="#263238" stroke="#263238" stroke-linecap="round" stroke-linejoin="round"/>
<path d="M120.244 304.445C119.673 303.601 118.91 302.905 118.018 302.414C117.125 301.923 116.128 301.652 115.11 301.622C111.26 301.622 108.145 305.515 108.145 310.324C112.21 309.348 116.036 307.564 119.397 305.078L120.244 304.445Z" fill="#263238" stroke="#263238" stroke-linecap="round" stroke-linejoin="round"/>
<path d="M89.8427 319.599H60.5623V339.827H89.8427V319.599Z" fill="#263238" stroke="#263238" stroke-linecap="round" stroke-linejoin="round"/>
<path d="M85.0255 324.99H64.2245V339.818H85.0255V324.99Z" fill="#474747" stroke="#263238" stroke-linecap="round" stroke-linejoin="round"/>
<path d="M76.5545 334.239H72.5073V344.447H76.5545V334.239Z" fill="#B5B5B5" stroke="#263238" stroke-linecap="round" stroke-linejoin="round"/>
<path d="M163.942 345.431H52.793V403.787H163.942V345.431Z" fill="#B5ACFF" stroke="#263238" stroke-linecap="round" stroke-linejoin="round"/>
<path d="M158.791 337.542H128.895V344.824H158.791V337.542Z" fill="white" stroke="#263238" stroke-linecap="round" stroke-linejoin="round"/>
<path d="M166.535 343.977H51.4069V346.766H166.535V343.977Z" fill="#263238" stroke="#263238" stroke-linecap="round" stroke-linejoin="round"/>
<path d="M116.993 359.575H100.949C98.5249 359.575 96.5596 361.54 96.5596 363.964V380.008C96.5596 382.432 98.5249 384.397 100.949 384.397H116.993C119.417 384.397 121.382 382.432 121.382 380.008V363.964C121.382 361.54 119.417 359.575 116.993 359.575Z" fill="#263238"/>
<path d="M105.986 357.414L94.3998 369.001C92.7524 370.648 92.7524 373.319 94.3998 374.966L105.986 386.553C107.634 388.2 110.305 388.2 111.952 386.553L123.538 374.966C125.186 373.319 125.186 370.648 123.538 369.001L111.952 357.414C110.305 355.767 107.634 355.767 105.986 357.414Z" fill="white"/>
<path d="M108.967 379.82C113.295 379.82 116.804 376.311 116.804 371.982C116.804 367.653 113.295 364.144 108.967 364.144C104.638 364.144 101.129 367.653 101.129 371.982C101.129 376.311 104.638 379.82 108.967 379.82Z" fill="#263238"/>
<path d="M207.427 339.869H316.95C317.678 339.878 318.374 340.171 318.888 340.686C319.403 341.201 319.696 341.897 319.705 342.625V403.761H204.637V342.625C204.644 341.89 204.941 341.188 205.464 340.672C205.986 340.156 206.692 339.867 207.427 339.869Z" fill="#7D7D7D" stroke="#263238" stroke-linecap="round" stroke-linejoin="round"/>
<path d="M207.427 371.631H316.95C317.69 371.631 318.399 371.925 318.922 372.448C319.446 372.971 319.739 373.681 319.739 374.421V403.795H204.637V374.421C204.636 374.054 204.707 373.691 204.847 373.352C204.987 373.013 205.192 372.705 205.452 372.446C205.711 372.186 206.019 371.981 206.358 371.841C206.697 371.701 207.06 371.63 207.427 371.631Z" fill="#7D7D7D" stroke="#263238" stroke-linecap="round" stroke-linejoin="round"/>
<path d="M204.415 379.965H319.705" stroke="#263238" stroke-linecap="round" stroke-linejoin="round"/>
<path d="M198.639 364.016H211.765C212.504 364.016 213.214 364.31 213.737 364.833C214.26 365.356 214.554 366.066 214.554 366.805V403.838H195.85V366.763C195.859 366.029 196.157 365.33 196.679 364.815C197.201 364.301 197.906 364.014 198.639 364.016Z" fill="#7D7D7D" stroke="#263238" stroke-linecap="round" stroke-linejoin="round"/>
<path d="M313.142 364.016H326.268C327.006 364.016 327.713 364.309 328.234 364.83C328.756 365.352 329.049 366.059 329.049 366.797V403.829H310.362V366.763C310.371 366.031 310.667 365.332 311.188 364.818C311.709 364.304 312.411 364.016 313.142 364.016Z" fill="#7D7D7D" stroke="#263238" stroke-linecap="round" stroke-linejoin="round"/>
<path d="M341.901 342.462C341.901 342.462 337.845 345.277 337.845 357.008V381.985H346.633V341.452L341.901 342.462Z" fill="#7D7D7D" stroke="#263238" stroke-linecap="round" stroke-linejoin="round"/>
<path d="M344.682 339.869H354.205C354.945 339.869 355.654 340.163 356.178 340.686C356.701 341.21 356.995 341.919 356.995 342.659V403.795H341.901V342.625C341.908 341.892 342.204 341.191 342.724 340.675C343.245 340.159 343.949 339.869 344.682 339.869Z" fill="#7D7D7D" stroke="#263238" stroke-linecap="round" stroke-linejoin="round"/>
<path d="M304.132 364.016H354.205C354.945 364.016 355.654 364.31 356.178 364.833C356.701 365.356 356.995 366.066 356.995 366.805V403.838H301.377V366.763C301.386 366.035 301.679 365.341 302.195 364.827C302.71 364.314 303.405 364.023 304.132 364.016Z" fill="#7D7D7D" stroke="#263238" stroke-linecap="round" stroke-linejoin="round"/>
<path d="M152.4 311.71L148.977 300.124H151.826L153.905 308.022L155.985 300.124H158.552L155.129 311.71V317.451H152.4V311.71Z" fill="#263238"/>
<path d="M159.057 304.283C159.057 301.51 160.52 299.919 163.198 299.919C165.876 299.919 167.331 301.51 167.331 304.283V313.293C167.331 316.065 165.868 317.648 163.198 317.648C160.528 317.648 159.057 316.065 159.057 313.293V304.283ZM161.786 313.464C161.786 314.705 162.325 315.175 163.198 315.175C164.071 315.175 164.61 314.705 164.61 313.464V304.12C164.61 302.888 164.062 302.409 163.198 302.409C162.334 302.409 161.786 302.88 161.786 304.12V313.464Z" fill="#263238"/>
<path d="M171.677 300.124V313.532C171.677 314.773 172.225 315.244 173.089 315.244C173.953 315.244 174.501 314.799 174.501 313.532V300.124H177.068V313.318C177.068 316.091 175.682 317.674 173.004 317.674C170.325 317.674 168.948 316.091 168.948 313.318V300.124H171.677Z" fill="#263238"/>
<path d="M184.632 317.451C184.407 316.765 184.323 316.04 184.384 315.321V312.6C184.384 310.991 183.836 310.392 182.604 310.392H181.663V317.451H178.933V300.124H183.049C185.873 300.124 187.088 301.433 187.088 304.103V305.472C187.088 307.252 186.514 308.416 185.299 308.989C186.66 309.554 187.105 310.863 187.105 312.677V315.346C187.055 316.061 187.157 316.779 187.404 317.451H184.632ZM181.663 302.597V307.919H182.724C183.742 307.919 184.358 307.474 184.358 306.088V304.377C184.358 303.145 183.939 302.597 182.972 302.597H181.663Z" fill="#263238"/>
<path d="M202.37 311.017V313.318C202.37 316.091 200.983 317.674 198.305 317.674C195.627 317.674 194.25 316.091 194.25 313.318V304.308C194.25 301.528 195.636 299.945 198.305 299.945C200.975 299.945 202.37 301.528 202.37 304.308V306.02H199.803V304.12C199.803 302.888 199.255 302.409 198.391 302.409C197.527 302.409 196.979 302.879 196.979 304.12V313.532C196.979 314.773 197.527 315.244 198.391 315.244C199.255 315.244 199.803 314.799 199.803 313.532V311.059L202.37 311.017Z" fill="#263238"/>
<path d="M203.807 304.308C203.807 301.528 205.262 299.945 207.94 299.945C210.618 299.945 212.073 301.528 212.073 304.308V313.318C212.073 316.091 210.61 317.674 207.94 317.674C205.27 317.674 203.807 316.091 203.807 313.318V304.308ZM206.528 313.532C206.528 314.773 207.067 315.244 207.94 315.244C208.813 315.244 209.352 314.773 209.352 313.532V304.12C209.352 302.888 208.804 302.409 207.94 302.409C207.076 302.409 206.528 302.879 206.528 304.12V313.532Z" fill="#263238"/>
<path d="M219.594 312.454L221.451 300.142H225.241V317.477H222.674V305.044L220.792 317.477H218.225L216.171 305.224V317.477H213.793V300.142H217.583L219.594 312.454Z" fill="#263238"/>
<path d="M235.295 304.428V306.687C235.295 309.46 233.952 310.966 231.231 310.966H229.947V317.477H227.218V300.142H231.231C233.952 300.142 235.295 301.656 235.295 304.428ZM229.947 302.623V308.493H231.231C232.086 308.493 232.566 308.091 232.566 306.858V304.292C232.566 303.051 232.095 302.657 231.231 302.657L229.947 302.623Z" fill="#263238"/>
<path d="M245.169 317.477H242.423L241.952 314.337H238.607L238.136 317.477H235.637L238.418 300.142H242.406L245.169 317.477ZM238.957 311.984H241.576L240.267 303.213L238.957 311.984Z" fill="#263238"/>
<path d="M248.857 304.925V317.477H246.401V300.142H249.824L252.622 310.521V300.142H255.044V317.477H252.246L248.857 304.925Z" fill="#263238"/>
<path d="M259.553 311.736L256.13 300.142H258.954L261.033 308.048L263.112 300.142H265.679L262.257 311.736V317.477H259.553V311.736Z" fill="#263238"/>
<path d="M303.183 293.313H278.865C276.441 293.313 274.475 295.279 274.475 297.703V322.021C274.475 324.445 276.441 326.41 278.865 326.41H303.183C305.607 326.41 307.572 324.445 307.572 322.021V297.703C307.572 295.279 305.607 293.313 303.183 293.313Z" fill="#263238"/>
<path d="M288.042 289.437L270.605 306.874C268.957 308.522 268.957 311.193 270.605 312.84L288.042 330.277C289.689 331.925 292.36 331.925 294.007 330.277L311.445 312.84C313.092 311.193 313.092 308.522 311.445 306.874L294.007 289.437C292.36 287.79 289.689 287.79 288.042 289.437Z" fill="white"/>
<path d="M291.024 320.318C296.799 320.318 301.48 315.636 301.48 309.862C301.48 304.087 296.799 299.406 291.024 299.406C285.249 299.406 280.568 304.087 280.568 309.862C280.568 315.636 285.249 320.318 291.024 320.318Z" fill="#263238"/>
<path d="M226.448 143.36H220.159V279.05H226.448V143.36Z" fill="#B5ACFF"/>
<path d="M410.404 275.182H0.546875V282.883H410.404V275.182Z" fill="#B5ACFF"/>
<path d="M1.11163 403.795H410.259" stroke="#263238" stroke-linecap="round" stroke-linejoin="round"/>
<path d="M410.404 136.566H0.546875V144.267H410.404V136.566Z" fill="#B5ACFF"/>
</svg>
