<svg width="500" height="445" viewBox="0 0 500 445" fill="none" xmlns="http://www.w3.org/2000/svg">
<path d="M117.559 68.2578L116.756 66.9039C119.065 65.5357 121.469 64.3361 123.951 63.3145L124.549 64.7786C122.136 65.7634 119.799 66.9263 117.559 68.2578Z" fill="#4C38EE"/>
<path d="M94.5743 96.0605L93 95.5253C96.732 85.1914 103.484 76.218 112.38 69.7695L113.309 71.0447C104.694 77.3131 98.1657 86.03 94.5743 96.0605Z" fill="#4C38EE"/>
<path d="M144.543 162.45C171.306 162.45 193.001 140.755 193.001 113.992C193.001 87.2302 171.306 65.5352 144.543 65.5352C117.781 65.5352 96.0859 87.2302 96.0859 113.992C96.0859 140.755 117.781 162.45 144.543 162.45Z" fill="#4C38EE"/>
<path opacity="0.6" d="M185.019 113.993C185.016 123.436 181.712 132.58 175.678 139.844C169.643 147.107 161.26 152.033 151.977 153.767C142.695 155.501 133.098 153.935 124.849 149.34C116.599 144.745 110.216 137.411 106.803 128.606C103.391 119.801 103.165 110.08 106.164 101.126C109.162 92.1717 115.197 84.5478 123.224 79.5739C131.251 74.6001 140.764 72.5893 150.117 73.8896C159.47 75.1899 168.074 79.7194 174.44 86.6942C174.452 86.6886 174.466 86.6856 174.479 86.6856C174.493 86.6856 174.506 86.6886 174.519 86.6942C181.306 94.1627 185.052 103.901 185.019 113.993Z" fill="white"/>
<path d="M185.019 113.992C185.019 121.86 182.726 129.557 178.42 136.142C174.114 142.727 167.983 147.915 160.776 151.07C153.568 154.225 145.597 155.211 137.838 153.908C130.079 152.605 122.868 149.068 117.088 143.731C110.02 136.029 106.206 125.891 106.444 115.44C106.683 104.99 110.955 95.0364 118.367 87.665C125.78 80.2936 135.756 76.0758 146.208 75.8947C156.66 75.7137 166.777 79.5835 174.44 86.6938C174.452 86.6881 174.466 86.6852 174.479 86.6852C174.493 86.6852 174.506 86.6881 174.519 86.6938C181.306 94.1623 185.052 103.901 185.019 113.992Z" fill="white"/>
<path d="M144.543 116.354C144.233 116.354 143.926 116.293 143.639 116.175C143.353 116.056 143.093 115.881 142.874 115.661L123.132 95.9192C122.9 95.703 122.714 95.4423 122.585 95.1526C122.456 94.863 122.387 94.5503 122.381 94.2332C122.376 93.9161 122.434 93.6012 122.553 93.3071C122.671 93.0131 122.848 92.746 123.073 92.5217C123.297 92.2975 123.564 92.1207 123.858 92.0019C124.152 91.8832 124.467 91.8249 124.784 91.8304C125.101 91.836 125.414 91.9054 125.703 92.0345C125.993 92.1636 126.254 92.3497 126.47 92.5817L144.543 110.655L154.981 100.217C155.428 99.8 156.021 99.5729 156.632 99.5837C157.244 99.5945 157.828 99.8423 158.26 100.275C158.693 100.708 158.941 101.291 158.952 101.903C158.963 102.515 158.735 103.107 158.318 103.555L146.212 115.661C145.768 116.103 145.169 116.352 144.543 116.354Z" fill="#263238"/>
<path d="M49.8638 412.966C22.3243 412.966 -0.000953674 400.077 -0.000953674 384.177C-0.000953674 368.278 22.3243 355.389 49.8638 355.389C77.4033 355.389 99.7285 368.278 99.7285 384.177C99.7285 400.077 77.4033 412.966 49.8638 412.966Z" fill="#E0E0E0"/>
<path d="M201.281 304.531L260.025 338.447L186.466 381.014L127.722 347L201.281 304.531Z" fill="#E0E0E0"/>
<path d="M425.721 418.399C415.324 424.475 415.324 434.315 425.721 440.38C436.117 446.446 452.993 446.446 463.367 440.38C473.742 434.315 473.763 424.475 463.367 418.399C452.971 412.322 436.117 412.333 425.721 418.399Z" fill="#E0E0E0"/>
<path d="M245.448 36.293V310.14L410.893 405.648V131.822L245.448 36.293Z" fill="#4C38EE"/>
<path opacity="0.25" d="M245.448 36.293V310.14L410.893 405.648V131.822L245.448 36.293Z" fill="black"/>
<path opacity="0.15" d="M245.447 36.293L286.585 59.8344L286.596 286.369L245.447 310.14V36.293Z" fill="black"/>
<path d="M286.596 286.369L239.873 313.336L410.893 412.083V214.643L286.596 286.369Z" fill="#4C38EE"/>
<path opacity="0.8" d="M286.596 286.369L239.873 313.336L410.893 412.083V214.643L286.596 286.369Z" fill="white"/>
<path opacity="0.1" d="M398.849 366.321L347.392 396.026L254.764 342.55L306.222 312.845L398.849 366.321Z" fill="black"/>
<path d="M396.625 361.477L346.76 390.265L256.991 338.448L306.855 309.648L396.625 361.477Z" fill="#4C38EE"/>
<path opacity="0.1" d="M396.625 361.477L346.76 390.265L256.991 338.448L306.855 309.648L396.625 361.477Z" fill="black"/>
<path d="M396.625 361.476V364.084L346.76 392.883V390.265L396.625 361.476Z" fill="#4C38EE"/>
<path opacity="0.35" d="M396.625 361.476V364.084L346.76 392.883V390.265L396.625 361.476Z" fill="black"/>
<path d="M346.76 390.266L256.99 338.449V341.056L346.76 392.885V390.266Z" fill="#4C38EE"/>
<path opacity="0.2" d="M346.76 390.266L256.99 338.449V341.056L346.76 392.885V390.266Z" fill="black"/>
<path d="M357.222 367.226L361.509 363.594C361.64 363.485 361.684 363.386 361.651 363.299C361.614 363.199 361.54 363.117 361.444 363.07L359.393 361.881C359.287 361.83 359.172 361.804 359.055 361.805C358.933 361.802 358.812 361.832 358.706 361.892C358.666 361.912 358.629 361.938 358.597 361.968L350.731 368.841C350.67 368.882 350.622 368.94 350.593 369.008C350.564 369.075 350.555 369.15 350.568 369.223C350.591 369.314 350.634 369.398 350.695 369.47C350.755 369.542 350.831 369.599 350.917 369.637L352.215 370.39C352.427 370.513 352.668 370.577 352.913 370.575C353.141 370.58 353.368 370.554 353.589 370.499L358.302 369.135L355.935 371.852C355.847 371.963 355.8 372.102 355.804 372.244C355.804 372.397 355.924 372.528 356.131 372.648L357.429 373.401C357.65 373.524 357.897 373.592 358.149 373.597C358.372 373.615 358.596 373.582 358.804 373.499L370.705 368.961L370.847 368.895C370.888 368.882 370.924 368.855 370.949 368.82C370.975 368.785 370.988 368.742 370.988 368.699C370.988 368.656 370.975 368.613 370.949 368.578C370.924 368.543 370.888 368.517 370.847 368.503L368.796 367.314C368.674 367.249 368.541 367.208 368.404 367.194C368.228 367.181 368.052 367.211 367.891 367.281L361.607 369.757L363.516 367.575C363.575 367.505 363.62 367.423 363.647 367.335C363.647 367.226 363.647 367.117 363.429 367.008L361.967 366.157C361.799 366.051 361.597 366.009 361.4 366.037C361.256 366.049 361.114 366.075 360.975 366.114L357.222 367.226Z" fill="#FAFAFA"/>
<path d="M341.229 361.149C341.099 361.078 340.952 361.044 340.804 361.05C340.659 361.045 340.516 361.079 340.389 361.149L338.731 362.109C338.681 362.127 338.638 362.161 338.607 362.205C338.577 362.248 338.561 362.301 338.561 362.354C338.561 362.408 338.577 362.46 338.607 362.504C338.638 362.547 338.681 362.581 338.731 362.6L346.138 366.887C346.27 366.955 346.416 366.989 346.564 366.985C346.713 366.992 346.861 366.954 346.989 366.876L357.091 361.05C357.141 361.03 357.184 360.995 357.215 360.951C357.246 360.906 357.263 360.854 357.266 360.8C357.264 360.748 357.247 360.698 357.218 360.656C357.189 360.613 357.149 360.58 357.102 360.56L349.804 356.349C349.673 356.278 349.526 356.244 349.378 356.251C349.234 356.246 349.091 356.279 348.964 356.349L347.306 357.309C347.254 357.324 347.209 357.356 347.177 357.399C347.145 357.443 347.128 357.495 347.128 357.549C347.128 357.602 347.145 357.655 347.177 357.698C347.209 357.741 347.254 357.773 347.306 357.789L352.116 360.57L350.426 361.552L345.953 358.967C345.826 358.898 345.683 358.864 345.538 358.869C345.39 358.862 345.243 358.896 345.113 358.967L343.455 359.927C343.406 359.946 343.363 359.978 343.332 360.021C343.301 360.064 343.283 360.114 343.28 360.167C343.28 360.265 343.335 360.341 343.455 360.418L347.927 362.992L346.171 364.007L341.229 361.149Z" fill="#FAFAFA"/>
<path d="M331.302 355.444C331.17 355.379 331.024 355.346 330.877 355.346C330.729 355.346 330.584 355.379 330.451 355.444L328.793 356.404C328.746 356.425 328.704 356.458 328.674 356.5C328.643 356.542 328.624 356.592 328.619 356.644C328.623 356.697 328.642 356.749 328.672 356.793C328.703 356.837 328.745 356.872 328.793 356.895L336.037 361.073C336.169 361.137 336.315 361.171 336.462 361.171C336.61 361.171 336.755 361.137 336.888 361.073L346.989 355.237C347.039 355.218 347.081 355.185 347.112 355.142C347.143 355.1 347.161 355.049 347.164 354.997C347.164 354.898 347.109 354.822 346.989 354.746L344.939 353.567C344.812 353.498 344.668 353.464 344.524 353.469C344.376 353.463 344.229 353.497 344.099 353.567L336.07 358.204L331.302 355.444Z" fill="#FAFAFA"/>
<path d="M331.498 350.59L330.952 350.929L330.221 351.354L329.469 351.79L328.869 352.107C328.6 352.232 328.323 352.337 328.04 352.423C327.737 352.506 327.426 352.55 327.112 352.554C326.778 352.56 326.445 352.523 326.12 352.445C325.757 352.348 325.409 352.205 325.083 352.019C324.798 351.872 324.542 351.672 324.331 351.43C324.206 351.289 324.117 351.121 324.069 350.939C324.044 350.794 324.067 350.645 324.134 350.514C324.192 350.39 324.27 350.276 324.363 350.176C324.451 350.094 324.511 349.987 324.538 349.87C324.538 349.794 324.461 349.707 324.287 349.598L322.236 348.419C322.129 348.36 322.009 348.33 321.887 348.332C321.768 348.33 321.651 348.36 321.549 348.419C321.093 348.678 320.716 349.055 320.458 349.51C320.241 349.906 320.175 350.368 320.272 350.809C320.388 351.319 320.636 351.789 320.992 352.172C321.449 352.69 321.992 353.125 322.596 353.459C323.335 353.886 324.127 354.213 324.952 354.43C325.744 354.633 326.557 354.747 327.374 354.768C328.152 354.792 328.929 354.715 329.687 354.539C330.389 354.391 331.067 354.149 331.705 353.819C332.152 353.59 332.621 353.328 333.112 353.045C333.603 352.761 334.061 352.488 334.498 352.216C334.994 351.92 335.422 351.522 335.752 351.048C336.024 350.659 336.162 350.192 336.145 349.718C336.089 349.199 335.881 348.709 335.545 348.31C335.074 347.759 334.504 347.3 333.865 346.958C333.179 346.556 332.446 346.241 331.683 346.019C330.914 345.802 330.124 345.663 329.327 345.605C328.572 345.553 327.814 345.589 327.069 345.714C326.408 345.82 325.77 346.038 325.181 346.358C325.142 346.374 325.108 346.401 325.082 346.436C325.057 346.47 325.043 346.511 325.04 346.554C325.04 346.599 325.054 346.642 325.08 346.679C325.105 346.716 325.14 346.744 325.181 346.761L327.232 347.939C327.37 348.028 327.527 348.08 327.69 348.092C327.868 348.074 328.044 348.037 328.214 347.983L328.803 347.852C329.046 347.824 329.291 347.824 329.534 347.852C329.83 347.87 330.123 347.921 330.407 348.005C330.758 348.103 331.096 348.246 331.41 348.43C331.694 348.58 331.946 348.784 332.152 349.03C332.283 349.195 332.352 349.399 332.349 349.609C332.333 349.809 332.248 349.998 332.109 350.143C331.925 350.317 331.719 350.468 331.498 350.59Z" fill="#FAFAFA"/>
<path d="M323.469 345.865C323.966 345.563 324.397 345.162 324.734 344.687C325.017 344.303 325.156 343.832 325.127 343.356C325.072 342.846 324.867 342.364 324.538 341.971C324.057 341.41 323.477 340.944 322.825 340.596C322.085 340.161 321.289 339.831 320.458 339.615C319.667 339.404 318.854 339.287 318.036 339.266C317.266 339.242 316.496 339.319 315.745 339.495C315.037 339.651 314.352 339.896 313.705 340.226C313.236 340.476 312.756 340.738 312.265 341.022C311.775 341.306 311.327 341.578 310.924 341.829C310.429 342.135 309.999 342.535 309.658 343.007C309.378 343.393 309.235 343.862 309.255 344.338C309.309 344.854 309.518 345.34 309.855 345.735C310.338 346.289 310.918 346.751 311.567 347.098C312.309 347.533 313.105 347.867 313.934 348.091C314.722 348.299 315.531 348.412 316.345 348.429C317.119 348.448 317.892 348.371 318.647 348.2C319.355 348.044 320.041 347.798 320.687 347.469C321.134 347.229 321.603 346.978 322.094 346.695C322.585 346.411 323.043 346.127 323.469 345.865ZM313.847 343.455L314.447 343.084L315.134 342.658L315.844 342.266L316.476 341.938C316.76 341.805 317.056 341.699 317.36 341.622C317.67 341.544 317.989 341.504 318.309 341.502C318.644 341.503 318.978 341.547 319.302 341.633C319.645 341.725 319.975 341.86 320.283 342.036C320.552 342.181 320.793 342.373 320.993 342.604C321.121 342.77 321.194 342.972 321.2 343.182C321.203 343.38 321.138 343.573 321.014 343.727C320.86 343.926 320.672 344.096 320.458 344.229C320.294 344.349 320.109 344.469 319.891 344.6L319.204 345.015L318.494 345.418L317.829 345.756C317.252 346.03 316.624 346.179 315.985 346.193C315.294 346.199 314.615 346.014 314.022 345.658C313.378 345.276 313.073 344.905 313.105 344.567C313.134 344.337 313.216 344.117 313.345 343.923C313.474 343.73 313.646 343.57 313.847 343.455Z" fill="#FAFAFA"/>
<path d="M303.189 338.895H303.658L307.716 338.251L302.535 341.24C302.487 341.261 302.446 341.295 302.415 341.337C302.384 341.379 302.365 341.428 302.36 341.48C302.365 341.534 302.383 341.585 302.414 341.629C302.444 341.673 302.486 341.708 302.535 341.731L304.586 342.909C304.716 342.979 304.863 343.012 305.011 343.008C305.155 343.013 305.299 342.979 305.426 342.909L315.538 337.073C315.586 337.052 315.627 337.019 315.658 336.977C315.688 336.935 315.707 336.885 315.713 336.833C315.713 336.735 315.658 336.659 315.538 336.582L313.727 335.491C313.533 335.375 313.31 335.318 313.084 335.328H312.625L305.764 336.364L307.553 332.404C307.583 332.32 307.601 332.232 307.607 332.142C307.607 332.011 307.52 331.891 307.313 331.771L305.491 330.68C305.364 330.611 305.221 330.577 305.076 330.582C304.928 330.576 304.781 330.61 304.651 330.68L294.538 336.517C294.429 336.582 294.364 336.659 294.375 336.757C294.386 336.855 294.375 336.931 294.538 336.997L296.589 338.186C296.72 338.254 296.867 338.288 297.015 338.284C297.159 338.289 297.302 338.255 297.429 338.186L302.611 335.197L301.52 337.531C301.509 337.622 301.509 337.713 301.52 337.804C301.52 337.913 301.596 338 301.76 338.099L302.753 338.677C302.88 338.781 303.029 338.856 303.189 338.895Z" fill="#FAFAFA"/>
<path d="M286.574 329.612C286.447 329.543 286.304 329.509 286.159 329.514C286.012 329.51 285.865 329.544 285.734 329.612L284.076 330.572C284.027 330.591 283.984 330.624 283.953 330.667C283.922 330.709 283.904 330.76 283.901 330.812C283.906 330.864 283.925 330.914 283.956 330.956C283.987 330.998 284.028 331.031 284.076 331.052L291.494 335.34C291.624 335.41 291.771 335.444 291.919 335.438C292.064 335.443 292.207 335.409 292.334 335.34L302.446 329.503C302.495 329.48 302.537 329.445 302.567 329.401C302.598 329.357 302.616 329.306 302.621 329.252C302.617 329.2 302.598 329.15 302.568 329.108C302.537 329.065 302.495 329.032 302.446 329.012L295.159 324.802C295.028 324.733 294.882 324.699 294.734 324.703C294.586 324.698 294.439 324.732 294.308 324.802L292.65 325.762C292.6 325.78 292.557 325.814 292.526 325.857C292.496 325.901 292.479 325.954 292.479 326.007C292.479 326.06 292.496 326.113 292.526 326.156C292.557 326.2 292.6 326.234 292.65 326.252L297.483 329.034L295.792 330.005L291.319 327.42C291.187 327.355 291.041 327.321 290.894 327.321C290.746 327.321 290.601 327.355 290.468 327.42L288.81 328.38C288.76 328.398 288.717 328.432 288.686 328.476C288.656 328.519 288.64 328.572 288.64 328.625C288.64 328.679 288.656 328.731 288.686 328.775C288.717 328.818 288.76 328.852 288.81 328.871L293.283 331.456L291.537 332.46L286.574 329.612Z" fill="#FAFAFA"/>
<path d="M311.252 203.384C313.433 203.929 318.648 204.966 318.648 204.966C318.648 204.966 315.844 201.398 316.99 200.602C318.135 199.806 318.942 202.271 322.237 203.624C325.531 204.977 326.819 206.689 328.848 206.711L353.938 207.06C353.938 207.06 371.393 186.18 374.273 184.064C375.339 183.193 376.582 182.564 377.916 182.219C379.249 181.875 380.641 181.823 381.996 182.068L378.473 200.613L364.029 215.002C360.669 218.34 359.36 219.485 354.876 219.256C349.782 218.995 336.877 216.976 329.437 215.755C324.55 215.351 322.892 215.547 319.477 214.969C315.801 214.358 311.928 214.347 309.354 209.689C306.375 204.278 308.012 202.598 311.252 203.384Z" fill="#F28F8F"/>
<path d="M359.731 102.957V328.63L286.597 286.369V60.7502L359.731 102.957Z" fill="#455A64"/>
<path d="M356.84 207.42C356.793 206.518 356.533 205.64 356.081 204.857C355.63 204.074 355.001 203.409 354.244 202.915C352.804 202.086 351.647 202.762 351.647 204.42C351.719 205.787 352.276 207.083 353.218 208.075V210.257C353.236 210.563 353.325 210.86 353.479 211.125C353.632 211.39 353.846 211.616 354.102 211.784L354.407 211.959C354.887 212.242 355.28 211.959 355.28 211.446V209.264C356.196 209.34 356.84 208.653 356.84 207.42Z" fill="#263238"/>
<path d="M330.778 97.0452L349.443 107.823V193.48L330.778 182.702V97.0452Z" fill="#4C38EE"/>
<path opacity="0.3" d="M330.778 97.0452L349.443 107.823V193.48L330.778 182.702V97.0452Z" fill="black"/>
<path d="M299.851 79.1545L318.527 89.9326V175.59L299.851 164.811V79.1545Z" fill="#4C38EE"/>
<path opacity="0.3" d="M299.851 79.1545L318.527 89.9326V175.59L299.851 164.811V79.1545Z" fill="black"/>
<path d="M330.778 182.701L327.822 184.403L349.443 196.894V193.479L330.778 182.701Z" fill="#263238"/>
<path d="M299.851 164.811L296.895 166.524L318.516 179.003L321.473 177.291L299.851 164.811Z" fill="#263238"/>
<path d="M299.852 164.811V79.1211L296.884 77.4084L296.895 166.513L299.852 164.811Z" fill="#37474F"/>
<path d="M327.822 184.403L318.517 179.003V89.9319L327.822 95.3318V184.403Z" fill="#455A64"/>
<path d="M327.823 184.404L330.779 182.702V97.045L327.823 95.3323V184.404Z" fill="#37474F"/>
<path opacity="0.1" d="M327.822 198.617L349.444 211.097V306.976L327.822 294.485V198.617Z" fill="black"/>
<path d="M329.904 205.512L344.664 214.032V298.511L329.904 289.991V205.512Z" fill="#455A64"/>
<path d="M349.443 211.098L344.665 214.032V298.511L349.443 306.976V211.098Z" fill="#37474F"/>
<path d="M327.823 198.617L329.906 205.512V289.991L327.823 294.485V198.617Z" fill="#37474F"/>
<path d="M327.822 294.485L329.906 289.99L344.666 298.51L349.444 306.976L327.822 294.485Z" fill="#263238"/>
<path opacity="0.1" d="M296.885 180.715L318.518 193.206V289.084L296.885 276.594V180.715Z" fill="black"/>
<path d="M298.967 187.621L313.727 196.141V280.62L298.967 272.1V187.621Z" fill="#455A64"/>
<path d="M318.518 193.207L313.729 196.142V280.621L318.518 289.086V193.207Z" fill="#37474F"/>
<path d="M296.885 180.715L298.969 187.62V272.099L296.885 276.594V180.715Z" fill="#37474F"/>
<path d="M296.885 276.594L298.969 272.1L313.729 280.62L318.518 289.085L296.885 276.594Z" fill="#263238"/>
<path d="M362.904 326.863L359.73 328.63V102.957L362.904 104.757V326.863Z" fill="#263238"/>
<path opacity="0.1" d="M286.596 59.834V85.3063L410.893 157.294V131.822L286.596 59.834Z" fill="black"/>
<path opacity="0.1" d="M386.273 376.553C380.382 377.382 375.364 380.48 369.681 381.68C365.95 382.454 361.935 382.694 358.488 381.047C357.397 380.513 355.739 379.356 355.368 378.167C354.801 376.367 356.219 374.895 357.364 373.804C358.787 372.483 360.284 371.244 361.848 370.095C365.118 367.898 368.67 366.155 372.408 364.913C375.681 363.702 378.953 362.589 382.302 361.64C385.408 360.91 388.574 360.461 391.76 360.298C398.963 359.487 406.253 359.997 413.273 361.804C420.058 363.691 426.363 365.513 431.349 370.847C433.137 372.548 434.324 374.784 434.731 377.218C434.792 378.576 434.561 379.932 434.052 381.193C433.544 382.454 432.771 383.591 431.785 384.527C430.27 386.172 428.43 387.485 426.381 388.383C424.333 389.28 422.12 389.743 419.884 389.742C418.304 389.718 416.746 389.375 415.302 388.734C413.859 388.093 412.56 387.167 411.484 386.011C409.367 383.611 407.742 380.807 404.938 379.062C399.549 375.68 392.393 375.745 386.273 376.553Z" fill="black"/>
<path d="M398.151 176.222C398.337 178.284 398.031 180.455 401.631 181.961C401.631 181.961 399.821 187.219 404.02 188.964C404.02 188.964 402.591 193.895 406.082 195.509C405.754 196.538 405.763 197.645 406.106 198.669C406.449 199.693 407.11 200.581 407.991 201.204C407.296 202.157 406.928 203.311 406.944 204.491C406.96 205.671 407.358 206.815 408.079 207.749C407.686 208.052 407.365 208.438 407.139 208.879C406.913 209.321 406.787 209.806 406.77 210.302C406.617 212.135 407.424 214.327 409.213 214.742C408.892 214.351 408.717 213.862 408.717 213.356C408.717 212.851 408.892 212.361 409.213 211.971C410.369 210.651 410.882 208.993 409.649 207.782C409.649 207.782 413.926 206.484 411.449 201.488C411.947 201.019 412.324 200.437 412.549 199.791C412.773 199.146 412.839 198.456 412.741 197.779C412.642 197.103 412.382 196.46 411.983 195.906C411.583 195.351 411.056 194.901 410.446 194.593C410.446 194.593 412.748 189.422 408.428 187.535C408.428 187.535 410.948 184.524 407.631 180.99C407.631 180.99 410.784 175.655 404.151 171.062L398.151 176.222Z" fill="#263238"/>
<path d="M373.791 357.778C373.559 357.347 373.446 356.861 373.464 356.371C373.469 355.839 373.447 355.308 373.398 354.778C373.136 350.742 369.929 312.419 369.133 303.615C367.791 288.834 367.726 249.311 370.693 236.58L410.467 239.733C413.314 246.9 415.387 255.714 414.907 269.547C414.547 280.096 414.71 308.71 414.71 308.71C418.301 312.248 421.104 316.504 422.936 321.201C425.957 328.542 428.227 346.291 429.896 353.447C430.212 354.8 430.572 356.72 430.572 356.72C431.43 357.918 431.906 359.348 431.936 360.822C431.922 365.205 431.446 369.575 430.517 373.858C430.292 374.902 429.795 375.869 429.077 376.66C428.358 377.451 427.444 378.038 426.427 378.363C425.94 378.565 425.414 378.651 424.888 378.614C424.612 378.612 424.345 378.511 424.136 378.331C423.765 377.96 424.136 377.076 424.136 376.629C424.254 375.907 424.324 375.178 424.343 374.447C424.343 373.018 424.343 371.284 424.256 369.855C424.08 366.686 423.586 363.543 422.783 360.473L422.019 358.651C422.019 358.651 405.001 324.102 400.201 315.67C396.362 309.07 392.456 283.412 389.751 269.394L385.038 302.863C386.181 306.345 387.028 309.918 387.569 313.543C388.267 319.75 384.711 343.673 383.38 352.324C383.186 353.59 383.116 354.873 383.173 356.153C383.238 356.539 383.238 356.934 383.173 357.32C383.01 357.719 382.733 358.06 382.376 358.302C381.657 358.658 380.899 358.933 380.118 359.12C379.052 359.403 377.94 359.477 376.845 359.338C376.431 359.273 376.038 359.131 375.624 359.055C375.153 358.961 374.716 358.743 374.358 358.422C374.13 358.246 373.937 358.027 373.791 357.778Z" fill="#FFA8A7"/>
<path d="M418.638 386.535H418.944C421.612 386.874 424.323 386.624 426.885 385.804C429.164 385.061 431.209 383.738 432.82 381.964C433.454 381.098 433.93 380.127 434.227 379.095C434.558 378.025 434.806 376.931 434.969 375.822C435.645 372.299 434.696 371.306 435.754 367.837C436.237 366.63 436.635 365.391 436.943 364.128C436.77 363.478 436.461 362.872 436.038 362.35L431.674 368.459L428.783 372.517L427.245 374.699C426.907 375.179 426.645 375.79 426.264 376.248C425.675 376.785 425.014 377.237 424.3 377.59C423.591 378.037 422.86 378.462 422.118 378.855C420.666 379.641 419.169 380.34 417.635 380.95C416.985 381.17 416.366 381.47 415.791 381.844C415.504 382.037 415.263 382.29 415.084 382.586C414.905 382.882 414.792 383.213 414.755 383.557C414.755 384.153 414.99 384.725 415.409 385.15C416.293 385.97 417.434 386.46 418.638 386.535Z" fill="#37474F"/>
<path d="M423.079 360.964L422.348 359.491C421.748 359.993 422.588 363.047 422.697 366.233C422.737 367.656 422.646 369.081 422.424 370.487C422.228 371.775 421.735 373 420.984 374.065C419.878 375.776 418.496 377.291 416.893 378.549C416.146 379.016 415.521 379.656 415.071 380.414C414.824 380.835 414.68 381.309 414.651 381.796C414.623 382.284 414.711 382.771 414.908 383.218C415.273 383.848 415.843 384.333 416.522 384.593C417.442 384.953 418.415 385.159 419.402 385.203C422.57 385.457 425.746 384.826 428.577 383.382C430.112 382.592 431.436 381.448 432.439 380.044C433.153 378.782 433.613 377.392 433.791 375.953C434.315 373.455 434.14 370.902 434.446 368.982C434.751 367.062 436.311 364.302 436.038 362.436C435.886 361.4 434.522 359.655 433.257 358.258C431.991 356.862 430.824 355.498 430.388 355.902L430.562 356.775C429.93 358.307 428.769 359.561 427.289 360.309C426.007 361.017 424.516 361.248 423.079 360.964Z" fill="#455A64"/>
<path d="M420.755 374.655C420.676 374.646 420.601 374.613 420.54 374.56C420.48 374.508 420.437 374.438 420.417 374.36C420.404 374.31 420.401 374.258 420.408 374.206C420.416 374.155 420.433 374.106 420.459 374.061C420.486 374.016 420.52 373.977 420.562 373.946C420.603 373.915 420.651 373.893 420.701 373.88C422.937 373.302 427.028 373.444 428.948 374.491C428.993 374.516 429.033 374.55 429.065 374.59C429.097 374.63 429.121 374.677 429.135 374.727C429.149 374.776 429.154 374.828 429.148 374.879C429.142 374.931 429.126 374.98 429.101 375.025C429.077 375.072 429.044 375.113 429.003 375.146C428.963 375.179 428.917 375.203 428.866 375.217C428.816 375.232 428.764 375.235 428.712 375.229C428.661 375.222 428.611 375.205 428.566 375.178C426.843 374.229 422.959 374.087 420.93 374.644L420.755 374.655Z" fill="#E0E0E0"/>
<path d="M421.845 371.601C421.766 371.596 421.691 371.567 421.628 371.519C421.566 371.47 421.52 371.404 421.496 371.328C421.479 371.28 421.472 371.228 421.476 371.177C421.479 371.125 421.493 371.075 421.517 371.029C421.54 370.983 421.573 370.943 421.612 370.91C421.652 370.877 421.698 370.852 421.747 370.837C424.256 370.101 426.938 370.204 429.383 371.132C429.437 371.148 429.488 371.176 429.53 371.214C429.573 371.252 429.606 371.298 429.629 371.35C429.652 371.402 429.663 371.458 429.662 371.515C429.661 371.572 429.648 371.628 429.623 371.679C429.598 371.73 429.563 371.775 429.519 371.811C429.475 371.847 429.424 371.873 429.369 371.888C429.314 371.902 429.256 371.904 429.201 371.894C429.145 371.884 429.092 371.862 429.045 371.83C426.768 370.997 424.285 370.909 421.954 371.579C421.92 371.593 421.882 371.601 421.845 371.601Z" fill="#E0E0E0"/>
<path d="M422.467 368.47C422.396 368.471 422.327 368.452 422.268 368.416C422.208 368.379 422.159 368.326 422.128 368.263C422.103 368.218 422.087 368.168 422.081 368.117C422.076 368.066 422.08 368.014 422.094 367.964C422.108 367.915 422.132 367.868 422.164 367.828C422.196 367.787 422.236 367.754 422.281 367.729C424.667 366.794 427.322 366.821 429.688 367.805C429.735 367.827 429.777 367.858 429.811 367.897C429.846 367.935 429.872 367.98 429.89 368.028C429.907 368.077 429.914 368.128 429.912 368.18C429.909 368.231 429.896 368.282 429.874 368.329C429.827 368.421 429.746 368.491 429.648 368.523C429.55 368.556 429.443 368.549 429.35 368.503C427.213 367.625 424.822 367.594 422.663 368.416C422.603 368.449 422.535 368.468 422.467 368.47Z" fill="#E0E0E0"/>
<path d="M355.727 375.113C355.662 375.761 355.765 376.415 356.027 377.011C356.289 377.608 356.7 378.126 357.221 378.517C360.163 380.203 363.611 380.78 366.941 380.142C372.581 378.724 373.683 377.208 375.668 375.168C378.133 372.572 377.85 371.219 380.632 368.874C381.689 368.116 382.691 367.285 383.632 366.386C383.862 365.526 383.95 364.635 383.893 363.746L355.727 375.113Z" fill="#37474F"/>
<path d="M373.573 355.99L373.398 354.779C372.635 354.877 372.035 357.474 370.409 360.234C368.997 362.477 367.198 364.453 365.097 366.07C361.824 368.525 357.788 370.946 355.944 373.706C354.101 376.466 359.828 379.052 364.17 378.953C366.108 378.918 368.02 378.499 369.795 377.72C371.57 376.941 373.173 375.818 374.511 374.415C376.3 372.594 377.533 370.346 378.875 368.895C380.217 367.445 382.966 365.961 383.751 364.216C384.197 362.564 384.253 360.831 383.915 359.154C383.631 357.441 383.729 355.085 383.151 355.183C383.151 355.347 383.151 356.11 383.151 356.11C381.475 357.195 379.507 357.743 377.511 357.681C376.038 357.609 374.64 357.008 373.573 355.99Z" fill="#455A64"/>
<path d="M362.196 367.935C362.127 367.895 362.071 367.835 362.036 367.763C362.002 367.692 361.989 367.611 362 367.532C362.007 367.481 362.025 367.433 362.052 367.39C362.079 367.346 362.115 367.309 362.156 367.279C362.198 367.25 362.245 367.229 362.295 367.218C362.345 367.207 362.397 367.206 362.447 367.215C364.738 367.565 368.436 369.321 369.778 371.055C369.809 371.096 369.833 371.142 369.846 371.192C369.86 371.242 369.863 371.293 369.856 371.344C369.849 371.395 369.831 371.444 369.805 371.488C369.778 371.532 369.743 371.571 369.701 371.601C369.62 371.663 369.517 371.692 369.415 371.679C369.313 371.667 369.22 371.615 369.156 371.535C367.945 369.975 364.432 368.317 362.327 367.99L362.196 367.935Z" fill="#E0E0E0"/>
<path d="M365.294 365.797C365.225 365.759 365.169 365.702 365.134 365.631C365.099 365.561 365.086 365.482 365.098 365.404C365.114 365.301 365.17 365.209 365.254 365.148C365.338 365.087 365.442 365.061 365.545 365.077C368.125 365.55 370.481 366.852 372.254 368.786C372.318 368.868 372.346 368.973 372.333 369.076C372.319 369.179 372.266 369.273 372.183 369.337C372.101 369.4 371.996 369.429 371.893 369.415C371.79 369.402 371.696 369.348 371.632 369.266C369.982 367.493 367.806 366.296 365.425 365.851C365.378 365.843 365.333 365.824 365.294 365.797Z" fill="#E0E0E0"/>
<path d="M367.913 363.572C367.852 363.536 367.802 363.485 367.768 363.423C367.734 363.362 367.716 363.293 367.716 363.223C367.716 363.119 367.758 363.019 367.831 362.945C367.905 362.871 368.005 362.83 368.109 362.83C370.65 363.155 372.965 364.453 374.567 366.452C374.626 366.537 374.649 366.643 374.631 366.745C374.612 366.847 374.554 366.938 374.469 366.997C374.385 367.058 374.28 367.082 374.178 367.066C374.076 367.049 373.984 366.993 373.923 366.91C372.471 365.115 370.387 363.944 368.098 363.637C368.031 363.633 367.967 363.61 367.913 363.572Z" fill="#E0E0E0"/>
<path d="M406.126 227.734C409.22 233.745 411.656 240.073 413.391 246.607C415.573 255.901 415.497 262.01 415.41 278.243C415.322 294.475 415.093 308.537 415.093 308.537C415.093 308.537 423.133 313.849 425.795 332.264C425.795 332.264 419.457 338.809 411.046 336.627C411.046 336.627 402.013 320.58 399.046 315.551C396.079 310.522 389.73 269.406 389.73 269.406L385.912 302.93C385.912 302.93 388.792 310.948 388.421 316.609C388.05 322.271 386.512 331.129 386.512 331.129C381.415 332.682 375.925 332.293 371.098 330.038C371.098 330.038 368.37 303.726 368.01 294.181C367.65 284.635 366.483 250.905 371.174 229.818L406.126 227.734Z" fill="#455A64"/>
<path d="M389.73 269.471L385.956 254.657C385.956 254.657 378.702 255.497 372.996 251.275C372.996 251.275 374.163 256.73 384.276 258.301L388.64 272.799L388.574 279.726L389.73 269.471Z" fill="#263238"/>
<path d="M371.37 223.665C371.788 219.59 371.832 215.486 371.501 211.403C369.194 209.257 367.724 206.361 367.354 203.232C366.985 200.103 367.739 196.944 369.483 194.32C374.992 185.396 381.974 182.069 381.974 182.069L391.17 181.785C392.479 181.938 403.78 183.563 405.22 183.967C405.22 183.967 409.115 187.24 410.173 191.047C410.773 193.229 410.948 195.41 408.995 202.381L404.206 214.588C404.206 214.588 402.81 218.243 403.519 220.806C404.228 223.37 408.122 229.741 410.173 235.926C410.173 235.926 401.446 243.748 385.421 241.937C371.73 240.377 369.734 235.773 369.734 235.773C369.734 235.773 371.206 226.163 371.37 223.665Z" fill="#FAFAFA"/>
<path opacity="0.1" d="M397.148 208.949C396.213 210.593 394.823 211.932 393.145 212.805C391.468 213.677 389.573 214.047 387.69 213.869C385.871 213.759 384.113 213.17 382.594 212.163C381.075 211.155 379.849 209.764 379.04 208.131C379.04 208.131 379.105 215.353 387.636 215.603C396.167 215.854 397.148 208.949 397.148 208.949Z" fill="black"/>
<path d="M335.327 208.381C335.292 207.378 335.591 206.391 336.178 205.577C336.26 205.428 336.375 205.3 336.515 205.203C336.656 205.106 336.816 205.044 336.985 205.021C337.403 205.047 337.794 205.235 338.076 205.544C339.254 206.635 340.258 207.726 341.49 208.817C342.65 209.84 344.115 210.45 345.658 210.552C345.645 210.246 345.529 209.954 345.33 209.722C344.85 209.057 344.49 208.577 343.978 207.857C343.651 207.501 343.406 207.076 343.263 206.614C343.12 206.152 343.081 205.663 343.149 205.184C343.18 205.055 343.245 204.937 343.337 204.841C343.429 204.745 343.545 204.676 343.672 204.639C343.889 204.62 344.105 204.678 344.283 204.803C345.971 205.641 347.553 206.678 348.996 207.89C350.578 209.221 351.516 211.424 354.254 212.504C356.992 213.584 359.916 213.846 364.967 214.511C368.905 215.024 375.385 215.864 379.748 216.246C385.999 209.908 393.646 198.552 397.813 192.912C400.033 189.742 402.506 186.757 405.21 183.988C408.864 185.079 410.98 186.945 411.831 189.563C414.013 195.595 410.937 202.49 402.766 211.577C400.104 214.555 392.042 223.413 387.93 227.548C387.323 228.165 386.589 228.644 385.779 228.949C384.969 229.254 384.102 229.379 383.239 229.315C380.775 229.047 378.327 228.643 375.908 228.104C371.403 227.013 365.686 225.377 361.192 224.286C357.559 223.402 353.785 222.333 350.698 221.428C348.591 220.871 346.522 220.182 344.501 219.366C342.792 218.749 341.177 217.897 339.701 216.835C338.73 216.158 337.882 215.321 337.192 214.359C336.596 213.446 336.14 212.45 335.84 211.402C335.505 210.43 335.332 209.409 335.327 208.381Z" fill="#FFA8A7"/>
<path d="M406.573 150.531C409.104 153.804 409.584 158.08 408.962 162.291C407.871 169.371 403.584 174.88 398.457 177.204C395.391 178.6 391.399 179.189 389.348 177.4C386.152 174.629 382.912 171.945 379.464 169.469C376.89 167.647 374.01 165.826 372.755 162.924C371.665 160.458 371.665 156.237 373.977 154.415C372.152 152.988 370.88 150.971 370.377 148.709C370.149 148.117 370.102 147.47 370.241 146.85C370.381 146.231 370.702 145.667 371.163 145.229C371.817 144.662 373.879 144.564 374.752 144.466C377.807 144.008 380.82 143.303 383.763 142.36C387.408 141.58 391.162 141.437 394.857 141.935C397.737 142.491 401.02 143.626 402.493 147.64C404.151 148.093 405.596 149.117 406.573 150.531Z" fill="#263238"/>
<path d="M380.391 148.578C378.209 149.669 375.405 154.665 374.936 165.509C374.576 174.694 377.413 177.149 378.864 177.901C380.314 178.654 383.227 178.425 386.053 178.141L385.758 182.734C385.758 182.734 377.609 188.614 383.991 189.836C387.52 190.321 391.103 189.461 394.027 187.425C395.607 186.418 396.965 185.101 398.02 183.552L398.663 172.152C398.663 172.152 400.212 173.854 403.158 171.585C405.59 169.709 406.583 166.36 404.903 164.418C404.463 163.956 403.92 163.604 403.318 163.393C402.716 163.181 402.073 163.115 401.44 163.2C400.808 163.285 400.205 163.519 399.68 163.883C399.156 164.246 398.725 164.729 398.423 165.291C398.423 165.291 396.721 166.152 395.271 163C392.502 162.556 389.868 161.501 387.558 159.913C385.665 158.599 384.056 156.919 382.824 154.972C381.593 153.025 380.766 150.851 380.391 148.578Z" fill="#FFA8A7"/>
<path d="M387.035 163.37C386.995 163.68 387.079 163.993 387.269 164.24C387.46 164.488 387.74 164.65 388.05 164.69C388.365 164.715 388.676 164.614 388.917 164.409C389.158 164.205 389.309 163.914 389.337 163.6C389.37 163.294 389.281 162.988 389.089 162.749C388.896 162.51 388.617 162.356 388.311 162.323C388.006 162.29 387.7 162.379 387.461 162.572C387.222 162.764 387.068 163.043 387.035 163.349V163.37Z" fill="#263238"/>
<path d="M386.849 170.33L382.485 171.585C382.554 171.881 382.681 172.16 382.86 172.405C383.039 172.65 383.266 172.857 383.527 173.013C383.787 173.169 384.077 173.271 384.378 173.312C384.679 173.353 384.985 173.333 385.278 173.254C385.864 173.06 386.354 172.649 386.646 172.105C386.939 171.561 387.011 170.926 386.849 170.33Z" fill="#B16668"/>
<path d="M384.221 173.287C384.271 172.732 384.532 172.217 384.95 171.848C385.367 171.478 385.911 171.283 386.468 171.302C386.608 171.312 386.747 171.334 386.883 171.367C386.811 171.806 386.618 172.215 386.325 172.549C386.032 172.883 385.65 173.127 385.225 173.255C384.897 173.344 384.554 173.355 384.221 173.287Z" fill="#F28F8F"/>
<path d="M376.824 159.127L379.301 157.654C379.213 157.491 379.094 157.347 378.949 157.232C378.804 157.116 378.637 157.031 378.459 156.982C378.28 156.933 378.093 156.921 377.91 156.947C377.727 156.972 377.55 157.035 377.392 157.131C377.057 157.325 376.811 157.642 376.705 158.014C376.599 158.387 376.642 158.786 376.824 159.127Z" fill="#263238"/>
<path d="M388.912 159.127L391.498 160.305C391.584 160.141 391.636 159.96 391.65 159.775C391.665 159.59 391.641 159.404 391.581 159.228C391.52 159.052 391.425 158.891 391.3 158.753C391.175 158.616 391.023 158.505 390.854 158.429C390.503 158.273 390.105 158.259 389.743 158.389C389.382 158.519 389.084 158.783 388.912 159.127Z" fill="#263238"/>
<path d="M377.249 162.499C377.232 162.65 377.246 162.803 377.289 162.949C377.331 163.094 377.402 163.231 377.497 163.349C377.593 163.468 377.71 163.566 377.843 163.639C377.977 163.712 378.123 163.758 378.274 163.775C378.425 163.791 378.578 163.778 378.724 163.735C378.87 163.693 379.006 163.622 379.125 163.527C379.243 163.431 379.342 163.314 379.415 163.18C379.488 163.047 379.534 162.901 379.551 162.749C379.591 162.44 379.507 162.127 379.317 161.88C379.126 161.632 378.846 161.47 378.536 161.429C378.225 161.405 377.916 161.503 377.675 161.703C377.435 161.902 377.282 162.188 377.249 162.499Z" fill="#263238"/>
<path d="M382.834 162.182L382.212 169.12L378.623 167.756L382.834 162.182Z" fill="#F28F8F"/>
<path d="M386.107 178.142C389.085 177.934 395.26 176.571 396.361 174.236C395.902 175.425 395.092 176.444 394.038 177.16C392.129 178.6 385.987 179.974 385.987 179.974L386.107 178.142Z" fill="#F28F8F"/>
<path d="M398.479 163.021L398.184 167.843C397.751 167.82 397.327 167.71 396.937 167.522C396.546 167.333 396.198 167.068 395.91 166.743C395.623 166.419 395.403 166.04 395.264 165.63C395.124 165.219 395.067 164.785 395.097 164.352L395.38 159.891L398.479 163.021Z" fill="#263238"/>
<path d="M245.449 310.139L239.875 313.336V33.0742L245.449 36.2924V310.139Z" fill="#4C38EE"/>
<path opacity="0.4" d="M245.449 310.139L239.875 313.336V33.0742L245.449 36.2924V310.139Z" fill="white"/>
<path opacity="0.1" d="M245.449 310.139L239.875 313.336V33.0742L245.449 36.2924V310.139Z" fill="black"/>
<path d="M239.875 313.335L222.802 303.473V3.48828L427.988 121.959V421.911L410.894 412.082V131.821L239.886 33.0733L239.875 313.335Z" fill="#4C38EE"/>
<path opacity="0.7" d="M239.875 313.335L222.802 303.473V3.48828L427.988 121.959V421.911L410.894 412.082V131.821L239.886 33.0733L239.875 313.335Z" fill="white"/>
<path d="M222.803 3.48895L427.989 121.96L433.477 118.775L228.28 0.314453L222.803 3.48895Z" fill="#4C38EE"/>
<path opacity="0.85" d="M222.803 3.48895L427.989 121.96L433.477 118.775L228.28 0.314453L222.803 3.48895Z" fill="white"/>
<path d="M427.989 421.913V121.961L433.477 118.775V418.749L427.989 421.913Z" fill="#4C38EE"/>
<path opacity="0.6" d="M433.477 118.775V418.749L427.989 421.913V121.961" fill="white"/>
<path d="M250.691 338.446L200.358 309.385L137.064 345.919L187.398 374.98L250.691 338.446Z" fill="black"/>
<path d="M200.359 309.386V259.695L251.707 289.346L208.748 314.229L200.359 309.386Z" fill="#37474F"/>
<path d="M200.359 259.695V309.386L179.011 321.702L136.051 296.818L200.359 259.695Z" fill="#263238"/>
<path d="M251.707 289.346V337.858L187.399 374.981V326.545L251.707 289.346Z" fill="#263238"/>
<path d="M187.398 326.545V374.981L136.05 345.33V296.818L187.398 326.545Z" fill="#37474F"/>
<path d="M187.398 326.545L186.395 373.137L149.097 352.868L187.398 374.981V326.545Z" fill="#455A64"/>
<path d="M181.267 359.382C181.451 359.384 181.633 359.335 181.791 359.24C182.017 359.077 182.197 358.857 182.312 358.602C182.427 358.347 182.473 358.067 182.445 357.789V353.502V353.185H182.227L178.867 351.211V356.109C178.873 356.726 179.026 357.332 179.315 357.876C179.603 358.421 180.018 358.889 180.525 359.24C180.757 359.349 181.012 359.398 181.267 359.382ZM181.911 353.818V357.789C181.934 357.973 181.91 358.159 181.841 358.331C181.773 358.502 181.661 358.654 181.518 358.771C181.4 358.822 181.271 358.841 181.143 358.828C181.015 358.815 180.892 358.769 180.787 358.694C180.368 358.386 180.025 357.986 179.785 357.524C179.545 357.063 179.414 356.553 179.402 356.033V355.684H180.645L180.896 353.993L181.911 353.818ZM180.187 355.138H179.402V352.171L181.409 353.36L180.416 353.535L180.187 355.138Z" fill="#E0E0E0"/>
<path d="M180.657 362.827C180.729 362.827 180.799 362.798 180.85 362.747C180.901 362.696 180.93 362.627 180.93 362.554V358.954C180.93 358.882 180.901 358.813 180.85 358.762C180.799 358.71 180.729 358.682 180.657 358.682C180.585 358.682 180.515 358.71 180.464 358.762C180.413 358.813 180.384 358.882 180.384 358.954V362.554C180.384 362.627 180.413 362.696 180.464 362.747C180.515 362.798 180.585 362.827 180.657 362.827Z" fill="#E0E0E0"/>
<path d="M182.227 363.743C182.274 363.741 182.319 363.726 182.359 363.701C182.399 363.677 182.433 363.642 182.456 363.602C182.492 363.539 182.501 363.465 182.483 363.396C182.465 363.327 182.42 363.267 182.358 363.231L179.227 361.431C179.165 361.395 179.091 361.385 179.021 361.404C178.952 361.422 178.892 361.467 178.856 361.529C178.839 361.559 178.827 361.592 178.823 361.627C178.818 361.661 178.821 361.696 178.83 361.73C178.839 361.763 178.855 361.794 178.876 361.822C178.897 361.849 178.924 361.872 178.954 361.889L182.085 363.743C182.131 363.759 182.181 363.759 182.227 363.743Z" fill="#E0E0E0"/>
<path d="M171.056 357.526C171.159 357.524 171.26 357.498 171.351 357.45C171.459 357.38 171.546 357.282 171.604 357.167C171.661 357.052 171.687 356.924 171.678 356.795V356.108C171.678 356.036 171.649 355.966 171.598 355.915C171.547 355.864 171.478 355.835 171.405 355.835C171.333 355.835 171.264 355.864 171.212 355.915C171.161 355.966 171.133 356.036 171.133 356.108V356.85C171.154 356.91 171.154 356.975 171.133 357.035C171.133 357.035 171.045 357.035 170.958 356.981C170.791 356.827 170.66 356.64 170.574 356.431C170.487 356.222 170.447 355.996 170.456 355.77V350.97C170.456 350.898 170.427 350.828 170.376 350.777C170.325 350.726 170.256 350.697 170.183 350.697C170.111 350.697 170.042 350.726 169.991 350.777C169.939 350.828 169.911 350.898 169.911 350.97V355.77C169.899 356.09 169.961 356.408 170.094 356.7C170.227 356.992 170.425 357.248 170.674 357.45C170.794 357.505 170.925 357.531 171.056 357.526Z" fill="#E0E0E0"/>
<path d="M173.904 353.326V352.835C173.838 351.637 173.49 350.471 172.89 349.433C172.289 348.394 171.452 347.512 170.446 346.857C170.084 346.554 169.637 346.371 169.167 346.332C168.697 346.293 168.226 346.4 167.819 346.639C167.412 346.878 167.088 347.236 166.893 347.666C166.697 348.095 166.639 348.575 166.726 349.039V349.202L173.904 353.326ZM168.832 346.933C169.311 346.953 169.777 347.096 170.184 347.348C171.04 347.911 171.765 348.651 172.309 349.519C172.853 350.387 173.203 351.361 173.337 352.377L167.272 348.875C167.251 348.536 167.316 348.198 167.461 347.891C167.606 347.584 167.826 347.318 168.101 347.119C168.325 346.996 168.576 346.932 168.832 346.933Z" fill="#E0E0E0"/>
<path d="M161.37 351.995C161.442 351.995 161.512 351.966 161.563 351.915C161.614 351.864 161.643 351.795 161.643 351.723V342.548C161.643 342.476 161.614 342.406 161.563 342.355C161.512 342.304 161.442 342.275 161.37 342.275C161.298 342.275 161.228 342.304 161.177 342.355C161.126 342.406 161.097 342.476 161.097 342.548V351.744C161.103 351.813 161.134 351.877 161.184 351.923C161.235 351.97 161.301 351.995 161.37 351.995Z" fill="#E0E0E0"/>
<path d="M162.154 344.643H162.263C162.296 344.629 162.326 344.608 162.351 344.583C162.376 344.557 162.396 344.526 162.409 344.493C162.422 344.459 162.428 344.424 162.428 344.388C162.427 344.352 162.419 344.316 162.405 344.283L161.445 342.102L160.354 343.334C160.304 343.385 160.276 343.454 160.276 343.525C160.276 343.597 160.304 343.665 160.354 343.716C160.378 343.742 160.408 343.763 160.441 343.777C160.474 343.791 160.509 343.799 160.545 343.799C160.581 343.799 160.616 343.791 160.649 343.777C160.682 343.763 160.711 343.742 160.736 343.716L161.248 343.138L161.87 344.567C161.905 344.605 161.951 344.633 162.001 344.647C162.051 344.66 162.104 344.659 162.154 344.643Z" fill="#E0E0E0"/>
<path d="M158.872 350.577C158.944 350.577 159.014 350.549 159.065 350.497C159.116 350.446 159.145 350.377 159.145 350.305V341.119C159.142 341.049 159.112 340.982 159.061 340.933C159.01 340.885 158.942 340.857 158.872 340.857C158.801 340.857 158.734 340.885 158.683 340.933C158.632 340.982 158.602 341.049 158.599 341.119V350.305C158.599 350.377 158.628 350.446 158.679 350.497C158.73 350.549 158.799 350.577 158.872 350.577Z" fill="#E0E0E0"/>
<path d="M159.667 343.213C159.699 343.223 159.733 343.223 159.765 343.213C159.799 343.201 159.83 343.182 159.856 343.157C159.881 343.133 159.902 343.103 159.915 343.07C159.929 343.037 159.935 343.002 159.933 342.966C159.932 342.93 159.923 342.895 159.907 342.863L158.947 340.682L157.856 341.925C157.83 341.95 157.809 341.979 157.795 342.012C157.781 342.045 157.774 342.08 157.774 342.116C157.774 342.152 157.781 342.187 157.795 342.22C157.809 342.253 157.83 342.283 157.856 342.307C157.907 342.354 157.973 342.38 158.042 342.38C158.11 342.38 158.177 342.354 158.227 342.307L158.74 341.718L159.362 343.147C159.399 343.189 159.449 343.219 159.504 343.23C159.559 343.242 159.616 343.236 159.667 343.213Z" fill="#E0E0E0"/>
<path d="M240.71 323.785L226.692 331.88C226.509 331.999 226.356 332.16 226.246 332.35C226.136 332.539 226.072 332.752 226.06 332.971V342.723C226.06 343.52 226.627 343.814 227.314 343.454L241.332 335.381C241.516 335.263 241.67 335.102 241.78 334.912C241.89 334.723 241.953 334.51 241.965 334.291V324.473C241.965 323.709 241.398 323.382 240.71 323.785Z" fill="#FAFAFA"/>
<path d="M241.048 325.301L240.579 325.574V334.17L241.059 333.897L241.048 325.301Z" fill="#455A64"/>
<path d="M239.117 326.414L238.288 326.905V335.501L239.117 335.021V326.414Z" fill="#455A64"/>
<path d="M237.176 327.537L236.696 327.81V336.417L237.176 336.133V327.537Z" fill="#455A64"/>
<path d="M235.703 328.367L234.754 328.934V337.542L235.703 336.974V328.367Z" fill="#455A64"/>
<path d="M233.291 329.785L232.811 330.058V338.654L233.291 338.381V329.785Z" fill="#455A64"/>
<path d="M231.896 330.57L230.871 331.17V339.777L231.896 339.167V330.57Z" fill="#455A64"/>
<path d="M229.408 332.021L228.928 332.294V340.901L229.408 340.618V332.021Z" fill="#455A64"/>
<path d="M228.295 332.654L228.055 332.785V341.392L228.295 341.251V332.654Z" fill="#455A64"/>
<path d="M230.291 331.553L230.051 331.695V340.291L230.291 340.149V331.553Z" fill="#455A64"/>
<path d="M234.197 329.262L233.957 329.404V338L234.197 337.858V329.262Z" fill="#455A64"/>
<path d="M236.346 328.029L236.106 328.171V336.767L236.346 336.636V328.029Z" fill="#455A64"/>
<path d="M237.885 327.188L237.645 327.318V335.926L237.885 335.784V327.188Z" fill="#455A64"/>
<path d="M239.969 325.912L239.729 326.054V334.65L239.969 334.519V325.912Z" fill="#455A64"/>
<path d="M227.467 333.145L226.987 333.417V342.013L227.467 341.741V333.145Z" fill="#455A64"/>
<path d="M200.357 259.695L251.705 289.346L187.397 326.545L136.049 296.818L200.357 259.695Z" fill="#455A64"/>
<path opacity="0.1" d="M251.705 289.346L187.397 324.713L136.049 296.819L187.397 326.545L251.705 289.346Z" fill="white"/>
<path d="M230.4 277.03L166.049 314.186L158.14 309.615L222.48 272.459L230.4 277.03Z" fill="#4C38EE"/>
<path d="M158.139 309.604V319.662L159.099 319.116L160.091 320.829L161.084 320.251L162.077 321.985L163.07 321.396L164.062 323.109L165.066 322.542L166.059 324.265V314.185L158.139 309.604Z" fill="#4C38EE"/>
<path opacity="0.25" d="M158.139 309.604V319.662L159.099 319.116L160.091 320.829L161.084 320.251L162.077 321.985L163.07 321.396L164.062 323.109L165.066 322.542L166.059 324.265V314.185L158.139 309.604Z" fill="black"/>
<path opacity="0.1" d="M192.195 266.109L236.977 291.964L192.195 317.905L147.403 291.964L192.195 266.109Z" fill="black"/>
<path d="M229.625 291.398L192.196 269.787L154.757 291.398L192.196 313.019L229.625 291.398Z" fill="black"/>
<path d="M192.196 269.786V227.023L230.508 249.147L193.527 270.561L192.196 269.786Z" fill="#37474F"/>
<path d="M192.195 227.023V269.786L190.854 270.561L153.883 249.147L192.195 227.023Z" fill="#263238"/>
<path d="M230.508 249.146V290.895L192.196 313.018V271.335L230.508 249.146Z" fill="#263238"/>
<path d="M192.195 271.335V313.018L153.883 290.895V249.146L192.195 271.335Z" fill="#37474F"/>
<path d="M192.195 271.336L191.323 311.426L159.229 293.983L192.195 313.019V271.336Z" fill="#455A64"/>
<path d="M186.906 299.6C187.067 299.604 187.226 299.562 187.364 299.48C187.559 299.341 187.715 299.153 187.815 298.934C187.914 298.716 187.954 298.475 187.931 298.236V294.538V294.255H187.746L184.844 292.553V296.676C184.844 297.204 184.968 297.724 185.207 298.194C185.446 298.664 185.792 299.071 186.218 299.382C186.421 299.521 186.66 299.597 186.906 299.6ZM187.462 294.811V298.291C187.481 298.449 187.462 298.609 187.404 298.757C187.347 298.905 187.255 299.038 187.135 299.142C187.031 299.184 186.919 299.199 186.808 299.186C186.698 299.172 186.592 299.131 186.502 299.065C186.141 298.801 185.846 298.456 185.64 298.059C185.434 297.662 185.322 297.222 185.313 296.774V296.469H186.404L186.611 295.029L187.462 294.811ZM185.978 295.956H185.313V293.404L187.037 294.418L186.186 294.571L185.978 295.956Z" fill="#E0E0E0"/>
<path d="M186.392 302.546C186.453 302.546 186.511 302.522 186.554 302.479C186.597 302.436 186.621 302.377 186.621 302.317V299.219C186.629 299.184 186.629 299.147 186.62 299.112C186.612 299.078 186.596 299.045 186.574 299.017C186.551 298.989 186.523 298.967 186.49 298.951C186.458 298.936 186.423 298.928 186.387 298.928C186.351 298.928 186.316 298.936 186.283 298.951C186.251 298.967 186.223 298.989 186.2 299.017C186.178 299.045 186.162 299.078 186.153 299.112C186.145 299.147 186.145 299.184 186.152 299.219V302.317C186.152 302.348 186.159 302.378 186.171 302.407C186.183 302.436 186.201 302.461 186.223 302.483C186.246 302.504 186.272 302.521 186.301 302.532C186.33 302.542 186.361 302.547 186.392 302.546Z" fill="#E0E0E0"/>
<path d="M187.734 303.331C187.776 303.33 187.816 303.319 187.853 303.298C187.889 303.277 187.919 303.247 187.941 303.212C187.969 303.158 187.976 303.095 187.96 303.036C187.944 302.977 187.906 302.927 187.854 302.895L185.159 301.335C185.107 301.317 185.051 301.318 184.999 301.337C184.947 301.356 184.904 301.392 184.876 301.44C184.848 301.487 184.837 301.543 184.845 301.597C184.852 301.651 184.879 301.701 184.919 301.739L187.625 303.299C187.657 303.32 187.695 303.331 187.734 303.331Z" fill="#E0E0E0"/>
<path d="M178.124 297.987C178.215 297.988 178.306 297.966 178.386 297.921C178.477 297.861 178.55 297.778 178.598 297.68C178.646 297.583 178.667 297.474 178.658 297.365V296.721C178.658 296.661 178.634 296.602 178.591 296.559C178.548 296.516 178.49 296.492 178.429 296.492C178.369 296.492 178.31 296.516 178.267 296.559C178.224 296.602 178.2 296.661 178.2 296.721V297.365C178.217 297.415 178.217 297.468 178.2 297.518C178.2 297.518 178.124 297.518 178.047 297.518C177.897 297.38 177.78 297.211 177.705 297.022C177.629 296.833 177.597 296.63 177.611 296.427V292.303C177.611 292.243 177.587 292.184 177.544 292.141C177.501 292.098 177.443 292.074 177.382 292.074C177.321 292.074 177.263 292.098 177.22 292.141C177.177 292.184 177.153 292.243 177.153 292.303V296.427C177.141 296.703 177.194 296.978 177.308 297.23C177.421 297.482 177.593 297.704 177.807 297.878C177.902 297.94 178.011 297.977 178.124 297.987Z" fill="#E0E0E0"/>
<path d="M180.578 294.375V293.928C180.522 292.897 180.223 291.894 179.705 291.001C179.188 290.108 178.466 289.351 177.6 288.79C177.291 288.531 176.911 288.373 176.509 288.338C176.108 288.302 175.706 288.391 175.357 288.593C175.008 288.794 174.729 289.098 174.559 289.463C174.388 289.828 174.334 290.236 174.404 290.633V290.775L180.578 294.375ZM176.215 288.92C176.625 288.938 177.023 289.062 177.371 289.28C178.113 289.767 178.74 290.41 179.209 291.163C179.678 291.917 179.978 292.763 180.087 293.644L174.873 290.633C174.853 290.341 174.908 290.049 175.032 289.784C175.156 289.519 175.345 289.289 175.582 289.117C175.769 288.984 175.987 288.902 176.215 288.877V288.92Z" fill="#E0E0E0"/>
<path d="M169.788 293.229C169.849 293.229 169.908 293.205 169.95 293.162C169.993 293.119 170.018 293.061 170.018 293V285.102C170.018 285.041 169.993 284.983 169.95 284.94C169.908 284.897 169.849 284.873 169.788 284.873C169.728 284.873 169.669 284.897 169.627 284.94C169.584 284.983 169.559 285.041 169.559 285.102V293C169.559 293.03 169.565 293.06 169.577 293.088C169.588 293.116 169.605 293.141 169.627 293.162C169.648 293.183 169.673 293.2 169.701 293.212C169.729 293.223 169.758 293.229 169.788 293.229Z" fill="#E0E0E0"/>
<path d="M170.465 286.902H170.563C170.591 286.89 170.617 286.873 170.638 286.851C170.659 286.829 170.676 286.803 170.687 286.775C170.698 286.746 170.704 286.716 170.703 286.685C170.702 286.655 170.695 286.624 170.683 286.597L169.854 284.688L168.937 285.778C168.916 285.8 168.898 285.825 168.887 285.853C168.875 285.881 168.869 285.912 168.869 285.942C168.869 285.972 168.875 286.003 168.887 286.031C168.898 286.059 168.916 286.084 168.937 286.106C168.982 286.147 169.04 286.17 169.101 286.17C169.162 286.17 169.22 286.147 169.265 286.106L169.701 285.604L170.236 286.837C170.264 286.867 170.301 286.89 170.341 286.901C170.381 286.913 170.424 286.913 170.465 286.902Z" fill="#E0E0E0"/>
<path d="M167.672 292.009C167.734 292.009 167.793 291.985 167.838 291.942C167.883 291.9 167.909 291.841 167.912 291.78V283.871C167.9 283.817 167.871 283.769 167.828 283.735C167.786 283.7 167.732 283.682 167.678 283.682C167.623 283.682 167.57 283.7 167.527 283.735C167.484 283.769 167.455 283.817 167.443 283.871V291.747C167.44 291.779 167.444 291.812 167.454 291.843C167.464 291.874 167.48 291.903 167.501 291.927C167.523 291.952 167.549 291.971 167.578 291.985C167.608 292 167.64 292.007 167.672 292.009Z" fill="#E0E0E0"/>
<path d="M168.327 285.681H168.414C168.443 285.669 168.468 285.652 168.489 285.63C168.511 285.608 168.528 285.582 168.539 285.554C168.55 285.525 168.555 285.495 168.555 285.464C168.554 285.434 168.547 285.404 168.534 285.376L167.705 283.467L166.789 284.558C166.748 284.604 166.728 284.664 166.732 284.726C166.736 284.787 166.764 284.844 166.811 284.885C166.834 284.905 166.86 284.92 166.889 284.93C166.918 284.94 166.949 284.944 166.979 284.942C167.04 284.938 167.098 284.909 167.138 284.863L167.574 284.361L168.109 285.594C168.135 285.626 168.168 285.651 168.207 285.666C168.245 285.681 168.286 285.687 168.327 285.681Z" fill="#E0E0E0"/>
<path d="M221.039 278.786L208.974 285.746C208.816 285.852 208.685 285.992 208.59 286.157C208.495 286.322 208.44 286.506 208.428 286.695V295.073C208.428 295.772 208.919 296.055 209.519 295.706L221.585 288.735C221.741 288.632 221.871 288.493 221.963 288.33C222.056 288.167 222.11 287.984 222.119 287.797V279.408C222.119 278.721 221.628 278.437 221.039 278.786Z" fill="#FAFAFA"/>
<path d="M221.334 280.084L220.93 280.324V287.72L221.334 287.491V280.084Z" fill="#455A64"/>
<path d="M219.664 281.055L218.955 281.469V288.865L219.664 288.451V281.055Z" fill="#455A64"/>
<path d="M217.996 282.016L217.582 282.256V289.652L217.996 289.412V282.016Z" fill="#455A64"/>
<path d="M216.73 282.725L215.912 283.215V290.612L216.73 290.132V282.725Z" fill="#455A64"/>
<path d="M214.656 283.945L214.242 284.174V291.582L214.656 291.342V283.945Z" fill="#455A64"/>
<path d="M213.447 284.623L212.575 285.147V292.543L213.447 292.019V284.623Z" fill="#455A64"/>
<path d="M211.309 285.877L210.905 286.106V293.513L211.309 293.273V285.877Z" fill="#455A64"/>
<path d="M210.359 286.412L210.152 286.532V293.928L210.359 293.819V286.412Z" fill="#455A64"/>
<path d="M212.072 285.473L211.865 285.582V292.989L212.072 292.869V285.473Z" fill="#455A64"/>
<path d="M215.441 283.498L215.234 283.618V291.014L215.441 290.894V283.498Z" fill="#455A64"/>
<path d="M217.285 282.441L217.078 282.561V289.958L217.285 289.838V282.441Z" fill="#455A64"/>
<path d="M218.605 281.711L218.398 281.831V289.227L218.605 289.107V281.711Z" fill="#455A64"/>
<path d="M220.395 280.619L220.198 280.739V288.135L220.395 288.015V280.619Z" fill="#455A64"/>
<path d="M209.639 286.838L209.235 287.078V294.474L209.639 294.234V286.838Z" fill="#455A64"/>
<path d="M192.196 227.023L230.508 249.147L192.196 271.336L153.883 249.147L192.196 227.023Z" fill="#455A64"/>
<path opacity="0.1" d="M230.508 249.146L192.196 269.753L153.883 249.146L192.196 271.335L230.508 249.146Z" fill="white"/>
<path d="M213.479 239.317L175.134 261.451L168.326 257.513L206.66 235.379L213.479 239.317Z" fill="#4C38EE"/>
<path d="M168.326 257.514V266.164L169.144 265.695L170.006 267.168L170.857 266.666L171.707 268.161L172.569 267.659L173.42 269.132L174.282 268.641L175.133 270.124V261.452L168.326 257.514Z" fill="#4C38EE"/>
<path opacity="0.25" d="M168.326 257.514V266.164L169.144 265.695L170.006 267.168L170.857 266.666L171.707 268.161L172.569 267.659L173.42 269.132L174.282 268.641L175.133 270.124V261.452L168.326 257.514Z" fill="black"/>
<path d="M19.5584 375.429C22.3947 377.066 25.6019 377.033 29.0818 375.713L31.3945 357.015L19.3947 354.244L19.5584 375.429Z" fill="#B16668"/>
<path d="M54.2161 367.619C56.507 372.964 59.8452 371.219 64.9178 367.99L65.3105 349.564L52.2198 348.67L54.2161 367.619Z" fill="#B16668"/>
<path d="M39.9581 392.72C40.2241 393.776 40.1594 394.888 39.7726 395.906C39.3799 396.484 37.3072 398.251 33.3909 398.415C29.6492 398.567 26.3328 397.967 24.1838 396.516C23.2554 395.993 22.4708 395.247 21.8998 394.347C21.3289 393.447 20.9892 392.42 20.9111 391.357C20.7584 389.175 21.0638 387.178 20.0929 385.509C19.122 383.84 17.9984 382.455 17.6929 381.626C17.3195 380.13 17.2748 378.57 17.562 377.055L39.9581 392.72Z" fill="#263238"/>
<path d="M30.4448 374.928C30.4714 375.733 30.5996 376.532 30.8266 377.306C31.359 378.97 32.0917 380.564 33.0084 382.051C33.4569 382.832 33.9561 383.583 34.5029 384.298C35.5938 385.673 36.9574 386.818 38.1138 388.138C39.3578 389.392 40.1288 391.038 40.2955 392.796C40.3719 395.731 37.1647 396.625 34.6993 396.996C32.0372 397.379 29.3232 397.159 26.7576 396.353C25.3922 395.975 24.1666 395.207 23.2308 394.143C22.295 393.08 21.6896 391.766 21.4886 390.364C21.3795 389.546 21.4885 388.717 21.3795 387.887C21.1075 386.008 20.3769 384.225 19.2522 382.695C18.6001 381.811 18.0442 380.86 17.5941 379.858C16.885 378.026 17.5941 375.997 18.0959 374.208C18.565 372.659 18.9249 370.804 19.4704 370.935C19.4704 371.251 19.4704 371.939 19.4704 371.939C19.634 372.277 20.0268 372.517 20.1359 372.92C20.2374 373.338 20.3724 373.746 20.5395 374.142C20.7997 374.748 21.237 375.262 21.794 375.615L22.0122 372.342C21.9987 371.996 22.0983 371.656 22.2958 371.371C22.5594 371.141 22.895 371.01 23.2449 371C25.3061 370.567 27.4216 370.453 29.5175 370.662C29.6759 370.664 29.8322 370.699 29.9754 370.767C30.1185 370.835 30.2452 370.933 30.3466 371.055C30.4758 371.283 30.5184 371.551 30.4666 371.808C30.4002 372.846 30.3929 373.888 30.4448 374.928Z" fill="#37474F"/>
<path d="M33.3584 382.674C32.2675 381.823 29.8457 381.747 28.5039 381.845C27.1415 381.922 25.8207 382.343 24.664 383.067C24.4965 383.177 24.296 383.225 24.097 383.203C23.8979 383.181 23.7127 383.09 23.5731 382.947C23.4901 382.861 23.4266 382.759 23.3872 382.647C23.3477 382.535 23.3332 382.415 23.3446 382.297C23.356 382.179 23.3931 382.064 23.4533 381.962C23.5135 381.859 23.5953 381.771 23.6931 381.703C24.9787 380.812 26.4932 380.308 28.0567 380.252C31.3293 380.11 32.3002 380.71 32.3002 380.71C32.3002 380.71 33.7075 381.714 33.3584 382.674Z" fill="#F5F5F5"/>
<path d="M35.7695 385.75C34.4277 384.899 31.7332 384.942 30.3914 385.041C29.0555 385.139 27.7688 385.586 26.6606 386.339C26.4918 386.445 26.2923 386.49 26.0942 386.469C25.8962 386.447 25.7114 386.359 25.5697 386.219C25.4867 386.134 25.4232 386.031 25.3838 385.919C25.3443 385.807 25.3298 385.687 25.3412 385.569C25.3526 385.451 25.3897 385.336 25.4499 385.234C25.5101 385.131 25.5919 385.043 25.6897 384.975C26.9858 384.046 28.5163 383.498 30.1078 383.393C33.3805 383.262 34.2423 383.961 34.2423 383.961C34.6151 384.125 34.9461 384.371 35.2105 384.68C35.475 384.99 35.6661 385.356 35.7695 385.75Z" fill="#F5F5F5"/>
<path d="M26.7686 377.065C28.1605 376.856 29.5829 377.018 30.8922 377.535C31.4704 377.873 31.8195 378.8 31.4376 379.018C30.2914 378.519 29.0403 378.31 27.7941 378.407C26.5562 378.488 25.3419 378.784 24.205 379.28C23.9214 379.4 23.5832 379.564 23.2887 379.716C23.1939 379.769 23.089 379.802 22.9808 379.812C22.8725 379.822 22.7635 379.809 22.6606 379.774C22.5577 379.739 22.4633 379.683 22.3835 379.609C22.3038 379.535 22.2405 379.445 22.1978 379.345C22.1229 379.181 22.1128 378.994 22.1693 378.822C22.2259 378.65 22.3451 378.506 22.5032 378.418C23.8121 377.668 25.2665 377.206 26.7686 377.065Z" fill="#F5F5F5"/>
<path d="M85.0336 379.892C85.2864 380.755 85.2046 381.682 84.8045 382.488C84.4227 383.241 80.3646 385.368 74.9865 384.845C71.0258 384.441 67.2446 382.988 64.0339 380.634C62.0267 379.216 59.8994 378.899 57.2486 378.67C54.5977 378.441 52.5686 377.579 52.0232 376.303C51.7546 375.177 51.8229 373.997 52.2196 372.91L85.0336 379.892Z" fill="#263238"/>
<path d="M63.7826 363.386C64.2642 363.271 64.7379 363.125 65.2008 362.95C65.4484 362.828 65.733 362.805 65.9972 362.884C66.1529 362.982 66.2835 363.114 66.3782 363.272C66.473 363.429 66.5293 363.607 66.5426 363.79C66.6439 364.585 66.8155 365.37 67.0553 366.135C67.4375 366.766 67.9331 367.321 68.5171 367.772C69.8231 368.878 71.2375 369.851 72.7389 370.673C74.4625 371.666 76.1643 372.451 77.9534 373.313C79.7424 374.175 82.2187 374.786 83.6369 375.8C85.6987 377.284 85.8187 380.862 83.4187 382.204C81.3133 383.36 75.7825 384.517 70.1426 382.728C67.0553 381.746 63.6954 378.364 59.6155 377.873C57.0191 377.6 53.561 377.273 51.9792 375.255C51.3901 374.36 51.8265 371.808 52.2192 368.797C52.5683 366.092 52.841 361.881 53.7028 362.143C53.7028 362.143 54.0519 363.124 54.1173 363.233C54.3367 363.567 54.585 363.881 54.8591 364.172C55.0931 364.411 55.3408 364.637 55.6009 364.848C55.8973 365.17 56.2105 365.476 56.5391 365.764C56.9655 366.116 57.4929 366.322 58.0446 366.353C58.308 366.364 58.5691 366.3 58.7973 366.168C59.2336 365.906 59.2773 365.328 59.6263 364.957C60.03 364.543 60.5121 364.213 61.0445 363.986C61.7922 363.694 62.5788 363.514 63.379 363.452C63.499 363.441 63.6517 363.408 63.7826 363.386Z" fill="#37474F"/>
<path d="M70.3496 369.2C70.1739 368.838 69.9101 368.525 69.5823 368.291C69.2545 368.056 68.8732 367.908 68.4733 367.859C67.2951 367.608 65.2006 368.415 63.8479 369.451C63.7219 369.547 63.6214 369.673 63.555 369.816C63.4886 369.96 63.4584 370.118 63.467 370.276C63.4756 370.434 63.5228 370.588 63.6044 370.724C63.686 370.859 63.7995 370.973 63.9352 371.055C64.1047 371.152 64.2994 371.195 64.494 371.18C64.6887 371.164 64.8741 371.09 65.026 370.968C66.5014 369.706 68.4123 369.071 70.3496 369.2Z" fill="#F5F5F5"/>
<path d="M73.9609 371.382C73.7139 371.01 73.3806 370.702 72.9894 370.486C72.5982 370.269 72.1606 370.15 71.7137 370.139C69.8906 370.167 68.1231 370.77 66.6629 371.862C66.5431 371.956 66.4476 372.077 66.3844 372.215C66.3212 372.353 66.2921 372.505 66.2996 372.657C66.3071 372.808 66.3509 372.956 66.4274 373.088C66.5039 373.219 66.6109 373.33 66.7392 373.411C66.9073 373.513 67.103 373.559 67.2987 373.543C67.4944 373.528 67.6803 373.451 67.8301 373.324C68.6404 372.56 69.6124 371.989 70.6738 371.653C71.7352 371.317 72.8588 371.224 73.9609 371.382Z" fill="#F5F5F5"/>
<path d="M77.9531 373.314C77.6646 372.975 77.3069 372.703 76.9042 372.515C76.5015 372.327 76.0631 372.227 75.6186 372.223C73.86 372.277 72.1642 372.888 70.775 373.968C70.6553 374.063 70.5599 374.185 70.4967 374.324C70.4336 374.463 70.4046 374.615 70.4121 374.768C70.4195 374.92 70.4633 375.069 70.5397 375.201C70.6161 375.333 70.723 375.445 70.8514 375.528C71.0206 375.628 71.2169 375.672 71.4127 375.655C71.6084 375.637 71.7937 375.558 71.9423 375.43C72.7106 374.634 73.654 374.028 74.6974 373.661C75.7409 373.294 76.8557 373.175 77.9531 373.314Z" fill="#F5F5F5"/>
<path d="M106.055 205.436C108.128 203.527 110.31 198.956 112.001 201.465C113.091 203.156 110.779 204.301 110.91 206.439C111.041 208.577 117.553 203.505 120.269 201.607C122.08 200.341 126.259 204.301 124.579 208.588C123.095 212.396 120.717 214.806 116.451 216.606C111.946 218.515 109.59 219.465 103.939 222.006C101.408 218.417 99.6407 214.872 100.263 211.425C104.702 208.839 104.266 207.083 106.055 205.436Z" fill="#4C38EE"/>
<path opacity="0.7" d="M106.055 205.436C108.128 203.527 110.31 198.956 112.001 201.465C113.091 203.156 110.779 204.301 110.91 206.439C111.041 208.577 117.553 203.505 120.269 201.607C122.08 200.341 126.259 204.301 124.579 208.588C123.095 212.396 120.717 214.806 116.451 216.606C111.946 218.515 109.59 219.465 103.939 222.006C101.408 218.417 99.6407 214.872 100.263 211.425C104.702 208.839 104.266 207.083 106.055 205.436Z" fill="white"/>
<path opacity="0.1" d="M106.055 205.436C108.128 203.527 110.31 198.956 112.001 201.465C113.091 203.156 110.779 204.301 110.91 206.439C111.041 208.577 117.553 203.505 120.269 201.607C122.08 200.341 126.259 204.301 124.579 208.588C123.095 212.396 120.717 214.806 116.451 216.606C111.946 218.515 109.59 219.465 103.939 222.006C101.408 218.417 99.6407 214.872 100.263 211.425C104.702 208.839 104.266 207.083 106.055 205.436Z" fill="black"/>
<path opacity="0.1" d="M111.345 208.697C111.345 210.617 110.821 213.672 108.072 215.243C108.761 215.149 109.417 214.892 109.986 214.494C110.555 214.095 111.021 213.567 111.345 212.952C111.699 212.299 111.885 211.567 111.885 210.825C111.885 210.082 111.699 209.35 111.345 208.697Z" fill="black"/>
<path d="M52.5252 184C54.9797 187.272 53.9652 185.931 54.707 190.927C55.3179 194.952 63.7723 233.69 71.4304 235.293C74.7903 236.003 99.03 224.908 104.91 221.668C102.69 218.6 101.11 215.116 100.263 211.425C93.2155 214.185 81.0739 216.879 76.7103 218.254C74.6922 212.625 72.2268 206.843 69.9141 201.159C65.5287 190.349 63.0305 182.658 52.5252 184Z" fill="#455A64"/>
<path d="M20.8016 249.531C20.8016 258.127 20.2125 308.112 20.2125 308.112C19.9944 310.588 17.6162 314.984 17.4308 323.897C17.158 336.813 17.6708 374.787 17.6708 374.787C17.6708 374.787 25.7434 377.743 31.3942 375.387C31.3942 375.387 37.405 326.417 39.0304 313.632C40.4377 302.472 43.3068 276.988 43.3068 276.988L47.2885 310.806C46.702 316.2 46.5488 321.631 46.8304 327.049C47.2449 332.973 52.3721 366.103 52.3721 366.103C52.3721 366.103 60.9138 367.893 67.0664 365.82C67.0664 365.82 66.7391 312.497 66.8373 307.064C66.9573 300.879 64.2628 247.654 64.2628 247.654L20.8016 249.531Z" fill="#4C38EE"/>
<path opacity="0.4" d="M20.8016 249.531C20.8016 258.127 20.2125 308.112 20.2125 308.112C19.9944 310.588 17.6162 314.984 17.4308 323.897C17.158 336.813 17.6708 374.787 17.6708 374.787C17.6708 374.787 25.7434 377.743 31.3942 375.387C31.3942 375.387 37.405 326.417 39.0304 313.632C40.4377 302.472 43.3068 276.988 43.3068 276.988L47.2885 310.806C46.702 316.2 46.5488 321.631 46.8304 327.049C47.2449 332.973 52.3721 366.103 52.3721 366.103C52.3721 366.103 60.9138 367.893 67.0664 365.82C67.0664 365.82 66.7391 312.497 66.8373 307.064C66.9573 300.879 64.2628 247.654 64.2628 247.654L20.8016 249.531Z" fill="black"/>
<path opacity="0.15" d="M43.3073 276.988L44.0164 271.719C46.5581 271.283 52.929 267.083 56.6816 263.461C54.0514 267.652 50.4425 271.141 46.1654 273.628L46.6999 307.108L43.3073 276.988Z" fill="black"/>
<path d="M36.315 183.848C34.406 184.306 29.7697 184.873 26.4097 185.844C23.9225 186.553 22.8752 189.597 22.3516 191.888C20.6935 199.219 20.3989 214.589 20.3989 214.589L20.3007 250.392C26.5079 254.909 51.9366 257.2 65.0273 247.676C65.0273 247.676 63.4346 205.033 63.4346 198.4C63.4346 191.768 59.7474 183.793 49.5694 183.193L36.315 183.848Z" fill="#455A64"/>
<path d="M35.0371 184.109C34.699 184.183 34.3813 184.33 34.1065 184.541C33.8317 184.751 33.6067 185.019 33.4474 185.327C33.288 185.634 33.1983 185.972 33.1846 186.318C33.1709 186.664 33.2336 187.008 33.3681 187.327C34.7331 190.45 36.573 193.342 38.8225 195.902C42.5316 200.134 50.386 203.538 50.386 203.538C50.386 203.538 54.2805 199.174 53.5714 194.189C52.8623 189.204 50.8442 185.036 49.3387 183.869C48.942 183.604 48.503 183.409 48.0406 183.291V182.658C50.2714 182.446 52.5217 182.714 54.6405 183.444C57.2914 184.622 61.9931 186.596 63.4767 194.756C64.9603 202.916 66.2148 248.832 66.2148 248.832C66.2148 248.832 50.4732 263.101 19.4701 252.661V214.861C19.4701 214.861 19.6992 197.189 24.3573 185.669L34.9935 183.487L35.0371 184.109Z" fill="#4C38EE"/>
<path opacity="0.1" d="M19.5039 232.369C23.3548 235.14 28.5256 238.707 32.2783 241.096C33.3692 241.794 34.351 242.394 35.1364 242.853C36.0964 243.409 37.58 242.645 38.6709 242.427C41.5836 241.827 43.4381 242.296 46.1763 242.427C48.3581 242.525 49.5144 241.925 49.7107 242.427C49.8815 243.019 49.8225 243.654 49.5454 244.204C49.2682 244.754 48.7935 245.179 48.2162 245.394C46.9535 245.908 45.6357 246.274 44.289 246.485C46.4953 247.534 48.8566 248.219 51.2816 248.514C56.2234 249.136 58.2961 250.696 55.067 254.492C50.2876 255.917 45.3151 256.587 40.3291 256.478C39.2382 256.009 38.0164 255.387 36.7291 254.776C34.9182 253.827 31.1874 251.722 27.6856 249.823C26.0493 248.929 24.4129 248.078 23.1475 247.434C21.8821 246.791 20.7475 246.256 19.5039 245.667V232.369Z" fill="black"/>
<path opacity="0.1" d="M23.3339 188.625C28.5156 200.025 20.6176 209.352 20.6176 209.352L19.5812 212.461C19.7994 207.857 20.5739 197.232 23.3339 188.625Z" fill="black"/>
<path d="M65.6055 229.566C63.0637 234.136 51.2602 236.875 41.0713 237.027C30.8824 237.18 22.417 234.267 19.5043 231.573V227.133C22.417 229.86 30.8824 232.795 41.0713 232.587C51.2602 232.38 62.8891 229.653 65.4309 225.082L65.6055 229.566Z" fill="#FAFAFA"/>
<path d="M19.5047 239.777C22.4174 242.505 30.8827 245.439 41.0717 245.232C51.2606 245.024 63.3586 242.232 65.9004 237.661L65.7477 233.199C63.2059 237.77 51.2606 240.595 41.0717 240.748C30.8827 240.901 22.4174 237.988 19.5047 235.294V239.777Z" fill="#FAFAFA"/>
<path opacity="0.15" d="M50.3868 203.516L51.0959 255.497C51.8922 255.333 52.6449 255.148 53.3867 254.962L50.3868 203.516Z" fill="black"/>
<path d="M90.7715 224.777L54.6411 227.21L36.2596 267.944L70.7863 264.737L90.7715 224.777Z" fill="#263238"/>
<path opacity="0.15" d="M57.3361 252.955C56.8111 254.308 55.9368 255.497 54.8023 256.402C53.6678 257.306 52.3136 257.894 50.878 258.104C47.6469 258.383 44.4007 257.779 41.4854 256.359L43.0235 252.955H57.3361Z" fill="black"/>
<path opacity="0.15" d="M79.5149 229.021L80.0494 227.756C80.344 227.068 78.3367 226.665 75.555 226.817L70.2423 227.156C67.4605 227.341 64.9624 228.039 64.6678 228.737L64.1333 229.992L79.5149 229.021Z" fill="black"/>
<path d="M82.8519 224.526C83.0373 224.09 82.2409 223.817 81.0737 223.904L78.9683 224.079C78.9683 224.079 80.1137 221.352 75.4665 221.494C70.8193 221.635 69.2266 224.657 69.2266 224.657L66.9684 224.854C65.9918 224.846 65.0444 225.186 64.2957 225.814L63.8921 226.588L82.5028 225.334L82.8519 224.526Z" fill="#4C38EE"/>
<path opacity="0.3" d="M82.8519 224.526C83.0373 224.09 82.2409 223.817 81.0737 223.904L78.9683 224.079C78.9683 224.079 80.1137 221.352 75.4665 221.494C70.8193 221.635 69.2266 224.657 69.2266 224.657L66.9684 224.854C65.9918 224.846 65.0444 225.186 64.2957 225.814L63.8921 226.588L82.5028 225.334L82.8519 224.526Z" fill="black"/>
<path d="M64.8624 228.9C65.1024 228.322 66.8696 227.744 69.0623 227.46C69.0623 227.384 69.1168 227.318 69.1387 227.253C69.3896 226.653 69.1932 226.216 67.8841 226.315V225.791L80.7676 225.027L80.1458 225.475C78.4549 225.551 77.7349 225.638 77.2767 226.707L77.1785 226.947C79.1749 226.947 80.4512 227.351 80.2549 227.918L79.7203 229.184L64.3278 230.155L64.8624 228.9Z" fill="#4C38EE"/>
<path opacity="0.4" d="M64.8624 228.9C65.1024 228.322 66.8696 227.744 69.0623 227.46C69.0623 227.384 69.1168 227.318 69.1387 227.253C69.3896 226.653 69.1932 226.216 67.8841 226.315V225.791L80.7676 225.027L80.1458 225.475C78.4549 225.551 77.7349 225.638 77.2767 226.707L77.1785 226.947C79.1749 226.947 80.4512 227.351 80.2549 227.918L79.7203 229.184L64.3278 230.155L64.8624 228.9Z" fill="black"/>
<path d="M34.2411 239.941C35.332 240.65 36.3138 241.25 37.0992 241.709C38.0592 242.254 39.5428 241.501 40.6337 241.283C43.5464 240.683 45.4009 241.152 48.1391 241.283C50.3209 241.392 51.4772 240.792 51.6736 241.283C51.8471 241.875 51.7892 242.511 51.5117 243.062C51.2343 243.613 50.7579 244.037 50.179 244.25C48.9183 244.77 47.5998 245.136 46.2518 245.341C48.4581 246.39 50.8194 247.075 53.2444 247.37C58.7862 248.069 60.7389 249.879 55.6226 254.854C52.4154 257.963 47.9318 258.432 38.6919 253.632C36.881 252.683 33.1502 250.567 29.6485 248.669C29.7772 246.977 30.2511 245.33 31.041 243.829C31.8309 242.328 32.92 241.005 34.2411 239.941Z" fill="#4C38EE"/>
<path opacity="0.7" d="M34.2411 239.941C35.332 240.65 36.3138 241.25 37.0992 241.709C38.0592 242.254 39.5428 241.501 40.6337 241.283C43.5464 240.683 45.4009 241.152 48.1391 241.283C50.3209 241.392 51.4772 240.792 51.6736 241.283C51.8471 241.875 51.7892 242.511 51.5117 243.062C51.2343 243.613 50.7579 244.037 50.179 244.25C48.9183 244.77 47.5998 245.136 46.2518 245.341C48.4581 246.39 50.8194 247.075 53.2444 247.37C58.7862 248.069 60.7389 249.879 55.6226 254.854C52.4154 257.963 47.9318 258.432 38.6919 253.632C36.881 252.683 33.1502 250.567 29.6485 248.669C29.7772 246.977 30.2511 245.33 31.041 243.829C31.8309 242.328 32.92 241.005 34.2411 239.941Z" fill="white"/>
<path opacity="0.1" d="M34.2411 239.941C35.332 240.65 36.3138 241.25 37.0992 241.709C38.0592 242.254 39.5428 241.501 40.6337 241.283C43.5464 240.683 45.4009 241.152 48.1391 241.283C50.3209 241.392 51.4772 240.792 51.6736 241.283C51.8471 241.875 51.7892 242.511 51.5117 243.062C51.2343 243.613 50.7579 244.037 50.179 244.25C48.9183 244.77 47.5998 245.136 46.2518 245.341C48.4581 246.39 50.8194 247.075 53.2444 247.37C58.7862 248.069 60.7389 249.879 55.6226 254.854C52.4154 257.963 47.9318 258.432 38.6919 253.632C36.881 252.683 33.1502 250.567 29.6485 248.669C29.7772 246.977 30.2511 245.33 31.041 243.829C31.8309 242.328 32.92 241.005 34.2411 239.941Z" fill="black"/>
<path d="M9.99162 198.617C13.2643 187.163 17.6933 186.203 24.3914 185.668C31.3077 197.853 22.5805 208.228 22.5805 208.228L16.2424 227.231C17.2243 228.322 27.8059 235.827 34.2422 239.94C32.3877 241.456 29.6495 246.103 29.6495 248.667C28.0132 247.783 26.3769 246.933 25.1114 246.278C15.3479 241.424 2.31174 236.264 2.09356 231.322C1.87538 226.38 6.60985 210.682 9.99162 198.617Z" fill="#455A64"/>
<path d="M47.8455 162.857C47.8327 163.133 47.7394 163.398 47.5772 163.621C47.415 163.843 47.191 164.013 46.933 164.11C46.675 164.207 46.3943 164.225 46.1258 164.164C45.8573 164.102 45.6127 163.963 45.4224 163.764C45.2321 163.565 45.1044 163.314 45.0552 163.043C45.006 162.772 45.0374 162.493 45.1456 162.239C45.2537 161.986 45.4339 161.77 45.6637 161.618C45.8935 161.466 46.1628 161.385 46.4383 161.385C46.8193 161.396 47.1805 161.557 47.4438 161.833C47.7071 162.108 47.8514 162.476 47.8455 162.857Z" fill="#263238"/>
<path d="M46.4375 158.091L43.5248 159.75C43.3131 159.352 43.2653 158.888 43.3917 158.455C43.5181 158.023 43.8087 157.658 44.2012 157.437C44.3903 157.33 44.5989 157.262 44.8147 157.237C45.0305 157.212 45.2491 157.231 45.4575 157.292C45.666 157.353 45.8602 157.455 46.0285 157.593C46.1968 157.73 46.3359 157.9 46.4375 158.091Z" fill="#263238"/>
<path d="M47.4851 171.455L50.7578 172.677C50.6889 172.894 50.5772 173.094 50.4294 173.267C50.2815 173.44 50.1006 173.581 49.8972 173.683C49.6938 173.785 49.4721 173.845 49.2452 173.859C49.0183 173.874 48.7907 173.843 48.576 173.768C48.1269 173.603 47.7608 173.268 47.5567 172.835C47.3526 172.402 47.3269 171.907 47.4851 171.455Z" fill="#F28F8F"/>
<path d="M59.0814 159.258L56.4305 157.218C56.5541 157.039 56.713 156.886 56.8976 156.77C57.0821 156.654 57.2885 156.576 57.5039 156.543C57.7194 156.509 57.9394 156.52 58.1506 156.574C58.3618 156.628 58.5598 156.725 58.7323 156.858C59.0902 157.135 59.3266 157.54 59.3917 157.988C59.4569 158.435 59.3456 158.891 59.0814 159.258Z" fill="#263238"/>
<path d="M58.482 162.858C58.4713 163.125 58.382 163.384 58.2253 163.601C58.0687 163.818 57.8515 163.984 57.601 164.079C57.3504 164.173 57.0776 164.192 56.8165 164.133C56.5554 164.073 56.3176 163.938 56.1328 163.744C55.948 163.55 55.8242 163.307 55.7771 163.043C55.73 162.779 55.7616 162.508 55.8679 162.262C55.9742 162.016 56.1505 161.807 56.3748 161.661C56.5991 161.515 56.8615 161.438 57.1293 161.439C57.3113 161.444 57.4906 161.484 57.6571 161.557C57.8235 161.631 57.9739 161.737 58.0995 161.868C58.2251 162 58.3235 162.155 58.3892 162.325C58.4548 162.495 58.4864 162.676 58.482 162.858Z" fill="#263238"/>
<path d="M51.0962 160.502L51.5653 169.065L56.0488 167.538L51.0962 160.502Z" fill="#F28F8F"/>
<path d="M47.8242 160.841L27.7954 159.357C23.9227 162.292 16.7119 168.466 16.7228 170.179V171.368C16.7071 171.414 16.7071 171.464 16.7228 171.51C17.4319 172.863 19.9955 173.692 23.9664 173.757C28.679 173.844 35.9662 173.408 37.9407 171.75C40.8316 169.263 47.7587 161.932 47.7587 161.932L46.7551 161.856L47.8242 160.841Z" fill="#4C38EE"/>
<path opacity="0.2" d="M47.8242 160.841L27.7954 159.357C23.9227 162.292 16.7119 168.466 16.7228 170.179V171.368C16.7071 171.414 16.7071 171.464 16.7228 171.51C17.4319 172.863 19.9955 173.692 23.9664 173.757C28.679 173.844 35.9662 173.408 37.9407 171.75C40.8316 169.263 47.7587 161.932 47.7587 161.932L46.7551 161.856L47.8242 160.841Z" fill="black"/>
<path d="M27.7938 160.535C23.7466 163.601 16.0449 170.2 16.7649 171.553C17.4849 172.906 20.0376 173.735 24.0084 173.8C28.7211 173.888 36.0082 173.451 37.9827 171.793C40.8736 169.306 47.8008 161.975 47.8008 161.975L27.7938 160.535Z" fill="#4C38EE"/>
<path opacity="0.4" d="M27.7938 160.535C23.7466 163.601 16.0449 170.2 16.7649 171.553C17.4849 172.906 20.0376 173.735 24.0084 173.8C28.7211 173.888 36.0082 173.451 37.9827 171.793C40.8736 169.306 47.8008 161.975 47.8008 161.975L27.7938 160.535Z" fill="black"/>
<path d="M27.795 160.535C27.7296 161.113 29.7695 162.324 29.7695 162.324L29.2023 158.801L27.795 160.535Z" fill="#4C38EE"/>
<path opacity="0.3" d="M27.795 160.535C27.7296 161.113 29.7695 162.324 29.7695 162.324L29.2023 158.801L27.795 160.535Z" fill="black"/>
<path d="M33.0519 148.84C33.0519 148.84 29.921 149.276 28.7756 151.633C27.7829 153.683 28.1429 158.636 29.4738 164.036C30.232 167.527 31.3582 170.928 32.8337 174.181C33.355 175.101 34.2106 175.785 35.2227 176.09L35.07 169.687L34.8409 165.225C34.8409 165.225 37.6991 161.309 38.0154 158.102C38.4191 153.978 37.5573 152.287 37.5573 152.287L33.0519 148.84Z" fill="#263238"/>
<path d="M38.1153 155.025C38.1355 158.195 39.4087 161.227 41.6569 163.461C43.9051 165.695 46.9458 166.949 50.1152 166.949C53.1219 166.699 55.9242 165.325 57.9638 163.102C60.0034 160.879 61.1307 157.969 61.121 154.952C61.1114 151.935 59.9656 149.032 57.9118 146.822C55.858 144.612 53.0471 143.256 50.0388 143.025C46.8695 143.046 43.8369 144.319 41.603 146.567C39.3691 148.815 38.1153 151.856 38.1153 155.025Z" fill="#263238"/>
<path d="M35.0056 164.506C33.9147 165.433 33.0529 163.022 32.1474 162.073C31.242 161.124 28.2966 159.891 26.8348 162.957C25.373 166.022 28.122 170.593 30.3911 171.433C31.0725 171.694 31.8215 171.72 32.5192 171.506C33.2169 171.293 33.8233 170.852 34.242 170.255V184.437C37.6455 190.567 43.6564 190.382 46.8636 190.033C50.0708 189.684 50.7799 186.356 48.4345 183.662V179.298C50.2166 179.575 52.0234 179.66 53.8235 179.549C56.7689 179.091 58.307 176.877 59.1798 173.691C60.5979 168.575 61.1652 159.968 59.1798 150.041C55.9071 147.488 44.4745 147.859 37.5692 152.288C38.0601 161.091 36.0856 163.568 35.0056 164.506Z" fill="#FFA8A7"/>
<path d="M57.9365 145.687C56.5917 144.228 54.9518 143.071 53.1256 142.295C51.6489 141.662 50.0628 141.325 48.4566 141.302C46.373 141.302 44.2894 140.996 42.2058 141.062C38.584 141.171 34.2205 142.644 32.5841 146.167C31.8314 147.782 31.7114 149.44 33.1841 150.531C34.5049 151.423 36.0195 151.988 37.6022 152.178C40.2749 152.647 42.9367 153.269 45.6421 153.596C48.5342 154.089 51.4919 154.048 54.3693 153.476C55.7153 153.162 56.9963 152.616 58.1546 151.862C58.741 151.459 59.2887 151.002 59.791 150.498C59.9764 150.302 60.4892 149.898 60.5546 149.625C60.6201 149.353 60.2601 148.829 60.1292 148.535C59.5327 147.489 58.7948 146.531 57.9365 145.687Z" fill="#263238"/>
<path d="M48.4012 179.286C48.4012 179.286 41.8558 177.977 39.5431 176.766C38.1882 176.075 37.0768 174.987 36.3578 173.646C36.7085 174.984 37.3243 176.238 38.1686 177.334C39.8595 179.515 48.4121 181.032 48.4121 181.032L48.4012 179.286Z" fill="#F28F8F"/>
<path d="M47.2113 162.323C47.2172 162.499 47.1877 162.674 47.1247 162.839C47.0616 163.003 46.9663 163.153 46.8443 163.28C46.7223 163.408 46.5761 163.509 46.4143 163.579C46.2526 163.648 46.0784 163.685 45.9023 163.686C45.5473 163.678 45.21 163.53 44.963 163.275C44.7161 163.02 44.5794 162.678 44.5823 162.323C44.5657 162.14 44.5872 161.956 44.6457 161.782C44.7042 161.608 44.7983 161.448 44.922 161.313C45.0457 161.177 45.1963 161.069 45.3641 160.995C45.5319 160.921 45.7134 160.883 45.8968 160.883C46.0803 160.883 46.2617 160.921 46.4296 160.995C46.5974 161.069 46.748 161.177 46.8717 161.313C46.9954 161.448 47.0894 161.608 47.1479 161.782C47.2064 161.956 47.228 162.14 47.2113 162.323Z" fill="#263238"/>
<path d="M45.9023 157.743L42.9788 159.063C42.8101 158.662 42.8021 158.212 42.9565 157.806C43.1109 157.4 43.4157 157.068 43.8078 156.881C44.0012 156.794 44.2102 156.748 44.4221 156.744C44.634 156.741 44.8444 156.781 45.0404 156.861C45.2364 156.942 45.4139 157.062 45.5621 157.213C45.7103 157.365 45.8261 157.545 45.9023 157.743Z" fill="#263238"/>
<path d="M47.3431 171.279L51.543 172.839C51.456 173.124 51.3119 173.387 51.1193 173.614C50.9267 173.841 50.6898 174.026 50.4232 174.158C50.1565 174.289 49.8657 174.365 49.5687 174.381C49.2716 174.396 48.9745 174.35 48.6958 174.247C48.1329 174.02 47.6787 173.585 47.427 173.033C47.1753 172.481 47.1452 171.853 47.3431 171.279Z" fill="#B16668"/>
<path d="M48.696 174.246C49.0707 174.377 49.4733 174.408 49.8633 174.334C49.8435 173.809 49.621 173.312 49.2426 172.948C48.8642 172.584 48.3594 172.38 47.8342 172.381C47.6418 172.382 47.4506 172.411 47.267 172.468C47.328 172.864 47.4922 173.237 47.7431 173.549C47.994 173.861 48.3226 174.102 48.696 174.246Z" fill="#F28F8F"/>
<path d="M58.2078 158.528L55.1642 157.437C55.2265 157.235 55.3296 157.047 55.4672 156.886C55.6047 156.725 55.7738 156.594 55.9639 156.501C56.154 156.408 56.3612 156.355 56.5727 156.345C56.7841 156.336 56.9953 156.369 57.1933 156.444C57.5927 156.601 57.9186 156.902 58.1065 157.288C58.2943 157.674 58.3305 158.117 58.2078 158.528Z" fill="#263238"/>
<path d="M58.0453 161.93C58.062 162.113 58.0404 162.297 57.9819 162.471C57.9234 162.645 57.8293 162.804 57.7056 162.94C57.5819 163.075 57.4314 163.184 57.2635 163.258C57.0957 163.332 56.9142 163.37 56.7308 163.37C56.5473 163.37 56.3659 163.332 56.1981 163.258C56.0302 163.184 55.8797 163.075 55.756 162.94C55.6323 162.804 55.5382 162.645 55.4797 162.471C55.4212 162.297 55.3996 162.113 55.4163 161.93C55.4104 161.754 55.4399 161.579 55.5029 161.414C55.566 161.25 55.6613 161.099 55.7833 160.972C55.9053 160.845 56.0515 160.744 56.2133 160.674C56.3751 160.604 56.5492 160.568 56.7253 160.566C57.0803 160.575 57.4176 160.723 57.6646 160.978C57.9115 161.233 58.0483 161.575 58.0453 161.93Z" fill="#263238"/>
<path d="M50.6172 158.527L51.0972 169.065L56.4316 167.658L50.6172 158.527Z" fill="#F28F8F"/>
<path d="M26.9447 155.658C26.9859 157.349 27.2725 159.025 27.7956 160.633C28.1316 160.109 28.5433 159.639 29.0174 159.236C31.6995 157.008 34.7485 155.262 38.0282 154.076C45.5881 151.164 54.3916 150.706 61.4824 153.193C61.3623 151.746 61.0467 150.322 60.5442 148.96C57.9697 142.24 52.7662 138.728 44.4536 139.589C34.7119 140.604 26.672 146.015 26.9447 155.658Z" fill="#4C38EE"/>
<path d="M44.7794 149.724C47.0376 148.96 52.8084 148.513 54.4993 149.048C55.2801 148.404 55.9636 147.651 56.5283 146.811C57.3138 145.557 57.052 143.975 56.3102 143.659C55.5684 143.342 55.5138 144.302 52.6448 145.731C53.0233 144.812 53.1071 143.798 52.8848 142.83C52.4157 141.662 51.423 143.757 49.2957 145.099C47.1685 146.44 45.0522 147.139 44.7794 149.724Z" fill="#263238"/>
<path d="M31.9728 161.931C33.0382 163.134 33.8341 164.551 34.3073 166.087C34.5225 167.093 34.6574 168.114 34.7109 169.141L34.9619 171.083C34.9619 171.083 36.4782 175.338 39.5327 177.029C42.5872 178.719 51.3471 181.13 55.4161 179.385C59.4851 177.64 60.7615 169.861 60.4778 165.749C60.4778 165.749 54.7725 163.862 52.6452 164.243C50.518 164.625 45.609 166.425 43.6563 166.774C39.4127 167.483 37.8636 167.025 35.2237 164.222C32.8237 161.68 31.9728 161.931 31.9728 161.931Z" fill="#4C38EE"/>
<path opacity="0.6" d="M31.9728 161.931C33.0382 163.134 33.8341 164.551 34.3073 166.087C34.5225 167.093 34.6574 168.114 34.7109 169.141L34.9619 171.083C34.9619 171.083 36.4782 175.338 39.5327 177.029C42.5872 178.719 51.3471 181.13 55.4161 179.385C59.4851 177.64 60.7615 169.861 60.4778 165.749C60.4778 165.749 54.7725 163.862 52.6452 164.243C50.518 164.625 45.609 166.425 43.6563 166.774C39.4127 167.483 37.8636 167.025 35.2237 164.222C32.8237 161.68 31.9728 161.931 31.9728 161.931Z" fill="white"/>
<path opacity="0.1" d="M31.9728 161.931C33.0382 163.134 33.8341 164.551 34.3073 166.087C34.5225 167.093 34.6574 168.114 34.7109 169.141L34.9619 171.083C34.9619 171.083 36.4782 175.338 39.5327 177.029C42.5872 178.719 51.3471 181.13 55.4161 179.385C59.4851 177.64 60.7615 169.861 60.4778 165.749C60.4778 165.749 54.7725 163.862 52.6452 164.243C50.518 164.625 45.609 166.425 43.6563 166.774C39.4127 167.483 37.8636 167.025 35.2237 164.222C32.8237 161.68 31.9728 161.931 31.9728 161.931Z" fill="black"/>
<path d="M60.5215 166.687C60.5215 166.359 60.5215 166.032 60.5215 165.738C60.5215 165.738 54.8161 163.85 52.6889 164.232C50.5616 164.614 45.6526 166.414 43.6999 166.763C39.4563 167.472 37.9073 167.014 35.2673 164.21C32.8673 161.679 31.9946 161.941 31.9946 161.941C33.06 163.145 33.8559 164.562 34.3291 166.098C34.5443 167.103 34.6793 168.125 34.7328 169.152L34.9837 171.094C35.3678 172.421 36.0297 173.652 36.9255 174.705C35.9596 173.057 35.5147 171.156 35.6491 169.25C35.6694 167.662 35.2705 166.097 34.4928 164.712C34.9392 165.469 35.5317 166.13 36.2359 166.657C36.9401 167.183 37.7418 167.564 38.5945 167.778C42.3581 168.781 45.2817 167.341 50.398 165.792C54.2925 164.636 56.1252 165.389 60.5215 166.687Z" fill="#FAFAFA"/>
<path d="M461.709 432.262C470.884 422.793 476.284 384.263 467.327 376.725H421.761C412.815 384.241 418.204 422.782 427.379 432.262L427.63 432.524L427.946 432.829C428.197 433.08 428.481 433.331 428.775 433.582L428.993 433.757L429.681 434.28C430.06 434.56 430.457 434.815 430.87 435.044C438.419 439.462 450.669 439.462 458.218 435.044C458.634 434.815 459.035 434.56 459.418 434.28C459.647 434.117 459.844 433.953 460.062 433.778L460.335 433.571C460.618 433.331 460.88 433.091 461.131 432.851L461.491 432.491L461.709 432.262Z" fill="#455A64"/>
<path d="M425.721 373.703C415.324 379.769 415.324 389.609 425.721 395.685C436.117 401.761 452.993 401.75 463.367 395.685C473.742 389.619 473.763 379.769 463.367 373.703C452.971 367.638 436.117 367.638 425.721 373.703Z" fill="#455A64"/>
<g opacity="0.1">
<path opacity="0.1" d="M425.721 373.703C415.324 379.769 415.324 389.609 425.721 395.685C436.117 401.761 452.993 401.75 463.367 395.685C473.742 389.619 473.763 379.769 463.367 373.703C452.971 367.638 436.117 367.638 425.721 373.703Z" fill="white"/>
</g>
<path d="M430.716 376.627C423.08 381.078 423.08 388.311 430.716 392.762C438.353 397.213 450.734 397.223 458.37 392.762C466.007 388.3 466.007 381.078 458.37 376.627C450.734 372.177 438.353 372.166 430.716 376.627Z" fill="#263238"/>
<path d="M458.371 384.286C450.734 379.824 438.353 379.824 430.716 384.286C428.865 385.3 427.294 386.758 426.146 388.529C427.298 390.294 428.868 391.748 430.716 392.762C438.353 397.224 450.734 397.224 458.371 392.762C460.219 391.748 461.789 390.294 462.941 388.529C461.793 386.758 460.222 385.3 458.371 384.286Z" fill="#F5F5F5"/>
<path d="M419.295 301.945L437.502 314.403L420.277 307.858C420.432 312.468 421.594 316.988 423.68 321.101C423.68 321.101 435.058 326.621 441.244 332.447L426.091 327.745C425.616 330.385 425.777 333.099 426.56 335.665C426.658 336.014 426.767 336.374 426.877 336.756C427.684 339.177 428.829 343.759 430.771 349.192C432.422 353.946 434.519 358.534 437.033 362.893C438.287 365.033 439.679 367.088 441.2 369.046L441.484 369.417C444.298 367.541 447.207 365.722 450.211 363.962C452.011 359.381 453.942 348.472 454.291 339.745C455.611 305.927 428.949 288.549 408.135 283.553C408.135 283.553 415.749 291.822 419.295 301.945Z" fill="#4C38EE"/>
<path opacity="0.3" d="M419.295 301.945L437.502 314.403L420.277 307.858C420.432 312.468 421.594 316.988 423.68 321.101C423.68 321.101 435.058 326.621 441.244 332.447L426.091 327.745C425.616 330.385 425.777 333.099 426.56 335.665C426.658 336.014 426.767 336.374 426.877 336.756C427.684 339.177 428.829 343.759 430.771 349.192C432.422 353.946 434.519 358.534 437.033 362.893C438.287 365.033 439.679 367.088 441.2 369.046L441.484 369.417C444.298 367.541 447.207 365.722 450.211 363.962C452.011 359.381 453.942 348.472 454.291 339.745C455.611 305.927 428.949 288.549 408.135 283.553C408.135 283.553 415.749 291.822 419.295 301.945Z" fill="black"/>
<path d="M433.848 302.326C435.7 303.982 437.296 305.905 438.582 308.032C439.85 310.168 440.966 312.392 441.92 314.686C443.8 319.278 445.168 324.063 446 328.955C447.777 338.725 447.216 348.777 444.364 358.289C444.326 358.412 444.339 358.545 444.399 358.658C444.46 358.772 444.563 358.857 444.686 358.894C444.809 358.932 444.941 358.919 445.055 358.859C445.169 358.799 445.253 358.696 445.291 358.573C448.021 348.891 448.417 338.7 446.447 328.835C445.522 323.929 444.059 319.14 442.084 314.555C441.094 312.268 439.942 310.056 438.637 307.933C437.324 305.84 435.71 303.95 433.848 302.326Z" fill="#FAFAFA"/>
<path d="M500 319.477C499.585 320 492.746 328.662 482.72 345.418L465.266 348.778L478.237 350.654L471.626 361.869L454.477 365.97L468.026 367.749C468.026 367.749 464.677 381.014 455.197 386.796C449.961 389.992 447.375 390.526 445.728 389.054C444.637 388.028 444.124 381.723 443.023 376.127C441.921 370.53 441.561 361.367 446.535 350.152C447.889 347.15 449.667 344.358 451.815 341.862C464.142 327.266 488.066 319.673 500 319.477Z" fill="#4C38EE"/>
<path opacity="0.15" d="M500 319.477C499.585 320 492.746 328.662 482.72 345.418L465.266 348.778L478.237 350.654L471.626 361.869L454.477 365.97L468.026 367.749C468.026 367.749 464.677 381.014 455.197 386.796C449.961 389.992 447.375 390.526 445.728 389.054C444.637 388.028 444.124 381.723 443.023 376.127C441.921 370.53 441.561 361.367 446.535 350.152C447.889 347.15 449.667 344.358 451.815 341.862C464.142 327.266 488.066 319.673 500 319.477Z" fill="black"/>
<path opacity="0.1" d="M450.212 355.923C448.333 360.606 447.128 365.531 446.634 370.552C446.277 376.893 446.306 383.25 446.721 389.588C446.357 389.464 446.02 389.272 445.728 389.021C444.637 387.995 444.124 381.69 443.023 376.094C441.921 370.498 441.561 361.334 446.535 350.12C447.889 347.117 449.667 344.325 451.815 341.829C464.142 327.211 488.066 319.618 500 319.422C481.771 322.989 462.451 335.785 453.168 350.251C452.02 352.052 451.03 353.95 450.212 355.923Z" fill="black"/>
<path d="M391.183 331.924C392.658 331.835 394.137 331.835 395.612 331.924C401.42 332.266 407.162 333.329 412.707 335.088C414.758 335.731 416.83 336.462 418.87 337.269C419.885 337.695 420.899 338.142 421.903 338.611C426.861 340.862 431.411 343.922 435.365 347.665C437.203 349.462 438.815 351.477 440.164 353.665C440.328 353.949 440.514 354.233 440.677 354.516C441.103 355.258 441.484 356 441.844 356.698C445.21 363.015 446.914 370.083 446.797 377.24C446.895 382.28 445.499 388.149 444.615 389.119C444.495 389.256 444.356 389.374 444.201 389.468C442.815 390.461 440.503 390.058 436.106 387.909C427.303 383.61 423.288 371.698 423.288 371.698L435.048 369.025L419.634 366.843L412.903 357.527L424.139 354.844L408.529 353.327C403.19 345.861 397.409 338.721 391.216 331.946L391.183 331.924Z" fill="#4C38EE"/>
<path opacity="0.05" d="M395.612 331.889C401.42 332.232 407.162 333.294 412.707 335.053C414.758 335.697 416.83 336.428 418.87 337.235C419.885 337.66 420.899 338.107 421.903 338.577C426.861 340.827 431.411 343.887 435.365 347.631C437.203 349.428 438.815 351.443 440.164 353.631C440.328 353.915 440.514 354.198 440.677 354.482C441.103 355.224 441.484 355.965 441.844 356.664C445.21 362.98 446.914 370.049 446.797 377.205C446.895 382.245 445.499 388.114 444.615 389.085C444.495 389.221 444.356 389.339 444.201 389.434C443.921 389.627 443.606 389.764 443.274 389.838C443.895 381.983 438.964 362.424 432.714 354.613C426.168 346.486 411.19 334.977 391.26 331.868C392.71 331.787 394.163 331.795 395.612 331.889Z" fill="black"/>
<path d="M44.9453 115.022L41.4981 108.542L44.269 100.535V95.6367L35.7818 100.535V105.433L39.4254 111.749C39.4837 111.847 39.5716 111.923 39.6763 111.967L44.9453 115.022Z" fill="#4C38EE"/>
<path opacity="0.2" d="M44.9453 115.022L41.4981 108.542L44.269 100.535V95.6367L35.7818 100.535V105.433L39.4254 111.749C39.4837 111.847 39.5716 111.923 39.6763 111.967L44.9453 115.022Z" fill="black"/>
<path d="M60.1735 59.6699C60.1177 58.7939 59.8578 57.9431 59.4146 57.1854C58.9713 56.4277 58.357 55.7842 57.6208 55.3063L55.559 54.1172C54.7704 53.7141 53.8974 53.5039 53.0118 53.5039C52.1261 53.5039 51.2531 53.7141 50.4645 54.1172L24.654 68.9425C23.9186 69.4203 23.3055 70.0641 22.8641 70.8219C22.4226 71.5797 22.1651 72.4306 22.1122 73.306V108.215C22.166 109.09 22.4238 109.94 22.8652 110.698C23.3066 111.456 23.9192 112.1 24.654 112.578L26.7267 113.778C27.5168 114.176 28.3892 114.384 29.2739 114.384C30.1587 114.384 31.031 114.176 31.8212 113.778L41.1265 108.553L44.7701 114.858C44.8202 114.951 44.8966 115.027 44.9898 115.076C45.083 115.126 45.1887 115.147 45.2937 115.136C45.3987 115.126 45.4982 115.084 45.5797 115.017C45.6612 114.95 45.7211 114.861 45.7519 114.76L49.6027 103.655L57.6535 99.0293C58.3871 98.5495 58.9988 97.9053 59.4401 97.1479C59.8813 96.3904 60.1399 95.5406 60.1953 94.6657L60.1735 59.6699Z" fill="#4C38EE"/>
<path opacity="0.2" d="M22.1122 108.303C22.1651 109.179 22.4226 110.029 22.864 110.787C23.3055 111.545 23.9185 112.189 24.6539 112.667L26.7266 113.867C27.4448 114.227 28.2315 114.432 29.0346 114.465C29.8376 114.499 30.6387 114.362 31.3848 114.063C30.1848 114.521 29.2684 113.845 29.2684 112.394V77.4853C29.2969 76.5978 29.5563 75.7329 30.0211 74.9763L22.854 70.8418C22.397 71.6013 22.1417 72.465 22.1122 73.3509V108.303Z" fill="black"/>
<path opacity="0.5" d="M60.0859 58.9503C59.7914 57.8594 58.8096 57.5212 57.6314 58.1976L31.81 73.0773C31.0567 73.5413 30.4395 74.1961 30.0209 74.9755L22.8647 70.841C23.2866 70.0641 23.9031 69.41 24.6537 68.9429L50.4643 54.074C51.2525 53.6761 52.1231 53.4688 53.0061 53.4688C53.889 53.4688 54.7596 53.6761 55.5478 54.074L57.6314 55.274C58.2687 55.688 58.815 56.2275 59.237 56.8595C59.659 57.4916 59.9479 58.2029 60.0859 58.9503Z" fill="white"/>
<path d="M48.3253 97.6778H48.6417C49.0224 97.6254 49.3838 97.478 49.6926 97.2492C50.0015 97.0205 50.2478 96.7177 50.4089 96.3688L54.9906 86.638C55.1394 86.3628 55.2305 86.0603 55.2584 85.7487C55.2863 85.4372 55.2504 85.1233 55.1529 84.8261C55.0555 84.5288 54.8984 84.2546 54.6914 84.0201C54.4845 83.7856 54.2318 83.5958 53.949 83.4622C53.6662 83.3286 53.3591 83.254 53.0466 83.243C52.734 83.2321 52.4224 83.2849 52.1309 83.3983C51.8395 83.5118 51.5742 83.6834 51.3513 83.9028C51.1283 84.1222 50.9524 84.3848 50.8343 84.6744L47.758 91.2197L37.1982 78.9254C37.0031 78.6899 36.7631 78.4956 36.4921 78.3539C36.2211 78.2122 35.9246 78.1259 35.6199 78.1C35.3152 78.0742 35.0084 78.1093 34.7174 78.2034C34.4265 78.2975 34.1572 78.4486 33.9252 78.6479C33.6933 78.8472 33.5034 79.0907 33.3667 79.3642C33.2299 79.6377 33.149 79.9358 33.1287 80.2409C33.1084 80.546 33.1492 80.8521 33.2485 81.1413C33.3479 81.4306 33.5038 81.6971 33.7073 81.9253L46.5799 96.8815C46.795 97.1336 47.0627 97.3356 47.3643 97.4732C47.6658 97.6108 47.9939 97.6806 48.3253 97.6778Z" fill="#FAFAFA"/>
</svg>
