<svg width="183" height="50" viewBox="0 0 183 50" fill="none" xmlns="http://www.w3.org/2000/svg">
<circle cx="25" cy="25" r="25" fill="white"/>
<path d="M38.5316 21.875H30.5316C30.3941 21.875 30.2816 21.9875 30.2816 22.125V23.625C30.2816 23.7625 30.3941 23.875 30.5316 23.875H38.5316C38.6691 23.875 38.7816 23.7625 38.7816 23.625V22.125C38.7816 21.9875 38.6691 21.875 38.5316 21.875ZM34.3441 26.125H30.5316C30.3941 26.125 30.2816 26.2375 30.2816 26.375V27.875C30.2816 28.0125 30.3941 28.125 30.5316 28.125H34.3441C34.4816 28.125 34.5941 28.0125 34.5941 27.875V26.375C34.5941 26.2375 34.4816 26.125 34.3441 26.125ZM23.916 19.0781H22.5629C22.3691 19.0781 22.2129 19.2344 22.2129 19.4281V27.1781C22.2129 27.2906 22.266 27.3938 22.3566 27.4594L27.0098 30.8531C27.166 30.9656 27.3848 30.9344 27.4973 30.7781L28.3004 29.6812V29.6781C28.4129 29.5219 28.3785 29.3031 28.2223 29.1906L24.2629 26.3281V19.4281C24.266 19.2344 24.1066 19.0781 23.916 19.0781Z" fill="#2196F3"/>
<path d="M34.15 30.0594H32.3438C32.1688 30.0594 32.0031 30.15 31.9094 30.3C31.5125 30.9281 31.05 31.5094 30.5188 32.0406C29.6031 32.9562 28.5375 33.675 27.3531 34.175C26.125 34.6937 24.8219 34.9562 23.4781 34.9562C22.1313 34.9562 20.8281 34.6937 19.6031 34.175C18.4188 33.675 17.3531 32.9562 16.4375 32.0406C15.5219 31.125 14.8031 30.0594 14.3031 28.875C13.7844 27.65 13.5219 26.3469 13.5219 25C13.5219 23.6531 13.7844 22.3531 14.3031 21.125C14.8031 19.9406 15.5219 18.875 16.4375 17.9594C17.3531 17.0437 18.4188 16.325 19.6031 15.825C20.8281 15.3062 22.1344 15.0437 23.4781 15.0437C24.825 15.0437 26.1281 15.3062 27.3531 15.825C28.5375 16.325 29.6031 17.0437 30.5188 17.9594C31.05 18.4906 31.5125 19.0719 31.9094 19.7C32.0031 19.85 32.1688 19.9406 32.3438 19.9406H34.15C34.3656 19.9406 34.5031 19.7156 34.4063 19.525C32.3688 15.4719 28.2375 12.8375 23.625 12.7844C16.8719 12.7 11.2625 18.2281 11.25 24.975C11.2375 31.7344 16.7156 37.2187 23.475 37.2187C28.1469 37.2187 32.3469 34.575 34.4063 30.475C34.5031 30.2844 34.3625 30.0594 34.15 30.0594Z" fill="#2196F3"/>
<path d="M59.898 21.268V23.592H63.916V25.384H59.898V27.708H64.364V29.5H58.008V19.476H64.364V21.268H59.898ZM68.6078 24.264L65.5698 19.476H67.9078L69.8538 22.752H69.9658L71.9118 19.476H74.2498L71.2118 24.264L74.5018 29.5H72.1498L69.9658 25.888H69.8538L67.6698 29.5H65.3178L68.6078 24.264ZM75.7404 29.5V19.476H79.2684C79.7444 19.476 80.1878 19.5553 80.5984 19.714C81.0184 19.8633 81.3824 20.078 81.6904 20.358C81.9984 20.638 82.2411 20.974 82.4184 21.366C82.5958 21.7487 82.6844 22.1733 82.6844 22.64C82.6844 23.116 82.5958 23.55 82.4184 23.942C82.2411 24.3247 81.9984 24.656 81.6904 24.936C81.3824 25.216 81.0184 25.4353 80.5984 25.594C80.1878 25.7433 79.7444 25.818 79.2684 25.818H77.6304V29.5H75.7404ZM79.2964 24.026C79.7911 24.026 80.1644 23.886 80.4164 23.606C80.6684 23.326 80.7944 23.004 80.7944 22.64C80.7944 22.4627 80.7618 22.29 80.6964 22.122C80.6404 21.954 80.5471 21.8093 80.4164 21.688C80.2951 21.5573 80.1411 21.4547 79.9544 21.38C79.7678 21.3053 79.5484 21.268 79.2964 21.268H77.6304V24.026H79.2964ZM84.0256 19.476H87.6796C88.1836 19.476 88.6409 19.5553 89.0516 19.714C89.4622 19.8727 89.8122 20.092 90.1016 20.372C90.4002 20.652 90.6289 20.988 90.7876 21.38C90.9462 21.7627 91.0256 22.1827 91.0256 22.64C91.0256 22.976 90.9696 23.2933 90.8576 23.592C90.7456 23.8813 90.5916 24.1473 90.3956 24.39C90.1996 24.6233 89.9709 24.8333 89.7096 25.02C89.4482 25.1973 89.1729 25.3373 88.8836 25.44L88.8696 25.538L91.5576 29.388V29.5H89.3876L86.7976 25.734H85.9156V29.5H84.0256V19.476ZM87.6656 23.998C88.0949 23.998 88.4449 23.8673 88.7156 23.606C88.9956 23.3447 89.1356 23.0133 89.1356 22.612C89.1356 22.4347 89.1029 22.262 89.0376 22.094C88.9816 21.926 88.8929 21.7767 88.7716 21.646C88.6502 21.5153 88.4962 21.4127 88.3096 21.338C88.1322 21.254 87.9269 21.212 87.6936 21.212H85.9156V23.998H87.6656ZM94.5972 21.268V23.592H98.6152V25.384H94.5972V27.708H99.0632V29.5H92.7072V19.476H99.0632V21.268H94.5972ZM103.867 29.724C103.438 29.724 103.027 29.6633 102.635 29.542C102.243 29.4207 101.884 29.2387 101.557 28.996C101.23 28.7533 100.946 28.4593 100.703 28.114C100.46 27.7593 100.269 27.3487 100.129 26.882L101.907 26.182C102.038 26.686 102.266 27.106 102.593 27.442C102.92 27.7687 103.349 27.932 103.881 27.932C104.077 27.932 104.264 27.9087 104.441 27.862C104.628 27.806 104.791 27.7313 104.931 27.638C105.08 27.5353 105.197 27.4093 105.281 27.26C105.365 27.1107 105.407 26.938 105.407 26.742C105.407 26.5553 105.374 26.3873 105.309 26.238C105.244 26.0887 105.132 25.9487 104.973 25.818C104.824 25.6873 104.623 25.5613 104.371 25.44C104.128 25.3187 103.825 25.1927 103.461 25.062L102.845 24.838C102.574 24.7447 102.299 24.6187 102.019 24.46C101.748 24.3013 101.501 24.11 101.277 23.886C101.053 23.662 100.866 23.4007 100.717 23.102C100.577 22.794 100.507 22.4487 100.507 22.066C100.507 21.674 100.582 21.31 100.731 20.974C100.89 20.6287 101.109 20.33 101.389 20.078C101.678 19.8167 102.019 19.616 102.411 19.476C102.812 19.3267 103.256 19.252 103.741 19.252C104.245 19.252 104.679 19.322 105.043 19.462C105.416 19.5927 105.729 19.7653 105.981 19.98C106.242 20.1853 106.452 20.414 106.611 20.666C106.77 20.918 106.886 21.156 106.961 21.38L105.295 22.08C105.202 21.8 105.029 21.548 104.777 21.324C104.534 21.1 104.198 20.988 103.769 20.988C103.358 20.988 103.018 21.086 102.747 21.282C102.476 21.4687 102.341 21.716 102.341 22.024C102.341 22.3227 102.472 22.5793 102.733 22.794C102.994 22.9993 103.41 23.2 103.979 23.396L104.609 23.606C105.01 23.746 105.374 23.9093 105.701 24.096C106.037 24.2733 106.322 24.488 106.555 24.74C106.798 24.992 106.98 25.2813 107.101 25.608C107.232 25.9253 107.297 26.294 107.297 26.714C107.297 27.2367 107.19 27.6893 106.975 28.072C106.77 28.4453 106.504 28.7533 106.177 28.996C105.85 29.2387 105.482 29.4207 105.071 29.542C104.66 29.6633 104.259 29.724 103.867 29.724ZM111.92 29.724C111.49 29.724 111.08 29.6633 110.688 29.542C110.296 29.4207 109.936 29.2387 109.61 28.996C109.283 28.7533 108.998 28.4593 108.756 28.114C108.513 27.7593 108.322 27.3487 108.182 26.882L109.96 26.182C110.09 26.686 110.319 27.106 110.646 27.442C110.972 27.7687 111.402 27.932 111.934 27.932C112.13 27.932 112.316 27.9087 112.494 27.862C112.68 27.806 112.844 27.7313 112.984 27.638C113.133 27.5353 113.25 27.4093 113.334 27.26C113.418 27.1107 113.46 26.938 113.46 26.742C113.46 26.5553 113.427 26.3873 113.362 26.238C113.296 26.0887 113.184 25.9487 113.026 25.818C112.876 25.6873 112.676 25.5613 112.424 25.44C112.181 25.3187 111.878 25.1927 111.514 25.062L110.898 24.838C110.627 24.7447 110.352 24.6187 110.072 24.46C109.801 24.3013 109.554 24.11 109.33 23.886C109.106 23.662 108.919 23.4007 108.77 23.102C108.63 22.794 108.56 22.4487 108.56 22.066C108.56 21.674 108.634 21.31 108.784 20.974C108.942 20.6287 109.162 20.33 109.442 20.078C109.731 19.8167 110.072 19.616 110.464 19.476C110.865 19.3267 111.308 19.252 111.794 19.252C112.298 19.252 112.732 19.322 113.096 19.462C113.469 19.5927 113.782 19.7653 114.034 19.98C114.295 20.1853 114.505 20.414 114.664 20.666C114.822 20.918 114.939 21.156 115.014 21.38L113.348 22.08C113.254 21.8 113.082 21.548 112.83 21.324C112.587 21.1 112.251 20.988 111.822 20.988C111.411 20.988 111.07 21.086 110.8 21.282C110.529 21.4687 110.394 21.716 110.394 22.024C110.394 22.3227 110.524 22.5793 110.786 22.794C111.047 22.9993 111.462 23.2 112.032 23.396L112.662 23.606C113.063 23.746 113.427 23.9093 113.754 24.096C114.09 24.2733 114.374 24.488 114.608 24.74C114.85 24.992 115.032 25.2813 115.154 25.608C115.284 25.9253 115.35 26.294 115.35 26.714C115.35 27.2367 115.242 27.6893 115.028 28.072C114.822 28.4453 114.556 28.7533 114.23 28.996C113.903 29.2387 113.534 29.4207 113.124 29.542C112.713 29.6633 112.312 29.724 111.92 29.724ZM122.625 29.724C122.195 29.724 121.785 29.6633 121.393 29.542C121.001 29.4207 120.641 29.2387 120.315 28.996C119.988 28.7533 119.703 28.4593 119.461 28.114C119.218 27.7593 119.027 27.3487 118.887 26.882L120.665 26.182C120.795 26.686 121.024 27.106 121.351 27.442C121.677 27.7687 122.107 27.932 122.639 27.932C122.835 27.932 123.021 27.9087 123.199 27.862C123.385 27.806 123.549 27.7313 123.689 27.638C123.838 27.5353 123.955 27.4093 124.039 27.26C124.123 27.1107 124.165 26.938 124.165 26.742C124.165 26.5553 124.132 26.3873 124.067 26.238C124.001 26.0887 123.889 25.9487 123.731 25.818C123.581 25.6873 123.381 25.5613 123.129 25.44C122.886 25.3187 122.583 25.1927 122.219 25.062L121.603 24.838C121.332 24.7447 121.057 24.6187 120.777 24.46C120.506 24.3013 120.259 24.11 120.035 23.886C119.811 23.662 119.624 23.4007 119.475 23.102C119.335 22.794 119.265 22.4487 119.265 22.066C119.265 21.674 119.339 21.31 119.489 20.974C119.647 20.6287 119.867 20.33 120.147 20.078C120.436 19.8167 120.777 19.616 121.169 19.476C121.57 19.3267 122.013 19.252 122.499 19.252C123.003 19.252 123.437 19.322 123.801 19.462C124.174 19.5927 124.487 19.7653 124.739 19.98C125 20.1853 125.21 20.414 125.369 20.666C125.527 20.918 125.644 21.156 125.719 21.38L124.053 22.08C123.959 21.8 123.787 21.548 123.535 21.324C123.292 21.1 122.956 20.988 122.527 20.988C122.116 20.988 121.775 21.086 121.505 21.282C121.234 21.4687 121.099 21.716 121.099 22.024C121.099 22.3227 121.229 22.5793 121.491 22.794C121.752 22.9993 122.167 23.2 122.737 23.396L123.367 23.606C123.768 23.746 124.132 23.9093 124.459 24.096C124.795 24.2733 125.079 24.488 125.313 24.74C125.555 24.992 125.737 25.2813 125.859 25.608C125.989 25.9253 126.055 26.294 126.055 26.714C126.055 27.2367 125.947 27.6893 125.733 28.072C125.527 28.4453 125.261 28.7533 124.935 28.996C124.608 29.2387 124.239 29.4207 123.829 29.542C123.418 29.6633 123.017 29.724 122.625 29.724ZM127.612 19.476H129.502V23.48H133.716V19.476H135.606V29.5H133.716V25.272H129.502V29.5H127.612V19.476ZM137.619 19.476H139.509V29.5H137.619V19.476ZM141.529 29.5V19.476H145.057C145.533 19.476 145.977 19.5553 146.387 19.714C146.807 19.8633 147.171 20.078 147.479 20.358C147.787 20.638 148.03 20.974 148.207 21.366C148.385 21.7487 148.473 22.1733 148.473 22.64C148.473 23.116 148.385 23.55 148.207 23.942C148.03 24.3247 147.787 24.656 147.479 24.936C147.171 25.216 146.807 25.4353 146.387 25.594C145.977 25.7433 145.533 25.818 145.057 25.818H143.419V29.5H141.529ZM145.085 24.026C145.58 24.026 145.953 23.886 146.205 23.606C146.457 23.326 146.583 23.004 146.583 22.64C146.583 22.4627 146.551 22.29 146.485 22.122C146.429 21.954 146.336 21.8093 146.205 21.688C146.084 21.5573 145.93 21.4547 145.743 21.38C145.557 21.3053 145.337 21.268 145.085 21.268H143.419V24.026H145.085ZM149.815 29.5V19.476H153.343C153.819 19.476 154.262 19.5553 154.673 19.714C155.093 19.8633 155.457 20.078 155.765 20.358C156.073 20.638 156.315 20.974 156.493 21.366C156.67 21.7487 156.759 22.1733 156.759 22.64C156.759 23.116 156.67 23.55 156.493 23.942C156.315 24.3247 156.073 24.656 155.765 24.936C155.457 25.216 155.093 25.4353 154.673 25.594C154.262 25.7433 153.819 25.818 153.343 25.818H151.705V29.5H149.815ZM153.371 24.026C153.865 24.026 154.239 23.886 154.491 23.606C154.743 23.326 154.869 23.004 154.869 22.64C154.869 22.4627 154.836 22.29 154.771 22.122C154.715 21.954 154.621 21.8093 154.491 21.688C154.369 21.5573 154.215 21.4547 154.029 21.38C153.842 21.3053 153.623 21.268 153.371 21.268H151.705V24.026H153.371ZM158.1 19.476H159.99V29.5H158.1V19.476ZM162.01 19.476H164.208L168.24 26.196H168.352L168.24 24.264V19.476H170.116V29.5H168.128L163.872 22.402H163.76L163.872 24.334V29.5H162.01V19.476ZM176.75 23.998H181.664C181.692 24.11 181.716 24.2453 181.734 24.404C181.753 24.5627 181.762 24.7213 181.762 24.88C181.762 25.524 181.664 26.1307 181.468 26.7C181.272 27.2693 180.964 27.778 180.544 28.226C180.096 28.702 179.56 29.0707 178.934 29.332C178.309 29.5933 177.595 29.724 176.792 29.724C176.064 29.724 175.378 29.5933 174.734 29.332C174.09 29.0707 173.53 28.7067 173.054 28.24C172.578 27.7733 172.2 27.2227 171.92 26.588C171.64 25.944 171.5 25.244 171.5 24.488C171.5 23.732 171.64 23.0367 171.92 22.402C172.2 21.758 172.578 21.2027 173.054 20.736C173.53 20.2693 174.09 19.9053 174.734 19.644C175.378 19.3827 176.064 19.252 176.792 19.252C177.604 19.252 178.328 19.392 178.962 19.672C179.606 19.952 180.157 20.3393 180.614 20.834L179.312 22.108C178.986 21.7627 178.622 21.5013 178.22 21.324C177.819 21.1373 177.338 21.044 176.778 21.044C176.321 21.044 175.887 21.128 175.476 21.296C175.066 21.4547 174.706 21.6833 174.398 21.982C174.09 22.2807 173.843 22.6447 173.656 23.074C173.479 23.494 173.39 23.9653 173.39 24.488C173.39 25.0107 173.479 25.4867 173.656 25.916C173.843 26.336 174.09 26.6953 174.398 26.994C174.716 27.2927 175.08 27.526 175.49 27.694C175.901 27.8527 176.34 27.932 176.806 27.932C177.338 27.932 177.786 27.8573 178.15 27.708C178.524 27.5493 178.841 27.3487 179.102 27.106C179.289 26.938 179.448 26.728 179.578 26.476C179.718 26.2147 179.826 25.9253 179.9 25.608H176.75V23.998Z" fill="white"/>
</svg>
