<svg width="298" height="178" viewBox="0 0 298 178" fill="none" xmlns="http://www.w3.org/2000/svg">
<path d="M67.0741 38.8319H63.5867V46.1921H67.0741V38.8319Z" fill="#E0E0E0"/>
<path d="M76.0622 49.0801C76.0622 49.1533 71.4481 49.2167 65.756 49.2167C60.064 49.2167 55.4499 49.1533 55.4499 49.0801C55.4499 49.0069 60.064 48.9387 65.756 48.9387C71.4481 48.9387 76.0622 49.0021 76.0622 49.0801Z" fill="#E0E0E0"/>
<path d="M67.0741 53.8819H63.5867V61.2372H67.0741V53.8819Z" fill="#E0E0E0"/>
<path d="M76.0622 64.126C76.0622 64.204 71.4481 64.2675 65.756 64.2675C60.064 64.2675 55.4499 64.204 55.4499 64.126C55.4499 64.048 60.064 63.9846 65.756 63.9846C71.4481 63.9846 76.0622 64.048 76.0622 64.126Z" fill="#E0E0E0"/>
<path d="M67.0741 68.9319H63.5867V76.2872H67.0741V68.9319Z" fill="#E0E0E0"/>
<path d="M76.0622 79.1719C76.0622 79.2499 71.4481 79.3133 65.756 79.3133C60.064 79.3133 55.4499 79.2499 55.4499 79.1719C55.4499 79.0939 60.064 79.0305 65.756 79.0305C71.4481 79.0305 76.0622 79.0939 76.0622 79.1719Z" fill="#E0E0E0"/>
<path d="M67.0741 83.5495H63.5867V90.9048H67.0741V83.5495Z" fill="#E0E0E0"/>
<path d="M76.0622 93.7936C76.0622 93.8716 71.4481 93.935 65.756 93.935C60.064 93.935 55.4499 93.8716 55.4499 93.7936C55.4499 93.7156 60.064 93.6522 65.756 93.6522C71.4481 93.6522 76.0622 93.7156 76.0622 93.7936Z" fill="#E0E0E0"/>
<path d="M67.0741 98.2283H63.5867V105.584H67.0741V98.2283Z" fill="#E0E0E0"/>
<path d="M67.0741 113.091H63.5867V120.446H67.0741V113.091Z" fill="#E0E0E0"/>
<path d="M76.0622 108.468C76.0622 108.546 71.4481 108.609 65.756 108.609C60.064 108.609 55.4499 108.546 55.4499 108.468C55.4499 108.39 60.064 108.331 65.756 108.331C71.4481 108.331 76.0622 108.394 76.0622 108.468Z" fill="#E0E0E0"/>
<path d="M55.2696 49.3003C55.2696 49.3784 50.6555 49.4418 44.9634 49.4418C39.2714 49.4418 34.6573 49.3784 34.6573 49.3003C34.6573 49.2223 39.2714 49.1589 44.9634 49.1589C50.6555 49.1589 55.2696 49.2223 55.2696 49.3003Z" fill="#E0E0E0"/>
<path d="M46.2815 53.8819H42.7941V61.2372H46.2815V53.8819Z" fill="#FAFAFA"/>
<path d="M55.2696 64.1301C55.2696 64.2081 50.6555 64.2715 44.9634 64.2715C39.2714 64.2715 34.6573 64.2081 34.6573 64.1301C34.6573 64.0521 39.2714 63.9886 44.9634 63.9886C50.6555 63.9886 55.2696 64.0521 55.2696 64.1301Z" fill="#E0E0E0"/>
<path d="M46.2815 68.7157H42.7941V76.071H46.2815V68.7157Z" fill="#FAFAFA"/>
<path d="M55.2696 78.9639C55.2696 79.037 50.6555 79.1005 44.9634 79.1005C39.2714 79.1005 34.6573 79.037 34.6573 78.9639C34.6573 78.8907 39.2714 78.8224 44.9634 78.8224C50.6555 78.8224 55.2696 78.8858 55.2696 78.9639Z" fill="#E0E0E0"/>
<path d="M46.2815 83.5495H42.7941V90.9048H46.2815V83.5495Z" fill="#FAFAFA"/>
<path d="M55.2696 93.7936C55.2696 93.8716 50.6555 93.935 44.9634 93.935C39.2714 93.935 34.6573 93.8716 34.6573 93.7936C34.6573 93.7156 39.2714 93.6522 44.9634 93.6522C50.6555 93.6522 55.2696 93.7156 55.2696 93.7936Z" fill="#E0E0E0"/>
<path d="M46.2815 98.3752H42.7941V105.73H46.2815V98.3752Z" fill="#FAFAFA"/>
<path d="M55.2696 108.615C55.2696 108.693 50.6555 108.757 44.9634 108.757C39.2714 108.757 34.6573 108.693 34.6573 108.615C34.6573 108.537 39.2714 108.474 44.9634 108.474C50.6555 108.474 55.2696 108.547 55.2696 108.615Z" fill="#E0E0E0"/>
<path d="M46.2815 113.209H42.7941V120.564H46.2815V113.209Z" fill="#FAFAFA"/>
<path d="M208.834 11.6646C208.834 11.7768 202.186 11.8695 193.982 11.8695C185.778 11.8695 179.125 11.7768 179.125 11.6646C179.125 11.5524 185.773 11.4646 193.982 11.4646C202.19 11.4646 208.834 11.5524 208.834 11.6646Z" fill="#E0E0E0"/>
<path d="M238.804 11.6646C238.804 11.7768 232.151 11.8695 223.947 11.8695C215.743 11.8695 209.09 11.7768 209.09 11.6646C209.09 11.5524 215.743 11.4646 223.947 11.4646C232.151 11.4646 238.804 11.5524 238.804 11.6646Z" fill="#E0E0E0"/>
<path d="M225.853 17.9577H220.824V28.5614H225.853V17.9577Z" fill="#E0E0E0"/>
<path d="M238.804 32.7272C238.804 32.8394 232.151 32.9272 223.947 32.9272C215.743 32.9272 209.09 32.8394 209.09 32.7272C209.09 32.615 215.743 32.5223 223.947 32.5223C232.151 32.5223 238.804 32.615 238.804 32.7272Z" fill="#E0E0E0"/>
<path d="M225.853 39.6476H220.824V50.2513H225.853V39.6476Z" fill="#E0E0E0"/>
<path d="M238.804 54.4171C238.804 54.5293 232.151 54.622 223.947 54.622C215.743 54.622 209.09 54.5293 209.09 54.4171C209.09 54.305 215.743 54.2123 223.947 54.2123C232.151 54.2123 238.804 54.305 238.804 54.4171Z" fill="#E0E0E0"/>
<path d="M225.853 61.3416H220.824V71.9453H225.853V61.3416Z" fill="#E0E0E0"/>
<path d="M238.804 76.1062C238.804 76.2184 232.151 76.3111 223.947 76.3111C215.743 76.3111 209.09 76.2184 209.09 76.1062C209.09 75.994 215.743 75.9062 223.947 75.9062C232.151 75.9062 238.804 75.994 238.804 76.1062Z" fill="#E0E0E0"/>
<path d="M225.853 82.4116H220.824V93.0153H225.853V82.4116Z" fill="#E0E0E0"/>
<path d="M238.804 97.181C238.804 97.2883 232.151 97.381 223.947 97.381C215.743 97.381 209.09 97.2883 209.09 97.181C209.09 97.0737 215.743 96.9762 223.947 96.9762C232.151 96.9762 238.804 97.0689 238.804 97.181Z" fill="#E0E0E0"/>
<path d="M225.853 103.567H220.824V114.171H225.853V103.567Z" fill="#E0E0E0"/>
<path d="M225.853 125.004H220.824V135.608H225.853V125.004Z" fill="#E0E0E0"/>
<path d="M238.804 118.336C238.804 118.448 232.151 118.541 223.947 118.541C215.743 118.541 209.09 118.448 209.09 118.336C209.09 118.224 215.743 118.136 223.947 118.136C232.151 118.136 238.804 118.224 238.804 118.336Z" fill="#E0E0E0"/>
<path d="M195.884 18.2799H190.855V28.8836H195.884V18.2799Z" fill="#FAFAFA"/>
<path d="M208.834 33.0494C208.834 33.1567 202.186 33.2494 193.982 33.2494C185.778 33.2494 179.125 33.1567 179.125 33.0494C179.125 32.9421 185.773 32.8445 193.982 32.8445C202.19 32.8445 208.834 32.9372 208.834 33.0494Z" fill="#E0E0E0"/>
<path d="M195.884 39.6558H190.855V50.2595H195.884V39.6558Z" fill="#FAFAFA"/>
<path d="M208.834 54.4253C208.834 54.5326 202.186 54.6253 193.982 54.6253C185.778 54.6253 179.125 54.5326 179.125 54.4253C179.125 54.318 185.773 54.2204 193.982 54.2204C202.19 54.2204 208.834 54.3131 208.834 54.4253Z" fill="#E0E0E0"/>
<path d="M195.884 61.0357H190.855V71.6394H195.884V61.0357Z" fill="#FAFAFA"/>
<path d="M208.834 75.8052C208.834 75.9125 202.186 76.0052 193.982 76.0052C185.778 76.0052 179.125 75.9125 179.125 75.8052C179.125 75.6979 185.773 75.6004 193.982 75.6004C202.19 75.6004 208.834 75.693 208.834 75.8052Z" fill="#E0E0E0"/>
<path d="M195.884 82.4116H190.855V93.0153H195.884V82.4116Z" fill="#FAFAFA"/>
<path d="M208.834 97.181C208.834 97.2883 202.186 97.381 193.982 97.381C185.778 97.381 179.125 97.2883 179.125 97.181C179.125 97.0737 185.773 96.9762 193.982 96.9762C202.19 96.9762 208.834 97.0689 208.834 97.181Z" fill="#E0E0E0"/>
<path d="M195.884 103.792H190.855V114.395H195.884V103.792Z" fill="#FAFAFA"/>
<path d="M208.834 118.561C208.834 118.673 202.186 118.761 193.982 118.761C185.778 118.761 179.125 118.673 179.125 118.561C179.125 118.449 185.773 118.356 193.982 118.356C202.19 118.356 208.834 118.449 208.834 118.561Z" fill="#E0E0E0"/>
<path d="M195.884 125.167H190.855V135.771H195.884V125.167Z" fill="#FAFAFA"/>
<path d="M242.222 64.1599H230.76V74.2612H242.222V64.1599Z" fill="#F5F5F5"/>
<path d="M242.219 64.1599H239.488V74.2612H242.219V64.1599Z" fill="#EBEBEB"/>
<path d="M224.344 74.2614V73.6712H260.467V74.2614" fill="#E0E0E0"/>
<path d="M236.206 78.6674H233.46V84.4619H236.206V78.6674Z" fill="#FAFAFA"/>
<path d="M243.281 86.741C243.281 86.7995 239.647 86.8483 235.164 86.8483C230.682 86.8483 227.048 86.7995 227.048 86.741C227.048 86.6825 230.682 86.6288 235.164 86.6288C239.647 86.6288 243.281 86.6679 243.281 86.741Z" fill="#E0E0E0"/>
<path d="M252.581 78.6674H249.835V84.4619H252.581V78.6674Z" fill="#E0E0E0"/>
<path d="M259.66 86.741C259.66 86.7995 256.026 86.8483 251.544 86.8483C247.062 86.8483 243.428 86.7995 243.428 86.741C243.428 86.6825 247.062 86.6288 251.544 86.6288C256.026 86.6288 259.66 86.6679 259.66 86.741Z" fill="#E0E0E0"/>
<path d="M252.581 90.1732H249.835V95.9676H252.581V90.1732Z" fill="#E0E0E0"/>
<path d="M259.66 98.2386C259.66 98.302 256.026 98.3508 251.544 98.3508C247.062 98.3508 243.428 98.302 243.428 98.2386C243.428 98.1752 247.062 98.1264 251.544 98.1264C256.026 98.1264 259.66 98.1801 259.66 98.2386Z" fill="#E0E0E0"/>
<path d="M252.581 102.026H249.835V107.82H252.581V102.026Z" fill="#E0E0E0"/>
<path d="M259.66 110.079C259.66 110.137 256.026 110.191 251.544 110.191C247.062 110.191 243.428 110.137 243.428 110.079C243.428 110.02 247.062 109.966 251.544 109.966C256.026 109.966 259.66 110.03 259.66 110.079Z" fill="#E0E0E0"/>
<path d="M252.581 113.874H249.835V119.668H252.581V113.874Z" fill="#E0E0E0"/>
<path d="M259.66 121.943C259.66 122.002 256.026 122.051 251.544 122.051C247.062 122.051 243.428 122.002 243.428 121.943C243.428 121.885 247.062 121.831 251.544 121.831C256.026 121.831 259.66 121.88 259.66 121.943Z" fill="#E0E0E0"/>
<path d="M252.581 125.388H249.835V131.182H252.581V125.388Z" fill="#E0E0E0"/>
<path d="M259.66 133.457C259.66 133.521 256.026 133.569 251.544 133.569C247.062 133.569 243.428 133.521 243.428 133.457C243.428 133.394 247.062 133.345 251.544 133.345C256.026 133.345 259.66 133.394 259.66 133.457Z" fill="#E0E0E0"/>
<path d="M252.581 136.946H249.835V142.741H252.581V136.946Z" fill="#E0E0E0"/>
<path d="M252.581 148.656H249.835V154.45H252.581V148.656Z" fill="#E0E0E0"/>
<path d="M259.66 145.016C259.66 145.074 256.026 145.123 251.544 145.123C247.062 145.123 243.428 145.074 243.428 145.016C243.428 144.957 247.062 144.904 251.544 144.904C256.026 144.904 259.66 144.952 259.66 145.016Z" fill="#E0E0E0"/>
<path d="M236.206 90.3485H233.46V96.143H236.206V90.3485Z" fill="#FAFAFA"/>
<path d="M243.281 98.4139C243.281 98.4774 239.647 98.5261 235.164 98.5261C230.682 98.5261 227.048 98.4774 227.048 98.4139C227.048 98.3505 230.682 98.3018 235.164 98.3018C239.647 98.3018 243.281 98.37 243.281 98.4139Z" fill="#E0E0E0"/>
<path d="M236.206 102.03H233.46V107.824H236.206V102.03Z" fill="#FAFAFA"/>
<path d="M243.281 110.079C243.281 110.137 239.647 110.186 235.164 110.186C230.682 110.186 227.048 110.137 227.048 110.079C227.048 110.02 230.682 109.966 235.164 109.966C239.647 109.966 243.281 110.035 243.281 110.079Z" fill="#E0E0E0"/>
<path d="M236.206 113.707H233.46V119.501H236.206V113.707Z" fill="#FAFAFA"/>
<path d="M243.281 121.783C243.281 121.847 239.647 121.896 235.164 121.896C230.682 121.896 227.048 121.847 227.048 121.783C227.048 121.72 230.682 121.676 235.164 121.676C239.647 121.676 243.281 121.715 243.281 121.783Z" fill="#E0E0E0"/>
<path d="M236.206 125.388H233.46V131.182H236.206V125.388Z" fill="#FAFAFA"/>
<path d="M243.281 133.457C243.281 133.521 239.647 133.569 235.164 133.569C230.682 133.569 227.048 133.521 227.048 133.457C227.048 133.394 230.682 133.345 235.164 133.345C239.647 133.345 243.281 133.394 243.281 133.457Z" fill="#E0E0E0"/>
<path d="M236.206 137.065H233.46V142.859H236.206V137.065Z" fill="#FAFAFA"/>
<path d="M243.281 145.138C243.281 145.197 239.647 145.245 235.164 145.245C230.682 145.245 227.048 145.197 227.048 145.138C227.048 145.08 230.682 145.026 235.164 145.026C239.647 145.026 243.281 145.075 243.281 145.138Z" fill="#E0E0E0"/>
<path d="M236.206 148.75H233.46V154.544H236.206V148.75Z" fill="#FAFAFA"/>
<path d="M72.2257 117.059H69.0846V124.692H72.2257V117.059Z" fill="#F5F5F5"/>
<path d="M72.2257 146.943H69.0846V154.576H72.2257V146.943Z" fill="#F5F5F5"/>
<path d="M80.3144 127.691C80.3144 127.759 76.1587 127.808 71.0471 127.808C65.9355 127.808 61.7799 127.759 61.7799 127.691C61.7799 127.623 65.9355 127.574 71.0471 127.574C76.1587 127.574 80.3144 127.637 80.3144 127.691Z" fill="#F5F5F5"/>
<path d="M72.2257 132.113H69.0846V139.747H72.2257V132.113Z" fill="#F5F5F5"/>
<path d="M80.3144 142.754C80.3144 142.817 76.1587 142.871 71.0471 142.871C65.9355 142.871 61.7799 142.817 61.7799 142.754C61.7799 142.69 65.9355 142.632 71.0471 142.632C76.1587 142.632 80.3144 142.676 80.3144 142.754Z" fill="#F5F5F5"/>
<path d="M86.9412 117.059H83.8001V124.692H86.9412V117.059Z" fill="#E0E0E0"/>
<path d="M93.7566 117.059H90.6155V124.692H93.7566V117.059Z" fill="#E0E0E0"/>
<path d="M86.9412 131.546H83.8001V139.18H86.9412V131.546Z" fill="#E0E0E0"/>
<path d="M93.7566 131.546H90.6155V139.18H93.7566V131.546Z" fill="#E0E0E0"/>
<path d="M86.9412 146.033H83.8001V153.667H86.9412V146.033Z" fill="#E0E0E0"/>
<path d="M93.7566 146.033H90.6155V153.667H93.7566V146.033Z" fill="#E0E0E0"/>
<path d="M99.334 109.216H59.1288V110.879H99.334V109.216Z" fill="#E0E0E0"/>
<path d="M96.9467 111.051C96.9467 111.114 89.1427 111.168 79.4999 111.168C69.8571 111.168 62.0531 111.114 62.0531 111.051C62.0531 110.988 69.8571 110.929 79.4999 110.929C89.1427 110.929 96.9467 110.963 96.9467 111.051Z" fill="#EBEBEB"/>
<path d="M31.9214 70.6286H12.0456V88.1437H31.9214V70.6286Z" fill="#EBEBEB"/>
<path d="M31.9214 70.6286H27.1853V88.1437H31.9214V70.6286Z" fill="#E0E0E0"/>
<path d="M63.5585 87.1183H0.931465V88.1377H63.5585V87.1183Z" fill="#E0E0E0"/>
<path d="M21.4931 95.7812H16.7278V105.829H21.4931V95.7812Z" fill="white"/>
<path d="M33.7699 109.772C33.7699 109.879 27.4681 109.962 19.6983 109.962C11.9284 109.962 5.62184 109.879 5.62184 109.772C5.62184 109.664 11.9236 109.591 19.6983 109.591C27.473 109.591 33.7699 109.664 33.7699 109.772Z" fill="#E0E0E0"/>
<path d="M49.8882 95.7812H45.1229V105.829H49.8882V95.7812Z" fill="#F5F5F5"/>
<path d="M62.156 109.769C62.156 109.877 55.8543 109.959 48.0844 109.959C40.3146 109.959 34.0129 109.877 34.0129 109.769C34.0129 109.662 40.3097 109.579 48.0844 109.579C55.8592 109.579 62.156 109.662 62.156 109.769Z" fill="#EBEBEB"/>
<path d="M49.8882 115.725H45.1229V125.773H49.8882V115.725Z" fill="#F5F5F5"/>
<path d="M62.156 129.718C62.156 129.821 55.8543 129.909 48.0844 129.909C40.3146 129.909 34.0129 129.821 34.0129 129.718C34.0129 129.616 40.3097 129.523 48.0844 129.523C55.8592 129.523 62.156 129.611 62.156 129.718Z" fill="#EBEBEB"/>
<path d="M49.8882 136.273H45.1229V146.321H49.8882V136.273Z" fill="#F5F5F5"/>
<path d="M62.156 150.266C62.156 150.369 55.8543 150.457 48.0844 150.457C40.3146 150.457 34.0129 150.369 34.0129 150.266C34.0129 150.164 40.3097 150.071 48.0844 150.071C55.8592 150.071 62.156 150.159 62.156 150.266Z" fill="#EBEBEB"/>
<path d="M21.4931 116.031H16.7278V126.079H21.4931V116.031Z" fill="white"/>
<path d="M33.7699 130.024C33.7699 130.131 27.4681 130.214 19.6983 130.214C11.9284 130.214 5.62184 130.131 5.62184 130.024C5.62184 129.916 11.9236 129.833 19.6983 129.833C27.473 129.833 33.7699 129.916 33.7699 130.024Z" fill="#E0E0E0"/>
<path d="M21.4931 136.286H16.7278V146.333H21.4931V136.286Z" fill="white"/>
<path d="M33.7699 150.271C33.7699 150.379 27.4681 150.461 19.6983 150.461C11.9284 150.461 5.62184 150.379 5.62184 150.271C5.62184 150.164 11.9236 150.071 19.6983 150.071C27.473 150.071 33.7699 150.164 33.7699 150.271Z" fill="#E0E0E0"/>
<path d="M257.779 112.777H41.1842V134.423H257.779V112.777Z" fill="#A498FF"/>
<g opacity="0.4">
<path opacity="0.4" d="M257.779 112.776H41.1836V134.423H257.779V112.776Z" fill="black"/>
</g>
<path d="M210.852 137.154H146.917V157.201H210.852V137.154Z" fill="#455A64"/>
<path d="M102.241 128.088V154.587H124.072L132.822 141.906H292.224V128.088H102.241Z" fill="#263238"/>
<path d="M100.88 44.1749C100.856 43.7488 100.665 43.3491 100.35 43.0618C100.034 42.7745 99.6185 42.6225 99.192 42.6385C90.5638 42.9946 49.6025 44.8724 41.1791 48.9207C34.7311 52.0228 27.6684 63.602 22.6885 71.4011C19.1182 76.9907 11.2313 89.3991 9.63633 95.7447C8.28526 101.11 7.47072 112.27 7.56339 117.806L9.8168 147.1H46.9394L50.6561 137.423C51.8421 134.34 53.9344 131.69 56.6572 129.82C59.3799 127.951 62.6053 126.95 65.908 126.951H102.797V78.3369L100.88 44.1749Z" fill="#A498FF"/>
<path d="M36.7816 52.1649C31.6699 57.0424 26.5388 65.3342 22.6905 71.4018C19.3835 76.5768 12.3795 87.595 10.0919 94.2382C10.048 94.3601 10.0139 94.4772 9.97485 94.5991C11.1064 94.287 12.8477 93.648 13.3891 92.575C14.2036 90.9508 15.2474 85.3855 28.1533 64.3782C32.0748 57.974 35.8987 54.2281 36.7816 52.1649Z" fill="#455A64"/>
<path d="M81.8077 49.9942C72.3161 50.5356 51.7379 51.9452 45.163 54.1791C36.5982 57.1056 26.9846 79.7811 26.531 80.7761L20.0537 97.3596C20.0174 97.468 20.0073 97.5835 20.0244 97.6965C20.0415 97.8096 20.0851 97.9169 20.1518 98.0098C20.2185 98.1027 20.3063 98.1784 20.4079 98.2307C20.5096 98.283 20.6222 98.3104 20.7365 98.3107H37.481C38.1152 98.3108 38.7443 98.1985 39.3393 97.979L83.3782 81.5614C84.3506 81.1985 85.1889 80.5472 85.7808 79.6946C86.3727 78.8421 86.6899 77.829 86.69 76.7912V54.6132C86.6904 53.984 86.5623 53.3614 86.3136 52.7834C86.0649 52.2055 85.7009 51.6843 85.2439 51.2519C84.7868 50.8195 84.2463 50.4849 83.6555 50.2687C83.0646 50.0524 82.4359 49.959 81.8077 49.9942Z" fill="#263238"/>
<path d="M21.9251 96.6816C21.9251 96.6816 28.1293 82.7661 30.2168 78.2056C33.3677 71.3186 40.7278 57.2324 45.698 55.7155C50.2682 54.3449 63.4082 52.6768 81.9037 51.6184H82.0793C82.8736 51.621 83.6346 51.938 84.1958 52.5001C84.757 53.0623 85.0728 53.8237 85.074 54.6181V77.2984C85.0723 77.8574 84.9006 78.4025 84.5817 78.8616C84.2629 79.3207 83.812 79.672 83.2889 79.8689L50.7511 83.8831C49.4468 84.044 48.1931 84.4869 47.0772 85.1809C45.9612 85.8749 45.0096 86.8035 44.2884 87.9021L38.65 96.5011C38.319 96.6237 37.9689 96.6864 37.616 96.6865L21.9251 96.6816Z" fill="#455A64"/>
<path d="M49.5667 84.1296L38.5045 96.4502L44.6258 55.5426L46.1573 55.0159L43.143 85.3198C43.1288 85.4719 43.1539 85.6252 43.2159 85.7649C43.2779 85.9046 43.3747 86.026 43.4971 86.1175C43.6195 86.2091 43.7633 86.2676 43.9148 86.2877C44.0664 86.3077 44.2205 86.2885 44.3624 86.2318L49.5667 84.1296Z" fill="#263238"/>
<path d="M6.83555 120.651C6.79653 120.119 6.977 119.675 7.25014 119.675L13.1812 119.129C13.6689 119.08 14.1225 120.002 14.1811 121.08L14.4493 125.631C14.4932 126.362 14.2737 126.982 13.9616 127.035L7.91348 128.079C7.64034 128.128 7.37695 127.723 7.33793 127.187L6.83555 120.651Z" fill="#EBEBEB"/>
<path d="M49.5669 141.91H6.83025V159.045H49.5669V141.91Z" fill="#263238"/>
<path d="M78.0953 176.943C90.9997 176.448 101.059 165.585 100.563 152.68C100.067 139.776 89.2045 129.717 76.3001 130.212C63.3957 130.708 53.3364 141.571 53.8322 154.475C54.3279 167.38 65.1909 177.439 78.0953 176.943Z" fill="#263238"/>
<path d="M53.838 153.171C53.8406 153.192 53.8406 153.213 53.838 153.234C53.7562 159.431 56.1372 165.406 60.458 169.848C64.7789 174.289 70.6861 176.834 76.8821 176.923C83.0781 177.013 89.0562 174.639 93.503 170.323C97.9499 166.008 100.502 160.103 100.599 153.908C100.599 153.908 100.599 153.869 100.599 153.849L53.838 153.171Z" fill="#263238"/>
<path d="M60.7917 153.334C60.7438 156.581 61.6599 159.769 63.4242 162.496C65.1884 165.222 67.7216 167.364 70.7032 168.65C73.6849 169.937 76.9811 170.31 80.175 169.723C83.3688 169.137 86.3169 167.616 88.6464 165.353C90.9758 163.091 92.5819 160.188 93.2616 157.013C93.9413 153.837 93.664 150.531 92.4648 147.514C91.2656 144.496 89.1984 141.901 86.5246 140.058C83.8508 138.215 80.6905 137.207 77.4435 137.16C73.0908 137.098 68.8914 138.766 65.7688 141.799C62.6462 144.832 60.8559 148.981 60.7917 153.334Z" fill="#FAFAFA"/>
<path d="M77.4499 137.16C73.0972 137.098 68.8978 138.766 65.7752 141.799C62.6525 144.832 60.8623 148.981 60.7981 153.334L93.6285 153.822C93.6924 149.467 92.0237 145.265 88.9897 142.141C85.9557 139.016 81.8047 137.224 77.4499 137.16Z" fill="#E0E0E0"/>
<path d="M67.2148 153.424C67.186 155.401 67.7444 157.343 68.8192 159.003C69.894 160.663 71.4369 161.967 73.253 162.75C75.069 163.534 77.0765 163.761 79.0216 163.403C80.9666 163.045 82.7619 162.118 84.1803 160.74C85.5988 159.362 86.5766 157.594 86.9903 155.66C87.4039 153.726 87.2348 151.713 86.5042 149.875C85.7736 148.037 84.5144 146.458 82.8858 145.335C81.2573 144.213 79.3326 143.599 77.3551 143.571C74.704 143.533 72.1464 144.55 70.2448 146.398C68.3432 148.245 67.2533 150.773 67.2148 153.424Z" fill="#263238"/>
<path d="M31.856 64.8452H29.9489C27.7993 64.8452 26.0567 66.5879 26.0567 68.7375V84.2138C26.0567 86.3634 27.7993 88.106 29.9489 88.106H31.856C34.0057 88.106 35.7483 86.3634 35.7483 84.2138V68.7375C35.7483 66.5879 34.0057 64.8452 31.856 64.8452Z" fill="#263238"/>
<path d="M22.0499 102.484H21.5621V77.8872C21.5634 76.7143 22.0299 75.5898 22.8593 74.7604C23.6886 73.9311 24.8131 73.4646 25.986 73.4633H27.1566V73.951H25.986C24.9425 73.9523 23.942 74.3674 23.2041 75.1053C22.4663 75.8432 22.0511 76.8436 22.0499 77.8872V102.484Z" fill="#263238"/>
<path d="M25.3686 102.514L24.0127 79.5168C23.9936 79.1236 24.0541 78.7306 24.1905 78.3613C24.3269 77.992 24.5363 77.6541 24.8064 77.3677C25.0764 77.0812 25.4014 76.8522 25.7621 76.6943C26.1227 76.5365 26.5114 76.453 26.905 76.4488V76.9366C26.5768 76.9367 26.252 77.0038 25.9506 77.134C25.6492 77.2641 25.3776 77.4545 25.1525 77.6933C24.9273 77.9322 24.7533 78.2146 24.6412 78.5231C24.5291 78.8316 24.4812 79.1598 24.5004 79.4875L25.8564 102.49L25.3686 102.514Z" fill="#263238"/>
<path d="M26.9052 100.272H20.3304V107.886H26.9052V100.272Z" fill="#263238"/>
<path d="M24.4756 85.8173H21.8027V86.3051H24.4756V85.8173Z" fill="#263238"/>
<path d="M46.7973 50.6516L47.3777 50.5736L49.0897 50.3736L55.7231 49.6078L80.452 46.7935C81.7689 46.6521 83.1102 46.4765 84.5003 46.3545C85.2105 46.3004 85.9247 46.3464 86.622 46.4911C87.3311 46.6569 88.015 46.916 88.6559 47.2617C89.978 47.9974 91.0498 49.1117 91.7336 50.4614C92.0874 51.1513 92.3263 51.8943 92.4409 52.6611C92.5022 53.0485 92.5365 53.4396 92.5433 53.8317V55.0072C92.5433 61.3041 92.5433 68.0643 92.5433 75.2293C92.5433 89.5594 92.5433 105.499 92.5433 122.541V122.668H66.8535C65.387 122.62 63.919 122.69 62.4638 122.878C59.4619 123.31 56.6298 124.535 54.2598 126.427C51.8899 128.32 50.068 130.81 48.9824 133.642C48.7717 134.162 48.5941 134.695 48.4507 135.237C48.2922 135.774 48.1668 136.319 48.0752 136.871L47.9484 137.7L47.8898 138.115L47.8654 138.529L47.8264 139.364V139.783V139.832C47.9337 139.724 47.6752 139.998 47.6947 139.968H15.1179V139.832C15.1179 132.481 15.1179 125.394 15.1179 118.624C15.1179 115.239 15.1179 111.934 15.1179 108.708V103.938C15.1179 103.153 15.1179 102.377 15.1179 101.602C15.1338 100.831 15.1892 100.061 15.2838 99.2949C15.6557 96.3438 16.593 93.4921 18.0444 90.8958C19.3874 88.3693 20.688 85.9305 21.9464 83.5796L28.8627 70.6201L34.4767 60.0993C34.8864 59.3352 35.2799 58.5954 35.6571 57.88C35.8522 57.5289 36.0229 57.1728 36.2277 56.8411C36.4297 56.517 36.6495 56.2044 36.8862 55.9047C37.7321 54.8499 38.7279 53.9247 39.842 53.1586C41.3764 52.117 43.0917 51.371 44.8999 50.9589C45.5207 50.81 46.1516 50.7073 46.7875 50.6516L46.2998 50.7248C45.9827 50.7735 45.5145 50.8565 44.8999 50.9979C43.1024 51.4229 41.3991 52.177 39.8761 53.222C38.7714 53.9892 37.7854 54.9144 36.9496 55.9681C36.7135 56.2626 36.4968 56.5721 36.3009 56.8948C36.1009 57.2167 35.9302 57.5776 35.7351 57.9337L34.5596 60.1578L28.9944 70.6884C26.9068 74.6196 24.6047 78.9557 22.1171 83.6576L18.2151 90.9739C16.7772 93.5505 15.8513 96.3811 15.4886 99.3095C15.3957 100.069 15.3419 100.832 15.3277 101.597C15.3277 102.363 15.3277 103.148 15.3277 103.929V108.699C15.3277 111.921 15.3277 115.226 15.3277 118.615C15.3277 125.385 15.3277 132.472 15.3277 139.822L15.2057 139.705H47.6557C47.6898 139.681 47.4216 139.939 47.5338 139.822V139.768V139.349L47.5777 138.5V138.081L47.6411 137.661L47.7679 136.817C47.8606 136.257 47.9876 135.704 48.1483 135.159C48.2942 134.608 48.4751 134.068 48.6897 133.54C49.7927 130.667 51.6419 128.14 54.0468 126.219C56.4516 124.299 59.3251 123.054 62.3711 122.614C63.8266 122.429 65.2944 122.359 66.7609 122.404H92.3336L92.2068 122.526C92.2068 105.504 92.2068 89.5643 92.2068 75.2147C92.2068 68.0496 92.2068 61.2894 92.2068 54.9926C92.2385 54.2189 92.2059 53.444 92.1092 52.6758C91.9982 51.9262 91.766 51.1997 91.4215 50.5248C90.7594 49.2055 89.7137 48.1173 88.4218 47.4032C87.7992 47.0623 87.133 46.8079 86.4416 46.6472C85.7606 46.5035 85.0628 46.4559 84.3686 46.5057C82.9883 46.6228 81.6372 46.7984 80.3252 46.9398L55.6012 49.6761L48.9629 50.4028L47.2509 50.5833L46.7973 50.6516Z" fill="#263238"/>
<path d="M84.7599 104.557C84.7599 104.557 84.8965 104.557 85.1404 104.498C85.499 104.435 85.8408 104.299 86.1451 104.098C86.6249 103.784 86.9842 103.316 87.1645 102.772C87.2747 102.432 87.3194 102.075 87.2962 101.718C87.2857 101.323 87.1839 100.936 86.9987 100.587C86.7865 100.187 86.4708 99.8517 86.0847 99.6157C85.6986 99.3798 85.2562 99.2519 84.8038 99.2453H81.5847H74.2099C73.5959 99.2462 73.0036 99.4728 72.5458 99.882C72.088 100.291 71.7967 100.854 71.7272 101.465C71.6506 102.044 71.7581 102.633 72.0345 103.147C72.3087 103.634 72.7379 104.015 73.2539 104.23C73.7641 104.407 74.3061 104.474 74.844 104.425H76.4048H79.2093L83.2723 104.464H84.3795C84.5069 104.462 84.6344 104.471 84.7599 104.493C84.6337 104.509 84.5066 104.517 84.3795 104.518H83.2723L79.2093 104.557H76.4048H74.844C74.5708 104.557 74.3074 104.557 74.0197 104.557C73.727 104.535 73.4392 104.469 73.1661 104.362C72.6019 104.128 72.1317 103.712 71.8297 103.181C71.5268 102.623 71.4073 101.983 71.4882 101.352C71.5636 100.683 71.8826 100.064 72.3845 99.6146C72.8863 99.1649 73.536 98.9154 74.2099 98.9136H81.5847H84.8038C85.5074 98.9275 86.1779 99.2149 86.6732 99.7148C87.1685 100.215 87.4497 100.888 87.4572 101.591C87.4727 101.964 87.4181 102.336 87.2962 102.689C87.0956 103.255 86.7087 103.737 86.1988 104.055C85.8806 104.253 85.5224 104.378 85.1501 104.42C85.0261 104.482 84.8951 104.527 84.7599 104.557Z" fill="#263238"/>
<path d="M83.8663 98.4316C82.4765 98.5539 81.0808 98.5946 79.6863 98.5536C78.2901 98.5947 76.8928 98.554 75.5014 98.4316C76.8926 98.306 78.29 98.2637 79.6863 98.3048C81.0809 98.2638 82.4767 98.3061 83.8663 98.4316Z" fill="white"/>
<path d="M51.514 159.188L47.612 158.905C48.6314 144.931 50.1239 136.571 52.1774 133.347C56.1184 127.153 60.035 126.031 64.3711 125.294C68.4097 124.606 72.4824 124.767 76.4234 124.928L77.3989 124.967C85.5346 125.284 102.577 125.002 102.762 125.002L102.825 128.904C102.655 128.904 85.5053 129.191 77.2623 128.869L76.2868 128.83C72.5458 128.684 68.6828 128.523 65.0442 129.147C61.1666 129.806 58.5864 130.562 55.4746 135.449C54.5332 136.908 52.7675 141.975 51.514 159.188Z" fill="#263238"/>
<path d="M297.002 0.00390625H104.839V127.95H297.002V0.00390625Z" fill="#A498FF"/>
<path d="M294.703 125.418C294.703 124.594 294.664 77.6672 294.6 2.89519L294.703 2.99274L106.919 3.02201L107.046 2.89519C107.046 46.4464 107.046 87.9002 107.046 125.418L106.929 125.301L294.712 125.418L106.929 125.535H106.792V125.418C106.792 87.9002 106.792 46.4464 106.792 2.89519V2.77325H106.934L294.717 2.79764H294.82V2.90007C294.742 77.6672 294.703 124.599 294.703 125.418Z" fill="#263238"/>
<g opacity="0.5">
<path opacity="0.5" d="M132.088 68.6421L133.903 105.238L276.418 75.5925L273.897 37.4456L132.088 68.6421Z" fill="black"/>
</g>
<path d="M142.884 93.9811L143.859 90.5668C145.767 91.3878 147.884 91.5891 149.912 91.1424C152.092 90.6546 153.326 89.6206 153.039 88.3671C152.448 85.621 144.259 88.9182 143.074 83.4457C142.318 79.9144 144.918 76.9684 149.678 75.949C151.985 75.4612 154.229 75.51 155.931 76.1441L155.077 79.4949C153.497 78.9006 151.776 78.7869 150.132 79.1681C147.825 79.6559 146.664 80.8362 146.927 82.0653C147.512 84.8894 155.731 81.5776 156.867 86.8599C157.628 90.4205 154.98 93.3763 150.195 94.4005C147.405 95.0053 144.576 94.7371 142.884 93.9811Z" fill="white"/>
<path d="M175.311 70.7429L175.56 88.653L171.585 89.5066L171.482 82.2147L163.703 83.8828L163.81 91.1991L159.806 92.0331L159.557 74.1181L163.556 73.2596L163.654 80.2979L171.434 78.6298L171.336 71.5915L175.311 70.7429Z" fill="white"/>
<path d="M179.375 69.8679L183.365 69.0095L183.613 86.9196L179.614 87.7781L179.375 69.8679Z" fill="white"/>
<path d="M202.24 70.5727C203.176 74.9381 200.547 78.3767 195.411 79.4546L191.582 80.2741L191.655 85.2052L187.656 86.0637L187.422 68.134L194.367 66.6707C198.66 65.7294 201.518 67.1975 202.24 70.5727ZM198.289 71.7775C197.933 70.1094 196.587 69.5777 194.572 70.0118L191.455 70.68L191.534 76.8988L194.894 76.177C197.508 75.6014 198.777 74.0455 198.289 71.7628V71.7775Z" fill="white"/>
<path d="M219.946 66.7507C220.882 71.1405 218.253 74.5547 213.117 75.6326L209.293 76.4569L209.376 81.3881L205.377 82.2465L205.123 64.3364L212.068 62.8438C216.375 61.922 219.233 63.3901 219.946 66.7507ZM215.995 67.9603C215.639 66.2874 214.288 65.7557 212.278 66.1898L209.161 66.858L209.239 73.0817L212.6 72.3598C215.234 71.794 216.492 70.2381 216.005 67.9603H215.995Z" fill="white"/>
<path d="M222.877 60.532L226.877 59.6736L227.13 77.5886L223.131 78.4471L222.877 60.532Z" fill="white"/>
<path d="M246.658 55.4523L246.912 73.3624L243.644 74.0648L234.937 64.6707L235.084 75.889L231.182 76.7328L230.928 58.8177L234.215 58.1105L242.932 67.5094L242.756 56.2912L246.658 55.4523Z" fill="white"/>
<path d="M262.475 60.7336L266.109 59.9532L266.202 67.3231C264.591 69.1197 262.442 70.3466 260.076 70.8203C254.871 71.9372 250.935 69.6253 249.984 65.1868C248.726 59.3338 252.067 53.9685 258.569 52.5638C261.856 51.8566 264.485 52.3931 266.373 54.027L264.022 56.9535C262.558 55.8268 261.037 55.5927 259.144 56.0024C255.12 56.8657 253.164 60.3141 253.974 64.0942C254.525 66.6695 256.618 68.045 259.881 67.3426C260.866 67.1414 261.794 66.7231 262.597 66.1184L262.475 60.7336Z" fill="white"/>
<path d="M160.495 34.7796V66.7419L241.715 48.8805L241.686 17.2889L160.495 34.7796Z" fill="#A498FF"/>
<g opacity="0.3">
<path opacity="0.3" d="M160.495 34.7798V66.7421L241.715 48.8807L241.686 17.2891L160.495 34.7798Z" fill="black"/>
</g>
<path d="M251.027 34.7801L279.79 28.0442L278.653 24.9812L251.027 34.7801Z" fill="#FAFAFA"/>
<path d="M122.238 56.3025L142.236 51.6201L141.445 49.4935L122.238 56.3025Z" fill="#FAFAFA"/>
<path d="M190.701 104.491L219.464 97.7505L218.332 94.6923L190.701 104.491Z" fill="#FAFAFA"/>
<path d="M228.829 19.4597C228.829 19.528 213.475 23.2007 194.506 27.6588C175.538 32.1168 160.139 35.6823 160.12 35.614C160.1 35.5457 175.469 31.8729 194.448 27.4149C213.426 22.9569 228.814 19.3914 228.829 19.4597Z" fill="#FAFAFA"/>
<path d="M160.282 63.5346C160.282 63.6029 153.698 64.9978 145.543 66.6366C137.387 68.2755 130.769 69.5631 130.754 69.4949C130.739 69.4266 137.339 68.0316 145.494 66.3879C153.649 64.7442 160.268 63.4663 160.282 63.5346Z" fill="#FAFAFA"/>
<path d="M160.539 60.6427C160.516 60.5584 160.506 60.4714 160.509 60.3842C160.509 60.1842 160.509 59.9404 160.485 59.6477C160.485 58.9697 160.485 58.0528 160.446 56.9358C160.446 54.6093 160.407 51.4633 160.387 47.9856C160.368 44.508 160.319 41.3571 160.295 39.0354C160.295 37.9185 160.265 37.0015 160.256 36.3235V35.5821C160.243 35.4981 160.243 35.4126 160.256 35.3285C160.278 35.4112 160.29 35.4965 160.29 35.5821C160.29 35.7821 160.319 36.0211 160.339 36.3187C160.378 36.9576 160.417 37.8843 160.456 39.0305C160.539 41.3181 160.602 44.4836 160.626 47.9807C160.651 51.4779 160.626 54.6434 160.626 56.931C160.626 58.0528 160.597 58.9697 160.587 59.6477C160.587 59.9404 160.587 60.1842 160.563 60.3842C160.562 60.4709 160.554 60.5574 160.539 60.6427Z" fill="#FAFAFA"/>
<path d="M77.5237 60.5913C77.5237 60.5913 77.4651 60.6498 77.3432 60.7425L76.8067 61.1278C76.3189 61.4644 75.6507 61.9326 74.802 62.513C73.0998 63.6641 70.7293 65.2347 68.0857 66.9271C65.4421 68.6196 63.0277 70.117 61.2572 71.1852C60.3793 71.7168 59.6623 72.1607 59.1648 72.4338L58.5892 72.7558C58.5237 72.7982 58.4532 72.8326 58.3795 72.8582C58.3795 72.8582 58.438 72.7997 58.56 72.7167L59.1111 72.346L61.1645 71.034L67.9394 66.7125L74.6898 62.3618L76.7433 61.0498L77.309 60.6986C77.3765 60.6552 77.4485 60.6192 77.5237 60.5913Z" fill="#FAFAFA"/>
<path d="M69.1911 62.7978C69.1911 62.7978 69.1326 62.8563 69.0106 62.949L68.4741 63.3343C67.9864 63.666 67.3182 64.1391 66.4646 64.7147C64.7623 65.8706 62.3919 67.4363 59.7532 69.1044C57.1144 70.7725 54.6952 72.2992 52.9247 73.3673C52.0467 73.899 51.3297 74.3428 50.8322 74.6111L50.2567 74.9379C50.1922 74.981 50.1215 75.0139 50.0469 75.0354C50.1016 74.9817 50.1621 74.9342 50.2274 74.894L50.7786 74.5282L52.8271 73.2112L59.6068 68.8947L66.3573 64.5439L68.4107 63.227L68.9716 62.8807C69.0408 62.8435 69.1146 62.8157 69.1911 62.7978Z" fill="#FAFAFA"/>
<path d="M28.1247 76.9974C28.0499 76.8641 27.9988 76.7189 27.9735 76.5682C27.8954 76.2902 27.7881 75.8805 27.6662 75.3732C27.3455 74.0475 27.1818 72.6888 27.1784 71.3249C27.1715 69.9471 27.489 68.587 28.1051 67.3546C28.2979 66.9859 28.5301 66.6392 28.7978 66.3206C28.888 66.1989 28.9966 66.0919 29.1197 66.0035C28.8083 66.466 28.5218 66.9447 28.2612 67.4375C27.7054 68.6629 27.4209 69.994 27.4272 71.3395C27.442 72.6868 27.5873 74.0296 27.8613 75.3488C27.9833 75.8923 28.0712 76.443 28.1247 76.9974Z" fill="#FAFAFA"/>
<path d="M8.26691 111.576C8.24927 111.403 8.24927 111.228 8.26691 111.054C8.26691 110.703 8.26691 110.196 8.29617 109.591C8.33519 108.337 8.42786 106.606 8.57907 104.713C8.73027 102.821 8.91074 101.085 9.06682 99.8359C9.14486 99.2116 9.21314 98.7092 9.26679 98.3726C9.28515 98.1919 9.32276 98.0137 9.37898 97.841C9.40348 98.0223 9.40348 98.206 9.37898 98.3873L9.25216 99.8505C9.14486 101.158 8.99853 102.85 8.83757 104.728C8.67662 106.606 8.57907 108.293 8.48639 109.606C8.4425 110.191 8.40348 110.683 8.37421 111.069C8.35936 111.242 8.32333 111.412 8.26691 111.576Z" fill="#FAFAFA"/>
<path d="M61.72 121.044C61.72 121.098 60.7786 121.229 59.3202 121.703C58.4666 121.98 57.6337 122.317 56.8278 122.712C54.8532 123.693 53.0668 125.014 51.5504 126.614C50.9312 127.264 50.359 127.956 49.8384 128.687C48.9556 129.941 48.541 130.804 48.4971 130.78C48.5696 130.567 48.661 130.361 48.7702 130.165C48.8793 129.927 49.0031 129.695 49.1409 129.472C49.297 129.209 49.4677 128.902 49.6921 128.585C50.197 127.83 50.7614 127.118 51.3797 126.453C52.146 125.641 52.9798 124.895 53.8721 124.224C54.7726 123.571 55.729 122.998 56.7303 122.512C57.5482 122.119 58.3963 121.793 59.2666 121.537C59.6324 121.415 59.9787 121.346 60.2762 121.273C60.5321 121.211 60.7909 121.162 61.0517 121.127C61.2713 121.078 61.4951 121.05 61.72 121.044Z" fill="#FAFAFA"/>
<path d="M109.751 91.6C109.744 91.5302 109.744 91.46 109.751 91.3903C109.751 91.2407 109.751 91.0358 109.751 90.7757C109.751 90.2197 109.751 89.4246 109.716 88.4101C109.687 86.342 109.648 83.3717 109.594 79.7087C109.463 72.3485 109.282 62.2082 109.082 51.0046C108.882 39.801 108.712 29.6411 108.643 22.2956C108.609 18.6229 108.599 15.6476 108.604 13.5942C108.604 12.5748 108.604 11.7798 108.604 11.2286V10.614C108.604 10.4726 108.604 10.4043 108.604 10.4043C108.611 10.4741 108.611 10.5443 108.604 10.614C108.604 10.7604 108.604 10.9652 108.604 11.2286C108.604 11.7798 108.604 12.5748 108.638 13.5942C108.668 15.6622 108.707 18.6278 108.76 22.2908C108.892 29.6509 109.073 39.7912 109.273 50.9997C109.473 62.2082 109.648 72.3583 109.712 79.7038C109.746 83.3814 109.76 86.3518 109.755 88.4052C109.755 89.4246 109.755 90.2197 109.755 90.7757C109.755 91.0342 109.755 91.239 109.755 91.3903C109.758 91.4602 109.756 91.5302 109.751 91.6Z" fill="#FAFAFA"/>
<path d="M250.871 176.912C263.774 176.396 273.817 165.517 273.301 152.614C272.785 139.71 261.906 129.668 249.002 130.184C236.099 130.7 226.056 141.579 226.572 154.482C227.088 167.386 237.967 177.428 250.871 176.912Z" fill="#263238"/>
<path d="M226.546 153.171C226.546 153.171 226.546 153.215 226.546 153.234C226.457 159.435 228.834 165.416 233.155 169.864C237.476 174.311 243.387 176.86 249.587 176.949C255.788 177.038 261.769 174.661 266.217 170.34C270.664 166.019 273.212 160.108 273.302 153.908V153.849L226.546 153.171Z" fill="#263238"/>
<path d="M233.507 153.334C233.461 156.58 234.377 159.766 236.141 162.491C237.905 165.216 240.438 167.356 243.418 168.642C246.399 169.928 249.694 170.3 252.886 169.714C256.079 169.127 259.025 167.606 261.354 165.345C263.682 163.083 265.288 160.182 265.968 157.008C266.647 153.834 266.37 150.529 265.172 147.513C263.974 144.496 261.908 141.902 259.236 140.06C256.564 138.217 253.405 137.208 250.159 137.16C245.807 137.098 241.607 138.766 238.485 141.799C235.362 144.832 233.572 148.981 233.507 153.334Z" fill="#FAFAFA"/>
<path d="M250.158 137.16C248.002 137.129 245.862 137.522 243.858 138.318C241.855 139.113 240.028 140.296 238.481 141.798C236.935 143.3 235.7 145.092 234.846 147.071C233.992 149.051 233.537 151.179 233.506 153.334L266.331 153.822C266.364 151.666 265.972 149.524 265.177 147.52C264.382 145.515 263.199 143.687 261.697 142.139C260.195 140.592 258.403 139.356 256.423 138.502C254.443 137.647 252.314 137.191 250.158 137.16Z" fill="#E0E0E0"/>
<path d="M239.947 153.424C239.918 155.401 240.476 157.343 241.551 159.003C242.626 160.663 244.169 161.967 245.985 162.75C247.801 163.534 249.809 163.761 251.754 163.403C253.699 163.045 255.494 162.118 256.912 160.74C258.331 159.362 259.309 157.594 259.722 155.66C260.136 153.726 259.967 151.713 259.236 149.875C258.506 148.037 257.247 146.458 255.618 145.335C253.989 144.213 252.065 143.599 250.087 143.571C247.436 143.533 244.879 144.55 242.977 146.398C241.075 148.245 239.985 150.773 239.947 153.424Z" fill="#263238"/>
<path d="M219.189 159.974C219.189 159.974 215.628 126.807 249.995 126.807C281.699 126.807 280.996 155.331 280.694 159.745H275.724C275.724 159.745 278.255 131.631 249.995 131.631C221.735 131.631 224.193 160.316 224.193 160.316C224.193 160.316 222.106 160.213 219.189 159.974Z" fill="#455A64"/>
<path d="M237.594 130.242C237.509 130.286 237.419 130.319 237.325 130.34C237.145 130.403 236.877 130.467 236.545 130.584C235.591 130.887 234.658 131.25 233.75 131.671C230.746 133.05 228.084 135.077 225.957 137.607C223.83 140.137 222.29 143.107 221.449 146.304C221.192 147.266 220.995 148.244 220.859 149.23C220.805 149.582 220.786 149.855 220.757 150.04C220.748 150.136 220.732 150.23 220.708 150.323C220.696 150.229 220.696 150.134 220.708 150.04C220.708 149.85 220.708 149.552 220.766 149.221C220.863 148.217 221.036 147.223 221.283 146.245C222.083 143 223.616 139.981 225.766 137.422C227.915 134.862 230.624 132.83 233.682 131.481C234.602 131.071 235.551 130.728 236.521 130.457C236.862 130.359 237.135 130.306 237.316 130.262C237.407 130.245 237.501 130.238 237.594 130.242Z" fill="#FAFAFA"/>
<path d="M175.866 50.3552L174.325 41.7651L180.113 40.7267L180.382 42.2241L176.409 42.9367L176.777 44.9836L180.451 44.3244L180.72 45.8218L177.045 46.481L177.413 48.532L181.402 47.8165L181.671 49.3139L175.866 50.3552ZM183.26 40.1622L185.517 42.7791L185.584 42.7671L186.8 39.5271L188.851 39.1592L187 43.9245L190.451 47.7388L188.362 48.1135L186.074 45.4976L186.007 45.5097L184.771 48.7576L182.691 49.1308L184.609 44.3534L181.2 40.5316L183.26 40.1622ZM191.541 47.5432L190 38.953L193.389 38.345C194.041 38.2282 194.618 38.253 195.121 38.4196C195.624 38.5834 196.035 38.8633 196.354 39.2591C196.676 39.6517 196.888 40.1332 196.99 40.7037C197.093 41.2741 197.06 41.7995 196.892 42.2799C196.724 42.7602 196.429 43.1639 196.005 43.491C195.585 43.8175 195.044 44.04 194.385 44.1584L192.224 44.5459L191.963 43.0904L193.83 42.7556C194.179 42.6929 194.457 42.5811 194.662 42.4202C194.869 42.256 195.009 42.0563 195.082 41.8209C195.158 41.5822 195.17 41.3217 195.119 41.0392C195.068 40.754 194.966 40.5154 194.814 40.3235C194.663 40.1282 194.463 39.9925 194.212 39.9162C193.961 39.837 193.66 39.8291 193.308 39.8923L192.083 40.112L193.357 47.2173L191.541 47.5432ZM199.189 46.1712L197.648 37.5811L201.037 36.9731C201.685 36.8567 202.26 36.8735 202.76 37.0233C203.263 37.1698 203.672 37.4326 203.988 37.8117C204.307 38.1875 204.517 38.6592 204.619 39.2269C204.721 39.7973 204.686 40.3101 204.514 40.7653C204.341 41.2177 204.041 41.5949 203.613 41.8968C203.188 42.1981 202.645 42.408 201.985 42.5264L199.716 42.9335L199.454 41.4738L201.43 41.1194C201.777 41.0572 202.056 40.958 202.268 40.8218C202.481 40.6856 202.626 40.5124 202.703 40.3022C202.784 40.0915 202.799 39.8449 202.748 39.5625C202.697 39.2773 202.596 39.0471 202.447 38.8719C202.3 38.6962 202.101 38.5789 201.851 38.5198C201.603 38.4575 201.305 38.4577 200.955 38.5204L199.73 38.7401L201.005 45.8454L199.189 46.1712ZM203.126 41.4299L205.963 44.956L203.958 45.3157L201.168 41.7812L203.126 41.4299ZM206.94 44.7807L205.399 36.1906L211.187 35.1522L211.456 36.6496L207.484 37.3622L207.851 39.409L211.525 38.7499L211.794 40.2473L208.12 40.9064L208.487 42.9575L212.476 42.2419L212.745 43.7393L206.94 44.7807ZM217.734 36.5277C217.64 36.1954 217.449 35.9584 217.161 35.8167C216.873 35.675 216.511 35.6432 216.074 35.7215C215.778 35.7747 215.535 35.8615 215.346 35.982C215.157 36.0997 215.02 36.2411 214.937 36.406C214.857 36.5705 214.834 36.745 214.867 36.9296C214.889 37.0844 214.945 37.2128 215.035 37.3149C215.129 37.4165 215.246 37.498 215.387 37.5593C215.527 37.6178 215.685 37.663 215.861 37.695C216.037 37.7241 216.222 37.7428 216.417 37.7511L217.222 37.7972C217.611 37.8139 217.975 37.8641 218.314 37.9477C218.652 38.0313 218.954 38.1546 219.22 38.3176C219.486 38.4806 219.707 38.6893 219.882 38.9435C220.06 39.1973 220.183 39.5029 220.25 39.8603C220.342 40.3865 220.289 40.8663 220.093 41.2999C219.899 41.7301 219.572 42.0962 219.112 42.398C218.655 42.6965 218.077 42.9084 217.378 43.0338C216.684 43.1582 216.061 43.1603 215.508 43.0401C214.959 42.9194 214.502 42.6766 214.139 42.3116C213.779 41.9433 213.536 41.4514 213.411 40.836L215.169 40.5207C215.24 40.8052 215.366 41.0309 215.546 41.1977C215.728 41.3613 215.951 41.4699 216.215 41.5237C216.481 41.5741 216.77 41.5712 217.083 41.515C217.391 41.4599 217.65 41.3672 217.86 41.2371C218.074 41.1065 218.229 40.9502 218.326 40.7682C218.423 40.5863 218.453 40.3918 218.416 40.1849C218.382 39.992 218.295 39.8401 218.157 39.7292C218.022 39.6178 217.837 39.5356 217.602 39.4824C217.37 39.4288 217.091 39.3923 216.764 39.373L215.787 39.3059C215.031 39.2597 214.41 39.0868 213.923 38.7874C213.436 38.4879 213.137 38.0205 213.026 37.3853C212.93 36.8657 212.987 36.3865 213.197 35.9476C213.41 35.5083 213.742 35.1354 214.196 34.829C214.649 34.5226 215.188 34.3132 215.815 34.2009C216.452 34.0865 217.028 34.0957 217.543 34.2285C218.06 34.3609 218.486 34.5976 218.822 34.9386C219.157 35.2796 219.375 35.7052 219.475 36.2154L217.734 36.5277ZM225.474 35.1392C225.38 34.8069 225.189 34.5699 224.901 34.4282C224.612 34.2865 224.25 34.2548 223.814 34.333C223.518 34.3862 223.275 34.473 223.086 34.5935C222.896 34.7113 222.76 34.8526 222.677 35.0176C222.597 35.182 222.573 35.3565 222.606 35.5411C222.628 35.6959 222.685 35.8244 222.775 35.9265C222.868 36.0281 222.986 36.1095 223.126 36.1708C223.267 36.2294 223.425 36.2746 223.601 36.3065C223.777 36.3356 223.962 36.3544 224.157 36.3627L224.961 36.4088C225.351 36.4255 225.715 36.4756 226.053 36.5592C226.392 36.6429 226.694 36.7662 226.96 36.9292C227.226 37.0922 227.446 37.3008 227.622 37.5551C227.8 37.8088 227.923 38.1144 227.99 38.4718C228.081 38.998 228.029 39.4779 227.832 39.9114C227.638 40.3417 227.311 40.7077 226.852 41.0095C226.395 41.308 225.816 41.52 225.117 41.6454C224.424 41.7698 223.801 41.7719 223.248 41.6517C222.698 41.5309 222.242 41.2881 221.879 40.9231C221.519 40.5549 221.276 40.063 221.151 39.4475L222.909 39.1322C222.98 39.4167 223.106 39.6424 223.286 39.8093C223.468 39.9728 223.691 40.0815 223.954 40.1352C224.22 40.1856 224.51 40.1828 224.823 40.1266C225.131 40.0714 225.39 39.9788 225.6 39.8486C225.813 39.718 225.969 39.5617 226.066 39.3798C226.163 39.1978 226.193 39.0034 226.156 38.7964C226.121 38.6035 226.035 38.4516 225.897 38.3407C225.761 38.2294 225.576 38.1471 225.342 38.094C225.11 38.0403 224.831 38.0038 224.504 37.9845L223.526 37.9174C222.77 37.8712 222.149 37.6983 221.663 37.3989C221.176 37.0994 220.877 36.6321 220.766 35.9968C220.67 35.4772 220.727 34.998 220.937 34.5592C221.149 34.1198 221.482 33.7469 221.935 33.4405C222.388 33.1341 222.928 32.9248 223.554 32.8124C224.192 32.698 224.768 32.7073 225.282 32.8401C225.8 32.9724 226.226 33.2091 226.561 33.5501C226.897 33.8911 227.115 34.3168 227.215 34.827L225.474 35.1392Z" fill="white"/>
</svg>
