<svg width="418" height="357" viewBox="0 0 418 357" fill="none" xmlns="http://www.w3.org/2000/svg">
<path d="M417.145 329.962H382.484V330.224H417.145V329.962Z" fill="#EBEBEB"/>
<path d="M292.956 332.813H283.862V333.075H292.956V332.813Z" fill="#EBEBEB"/>
<path d="M381.449 320.257H361.366V320.519H381.449V320.257Z" fill="#EBEBEB"/>
<path d="M46.4326 322.014H1.23376V322.275H46.4326V322.014Z" fill="#EBEBEB"/>
<path d="M62.3822 322.014H55.7578V322.275H62.3822V322.014Z" fill="#EBEBEB"/>
<path d="M181.95 326.433H83.9132V326.694H181.95V326.433Z" fill="#EBEBEB"/>
<path d="M22.1859 313.225H41.6301L41.6301 205.539H22.1859L22.1859 313.225Z" fill="#E6E6E6"/>
<path d="M36.3135 313.225H141.226V205.539H36.3135L36.3135 313.225Z" fill="#F5F5F5"/>
<path d="M17.6267 207.892H41.7906V203.172H17.6267V207.892Z" fill="#E0E0E0"/>
<path d="M34.4878 207.892H144.822V203.172H34.4878V207.892Z" fill="#EBEBEB"/>
<path d="M96.1205 275.83C96.3605 275.831 96.5984 275.785 96.8206 275.694C97.0427 275.603 97.2447 275.47 97.4149 275.3C97.5851 275.131 97.7201 274.93 97.8123 274.708C97.9045 274.487 97.9519 274.249 97.9519 274.009V265.804C97.9519 265.564 97.9045 265.327 97.8123 265.105C97.7201 264.883 97.5851 264.682 97.4149 264.513C97.2447 264.344 97.0427 264.21 96.8206 264.119C96.5984 264.028 96.3605 263.982 96.1205 263.983C95.6376 263.983 95.1744 264.175 94.8329 264.517C94.4914 264.858 94.2996 265.321 94.2996 265.804V273.988C94.2968 274.229 94.3419 274.468 94.4321 274.691C94.5224 274.915 94.6561 275.118 94.8254 275.289C94.9948 275.461 95.1965 275.597 95.4188 275.689C95.6411 275.782 95.8796 275.83 96.1205 275.83Z" fill="#E6E6E6"/>
<path d="M83.8225 275.83C84.3055 275.83 84.7686 275.638 85.1101 275.297C85.4516 274.955 85.6434 274.492 85.6434 274.009V265.804C85.6434 265.321 85.4516 264.858 85.1101 264.517C84.7686 264.175 84.3055 263.983 83.8225 263.983C83.3396 263.983 82.8764 264.175 82.5349 264.517C82.1934 264.858 82.0016 265.321 82.0016 265.804V273.988C81.9988 274.229 82.0439 274.468 82.1341 274.691C82.2244 274.915 82.3581 275.118 82.5275 275.289C82.6968 275.461 82.8985 275.597 83.1208 275.689C83.3431 275.782 83.5816 275.83 83.8225 275.83Z" fill="#E6E6E6"/>
<path d="M141.239 227.956V229.788H90.8915V313.226H89.0706V229.788H36.3264V227.956H141.239Z" fill="#E0E0E0"/>
<path d="M202.908 356.357C314.971 356.357 405.816 351.053 405.816 344.51C405.816 337.968 314.971 332.664 202.908 332.664C90.845 332.664 0 337.968 0 344.51C0 351.053 90.845 356.357 202.908 356.357Z" fill="#F5F5F5"/>
<path d="M125.962 280.899H85.7866V287.084H125.962V280.899Z" fill="#B4ABFF"/>
<path d="M87.4287 284.453H124.318C125.226 284.453 126.096 284.814 126.738 285.456C127.38 286.097 127.74 286.968 127.74 287.875V348.165H83.9961V287.886C83.9947 287.435 84.0826 286.988 84.2546 286.571C84.4266 286.154 84.6794 285.775 84.9984 285.456C85.3174 285.137 85.6964 284.884 86.1135 284.712C86.5305 284.54 86.9775 284.452 87.4287 284.453Z" fill="#B4ABFF"/>
<path opacity="0.5" d="M87.4287 284.453H124.318C125.226 284.453 126.096 284.814 126.738 285.456C127.38 286.097 127.74 286.968 127.74 287.875V348.165H83.9961V287.886C83.9947 287.435 84.0826 286.988 84.2546 286.571C84.4266 286.154 84.6794 285.775 84.9984 285.456C85.3174 285.137 85.6964 284.884 86.1135 284.712C86.5305 284.54 86.9775 284.452 87.4287 284.453Z" fill="white"/>
<path d="M123.962 273.288H87.774C85.6875 273.288 83.9961 274.979 83.9961 277.066V279.023C83.9961 281.109 85.6875 282.801 87.774 282.801H123.962C126.049 282.801 127.74 281.109 127.74 279.023V277.066C127.74 274.979 126.049 273.288 123.962 273.288Z" fill="#B4ABFF"/>
<path opacity="0.7" d="M123.962 273.288H87.774C85.6875 273.288 83.9961 274.979 83.9961 277.066V279.023C83.9961 281.109 85.6875 282.801 87.774 282.801H123.962C126.049 282.801 127.74 281.109 127.74 279.023V277.066C127.74 274.979 126.049 273.288 123.962 273.288Z" fill="white"/>
<path d="M96.6374 348.176H76.1886V345.33L96.6374 343.425V348.176Z" fill="#B4ABFF"/>
<path opacity="0.7" d="M96.6374 348.176H76.1886V345.33L96.6374 343.425V348.176Z" fill="white"/>
<path d="M48.9769 51.5765L99.3971 59.7398L181.799 48.3807L243.223 64.6913L305.188 50.8645L362.647 160.758L270.059 182.603L181.209 173.444L77.3666 183.234L11.9142 157.134L48.9769 51.5765Z" fill="white" stroke="#263238" stroke-linecap="round" stroke-linejoin="round"/>
<path d="M58.5625 58.6726L97.9473 65.768L181.344 55.1289L244.507 70.0317L299.159 57.6127L346.011 156.746L266.958 176.406L181.781 168.235L78.0769 175.427L28.5386 153.461L58.5625 58.6726Z" fill="#B4ABFF" stroke="#263238" stroke-linecap="round" stroke-linejoin="round"/>
<g opacity="0.64">
<path opacity="0.64" d="M282.891 102.515L252.358 110.509H243.07C243.07 110.509 255.019 122.014 278.021 124.222C301.022 126.431 306.338 122.014 306.338 122.014L282.891 102.515Z" fill="white"/>
<path opacity="0.64" d="M150.158 62.2563L129.802 66.6818L127.149 73.761L139.98 71.1073L136.882 87.0295L151.93 85.2658L154.584 67.1187L150.158 62.2563Z" fill="white"/>
<path opacity="0.64" d="M137.328 89.6841L136.001 97.6533L144.852 95.8814V89.2472L137.328 89.6841Z" fill="white"/>
<path opacity="0.64" d="M132.018 89.6841L130.246 98.5352L112.989 100.752L113.434 94.5546L132.018 89.6841Z" fill="white"/>
<path opacity="0.64" d="M233.983 129.068C225.553 129.068 218.716 133.42 218.716 138.776C218.716 144.132 225.553 148.485 233.983 148.485C242.413 148.485 249.25 144.124 249.25 138.776C249.25 133.428 242.43 129.068 233.983 129.068ZM233.983 143.218C230.148 143.218 227.041 141.244 227.041 138.8C227.041 136.357 230.148 134.375 233.983 134.375C237.818 134.375 240.941 136.398 240.941 138.825C240.941 141.252 237.834 143.218 233.983 143.218Z" fill="white"/>
<path opacity="0.64" d="M112.99 164.02L124.94 134.813L98.3951 136.148L94.4065 146.318H106.793L97.5052 167.556L112.99 164.02Z" fill="white"/>
<path opacity="0.64" d="M164.317 100.306L182.011 96.3253L205.021 103.405L187.319 106.495L182.456 102.515L164.317 106.058V100.306Z" fill="white"/>
<path opacity="0.64" d="M165.198 83.4951L165.643 94.9998L173.604 93.228L172.277 83.0501L165.198 83.4951Z" fill="white"/>
<path opacity="0.64" d="M55.0295 89.6841L47.9503 110.04L76.7122 117.564L81.1377 101.634L68.7511 90.1291L55.0295 89.6841Z" fill="white"/>
</g>
<path d="M339.969 143.947L328.521 132.621C330.495 132.37 332.404 132.095 334.232 131.812L332.8 128.769C330.511 129.109 328.108 129.433 325.6 129.724L291.474 95.9462C300.543 94.5951 309.16 93.43 315.746 92.7504L314.281 89.6598C307.162 90.4203 298.1 91.6744 288.764 93.0821L288.861 92.4915L287.769 92.3216L275.738 80.4124L302.752 65.1455L301.369 62.2167L273.375 78.0418L261.402 66.1973L257.664 67.0063L282.364 91.4397L203.805 79.1502C203.425 78.2845 203.044 77.4189 202.697 76.5289C200.45 70.8263 198.707 64.9382 197.486 58.932L194.007 58.1229C195.286 64.7841 197.182 71.3117 199.671 77.6211L200.059 78.5677L181.653 75.6794L162.657 77.3379L161.977 57.597L158.741 58.0097L160.513 112.014C159.412 112.014 158.312 112.014 157.276 111.965C127.382 111.1 95.0925 102.378 90.311 99.773C87.0748 97.985 79.7933 89.5627 75.9179 84.7812C83.8386 84.3686 91.5003 83.3007 96.031 80.9463C102.245 77.7101 116.945 69.1746 129.574 61.7313L121.419 62.775C110.634 69.0937 99.6717 75.4205 94.5504 78.0742C85.3839 82.8314 60.8372 81.8444 51.4117 81.2619L50.4004 84.4495C53.9117 84.6841 60.0443 85.0078 66.8404 85.0078C68.4585 85.0078 70.1979 85.0078 71.905 84.943C73.1186 86.4802 83.7577 99.8782 88.7657 102.613C93.7738 105.347 126.282 114.304 157.187 115.194C158.325 115.226 159.482 115.242 160.658 115.242L160.901 122.629L136.168 123.349L135.796 123.219L135.747 123.357L86.6217 124.789L41.2662 113.3L40.2872 116.391L68.2238 123.454L42.3341 159.562L45.36 160.897L71.6219 124.312L86.2981 128.025L134.623 126.617L120.553 166.334L104.024 173.615L113.555 172.96L181.774 142.928L230.455 116.852C235.996 120.546 241.975 123.536 248.254 125.752C253.952 127.749 259.77 129.384 265.673 130.646L258.537 144.926L229.128 172.806L233.4 173.211L260.973 147.078L261.175 146.884L268.958 131.318C277.151 132.871 285.448 133.823 293.78 134.166L287.226 171.382L290.665 170.533L297.089 134.255C298.78 134.295 300.454 134.328 302.113 134.328C309.565 134.32 317.011 133.912 324.419 133.106L344.022 152.523L339.969 143.947ZM124.615 164.562L138.061 126.536L161.006 125.881L161.742 148.235L124.615 164.562ZM280.244 94.4332C261.474 97.3944 243.554 100.598 239.654 101.375L236.418 102.03C232.955 102.75 227.559 103.875 221.005 105.105C214.547 98.5797 209.257 90.9937 205.366 82.6777L280.244 94.4332ZM162.786 80.5742L181.516 78.9561L201.532 82.0952C205.44 90.8234 210.775 98.8401 217.316 105.817C206.313 107.815 192.721 109.967 179.477 111.14L179.339 110.938L178.967 111.189C173.789 111.634 168.676 111.933 163.789 111.998L162.786 80.5742ZM163.919 115.202C167.058 115.153 170.294 115.007 173.571 114.797L164.121 121.172L163.919 115.202ZM180.44 139.975L164.954 146.787L164.242 124.999L180.1 114.295C194.274 113.017 208.781 110.655 220.124 108.551C222.452 110.774 224.919 112.847 227.51 114.757L180.44 139.975ZM249.355 122.645C239.996 119.42 231.364 114.383 223.95 107.823C229.492 106.763 234.047 105.817 237.106 105.177L240.285 104.522C246.062 103.365 267.308 99.6678 287.477 96.553L321.458 130.153C301.029 132.119 274.816 131.642 249.355 122.645Z" fill="white" stroke="#263238" stroke-linecap="round" stroke-linejoin="round"/>
<path d="M82.9092 147.57L77.7231 177.91" stroke="#263238" stroke-linecap="round" stroke-linejoin="round"/>
<path d="M97.246 63.639L83.9613 141.405" stroke="#263238" stroke-linecap="round" stroke-linejoin="round"/>
<path d="M181.129 51.6335L181.574 83.0491" stroke="#263238" stroke-linecap="round" stroke-linejoin="round"/>
<path d="M246.595 88.9055L264.75 165.345" stroke="#263238" stroke-linecap="round" stroke-linejoin="round"/>
<path d="M241.745 68.4451L245.733 85.2573" stroke="#263238" stroke-linecap="round" stroke-linejoin="round"/>
<path d="M182.008 171.098L181.571 152.514" stroke="#263238" stroke-linecap="round" stroke-linejoin="round"/>
<path d="M282.854 24.1827C288.65 22.8064 292.232 16.9929 290.855 11.1979C289.479 5.40288 283.666 1.82079 277.87 3.19709C272.075 4.57338 268.493 10.3869 269.87 16.1819C271.246 21.9769 277.059 25.559 282.854 24.1827Z" fill="#263238"/>
<path d="M285.573 12.7083C285.575 11.5767 285.241 10.47 284.613 9.52826C283.985 8.58654 283.093 7.85214 282.048 7.41796C281.003 6.98379 279.852 6.86936 278.742 7.08915C277.632 7.30894 276.612 7.85308 275.811 8.65272C275.011 9.45235 274.465 10.4715 274.244 11.5813C274.022 12.6911 274.135 13.8416 274.568 14.8873C275 15.933 275.734 16.8268 276.674 17.4557C277.615 18.0846 278.721 18.4202 279.853 18.4202C281.369 18.4202 282.822 17.8187 283.895 16.7478C284.967 15.6768 285.571 14.224 285.573 12.7083Z" stroke="white" stroke-width="2" stroke-linecap="round" stroke-linejoin="round"/>
<path d="M283.77 17.2148L287.379 20.5239" stroke="white" stroke-width="2" stroke-linecap="round" stroke-linejoin="round"/>
<path d="M253.462 25.5553H81.4569C79.9175 25.5553 78.3932 25.2517 76.9712 24.6619C75.5493 24.072 74.2576 23.2075 73.1702 22.1178C72.0828 21.0282 71.221 19.7347 70.6341 18.3116C70.0472 16.8884 69.7467 15.3635 69.7499 13.824C69.7467 12.2846 70.0472 10.7597 70.6341 9.33652C71.221 7.91336 72.0828 6.61992 73.1702 5.53026C74.2576 4.44059 75.5493 3.57608 76.9712 2.98623C78.3932 2.39638 79.9175 2.09277 81.4569 2.09278H253.462C255.002 2.09171 256.527 2.39454 257.95 2.98391C259.373 3.57328 260.665 4.43761 261.754 5.52739C262.842 6.61716 263.704 7.91096 264.292 9.33465C264.879 10.7583 265.18 12.2839 265.177 13.824C265.18 15.3642 264.879 16.8898 264.292 18.3134C263.704 19.7371 262.842 21.0309 261.754 22.1207C260.665 23.2105 259.373 24.0748 257.95 24.6642C256.527 25.2536 255.002 25.5564 253.462 25.5553Z" fill="white" stroke="#263238" stroke-linecap="round" stroke-linejoin="round"/>
<path d="M69.8265 81.9232C68.8388 81.9232 67.8608 82.1179 66.9484 82.4961C66.036 82.8743 65.207 83.4287 64.509 84.1275C63.8109 84.8263 63.2575 85.6558 62.8802 86.5686C62.503 87.4815 62.3094 88.4597 62.3104 89.4474C62.3104 93.5979 69.8265 101.34 69.8265 101.34C69.8265 101.34 77.3507 93.5979 77.3507 89.4474C77.3507 87.4519 76.558 85.5381 75.1469 84.127C73.7359 82.7159 71.8221 81.9232 69.8265 81.9232ZM69.8265 92.4409C69.3221 92.4409 68.8291 92.2912 68.4098 92.0108C67.9905 91.7304 67.6639 91.3319 67.4712 90.8658C67.2786 90.3996 67.2286 89.8868 67.3276 89.3922C67.4266 88.8976 67.6701 88.4436 68.0273 88.0875C68.3846 87.7314 68.8394 87.4893 69.3343 87.3919C69.8292 87.2944 70.3419 87.3461 70.8074 87.5402C71.273 87.7343 71.6704 88.0622 71.9495 88.4824C72.2286 88.9026 72.3767 89.3961 72.3751 89.9005C72.3708 90.5736 72.1004 91.2177 71.6229 91.6921C71.1454 92.1665 70.4996 92.4328 69.8265 92.4328V92.4409Z" fill="#263238" stroke="#263238" stroke-linecap="round" stroke-linejoin="round"/>
<path d="M147.898 47.1337C146.91 47.1337 145.932 47.3284 145.02 47.7066C144.107 48.0849 143.278 48.6392 142.58 49.338C141.882 50.0368 141.329 50.8663 140.952 51.7791C140.574 52.692 140.381 53.6702 140.382 54.6579C140.382 58.8084 147.898 66.551 147.898 66.551C147.898 66.551 155.422 58.8084 155.422 54.6579C155.422 52.6624 154.629 50.7486 153.218 49.3375C151.807 47.9265 149.893 47.1337 147.898 47.1337ZM147.898 57.6514C147.393 57.6514 146.9 57.5017 146.481 57.2214C146.062 56.941 145.735 56.5425 145.543 56.0763C145.35 55.6101 145.3 55.0973 145.399 54.6027C145.498 54.1081 145.741 53.6541 146.099 53.298C146.456 52.9419 146.911 52.6998 147.406 52.6024C147.901 52.505 148.413 52.5566 148.879 52.7507C149.344 52.9448 149.742 53.2728 150.021 53.6929C150.3 54.1131 150.448 54.6066 150.446 55.111C150.442 55.7841 150.172 56.4282 149.694 56.9026C149.217 57.3771 148.571 57.6433 147.898 57.6433V57.6514Z" fill="#263238" stroke="#263238" stroke-linecap="round" stroke-linejoin="round"/>
<path d="M135.166 100.119C134.178 100.118 133.2 100.311 132.287 100.689C131.374 101.066 130.545 101.619 129.846 102.317C129.147 103.015 128.593 103.844 128.214 104.757C127.836 105.669 127.641 106.647 127.641 107.635C127.641 111.793 135.166 119.528 135.166 119.528C135.166 119.528 142.682 111.793 142.682 107.635C142.682 105.641 141.89 103.73 140.48 102.32C139.071 100.911 137.159 100.119 135.166 100.119ZM135.166 110.636C134.664 110.636 134.173 110.488 133.756 110.209C133.339 109.931 133.013 109.535 132.82 109.072C132.627 108.609 132.576 108.099 132.673 107.606C132.77 107.114 133.01 106.661 133.364 106.305C133.717 105.949 134.168 105.706 134.66 105.606C135.152 105.507 135.662 105.555 136.127 105.744C136.591 105.934 136.989 106.257 137.27 106.673C137.551 107.088 137.703 107.578 137.706 108.08C137.706 108.754 137.438 109.4 136.962 109.876C136.486 110.353 135.839 110.62 135.166 110.62V110.636Z" fill="#263238" stroke="#263238" stroke-linecap="round" stroke-linejoin="round"/>
<path d="M286.051 95.2644C285.063 95.2633 284.085 95.457 283.172 95.8342C282.259 96.2115 281.43 96.7649 280.731 97.463C280.032 98.161 279.478 98.9899 279.1 99.9024C278.721 100.815 278.527 101.793 278.527 102.781C278.527 106.939 286.051 114.674 286.051 114.674C286.051 114.674 293.567 106.939 293.567 102.781C293.567 100.787 292.775 98.8754 291.366 97.4658C289.956 96.0563 288.044 95.2644 286.051 95.2644ZM286.051 105.782C285.549 105.782 285.059 105.633 284.641 105.355C284.224 105.077 283.898 104.681 283.705 104.218C283.513 103.754 283.461 103.244 283.558 102.752C283.655 102.26 283.895 101.807 284.249 101.451C284.603 101.095 285.054 100.852 285.545 100.752C286.037 100.652 286.547 100.7 287.012 100.89C287.476 101.08 287.874 101.403 288.155 101.819C288.436 102.234 288.588 102.724 288.591 103.225C288.591 103.899 288.324 104.545 287.847 105.022C287.371 105.498 286.725 105.766 286.051 105.766V105.782Z" fill="#263238" stroke="#263238" stroke-linecap="round" stroke-linejoin="round"/>
<path d="M199.89 119.131C198.903 119.13 197.924 119.323 197.012 119.701C196.099 120.078 195.269 120.631 194.57 121.329C193.872 122.028 193.317 122.856 192.939 123.769C192.561 124.681 192.366 125.659 192.366 126.647C192.366 130.806 199.89 138.54 199.89 138.54C199.89 138.54 207.407 130.806 207.407 126.647C207.407 125.66 207.212 124.683 206.834 123.771C206.457 122.859 205.903 122.03 205.205 121.332C204.507 120.634 203.679 120.081 202.767 119.703C201.855 119.325 200.877 119.131 199.89 119.131ZM199.89 129.649C199.389 129.649 198.898 129.5 198.481 129.222C198.063 128.943 197.738 128.547 197.545 128.084C197.352 127.621 197.301 127.111 197.398 126.618C197.494 126.126 197.735 125.673 198.088 125.318C198.442 124.962 198.893 124.718 199.385 124.619C199.877 124.519 200.387 124.567 200.851 124.757C201.316 124.946 201.714 125.269 201.995 125.685C202.276 126.101 202.428 126.59 202.431 127.092C202.431 127.766 202.163 128.412 201.687 128.888C201.21 129.365 200.564 129.632 199.89 129.632V129.649Z" fill="#263238" stroke="#263238" stroke-linecap="round" stroke-linejoin="round"/>
<path d="M231.441 54.0032C230.454 54.0021 229.475 54.1957 228.563 54.573C227.65 54.9502 226.82 55.5037 226.121 56.2017C225.423 56.8998 224.868 57.7287 224.49 58.6411C224.112 59.5535 223.917 60.5316 223.917 61.5193C223.917 65.6778 231.441 73.4124 231.441 73.4124C231.441 73.4124 238.957 65.6778 238.957 61.5193C238.957 59.5259 238.166 57.6141 236.756 56.2046C235.346 54.7951 233.435 54.0032 231.441 54.0032ZM231.441 64.5209C230.94 64.5209 230.449 64.3723 230.032 64.0938C229.614 63.8154 229.289 63.4196 229.096 62.9563C228.903 62.4931 228.852 61.9831 228.949 61.4907C229.045 60.9984 229.286 60.5457 229.639 60.1898C229.993 59.8339 230.444 59.5907 230.936 59.4908C231.428 59.391 231.938 59.439 232.402 59.6288C232.867 59.8186 233.265 60.1417 233.546 60.5573C233.827 60.9729 233.979 61.4625 233.982 61.9643C233.982 62.638 233.714 63.2842 233.238 63.7606C232.761 64.237 232.115 64.5047 231.441 64.5047V64.5209Z" fill="#263238" stroke="#263238" stroke-linecap="round" stroke-linejoin="round"/>
<path d="M297.695 244.069C289.404 245.105 281.017 245.105 272.726 244.069C264.353 243.19 258.932 236.356 260.429 229.972C260.555 229.48 260.607 229.229 260.722 228.727C262.229 222.343 268.717 218.492 275.321 219.183C281.889 219.999 288.532 219.999 295.1 219.183C301.703 218.492 308.192 222.322 309.688 228.727C309.814 229.229 309.866 229.48 309.981 229.972C311.488 236.314 306.036 243.19 297.695 244.069Z" fill="#B4ABFF"/>
<path d="M288.108 241.011L287.167 263.971H290.934L291.876 241.011H288.108Z" fill="#263238"/>
<path d="M273.963 263.971H277.73L278.672 241.011H274.905L273.963 263.971Z" fill="#263238"/>
<g opacity="0.6">
<path opacity="0.6" d="M288.106 241.014L287.165 263.974H290.932L291.874 241.014H288.106Z" fill="white"/>
<path opacity="0.6" d="M273.957 263.974H277.725L278.666 241.014H274.899L273.957 263.974Z" fill="white"/>
</g>
<path d="M288.804 270.975H245.865L242.098 348.396H245.195L250.847 277.16H264.305L266.136 348.396H268.533L270.364 277.16H283.822L289.473 348.396H292.571L288.804 270.975Z" fill="#263238"/>
<path opacity="0.6" d="M288.804 270.975H245.865L242.098 348.396H245.195L250.847 277.16H264.305L266.136 348.396H268.533L270.364 277.16H283.822L289.473 348.396H292.571L288.804 270.975Z" fill="white"/>
<path opacity="0.2" d="M288.81 270.975H245.872L245.568 277.16H250.853H264.311H270.371H283.829H289.114L288.81 270.975Z" fill="black"/>
<path d="M295.862 244.069C287.568 245.105 279.177 245.105 270.882 244.069C262.51 243.19 257.1 236.356 258.596 229.972C258.711 229.48 258.774 229.229 258.889 228.727C260.386 222.343 266.874 218.492 273.477 219.183C280.045 219.999 286.689 219.999 293.257 219.183C299.871 218.492 306.359 222.322 307.855 228.727C307.971 229.229 308.033 229.48 308.148 229.972C309.645 236.314 304.234 243.19 295.862 244.069Z" fill="#B4ABFF"/>
<g opacity="0.5">
<path opacity="0.5" d="M295.858 244.068C287.564 245.104 279.173 245.104 270.878 244.068C262.506 243.189 257.096 236.355 258.592 229.971C258.707 229.48 258.77 229.228 258.885 228.726C260.382 222.342 266.87 218.491 273.474 219.182C280.041 219.998 286.685 219.998 293.253 219.182C299.867 218.491 306.355 222.321 307.851 228.726C307.967 229.228 308.029 229.48 308.145 229.971C309.641 236.313 304.231 243.189 295.858 244.068Z" fill="white"/>
</g>
<g opacity="0.7">
<path opacity="0.7" d="M294.819 231.28C294.819 231.601 294.723 231.914 294.545 232.181C294.367 232.448 294.114 232.656 293.817 232.779C293.521 232.901 293.195 232.934 292.88 232.871C292.565 232.808 292.276 232.654 292.049 232.427C291.823 232.2 291.668 231.911 291.606 231.597C291.543 231.282 291.575 230.956 291.698 230.659C291.821 230.363 292.029 230.11 292.295 229.931C292.562 229.753 292.876 229.658 293.196 229.658C293.627 229.658 294.039 229.829 294.343 230.133C294.648 230.437 294.819 230.85 294.819 231.28Z" fill="white"/>
<path opacity="0.7" d="M275.233 231.28C275.235 231.604 275.141 231.921 274.963 232.191C274.784 232.461 274.529 232.672 274.23 232.797C273.932 232.922 273.603 232.955 273.285 232.892C272.967 232.83 272.675 232.674 272.446 232.445C272.217 232.216 272.062 231.924 271.999 231.606C271.936 231.289 271.97 230.96 272.095 230.661C272.219 230.362 272.43 230.107 272.7 229.929C272.97 229.75 273.287 229.656 273.611 229.658C273.824 229.658 274.035 229.7 274.232 229.781C274.429 229.863 274.608 229.982 274.758 230.133C274.909 230.284 275.028 230.463 275.11 230.659C275.191 230.856 275.233 231.067 275.233 231.28Z" fill="white"/>
</g>
<path d="M294.386 272.353H240.291C239.613 272.355 238.942 272.222 238.315 271.963C237.689 271.705 237.119 271.325 236.64 270.845C236.161 270.366 235.781 269.797 235.522 269.17C235.263 268.544 235.131 267.872 235.132 267.194C235.132 265.826 235.676 264.513 236.643 263.546C237.611 262.578 238.923 262.035 240.291 262.035H294.386C295.754 262.035 297.066 262.578 298.034 263.546C299.001 264.513 299.545 265.826 299.545 267.194C299.546 267.872 299.414 268.544 299.155 269.17C298.896 269.797 298.516 270.366 298.037 270.845C297.557 271.325 296.988 271.705 296.362 271.963C295.735 272.222 295.063 272.355 294.386 272.353Z" fill="#B4ABFF"/>
<path opacity="0.5" d="M294.386 272.353H240.291C239.613 272.355 238.942 272.222 238.315 271.963C237.689 271.705 237.119 271.325 236.64 270.845C236.161 270.366 235.781 269.797 235.522 269.17C235.263 268.544 235.131 267.872 235.132 267.194C235.132 265.826 235.676 264.513 236.643 263.546C237.611 262.578 238.923 262.035 240.291 262.035H294.386C295.754 262.035 297.066 262.578 298.034 263.546C299.001 264.513 299.545 265.826 299.545 267.194C299.546 267.872 299.414 268.544 299.155 269.17C298.896 269.797 298.516 270.366 298.037 270.845C297.557 271.325 296.988 271.705 296.362 271.963C295.735 272.222 295.063 272.355 294.386 272.353Z" fill="white"/>
<path d="M227.203 162.408C227.203 162.408 214.278 152.393 225.842 142.524C225.842 142.524 238.683 127.999 246.668 138.6C248.059 140.442 254.119 138.516 255.04 145.925C255.898 152.686 260.607 149.065 260.136 156.673C259.739 163.14 264.615 161.592 264.532 165.621C264.427 170.853 251.973 168.289 245.935 171.586C239.185 175.28 233.314 181.632 231.87 174.725C231.007 170.389 229.43 166.227 227.203 162.408Z" fill="#263238"/>
<path d="M240.39 198.514C240.39 198.514 239.981 215.132 234.058 219.025C228.135 222.918 212.427 197.446 212.427 197.446L211.485 184.501L218.078 182.219L220.746 192.025L218.392 196.818C218.392 196.818 227.706 209.533 228.93 208.121C230.155 206.708 231.023 195.646 231.023 195.646L240.39 198.514Z" fill="#FF8B7B"/>
<path d="M234.87 179.39C229.522 182.875 230.223 191.006 228.591 200.645L241.452 202.309C241.452 202.309 244.404 173.184 234.87 179.39Z" fill="#B4ABFF"/>
<path opacity="0.1" d="M234.009 184.103C234.009 184.103 230.043 191.795 234.009 206.153C235.071 209.63 235.773 213.207 236.102 216.828C238.677 212.966 239.692 206.279 240.09 202.177L241.377 202.344C241.377 202.344 242.476 191.68 241.23 184.637L237.421 182.387L234.009 184.103Z" fill="black"/>
<path d="M193.766 271.132L198.967 327.989L205.957 328.805L209.557 272.105L193.766 271.132Z" fill="#FF8B7B"/>
<path opacity="0.1" d="M193.766 271.132L198.967 327.989L205.957 328.805L209.557 272.105L193.766 271.132Z" fill="black"/>
<path d="M198.935 327.16L205.653 324.984C205.795 324.938 205.949 324.941 206.089 324.992C206.229 325.043 206.349 325.14 206.428 325.266L209.892 331.127C209.971 331.248 210.025 331.384 210.049 331.527C210.074 331.671 210.068 331.817 210.033 331.958C209.997 332.099 209.933 332.23 209.844 332.345C209.755 332.46 209.643 332.554 209.515 332.623C209.45 332.665 209.38 332.697 209.306 332.717C206.501 333.586 203.958 334.245 200.483 335.386C196.371 336.736 197.574 336.883 192.771 338.526C189.872 339.52 188.26 336.433 189.432 335.815C194.853 333.262 195.921 331.001 197.438 328.27C197.781 327.726 198.315 327.33 198.935 327.16Z" fill="#263238"/>
<path d="M211.859 275.494L204.376 337.311L209.881 338.724C217.486 320.187 223.29 300.961 227.211 281.312L211.859 275.494Z" fill="#FF8B7B"/>
<path d="M204.357 336.277L211.117 338.37C211.261 338.415 211.385 338.506 211.47 338.629C211.556 338.752 211.597 338.901 211.588 339.051L211.107 345.78C211.108 345.927 211.077 346.074 211.018 346.209C210.958 346.344 210.871 346.465 210.761 346.564C210.651 346.662 210.522 346.737 210.381 346.782C210.241 346.827 210.092 346.843 209.945 346.826C209.869 346.836 209.791 346.836 209.715 346.826C206.91 345.926 204.482 345.026 200.945 343.98C196.759 342.745 197.701 343.551 192.814 342.159C189.873 341.322 190.334 337.826 191.621 338.036C197.534 339.03 199.689 337.774 202.494 336.393C203.081 336.133 203.742 336.092 204.357 336.277Z" fill="#263238"/>
<path d="M278.403 228.508C278.613 230.025 279.047 231.503 279.69 232.893C284.357 243.745 291.202 270.567 232.137 264.738L228.39 284.8L192.359 274.23C192.359 274.23 190.914 246.361 197.047 240.972C204.603 234.337 244.6 234.599 244.6 234.599L244.391 229.795L278.403 228.508Z" fill="#B4ABFF"/>
<path opacity="0.1" d="M211.612 247.126C204.475 252.254 203.45 266.089 203.994 277.642L209.488 279.254C209.394 274.251 209.488 261.536 212.628 255.184C216.615 247.105 228.001 239.078 242.506 237.278C242.495 237.226 224.704 237.707 211.612 247.126Z" fill="black"/>
<path d="M256.173 230.843C262.295 231.073 281.53 232.747 280.473 227.703C278.745 220.024 277.556 212.232 276.915 204.387C275.921 190.364 276.779 176.34 272.185 171.725C267.392 166.922 238.519 173.159 234.856 180.307C230.565 188.679 234.856 198.097 238.288 211.011C240.329 218.735 241.669 225.924 242.945 229.848C243.971 233.051 252.866 230.728 256.173 230.843Z" fill="#263238"/>
<path opacity="0.1" d="M279.694 232.893C279.05 231.503 278.617 230.025 278.406 228.508L244.395 229.795L244.594 234.368C246.373 234.85 249.408 235.195 254.18 234.368C262.123 232.935 271.311 236.723 280.112 233.918L279.694 232.893Z" fill="black"/>
<path opacity="0.6" d="M258.187 223.077C258.187 223.077 272.598 220.9 278.605 218.053C277.945 214.108 277.286 209.357 276.941 204.449C276.177 193.764 276.491 183.079 274.649 176.559L264.665 178.558C264.665 178.558 263.88 185.549 273.77 209.095L270.745 216.128L258.187 223.077Z" fill="black"/>
<path opacity="0.1" d="M268.38 262.797C246.058 263.948 233.134 258.234 233.134 258.234L232.14 264.733C249.145 266.397 260.678 265.372 268.38 262.797Z" fill="black"/>
<path d="M270.188 191.554C270.188 191.554 275.714 204.279 274.772 206.152C273.83 208.026 257.588 218.868 257.588 218.868C257.588 218.868 247.908 212.275 245.333 215.1C243.634 217.006 242.1 219.054 240.75 221.222L242.843 222.164L248.128 220.5C248.128 220.5 255.139 224.927 258.195 223.075C258.195 223.075 283.311 214.389 283.939 207.806C284.567 201.223 278.623 186.876 278.623 186.876L270.188 191.554Z" fill="#FF8B7B"/>
<path d="M268.65 170.381C266.003 170.497 258.374 173.709 270.492 194.451L281.449 189.156C281.449 189.156 275.976 170.015 268.65 170.381Z" fill="#B4ABFF"/>
<path d="M245.2 159.614C246.77 164.239 249.449 170.55 253.96 171.659C253.96 171.659 256.241 176.243 247.095 187.577C239.361 183.935 240.993 175.835 240.993 175.835C242.626 174.788 243.421 173.428 241.129 170.979L245.2 159.614Z" fill="#FF8B7B"/>
<path opacity="0.1" d="M243.413 164.592L241.131 170.975C241.831 171.621 242.32 172.464 242.534 173.393C246.971 171.792 246.72 163.66 246.72 163.66L243.413 164.592Z" fill="black"/>
<path d="M246.536 149.36C248.629 157.251 249.613 160.537 246.996 165.78C243.061 173.671 232.91 174.445 228.546 167.329C224.632 160.914 221.932 149.036 228.546 143.542C229.989 142.31 231.723 141.468 233.583 141.096C235.443 140.725 237.368 140.836 239.173 141.42C240.978 142.003 242.603 143.039 243.894 144.43C245.185 145.82 246.098 147.517 246.546 149.36H246.536Z" fill="#FF8B7B"/>
<path d="M227.426 159.762C227.677 160.38 227.562 161.007 227.175 161.175C226.787 161.342 226.233 160.987 225.971 160.38C225.71 159.773 225.835 159.134 226.233 158.967C226.63 158.799 227.164 159.155 227.426 159.762Z" fill="#263238"/>
<path d="M230.03 159.913C230.074 161.538 229.894 163.162 229.497 164.738C229.903 164.825 230.323 164.824 230.729 164.736C231.135 164.647 231.518 164.473 231.851 164.225L230.03 159.913Z" fill="#FF5652"/>
<path d="M236.216 165.248C235.941 165.425 235.651 165.575 235.348 165.698C235.325 165.708 235.301 165.714 235.276 165.715C235.251 165.716 235.226 165.712 235.202 165.703C235.179 165.695 235.158 165.681 235.14 165.664C235.121 165.647 235.107 165.626 235.097 165.604C235.087 165.58 235.082 165.554 235.082 165.528C235.083 165.502 235.088 165.477 235.099 165.453C235.11 165.429 235.126 165.408 235.145 165.391C235.164 165.374 235.187 165.361 235.212 165.353C235.978 165.049 236.662 164.568 237.208 163.95C237.754 163.331 238.145 162.593 238.351 161.794C238.361 161.743 238.391 161.698 238.434 161.669C238.477 161.639 238.53 161.628 238.581 161.637C238.606 161.641 238.63 161.65 238.652 161.663C238.673 161.676 238.692 161.694 238.706 161.714C238.721 161.735 238.731 161.758 238.737 161.782C238.742 161.807 238.743 161.832 238.738 161.857C238.566 162.562 238.255 163.226 237.821 163.808C237.388 164.391 236.842 164.88 236.216 165.248Z" fill="#263238"/>
<path d="M227.907 145.561C227.966 146.88 228.477 148.138 229.353 149.125C230.229 150.112 231.418 150.768 232.721 150.982C237.482 151.924 237.461 157.01 240.842 157.136C244.222 157.261 243.196 161.102 245.875 160.401C248.554 159.7 247.11 155.817 248.554 154.331C250.595 152.238 246.66 143.133 241.878 141.25C237.095 139.366 226.965 139.439 227.907 145.561Z" fill="#263238"/>
<path d="M228.555 144.548C228.555 144.548 224.798 147.813 225.604 151.706C226.41 155.599 223.605 156.238 224.558 159.963C225.51 163.689 228.273 164.149 228.566 167.289C228.859 170.428 231.873 171.192 230.659 172.919C229.445 174.646 227.279 170.721 227.122 167.686C226.965 164.652 223.27 164.484 222.799 160.476C222.329 156.468 224.453 154.584 223.846 151.057C223.239 147.531 222.799 142.497 229.508 142.811C236.216 143.125 228.555 144.548 228.555 144.548Z" fill="#263238"/>
<path d="M215.275 184.798C215.254 185.414 215.355 186.027 215.572 186.604C215.788 187.181 216.116 187.71 216.537 188.16C216.958 188.61 217.463 188.972 218.024 189.227C218.585 189.481 219.191 189.623 219.807 189.643H220.048C220.498 191.736 222.35 191.935 224.558 191.935H225.51C228.064 191.935 230.125 191.213 230.125 188.659V180.538C230.125 180.191 229.988 179.857 229.743 179.61C229.498 179.363 229.165 179.223 228.817 179.22H221.251C220.903 179.223 220.57 179.363 220.325 179.61C220.08 179.857 219.943 180.191 219.943 180.538V181.062H219.807C217.034 181.041 215.275 182.422 215.275 184.798ZM216.95 184.986C216.95 183.437 218.07 182.537 219.901 182.537V188.178C219.099 188.145 218.342 187.797 217.795 187.209C217.248 186.621 216.956 185.841 216.981 185.038L216.95 184.986Z" fill="#B4ABFF"/>
<path opacity="0.2" d="M215.275 184.798C215.254 185.414 215.355 186.027 215.572 186.604C215.788 187.181 216.116 187.71 216.537 188.16C216.958 188.61 217.463 188.972 218.024 189.227C218.585 189.481 219.191 189.623 219.807 189.643H220.048C220.498 191.736 222.35 191.935 224.558 191.935H225.51C228.064 191.935 230.125 191.213 230.125 188.659V180.538C230.125 180.191 229.988 179.857 229.743 179.61C229.498 179.363 229.165 179.223 228.817 179.22H221.251C220.903 179.223 220.57 179.363 220.325 179.61C220.08 179.857 219.943 180.191 219.943 180.538V181.062H219.807C217.034 181.041 215.275 182.422 215.275 184.798ZM216.95 184.986C216.95 183.437 218.07 182.537 219.901 182.537V188.178C219.099 188.145 218.342 187.797 217.795 187.209C217.248 186.621 216.956 185.841 216.981 185.038L216.95 184.986Z" fill="black"/>
<path opacity="0.1" d="M219.931 188.173V188.675C219.933 189.006 219.968 189.335 220.035 189.659H219.794C219.405 189.661 219.018 189.608 218.643 189.502V187.891C219.046 188.079 219.486 188.176 219.931 188.173Z" fill="black"/>
<path opacity="0.1" d="M219.849 181.034H219.985V182.52C219.564 182.518 219.145 182.574 218.74 182.687V181.117C219.106 181.059 219.477 181.031 219.849 181.034Z" fill="black"/>
<path opacity="0.1" d="M219.931 188.173V188.675C219.933 189.006 219.968 189.335 220.035 189.659H219.794C219.405 189.661 219.018 189.608 218.643 189.502V187.891C219.046 188.079 219.486 188.176 219.931 188.173Z" fill="black"/>
<path opacity="0.1" d="M219.849 181.034H219.985V182.52C219.564 182.518 219.145 182.574 218.74 182.687V181.117C219.106 181.059 219.477 181.031 219.849 181.034Z" fill="black"/>
<path d="M212.384 197.446L211.442 184.501L218.035 182.219L220.704 192.036L218.349 196.818L212.384 197.446Z" fill="#FF8B7B"/>
<path d="M155.838 199.571C155.838 199.571 149.863 206.383 147.916 198.43C145.97 190.476 144.117 183.549 144.117 183.549C144.117 183.549 176.434 192.842 155.838 199.571Z" fill="#B4ABFF"/>
<path opacity="0.3" d="M155.838 199.571C155.838 199.571 149.863 206.383 147.916 198.43C145.97 190.476 144.117 183.549 144.117 183.549C144.117 183.549 176.434 192.842 155.838 199.571Z" fill="black"/>
<path d="M156.682 209.86C156.682 209.86 158.775 193.858 149.995 188.553C149.995 188.553 157.541 195.585 155.228 209.661L156.682 209.86Z" fill="#B4ABFF"/>
<path opacity="0.5" d="M156.682 209.86C156.682 209.86 158.775 193.858 149.995 188.553C149.995 188.553 157.541 195.585 155.228 209.661L156.682 209.86Z" fill="white"/>
<path d="M160.379 200.386C160.379 200.386 153.472 193.678 161.363 189.921C169.254 186.164 177.731 193.406 177.731 193.406C177.731 193.406 160.924 212.159 160.379 200.386Z" fill="#B4ABFF"/>
<path d="M157.582 209.105C157.582 209.105 157.718 193.92 169.229 193.407C169.229 193.407 159.57 195.416 158.628 209.105H157.582Z" fill="#B4ABFF"/>
<path opacity="0.5" d="M157.582 209.105C157.582 209.105 157.718 193.92 169.229 193.407C169.229 193.407 159.57 195.416 158.628 209.105H157.582Z" fill="white"/>
<path d="M151.325 202.401C151.325 202.401 156.422 196.122 149.588 194.615C142.755 193.108 136.863 202.401 136.863 202.401C136.863 202.401 154.005 209.612 151.325 202.401Z" fill="#B4ABFF"/>
<path opacity="0.2" d="M151.325 202.401C151.325 202.401 156.422 196.122 149.588 194.615C142.755 193.108 136.863 202.401 136.863 202.401C136.863 202.401 154.005 209.612 151.325 202.401Z" fill="white"/>
<path d="M154.876 209.107C154.876 209.107 152.05 192.739 140.633 200.274C140.633 200.274 150.522 195.45 153.463 209.107H154.876Z" fill="#B4ABFF"/>
<path opacity="0.5" d="M154.876 209.107C154.876 209.107 152.05 192.739 140.633 200.274C140.633 200.274 150.522 195.45 153.463 209.107H154.876Z" fill="white"/>
<path d="M166.176 208.016H146.889L147.37 211.93H148.626L150.185 224.739H162.879L164.449 211.93H165.694L166.176 208.016Z" fill="#263238"/>
<path opacity="0.4" d="M164.114 214.676L164.428 212.102H148.647L148.961 214.676H164.114Z" fill="black"/>
<path d="M292.649 234.067H289.478H245.19H242.019L231.658 348.399H234.829H236.043H239.214L251.626 240.189H283.042L295.454 348.399H298.624H299.838H303.009L292.649 234.067Z" fill="#263238"/>
<path opacity="0.2" d="M292.649 234.067H289.478H245.19H242.019L231.658 348.399H234.829H236.043H239.214L251.626 240.189H283.042L295.454 348.399H298.624H299.838H303.009L292.649 234.067Z" fill="white"/>
<path opacity="0.1" d="M251.626 240.189H286.202L298.624 348.399H303.009L292.649 234.067H245.189L234.829 348.399H239.214L251.626 240.189Z" fill="white"/>
<path d="M172.772 234.067H169.602H125.313H122.142L111.782 348.399H114.953H116.167H119.338L131.749 240.189H163.165L175.577 348.399H178.748H179.962H183.133L172.772 234.067Z" fill="#263238"/>
<path opacity="0.2" d="M172.772 234.067H169.602H125.313H122.142L111.782 348.399H114.953H116.167H119.338L131.749 240.189H163.165L175.577 348.399H178.748H179.962H183.133L172.772 234.067Z" fill="white"/>
<path opacity="0.1" d="M131.749 240.189H166.326L178.748 348.399H183.133L172.772 234.067H125.313L114.953 348.399H119.337L131.749 240.189Z" fill="white"/>
<path d="M306.179 225.127H108.012V229.784H306.179V225.127Z" fill="#B4ABFF"/>
<path opacity="0.5" d="M306.179 225.127H108.012V229.784H306.179V225.127Z" fill="white"/>
<path opacity="0.2" d="M306.18 225.127H233.877V229.784H306.18V225.127Z" fill="black"/>
<path d="M302.414 229.529H111.782V234.186H302.414V229.529Z" fill="#B4ABFF"/>
<path opacity="0.2" d="M302.414 229.529H111.782V234.186H302.414V229.529Z" fill="white"/>
<path opacity="0.2" d="M302.413 229.529H233.877V234.186H302.413V229.529Z" fill="black"/>
<path d="M248.053 222.197H187.962C187.573 222.197 187.201 222.351 186.926 222.626C186.651 222.901 186.497 223.274 186.497 223.662C186.497 224.051 186.651 224.423 186.926 224.698C187.201 224.973 187.573 225.127 187.962 225.127H248.053C248.441 225.127 248.814 224.973 249.089 224.698C249.363 224.423 249.518 224.051 249.518 223.662C249.518 223.274 249.363 222.901 249.089 222.626C248.814 222.351 248.441 222.197 248.053 222.197Z" fill="#1A2E35"/>
<path opacity="0.3" d="M248.053 222.197H187.962C187.573 222.197 187.201 222.351 186.926 222.626C186.651 222.901 186.497 223.274 186.497 223.662C186.497 224.051 186.651 224.423 186.926 224.698C187.201 224.973 187.573 225.127 187.962 225.127H248.053C248.441 225.127 248.814 224.973 249.089 224.698C249.363 224.423 249.518 224.051 249.518 223.662C249.518 223.274 249.363 222.901 249.089 222.626C248.814 222.351 248.441 222.197 248.053 222.197Z" fill="white"/>
<path d="M188.745 224.225H213.631C213.741 224.225 213.85 224.198 213.947 224.147C214.045 224.096 214.129 224.023 214.193 223.932C214.257 223.842 214.298 223.738 214.313 223.629C214.328 223.52 214.316 223.408 214.28 223.304L204.254 194.661C204.119 194.275 203.867 193.941 203.533 193.704C203.199 193.468 202.8 193.342 202.391 193.343H177.516C177.404 193.341 177.295 193.367 177.195 193.417C177.096 193.467 177.011 193.541 176.946 193.631C176.881 193.722 176.839 193.826 176.824 193.936C176.808 194.047 176.819 194.159 176.856 194.264L186.892 222.907C187.024 223.293 187.274 223.628 187.606 223.865C187.938 224.101 188.337 224.227 188.745 224.225Z" fill="#1A2E35"/>
<path opacity="0.5" d="M188.745 224.225H213.631C213.741 224.225 213.85 224.198 213.947 224.147C214.045 224.096 214.129 224.023 214.193 223.932C214.257 223.842 214.298 223.738 214.313 223.629C214.328 223.52 214.316 223.408 214.28 223.304L204.254 194.661C204.119 194.275 203.867 193.941 203.533 193.704C203.199 193.468 202.8 193.342 202.391 193.343H177.516C177.404 193.341 177.295 193.367 177.195 193.417C177.096 193.467 177.011 193.541 176.946 193.631C176.881 193.722 176.839 193.826 176.824 193.936C176.808 194.047 176.819 194.159 176.856 194.264L186.892 222.907C187.024 223.293 187.274 223.628 187.606 223.865C187.938 224.101 188.337 224.227 188.745 224.225Z" fill="white"/>
<path d="M187.874 224.225H212.75C212.861 224.227 212.971 224.201 213.07 224.151C213.169 224.1 213.255 224.027 213.32 223.937C213.384 223.846 213.426 223.742 213.442 223.631C213.457 223.521 213.446 223.409 213.409 223.304L203.373 194.661C203.242 194.275 202.992 193.94 202.66 193.703C202.327 193.467 201.929 193.341 201.521 193.343H176.635C176.524 193.343 176.416 193.37 176.318 193.421C176.22 193.472 176.136 193.545 176.072 193.636C176.009 193.726 175.968 193.83 175.953 193.939C175.938 194.048 175.949 194.16 175.986 194.264L185.98 222.907C186.117 223.298 186.373 223.636 186.714 223.873C187.054 224.11 187.46 224.233 187.874 224.225Z" fill="#1A2E35"/>
<path opacity="0.7" d="M187.874 224.225H212.75C212.861 224.227 212.971 224.201 213.07 224.151C213.169 224.1 213.255 224.027 213.32 223.937C213.384 223.846 213.426 223.742 213.442 223.631C213.457 223.521 213.446 223.409 213.409 223.304L203.373 194.661C203.242 194.275 202.992 193.94 202.66 193.703C202.327 193.467 201.929 193.341 201.521 193.343H176.635C176.524 193.343 176.416 193.37 176.318 193.421C176.22 193.472 176.136 193.545 176.072 193.636C176.009 193.726 175.968 193.83 175.953 193.939C175.938 194.048 175.949 194.16 175.986 194.264L185.98 222.907C186.117 223.298 186.373 223.636 186.714 223.873C187.054 224.11 187.46 224.233 187.874 224.225Z" fill="white"/>
<path d="M196.355 208.776C196.679 210.136 196.187 211.235 195.308 211.235C194.429 211.235 193.383 210.136 193.058 208.776C192.734 207.416 193.236 206.327 194.157 206.327C195.078 206.327 196.041 207.426 196.355 208.776Z" fill="white"/>
<path opacity="0.2" d="M215.975 225.127C215.586 225.127 215.213 224.973 214.939 224.698C214.664 224.423 214.51 224.051 214.51 223.662C214.51 223.274 214.664 222.901 214.939 222.626C215.213 222.351 215.586 222.197 215.975 222.197H248.04C248.428 222.197 248.801 222.351 249.076 222.626C249.351 222.901 249.505 223.274 249.505 223.662C249.505 224.051 249.351 224.423 249.076 224.698C248.801 224.973 248.428 225.127 248.04 225.127H215.975Z" fill="white"/>
<path d="M86.0372 10.9662V22.2702H84.3812V10.9662H80.7812V9.3822H89.6372V10.9662H86.0372ZM91.6617 22.2702H90.0057V13.4502H91.5897V14.8902H91.6617C91.8297 14.4222 92.1717 14.0262 92.6877 13.7022C93.2157 13.3662 93.7317 13.1982 94.2357 13.1982C94.7157 13.1982 95.1237 13.2702 95.4597 13.4142L94.9557 15.0162C94.7517 14.9322 94.4277 14.8902 93.9837 14.8902C93.3597 14.8902 92.8137 15.1422 92.3457 15.6462C91.8897 16.1502 91.6617 16.7382 91.6617 17.4102V22.2702ZM104.285 22.2702H102.701V21.0462H102.629C102.377 21.4782 101.987 21.8382 101.459 22.1262C100.943 22.4142 100.403 22.5582 99.8387 22.5582C98.7587 22.5582 97.9247 22.2522 97.3367 21.6402C96.7607 21.0162 96.4727 20.1342 96.4727 18.9942V13.4502H98.1287V18.8862C98.1647 20.3262 98.8907 21.0462 100.307 21.0462C100.967 21.0462 101.519 20.7822 101.963 20.2542C102.407 19.7142 102.629 19.0722 102.629 18.3282V13.4502H104.285V22.2702ZM110.245 22.5582C108.937 22.5582 107.851 22.1142 106.987 21.2262C106.135 20.3142 105.709 19.1922 105.709 17.8602C105.709 16.5042 106.135 15.3822 106.987 14.4942C107.851 13.6062 108.937 13.1622 110.245 13.1622C111.145 13.1622 111.931 13.3902 112.603 13.8462C113.275 14.2902 113.779 14.9082 114.115 15.7002L112.603 16.3302C112.135 15.2262 111.313 14.6742 110.137 14.6742C109.381 14.6742 108.727 14.9802 108.175 15.5922C107.635 16.2042 107.365 16.9602 107.365 17.8602C107.365 18.7602 107.635 19.5162 108.175 20.1282C108.727 20.7402 109.381 21.0462 110.137 21.0462C111.349 21.0462 112.201 20.4942 112.693 19.3902L114.169 20.0202C113.845 20.8122 113.335 21.4362 112.639 21.8922C111.955 22.3362 111.157 22.5582 110.245 22.5582ZM123.375 22.2702H121.377L118.623 18.1122L117.273 19.4442V22.2702H115.617V9.3822H117.273V17.3202L121.089 13.4502H123.213V13.5222L119.775 16.9422L123.375 22.1982V22.2702ZM126.46 10.4082C126.46 10.7322 126.346 11.0082 126.118 11.2362C125.89 11.4642 125.614 11.5782 125.29 11.5782C124.966 11.5782 124.69 11.4642 124.462 11.2362C124.234 11.0082 124.12 10.7322 124.12 10.4082C124.12 10.0842 124.234 9.8082 124.462 9.5802C124.69 9.3522 124.966 9.2382 125.29 9.2382C125.614 9.2382 125.89 9.3522 126.118 9.5802C126.346 9.8082 126.46 10.0842 126.46 10.4082ZM126.118 13.4502V22.2702H124.462V13.4502H126.118ZM128.273 13.4502H129.857V14.6742H129.929C130.181 14.2422 130.565 13.8822 131.081 13.5942C131.609 13.3062 132.155 13.1622 132.719 13.1622C133.799 13.1622 134.627 13.4742 135.203 14.0982C135.791 14.7102 136.085 15.5862 136.085 16.7262V22.2702H134.429V16.8342C134.393 15.3942 133.667 14.6742 132.251 14.6742C131.591 14.6742 131.039 14.9442 130.595 15.4842C130.151 16.0122 129.929 16.6482 129.929 17.3922V22.2702H128.273V13.4502ZM141.901 21.0462C142.717 21.0462 143.383 20.7522 143.899 20.1642C144.439 19.5762 144.709 18.8082 144.709 17.8602C144.709 16.9362 144.439 16.1742 143.899 15.5742C143.371 14.9742 142.705 14.6742 141.901 14.6742C141.109 14.6742 140.443 14.9742 139.903 15.5742C139.363 16.1742 139.093 16.9362 139.093 17.8602C139.093 18.7962 139.363 19.5582 139.903 20.1462C140.443 20.7462 141.109 21.0462 141.901 21.0462ZM141.847 26.4462C141.355 26.4462 140.893 26.3802 140.461 26.2482C140.029 26.1282 139.633 25.9542 139.273 25.7262C138.925 25.4982 138.625 25.2282 138.373 24.9162C138.121 24.6042 137.929 24.2562 137.797 23.8722L139.363 23.2242C139.543 23.7402 139.855 24.1542 140.299 24.4662C140.743 24.7782 141.259 24.9342 141.847 24.9342C142.747 24.9342 143.449 24.6642 143.953 24.1242C144.457 23.5842 144.709 22.8402 144.709 21.8922V21.0462H144.637C144.325 21.5142 143.899 21.8862 143.359 22.1622C142.831 22.4262 142.255 22.5582 141.631 22.5582C140.479 22.5582 139.489 22.1082 138.661 21.2082C137.845 20.2842 137.437 19.1682 137.437 17.8602C137.437 16.5522 137.845 15.4422 138.661 14.5302C139.489 13.6182 140.479 13.1622 141.631 13.1622C142.255 13.1622 142.831 13.3002 143.359 13.5762C143.899 13.8402 144.325 14.2062 144.637 14.6742H144.709V13.4502H146.293V21.8922C146.293 23.3082 145.891 24.4182 145.087 25.2222C144.271 26.0382 143.191 26.4462 141.847 26.4462Z" fill="black"/>
</svg>
