<svg width="468" height="464" viewBox="0 0 468 464" fill="none" xmlns="http://www.w3.org/2000/svg">
<path d="M68.9397 427.705C160 475.319 307.647 475.319 398.707 427.705C489.768 380.09 489.768 302.997 398.707 255.425C307.647 207.853 160 207.81 68.9397 255.425C-22.1205 303.039 -22.1205 380.133 68.9397 427.705Z" fill="#F5F5F5"/>
<path d="M315.86 390.557C339.755 390.557 359.126 379.372 359.126 365.575C359.126 351.778 339.755 340.593 315.86 340.593C291.965 340.593 272.594 351.778 272.594 365.575C272.594 379.372 291.965 390.557 315.86 390.557Z" fill="#E0E0E0"/>
<path d="M394.921 347.439C416.058 347.439 433.193 337.548 433.193 325.346C433.193 313.144 416.058 303.253 394.921 303.253C373.784 303.253 356.65 313.144 356.65 325.346C356.65 337.548 373.784 347.439 394.921 347.439Z" fill="#E0E0E0"/>
<path d="M360.925 41.7919L367.696 45.6962C367.655 45.3983 367.633 45.0978 367.633 44.7969V42.8394C367.633 39.3476 370.088 37.9404 373.103 39.6651C374.411 40.4694 375.524 41.5535 376.362 42.8394C376.86 38.4483 380.298 36.8188 384.478 39.2312C386.859 40.7838 388.84 42.8758 390.261 45.3374C391.682 47.799 392.503 50.561 392.657 53.3992V56.3302C392.689 57.5033 392.454 58.6683 391.969 59.7372L397.588 62.975C398.475 63.5554 399.212 64.3371 399.74 65.2564C400.268 66.1758 400.571 67.2068 400.625 68.2655C400.625 70.2019 399.26 70.9849 397.588 70.0114L360.925 48.8494C360.039 48.2685 359.303 47.4864 358.777 46.567C358.251 45.6476 357.95 44.6168 357.898 43.5589C357.898 41.6014 359.253 40.8184 360.925 41.7919Z" fill="#EBEBEB"/>
<path d="M331.976 61.5054L337.087 64.4469C337.053 64.2227 337.036 63.9965 337.034 63.7698V62.299C337.034 59.6643 338.886 58.5957 341.171 59.9077C342.148 60.5156 342.984 61.3234 343.626 62.2778C343.996 58.966 346.599 57.7386 349.752 59.5585C351.55 60.7307 353.045 62.3103 354.117 64.1691C355.189 66.0279 355.807 68.1133 355.921 70.2559V72.4674C355.946 73.3493 355.769 74.2252 355.403 75.028L359.635 77.4722C360.3 77.9084 360.853 78.4947 361.25 79.1839C361.647 79.8731 361.877 80.6459 361.921 81.44C361.921 82.9002 360.862 83.4928 359.635 82.7627L331.966 66.7854C331.299 66.3533 330.744 65.7694 330.347 65.0815C329.95 64.3936 329.721 63.6214 329.68 62.8281C329.691 61.3679 330.707 60.7753 331.976 61.5054Z" fill="#EBEBEB"/>
<path d="M50.2633 377.149C49.5967 377.508 37.1322 381.053 32.5189 374.948C27.9056 368.843 35.5662 359.351 31.228 355.849C26.8898 352.347 14.7746 355.849 11.8542 348.495C8.93384 341.142 17.5891 337.914 12.7218 330.508C9.65335 325.831 1.08273 323.249 1.47422 318.869C2.0456 312.52 13.7588 310.785 24.0012 317.609C34.2436 324.434 39.0051 318.837 42.264 318.382C45.523 317.927 52.517 318.932 52.2842 330.338C52.0514 341.745 50.2633 377.149 50.2633 377.149Z" fill="#455A64"/>
<path d="M51.0895 360.929C50.9286 360.928 50.7732 360.87 50.651 360.766C50.5289 360.661 50.448 360.516 50.4229 360.357C46.8571 338.709 21.6954 321.091 8.60671 317.314C8.43497 317.26 8.29068 317.142 8.20394 316.984C8.1172 316.826 8.0947 316.641 8.14114 316.467C8.16657 316.382 8.2087 316.302 8.26508 316.233C8.32147 316.163 8.39101 316.106 8.46969 316.064C8.54837 316.021 8.63464 315.995 8.72353 315.986C8.81242 315.977 8.90217 315.986 8.98762 316.012C22.362 319.874 48.1374 337.926 51.7666 360.135C51.7943 360.313 51.751 360.495 51.6462 360.641C51.5413 360.788 51.3832 360.887 51.2058 360.918L51.0895 360.929Z" fill="white"/>
<path d="M21.4196 342.802C21.3026 342.803 21.1874 342.773 21.0854 342.715C20.9834 342.658 20.898 342.575 20.8377 342.474C20.7475 342.319 20.7213 342.135 20.7648 341.962C20.8083 341.788 20.918 341.638 21.0705 341.543C21.4831 341.3 31.1647 335.639 40.6982 338.284C40.7846 338.308 40.8655 338.348 40.9363 338.402C41.007 338.457 41.0663 338.525 41.1105 338.603C41.1548 338.681 41.1832 338.766 41.1942 338.855C41.2052 338.944 41.1984 339.034 41.1744 339.12C41.1524 339.207 41.1131 339.289 41.0587 339.361C41.0043 339.432 40.936 339.492 40.8579 339.537C40.7799 339.581 40.6936 339.609 40.6043 339.62C40.5151 339.63 40.4246 339.622 40.3385 339.596C31.3658 337.11 21.864 342.654 21.7688 342.707C21.6634 342.771 21.5426 342.803 21.4196 342.802Z" fill="white"/>
<path d="M414.904 319.675L411.624 318.13C411.624 318.13 410.566 306.29 411.624 298.386C413.74 283.668 424.014 270.981 433.167 269.489C444.954 267.574 442.859 278.419 436.119 283.107C425.379 290.619 417.02 301.973 414.904 319.675Z" fill="#9F92FF"/>
<g opacity="0.1">
<path opacity="0.1" d="M414.905 319.675L411.625 318.13C411.625 318.13 410.567 306.29 411.625 298.386C413.741 283.668 424.015 270.981 433.168 269.489C444.955 267.574 442.86 278.42 436.12 283.107C425.38 290.62 417.021 301.973 414.905 319.675Z" fill="black"/>
</g>
<path d="M413.656 314.956H413.741C413.889 314.928 414.021 314.842 414.106 314.717C414.191 314.592 414.224 314.438 414.196 314.29C411.91 302.196 421.867 279.774 435.188 273.405C435.329 273.339 435.437 273.22 435.49 273.074C435.542 272.928 435.535 272.767 435.469 272.627C435.403 272.487 435.284 272.378 435.138 272.326C434.992 272.273 434.831 272.281 434.691 272.347C420.936 278.907 410.715 301.973 413.064 314.48C413.087 314.618 413.16 314.743 413.269 314.831C413.378 314.919 413.516 314.963 413.656 314.956Z" fill="white"/>
<path d="M411.627 318.13C411.383 316.373 411.278 313.813 411.246 313.178C411.109 310.948 411.437 308.714 412.209 306.618C413.223 303.847 415.153 301.507 417.679 299.983C419.055 299.19 420.663 298.618 421.552 297.306C422.196 296.097 422.541 294.751 422.557 293.381C422.832 291.169 423.52 288.831 425.297 287.477C427.075 286.122 429.53 286.09 431.646 286.323C434.82 286.662 437.794 287.085 440.756 285.635C443.123 284.379 445.569 283.276 448.078 282.334C451.253 281.276 458.352 279.689 459.844 284.144C460.014 284.758 460.043 285.403 459.932 286.031C459.82 286.659 459.57 287.254 459.199 287.773C458.448 288.805 457.55 289.722 456.532 290.492L451.57 294.619C450.978 295.053 450.466 295.586 450.057 296.195C449.094 297.846 449.782 299.93 449.57 301.824C449.436 302.788 449.094 303.711 448.568 304.529C448.041 305.348 447.344 306.042 446.523 306.565C444.869 307.6 442.923 308.072 440.978 307.908C438.386 307.729 434.154 305.739 432.567 308.797C432.127 309.839 431.869 310.949 431.805 312.077C431.742 313.211 431.377 314.307 430.747 315.252C429.688 316.543 427.921 316.913 426.271 317.082C423.958 317.124 421.662 317.48 419.446 318.14C418.557 318.49 417.996 319.622 417.478 320.373C415.859 319.833 414.081 319.188 411.627 318.13Z" fill="#9F92FF"/>
<path d="M413.074 317.241C412.994 317.261 412.911 317.261 412.831 317.241C412.7 317.187 412.595 317.084 412.539 316.953C412.484 316.822 412.482 316.675 412.535 316.543C419.201 299.984 440.469 288.122 453.145 284.186C453.212 284.165 453.283 284.158 453.353 284.165C453.423 284.171 453.492 284.192 453.554 284.226C453.616 284.259 453.671 284.305 453.715 284.36C453.759 284.415 453.792 284.478 453.811 284.546C453.851 284.681 453.837 284.826 453.772 284.95C453.707 285.075 453.596 285.169 453.462 285.213C440.987 289.085 420.058 300.724 413.529 316.956C413.484 317.038 413.419 317.108 413.339 317.158C413.259 317.208 413.168 317.237 413.074 317.241Z" fill="white"/>
<path d="M262.259 287.654C262.37 289.713 262.965 291.716 263.997 293.502C265.028 295.287 266.466 296.804 268.195 297.928C269.199 298.589 270.416 298.846 271.602 298.648C271.411 298.846 271.194 299.017 270.956 299.156L272.385 298.341L272.459 298.288L272.67 298.15C272.766 298.081 272.854 298.003 272.935 297.918L273.094 297.759C273.094 297.706 273.189 297.653 273.231 297.59C273.428 297.314 273.592 297.015 273.718 296.701L273.824 296.415C273.828 296.366 273.828 296.316 273.824 296.267C273.85 296.184 273.871 296.099 273.887 296.013C273.997 295.527 274.051 295.03 274.046 294.532C273.934 292.476 273.34 290.475 272.31 288.691C271.281 286.908 269.845 285.393 268.121 284.268C267.324 283.765 266.407 283.484 265.465 283.453H265.094L264.756 283.517L264.555 283.57H264.428C264.343 283.592 264.262 283.624 264.184 283.665L263.962 283.781L262.724 284.49C262.925 284.388 263.138 284.313 263.359 284.268C262.564 285.21 262.169 286.425 262.259 287.654ZM272.025 298.51H272.131H272.025Z" fill="#9F92FF"/>
<path d="M139.087 355.922L147.457 370.461L148.874 369.635L270.958 299.155C271.196 299.017 271.413 298.846 271.604 298.647C272.37 297.713 272.749 296.52 272.662 295.314C272.547 293.256 271.95 291.254 270.919 289.469C269.888 287.684 268.452 286.167 266.726 285.04C265.926 284.544 265.01 284.266 264.07 284.236C263.817 284.232 263.564 284.261 263.319 284.321C263.098 284.366 262.884 284.441 262.684 284.543L262.578 284.596L139.087 355.922Z" fill="#EBEBEB"/>
<path d="M143.286 356.336C140.006 354.442 137.35 355.976 137.35 359.754C137.461 361.813 138.057 363.816 139.088 365.602C140.12 367.387 141.558 368.903 143.286 370.028C146.556 371.922 149.211 370.388 149.211 366.6C149.1 364.544 148.505 362.543 147.476 360.76C146.446 358.976 145.011 357.461 143.286 356.336Z" fill="#9F92FF"/>
<path d="M130.539 365.149C130.58 365.086 130.63 365.029 130.687 364.98L138.253 356.653L138.316 356.589L138.454 356.441L138.528 356.356C139.586 355.298 141.321 355.235 143.268 356.356C144.993 357.481 146.428 358.996 147.458 360.78C148.487 362.563 149.082 364.564 149.193 366.62C149.193 368.821 148.294 370.249 146.908 370.704H146.823C146.681 370.746 146.536 370.778 146.389 370.799H146.294L135.332 373.191C134.665 373.302 133.98 373.155 133.417 372.778C132.43 372.137 131.607 371.272 131.017 370.254C130.427 369.235 130.086 368.092 130.021 366.916C129.985 366.285 130.168 365.661 130.539 365.149Z" fill="#E0E0E0"/>
<path d="M227.511 311.144L227.712 311.027C227.941 310.95 228.184 310.928 228.423 310.963C228.662 310.998 228.89 311.089 229.087 311.228C229.702 311.627 230.215 312.166 230.583 312.8C230.95 313.434 231.163 314.147 231.203 314.879C231.222 315.114 231.187 315.351 231.101 315.571C231.015 315.791 230.88 315.988 230.706 316.148L230.442 316.297L140.323 368.323L134.398 364.895L227.511 311.144Z" fill="#455A64"/>
<path d="M148.684 363.478L140.315 368.313L134.39 364.885L145.722 358.335C147.057 359.824 148.066 361.576 148.684 363.478Z" fill="#37474F"/>
<path d="M127.553 369.096L134.399 361.509L134.579 361.308C135.341 360.546 136.568 360.483 137.965 361.308C139.194 362.098 140.218 363.167 140.953 364.429C141.689 365.691 142.115 367.109 142.198 368.567C142.198 370.111 141.573 371.117 140.6 371.445H140.536L140.261 371.508L130.167 373.73C129.798 373.776 129.424 373.694 129.109 373.497C128.554 373.133 128.092 372.644 127.762 372.069C127.431 371.493 127.24 370.848 127.204 370.186C127.172 369.79 127.298 369.399 127.553 369.096Z" fill="#9F92FF"/>
<path opacity="0.1" d="M127.553 369.096L134.399 361.509L134.579 361.308C135.341 360.546 136.568 360.483 137.965 361.308C139.194 362.098 140.218 363.167 140.953 364.429C141.689 365.691 142.115 367.109 142.198 368.567C142.198 370.111 141.573 371.117 140.6 371.445H140.536L140.261 371.508L130.167 373.73C129.798 373.776 129.424 373.694 129.109 373.497C128.554 373.133 128.092 372.644 127.762 372.069C127.431 371.493 127.24 370.848 127.204 370.186C127.172 369.79 127.298 369.399 127.553 369.096Z" fill="black"/>
<path d="M127.17 370.186C127.205 370.849 127.396 371.494 127.727 372.069C128.058 372.644 128.52 373.134 129.074 373.498C129.388 373.698 129.765 373.777 130.132 373.72L135.211 372.609C136.016 372.44 136.545 371.688 136.545 370.493C136.489 369.433 136.184 368.402 135.654 367.483C135.125 366.563 134.386 365.782 133.497 365.202C133.15 364.925 132.719 364.774 132.275 364.774C131.831 364.774 131.4 364.925 131.053 365.202L130.915 365.35L127.508 369.096C127.382 369.246 127.286 369.419 127.228 369.606C127.17 369.794 127.15 369.991 127.17 370.186Z" fill="#9F92FF"/>
<path opacity="0.1" d="M129.108 369.084C128.05 368.481 127.204 368.968 127.204 370.142C127.239 370.805 127.43 371.45 127.761 372.025C128.092 372.601 128.553 373.09 129.108 373.454C130.166 374.057 131.013 373.56 131.013 372.343C130.969 371.69 130.774 371.055 130.444 370.49C130.113 369.924 129.656 369.443 129.108 369.084Z" fill="black"/>
<path d="M249.912 298.182C250.151 298.071 250.416 298.026 250.678 298.052C250.941 298.078 251.192 298.174 251.404 298.331C252.017 298.727 252.528 299.262 252.896 299.892C253.264 300.523 253.477 301.231 253.52 301.96C253.55 302.22 253.508 302.483 253.4 302.722C253.292 302.96 253.122 303.165 252.907 303.314L230.686 316.117C230.86 315.957 230.995 315.76 231.082 315.54C231.168 315.32 231.203 315.083 231.184 314.848C231.143 314.115 230.931 313.403 230.563 312.769C230.195 312.134 229.683 311.596 229.068 311.197C228.87 311.058 228.643 310.967 228.404 310.932C228.165 310.897 227.921 310.919 227.692 310.996L249.912 298.182Z" fill="#FAFAFA"/>
<path d="M249.297 299.536C249.34 300.266 249.554 300.976 249.921 301.608C250.289 302.241 250.8 302.778 251.413 303.176C251.614 303.36 251.868 303.475 252.138 303.505C252.408 303.535 252.681 303.478 252.917 303.342C253.153 303.207 253.339 303 253.449 302.751C253.559 302.502 253.588 302.225 253.529 301.959C253.487 301.231 253.273 300.522 252.905 299.892C252.537 299.261 252.026 298.726 251.413 298.33C251.213 298.148 250.961 298.033 250.692 298.004C250.423 297.974 250.152 298.03 249.917 298.164C249.682 298.298 249.495 298.503 249.384 298.749C249.272 298.996 249.242 299.271 249.297 299.536Z" fill="#F5F5F5"/>
<path d="M253.967 290.616H254.041L254.126 290.563L262.876 285.516L263.088 285.4C263.681 285.169 264.323 285.09 264.955 285.169C265.587 285.248 266.189 285.484 266.707 285.855C268.252 286.87 269.537 288.236 270.456 289.841C271.375 291.446 271.903 293.245 271.997 295.092C272.068 295.759 271.959 296.432 271.682 297.042C271.405 297.652 270.969 298.177 270.42 298.563L261.564 303.673H261.511C260.91 303.925 260.254 304.02 259.606 303.948C258.958 303.875 258.339 303.639 257.808 303.261C256.263 302.242 254.979 300.874 254.06 299.267C253.141 297.661 252.613 295.861 252.517 294.013C252.452 293.37 252.551 292.722 252.805 292.128C253.058 291.534 253.458 291.014 253.967 290.616Z" fill="#9F92FF"/>
<path opacity="0.05" d="M253.967 290.616H254.041L254.126 290.563L262.876 285.516L263.088 285.4C263.681 285.169 264.323 285.09 264.955 285.169C265.587 285.248 266.189 285.484 266.707 285.855C268.252 286.87 269.537 288.236 270.456 289.841C271.375 291.446 271.903 293.245 271.997 295.092C272.068 295.759 271.959 296.432 271.682 297.042C271.405 297.652 270.969 298.177 270.42 298.563L261.564 303.673H261.511C260.91 303.925 260.254 304.02 259.606 303.948C258.958 303.875 258.339 303.639 257.808 303.261C256.263 302.242 254.979 300.874 254.06 299.267C253.141 297.661 252.613 295.861 252.517 294.013C252.452 293.37 252.551 292.722 252.805 292.128C253.058 291.534 253.458 291.014 253.967 290.616Z" fill="black"/>
<path opacity="0.1" d="M257.866 290.861C254.925 289.158 252.576 290.544 252.576 293.94C252.671 295.788 253.2 297.588 254.119 299.195C255.038 300.801 256.322 302.169 257.866 303.188C260.819 304.891 263.21 303.505 263.21 300.109C263.109 298.256 262.573 296.453 261.645 294.846C260.716 293.239 259.422 291.874 257.866 290.861Z" fill="black"/>
<path d="M124.749 372.281L128.367 370.101C128.478 370.041 128.604 370.014 128.73 370.023C128.855 370.033 128.976 370.078 129.076 370.154C129.365 370.336 129.605 370.585 129.776 370.88C129.947 371.175 130.045 371.507 130.06 371.847C130.07 371.969 130.049 372.09 129.999 372.201C129.949 372.312 129.872 372.409 129.775 372.482L126.167 374.662C125.958 374.772 125.725 374.83 125.489 374.831C125.122 374.831 124.769 374.685 124.509 374.425C124.249 374.165 124.103 373.813 124.103 373.445C124.104 373.212 124.163 372.983 124.276 372.78C124.389 372.576 124.551 372.405 124.749 372.281Z" fill="#455A64"/>
<path d="M124.538 372.439L124.728 372.28C124.835 372.248 124.948 372.241 125.058 372.259C125.168 372.278 125.272 372.321 125.363 372.386C125.649 372.569 125.887 372.819 126.057 373.113C126.226 373.408 126.322 373.739 126.337 374.079C126.349 374.198 126.33 374.318 126.282 374.427C126.234 374.537 126.158 374.632 126.061 374.703H125.987H125.913C125.772 374.759 125.621 374.785 125.469 374.777C125.101 374.777 124.749 374.631 124.489 374.371C124.229 374.111 124.083 373.759 124.083 373.391C124.105 373.027 124.268 372.685 124.538 372.439Z" fill="#263238"/>
<path d="M54.6962 381.943L51.0034 379.827C50.3887 379.427 49.8768 378.889 49.5091 378.254C49.1415 377.62 48.9284 376.908 48.8872 376.176V102.583C48.9276 101.851 49.1403 101.139 49.508 100.504C49.8758 99.87 50.3881 99.3315 51.0034 98.9326L220.723 0.941936C221.378 0.6067 222.103 0.431885 222.839 0.431885C223.575 0.431885 224.3 0.6067 224.955 0.941936L228.648 3.05814C229.263 3.4576 229.775 3.99628 230.142 4.6305C230.51 5.26472 230.723 5.97666 230.764 6.70859V280.302C230.725 281.034 230.512 281.747 230.145 282.381C229.777 283.016 229.264 283.554 228.648 283.952L58.9074 381.943C58.2556 382.276 57.5339 382.45 56.8018 382.45C56.0697 382.45 55.348 382.276 54.6962 381.943Z" fill="#9F92FF"/>
<path opacity="0.4" d="M230.692 6.37905C230.555 5.32095 229.634 4.88713 228.576 5.50083L58.9097 103.492C58.2907 103.882 57.7782 104.42 57.4178 105.058L49.5032 100.497C49.8636 99.86 50.3761 99.322 50.9951 98.9311L220.725 0.940413C221.38 0.603501 222.105 0.427734 222.841 0.427734C223.577 0.427734 224.303 0.603501 224.957 0.940413L228.661 3.05662C229.218 3.43245 229.687 3.92363 230.038 4.49687C230.388 5.07011 230.612 5.71201 230.692 6.37905Z" fill="white"/>
<path opacity="0.15" d="M58.5358 382.112C58.4939 382.12 58.4508 382.12 58.4089 382.112L58.1973 382.186H58.1126C57.9856 382.186 57.8587 382.249 57.7211 382.281C56.8823 382.44 56.0163 382.37 55.2134 382.08C55.0537 382.02 54.8981 381.949 54.7478 381.868L51.0445 379.752C50.4315 379.351 49.9209 378.812 49.5535 378.178C49.1861 377.544 48.9719 376.833 48.9283 376.102V102.583C48.9524 101.837 49.1634 101.109 49.542 100.467L57.4566 105.027C57.065 105.665 56.8496 106.395 56.8323 107.143V380.736C56.8094 381.133 56.9254 381.526 57.1603 381.847C57.2906 382.012 57.4667 382.134 57.6664 382.198C57.8661 382.262 58.0803 382.265 58.2819 382.207C58.3694 382.184 58.4545 382.152 58.5358 382.112Z" fill="black"/>
<path d="M177.72 51.3161L177.413 51.1256L173.911 49.1152C172.637 48.4051 171.253 47.915 169.816 47.6656C169.213 47.5281 168.673 47.3694 168.197 47.2106C167.669 47.0377 167.152 46.8291 166.652 46.5864L166.906 46.2583L162.97 43.9623C162.638 43.777 162.282 43.6381 161.912 43.5496C160.42 43.1793 158.187 44.0469 155.965 43.793C155.157 43.7139 154.375 43.4578 153.677 43.0426C152.978 42.6275 152.38 42.0636 151.923 41.3911C150.569 39.5711 149.754 36.3863 148.559 33.741L149.617 32.2068C149.511 32.1406 149.402 32.0805 149.289 32.0269L145.66 29.9107C145.047 29.5501 144.349 29.3601 143.639 29.3605C142.282 29.432 140.969 29.859 139.829 30.5985C131.142 35.6244 130.846 47.5281 127.714 55.3792C124.582 63.2303 120.149 65.6745 117.736 69.0498C115.324 72.4252 115.154 74.9223 109.811 82.2867C104.468 89.6511 104.256 91.4498 104.256 92.8677V103.84L108.213 106.126L179.339 65.0396L177.72 51.3161ZM112.499 93.6401C111.578 94.1586 110.816 93.4496 110.816 92.0212C110.807 91.3381 110.954 90.6619 111.246 90.0441C111.537 89.4262 111.966 88.8829 112.499 88.4554C113.419 87.9264 114.17 88.6564 114.17 90.0849C114.178 90.7622 114.032 91.4323 113.742 92.0446C113.452 92.6569 113.027 93.1952 112.499 93.6189V93.6401ZM143.744 62.8388C143.296 63.1658 142.778 63.384 142.231 63.4762C141.683 63.5683 141.122 63.5318 140.591 63.3697C140.061 63.2075 139.575 62.924 139.173 62.5417C138.771 62.1594 138.463 61.6888 138.274 61.167C135.512 61.696 133.46 59.0508 133.46 54.4586C133.46 49.0623 136.306 43.0629 139.808 41.0313C140.257 40.7045 140.776 40.4868 141.324 40.3953C141.872 40.3039 142.433 40.3413 142.964 40.5045C143.495 40.6678 143.98 40.9524 144.382 41.3358C144.784 41.7193 145.091 42.1911 145.279 42.7137C148.04 42.1635 150.082 44.8299 150.082 49.4115C150.082 54.7866 147.257 60.7861 143.744 62.8176V62.8388ZM167.372 61.95C166.441 62.4896 165.689 61.7701 165.689 60.3417C165.672 59.6573 165.816 58.9785 166.108 58.3593C166.4 57.7402 166.833 57.198 167.372 56.7759C168.303 56.2362 169.054 56.9557 169.054 58.3842C169.067 59.0649 168.922 59.7393 168.63 60.3543C168.338 60.9694 167.907 61.5083 167.372 61.9288V61.95Z" fill="#455A64"/>
<path opacity="0.5" d="M112.185 95.5761L104.535 91.1638C104.361 91.7147 104.275 92.2897 104.281 92.8674V103.84L108.238 106.125L112.185 103.84V95.5761Z" fill="#37474F"/>
<path opacity="0.5" d="M120.043 81.8857L124.001 72.7543L117.715 69.0721C115.874 71.6222 115.335 73.6855 112.859 77.738L120.043 81.8857Z" fill="#37474F"/>
<path opacity="0.5" d="M135.86 63.6339L136.368 60.9675C134.622 60.2374 133.458 57.8778 133.458 54.439C133.458 49.8574 135.511 44.8526 138.272 42.1968L132.791 39.0225C130.464 44.313 129.617 50.6616 127.691 55.3913C127.289 56.4494 126.855 57.3276 126.422 58.1741L135.86 63.6339Z" fill="#37474F"/>
<path d="M177.722 51.316L177.415 51.1255C176.25 50.585 175.025 50.1871 173.764 49.9405C171.696 49.5771 169.77 48.6467 168.199 47.2529C167.801 46.8935 167.369 46.5745 166.908 46.3006C166.579 46.1055 166.222 45.9627 165.85 45.8774C163.459 45.2954 159.099 47.9089 155.967 43.8458C155.93 43.8081 155.898 43.7654 155.872 43.7188C153.682 40.7773 152.878 34.1959 149.597 32.2596C149.492 32.1934 149.382 32.1333 149.269 32.0797C147.915 31.4449 146.159 31.5613 143.746 32.9368C135.059 37.9628 134.763 49.8664 131.631 57.7175C128.499 65.5686 124.076 68.0128 121.664 71.3882C119.251 74.7635 119.092 77.2606 113.738 84.625C108.384 91.9894 108.194 93.7988 108.194 95.206V106.189L179.32 65.1031V54.0776C179.373 53.5084 179.248 52.9365 178.962 52.4416C178.676 51.9466 178.242 51.5532 177.722 51.316ZM116.415 95.9255C115.484 96.4652 114.733 95.7457 114.733 94.3066C114.72 93.6244 114.865 92.9485 115.157 92.3317C115.449 91.715 115.88 91.1741 116.415 90.7514C117.347 90.2118 118.087 90.9419 118.087 92.3703C118.101 93.0517 117.958 93.727 117.668 94.3437C117.378 94.9604 116.949 95.5018 116.415 95.9255ZM143.714 62.8493C143.266 63.1763 142.748 63.3945 142.201 63.4867C141.653 63.5788 141.092 63.5424 140.562 63.3802C140.031 63.218 139.545 62.9345 139.143 62.5522C138.741 62.1699 138.433 61.6993 138.244 61.1775C137.623 59.7844 137.326 58.2685 137.376 56.7441C137.376 51.3583 140.212 45.3483 143.725 43.3273C144.2 43.0431 144.718 42.8393 145.259 42.7242C148.021 42.174 150.063 44.8404 150.063 49.422C150.084 54.7866 147.259 60.786 143.746 62.8176L143.714 62.8493ZM171.32 64.1825C170.389 64.7221 169.638 64.0026 169.638 62.5848C169.623 61.9022 169.767 61.2254 170.059 60.6083C170.351 59.9911 170.783 59.4506 171.32 59.0296C172.241 58.4899 172.992 59.2094 172.992 60.6379C173.005 61.3176 172.861 61.9911 172.571 62.606C172.281 63.2209 171.853 63.7604 171.32 64.1825Z" fill="#37474F"/>
<path d="M150.083 49.3697C150.083 54.766 147.258 60.7654 143.735 62.797C143.286 63.124 142.768 63.3422 142.221 63.4343C141.674 63.5265 141.112 63.49 140.582 63.3278C140.051 63.1656 139.565 62.8822 139.163 62.4999C138.761 62.1176 138.453 61.6469 138.264 61.1252C138.804 61.0055 139.322 60.802 139.798 60.522C143.301 58.4905 146.147 52.4911 146.147 47.0947C146.193 45.5741 145.896 44.0625 145.279 42.6719C148.041 42.1428 150.083 44.7987 150.083 49.3697Z" fill="#263238"/>
<path d="M116.414 95.9254C115.483 96.4544 114.732 95.7349 114.732 94.3171C114.719 93.6333 114.864 92.9559 115.156 92.3374C115.448 91.7189 115.878 91.1761 116.414 90.7513C117.335 90.2117 118.086 90.9523 118.086 92.3702C118.098 93.0511 117.953 93.7257 117.663 94.342C117.373 94.9584 116.946 95.5 116.414 95.9254Z" fill="#263238"/>
<path d="M171.319 64.1837C170.388 64.7128 169.637 64.0038 169.637 62.5754C169.624 61.8917 169.769 61.2142 170.061 60.5957C170.353 59.9772 170.783 59.4344 171.319 59.0096C172.24 58.4806 172.991 59.2106 172.991 60.6391C173.002 61.3184 172.857 61.9911 172.567 62.6056C172.277 63.2201 171.85 63.76 171.319 64.1837Z" fill="#263238"/>
<path d="M69.9245 129.086L217.614 43.814C218.006 43.6159 218.439 43.5127 218.879 43.5127C219.318 43.5127 219.751 43.6159 220.143 43.814L221.572 44.6393C221.939 44.8798 222.244 45.2034 222.463 45.5839C222.682 45.9645 222.808 46.3912 222.831 46.8296V272.142C222.809 272.58 222.684 273.008 222.465 273.388C222.246 273.769 221.94 274.093 221.572 274.332L73.8818 359.604C73.4897 359.802 73.0566 359.905 72.6174 359.905C72.1781 359.905 71.745 359.802 71.3529 359.604L69.9245 358.779C69.5547 358.54 69.2469 358.217 69.0261 357.836C68.8054 357.456 68.6782 357.028 68.6548 356.589V131.277C68.6798 130.838 68.8078 130.41 69.0284 130.03C69.249 129.65 69.5559 129.326 69.9245 129.086Z" fill="#F5F5F5"/>
<path d="M222.788 46.4486C222.629 45.9302 222.142 45.7609 221.571 46.0995L73.881 131.372C73.5005 131.597 73.1894 131.923 72.9816 132.314L69.0243 130.039C69.238 129.65 69.5476 129.322 69.9237 129.086L217.613 43.814C218.005 43.6159 218.439 43.5127 218.878 43.5127C219.317 43.5127 219.75 43.6159 220.142 43.814L221.571 44.6393C221.884 44.8443 222.153 45.1101 222.362 45.4208C222.571 45.7316 222.716 46.0811 222.788 46.4486Z" fill="#FAFAFA"/>
<path d="M73.5726 359.743C73.421 359.798 73.2653 359.84 73.107 359.87H72.8636C72.6068 359.896 72.348 359.896 72.0912 359.87C71.9332 359.839 71.7776 359.796 71.6256 359.743L71.34 359.605L69.9221 358.791C69.5555 358.55 69.2506 358.226 69.0319 357.845C68.8132 357.465 68.6868 357.039 68.663 356.6V131.278C68.6704 130.841 68.7946 130.413 69.0227 130.04L72.98 132.315C72.7549 132.694 72.6276 133.123 72.6097 133.563V358.875C72.6097 359.563 73.0329 359.902 73.5726 359.743Z" fill="#E0E0E0"/>
<path d="M189.561 75.7273L185.625 73.4524C185.007 73.1496 184.325 73.0019 183.637 73.0222C182.95 73.0425 182.277 73.2301 181.678 73.5688C177.086 75.5898 175.097 76.5103 172.727 77.5049L171.013 78.1927C170.082 78.563 168.23 78.2456 168.801 75.0184L174.907 58.5861H174.811L170.949 56.3535C170.753 56.2304 170.533 56.151 170.304 56.1207C170.187 56.1207 170.039 56.1207 169.881 56.1207C167.383 56.0572 166.706 39.9424 166.653 39.4451L166.473 39.3498L162.654 37.149C161.99 36.7724 161.237 36.5823 160.474 36.5988C159.197 36.6576 157.953 37.0204 156.845 37.6569C150.845 40.8312 144.782 50.153 143.301 58.5438C142.37 63.8343 137.048 71.9816 133.969 74.9867C130.89 77.9917 130.678 80.4888 130.678 80.4888L128.287 94.0536L127.514 98.4024C126.953 101.64 123.631 104.751 123.631 104.751L111.241 113.914C103.485 120.347 101.294 126.855 99.8131 134.896V134.96C99.8131 135.245 99.8131 135.436 99.9507 135.51C99.9712 135.523 99.995 135.53 100.019 135.53C100.044 135.53 100.068 135.523 100.088 135.51L101.675 134.611L186.916 85.4513C187.117 85.3144 187.288 85.1393 187.421 84.9359C187.553 84.7325 187.644 84.5049 187.688 84.2662C188.175 81.3353 189.593 75.8014 189.593 75.8014L189.561 75.7273ZM164.918 50.8302C163.998 55.9832 160.284 61.7392 156.591 63.6756C154.041 65.0088 152.179 64.1834 151.554 61.8345C151.096 62.0139 150.6 62.075 150.112 62.0121C149.623 61.9492 149.159 61.7644 148.761 61.4747C147.576 60.5436 158.432 41.8998 159.342 42.3125C159.765 42.5354 160.132 42.851 160.416 43.2358C160.7 43.6206 160.894 44.0645 160.982 44.5345C164.029 43.614 165.733 46.1957 164.918 50.8302Z" fill="#455A64"/>
<path opacity="0.5" d="M112.181 122.971L105.97 119.384C102.372 124.124 100.923 129.108 99.8541 134.896V134.959C99.8541 135.245 99.8541 135.436 99.9917 135.51C100.012 135.523 100.036 135.53 100.06 135.53C100.085 135.53 100.109 135.523 100.129 135.51L105.028 131.637L112.181 122.971Z" fill="#37474F"/>
<path opacity="0.5" d="M127.099 99.6622L135.86 104.709L139.807 81.8861L131.914 77.3257C131.285 78.2282 130.863 79.2576 130.676 80.3413L128.284 93.9061L127.512 98.2549C127.425 98.7374 127.286 99.2091 127.099 99.6622Z" fill="#37474F"/>
<path opacity="0.5" d="M147.448 47.4978C145.452 50.8664 144.049 54.5528 143.3 58.3962C142.671 61.1204 141.629 63.7323 140.21 66.1415L147.712 70.4797L151.447 61.8562C151.002 62.0169 150.525 62.0661 150.056 61.9997C149.588 61.9333 149.143 61.7533 148.76 61.4753C148.146 60.9886 150.728 55.8356 153.49 50.9895L147.448 47.4978Z" fill="#37474F"/>
<path d="M189.617 75.7571H189.564C188.945 75.4646 188.265 75.3235 187.581 75.3456C186.896 75.3677 186.227 75.5522 185.628 75.884C179.999 78.3706 178.295 79.1853 174.952 80.5079C174.063 80.8677 172.254 80.582 172.73 77.5347C172.724 77.4642 172.724 77.3935 172.73 77.3231L173.502 72.9849L175.618 61.1659C175.618 61.1659 176.105 59.3036 174.878 58.6053H174.782C174.474 58.4628 174.138 58.3905 173.798 58.3936C173.079 58.3072 172.389 58.0596 171.779 57.6694C171.169 57.2792 170.655 56.7564 170.275 56.1399C169.616 55.1576 169.159 54.0536 168.932 52.8926C168.705 51.7316 168.712 50.5369 168.952 49.3786C169.852 44.3103 168.868 40.7551 166.624 39.4325L166.445 39.3267C164.995 38.5543 163.048 38.6812 160.773 39.8769C154.763 43.0512 148.7 52.373 147.229 60.7638C146.288 66.0543 140.965 74.2122 137.886 77.2067C134.807 80.2011 134.606 82.7088 134.606 82.7088L132.289 96.1996L131.527 100.538C130.956 103.776 127.633 106.886 127.633 106.886L115.254 116.177C110.313 120.109 106.746 125.506 105.064 131.593C105.064 131.593 100.419 135.201 100.133 135.487L101.721 134.587L187.204 85.4493C187.204 85.4493 188.178 84.9096 188.4 84.7721C188.622 84.6345 192.061 81.3862 192.061 81.3862C191.871 78.614 191.045 76.6141 189.617 75.7571ZM164.921 50.8282C164 55.9812 160.286 61.7372 156.594 63.6736C154.044 65.0068 152.181 64.1815 151.557 61.8325C151.278 60.5138 151.278 59.1515 151.557 57.8329C152.478 52.6693 156.202 46.9238 159.895 44.9981C160.233 44.8125 160.587 44.6567 160.953 44.5325C164.032 43.612 165.736 46.1937 164.921 50.8282Z" fill="#37474F"/>
<path d="M164.92 50.8289C163.999 55.9818 160.285 61.7379 156.593 63.6742C154.043 65.0074 152.18 64.1821 151.556 61.8331C151.92 61.713 152.274 61.5644 152.614 61.3887C156.318 59.4524 160.021 53.6963 160.942 48.5328C161.219 47.214 161.219 45.8519 160.942 44.5332C164.031 43.6126 165.735 46.1944 164.92 50.8289Z" fill="#263238"/>
<path d="M161.354 44.7576C161.7 44.7367 162.045 44.8056 162.357 44.9576C162.668 45.1097 162.935 45.3396 163.131 45.6252C164.666 47.8049 163.195 53.3493 162.56 55.1481C161.682 57.6135 155.947 63.4119 154.37 63.4119C153.848 63.3258 153.349 63.134 152.903 62.8484C152.457 62.5628 152.074 62.1892 151.778 61.7507C151.518 60.48 151.518 59.1698 151.778 57.8992C152.677 52.7991 156.359 47.1277 159.989 45.202C160.312 45.0314 160.648 44.8864 160.994 44.7682H161.343L161.354 44.7576ZM161.343 44.5248H160.952C160.586 44.6489 160.232 44.8047 159.894 44.9904C156.201 46.9161 152.487 52.6616 151.556 57.8251C151.277 59.1438 151.277 60.5061 151.556 61.8247C151.874 62.3012 152.288 62.7069 152.77 63.0164C153.253 63.3259 153.794 63.5325 154.36 63.6235C156.074 63.6235 161.84 57.7722 162.761 55.1587C163.682 52.5452 165.681 44.4613 161.322 44.4613L161.343 44.5248Z" fill="#263238"/>
<path d="M100.088 135.521L187.149 85.4725L188.355 84.8059C188.567 84.679 192.006 81.4094 192.006 81.4094L105.009 131.627C105.009 131.627 99.7392 135.711 100.088 135.521Z" fill="#263238"/>
<path d="M88.4182 170.616V172.595C88.4182 173.653 89.18 174.108 90.1112 173.568L205.296 107.056C205.787 106.736 206.196 106.305 206.49 105.797C206.784 105.29 206.955 104.721 206.989 104.136V102.146C206.989 101.088 206.227 100.633 205.296 101.173L90.1112 167.696C89.6195 168.016 89.2101 168.447 88.916 168.954C88.6218 169.461 88.4513 170.031 88.4182 170.616Z" fill="#E0E0E0"/>
<path d="M88.4182 182.584V184.562C88.4182 185.62 89.18 186.075 90.1112 185.536L205.296 119.013C205.788 118.693 206.197 118.262 206.491 117.755C206.785 117.248 206.956 116.678 206.989 116.093V114.103C206.989 113.045 206.227 112.601 205.296 113.13L90.1112 179.663C89.6195 179.983 89.2101 180.414 88.916 180.921C88.6218 181.429 88.4513 181.998 88.4182 182.584Z" fill="#E0E0E0"/>
<path d="M88.4182 194.478V196.446C88.4182 197.504 89.18 197.959 90.1112 197.419L205.296 130.918C205.787 130.597 206.196 130.166 206.49 129.659C206.784 129.152 206.955 128.582 206.989 127.997V126.008C206.989 124.95 206.227 124.495 205.296 125.034L90.1112 191.557C89.6195 191.877 89.2101 192.308 88.916 192.815C88.6218 193.323 88.4513 193.892 88.4182 194.478Z" fill="#E0E0E0"/>
<path d="M88.4182 220.835V222.813C88.4182 223.871 89.18 224.326 90.1112 223.787L205.296 157.296C205.788 156.976 206.197 156.545 206.491 156.038C206.785 155.53 206.956 154.961 206.989 154.375V152.386C206.989 151.328 206.227 150.884 205.296 151.413L90.1112 217.914C89.6195 218.234 89.2101 218.665 88.916 219.172C88.6218 219.68 88.4513 220.249 88.4182 220.835Z" fill="#E0E0E0"/>
<path d="M88.4182 232.791V234.78C88.4182 235.838 89.18 236.283 90.1112 235.754L205.296 169.231C205.788 168.911 206.197 168.48 206.491 167.973C206.785 167.466 206.956 166.896 206.989 166.311V164.321C206.989 163.263 206.227 162.808 205.296 163.348L90.1112 229.871C89.6201 230.191 89.2111 230.622 88.9171 231.129C88.623 231.637 88.4522 232.206 88.4182 232.791Z" fill="#E0E0E0"/>
<path d="M88.4182 244.695V246.674C88.4182 247.732 89.18 248.187 90.1112 247.647L205.296 181.124C205.788 180.805 206.197 180.374 206.491 179.866C206.785 179.359 206.956 178.789 206.989 178.204V176.215C206.989 175.157 206.227 174.712 205.296 175.241L90.1112 241.775C89.6195 242.094 89.2101 242.525 88.916 243.033C88.6218 243.54 88.4513 244.11 88.4182 244.695Z" fill="#E0E0E0"/>
<path d="M88.4182 271.043V273.032C88.4182 274.09 89.18 274.535 90.1112 274.006L205.296 207.483C205.788 207.163 206.197 206.732 206.491 206.225C206.785 205.718 206.956 205.148 206.989 204.563V202.573C206.989 201.515 206.227 201.06 205.296 201.6L90.1112 268.123C89.6201 268.443 89.2111 268.874 88.9171 269.381C88.623 269.889 88.4522 270.458 88.4182 271.043Z" fill="#E0E0E0"/>
<path d="M88.4182 283.009V284.987C88.4182 286.045 89.18 286.5 90.1112 285.961L205.296 219.438C205.787 219.121 206.197 218.692 206.491 218.186C206.785 217.68 206.956 217.112 206.989 216.528V214.539C206.989 213.481 206.227 213.026 205.296 213.566L90.1112 280.088C89.6195 280.408 89.2101 280.839 88.916 281.346C88.6218 281.854 88.4513 282.423 88.4182 283.009Z" fill="#E0E0E0"/>
<path d="M88.4182 294.902V296.891C88.4182 297.949 89.18 298.394 90.1112 297.865L205.296 231.363C205.788 231.043 206.197 230.612 206.491 230.105C206.785 229.598 206.956 229.028 206.989 228.443V226.453C206.989 225.395 206.227 224.94 205.296 225.48L90.1112 291.982C89.6201 292.302 89.2111 292.733 88.9171 293.24C88.623 293.747 88.4522 294.317 88.4182 294.902Z" fill="#E0E0E0"/>
<path d="M147.713 296.501L207.019 262.272V263.414L147.713 297.644V296.501Z" fill="#E0E0E0"/>
<path d="M161.511 278.722C163.976 277.072 166.727 274.289 166.283 270.998C166.018 268.998 164.389 268.226 162.548 268.935C158.939 270.321 156.665 275.749 155.405 279.029C154.347 281.897 152.898 287.304 157.204 288.224C162.251 289.282 166.156 281.876 167.298 278.024C167.457 277.484 166.579 277.188 166.325 277.675C165.881 278.553 162.907 284.352 166.177 283.621C167.341 283.367 168.007 281.558 168.431 280.638C169.171 278.987 169.542 276.691 170.706 275.273L169.848 274.881C169.901 276.405 169.848 277.442 170.907 278.627C170.987 278.737 171.108 278.811 171.242 278.833C171.377 278.855 171.515 278.823 171.626 278.744C173.298 277.188 173.414 274.659 175.255 273.252L174.504 272.892C174.504 273.379 174.282 274.765 174.25 275.411C174.25 275.717 174.663 275.918 174.906 275.823C175.145 275.774 175.368 275.664 175.553 275.505C175.738 275.346 175.88 275.142 175.964 274.913L175.16 274.617C175.858 278.352 179.043 274.617 180.133 273.199C183.307 268.967 185.572 264.427 185.656 259.01C185.656 258.576 184.842 258.354 184.831 258.872C184.757 263.041 182.937 266.861 181.763 270.797C180.504 275.03 179.456 279.357 178.588 283.717L179.34 283.992C179.578 280.907 180.366 277.89 181.667 275.083C182.488 272.582 183.858 270.297 185.678 268.395L184.979 268.131C185.164 269.219 185.108 270.334 184.816 271.398C184.523 272.461 184.001 273.448 183.286 274.289C183.064 274.575 183.561 275.114 183.784 274.829C184.948 273.368 186.863 272.903 188.111 271.485C189.285 269.892 190.328 268.208 191.233 266.448L190.661 266.163C190.587 269.718 193.941 264.174 194.396 263.581L193.846 263.369C194.068 264.099 194.365 264.586 195.19 264.597C196.83 264.597 197.444 262.205 198.682 261.93C198.682 261.93 199.221 262.385 199.412 262.406C200.094 262.507 200.79 262.376 201.39 262.036C202.774 261.141 203.892 259.892 204.628 258.417C204.819 258.079 204.173 257.656 203.962 258.026C203.147 259.401 200.607 263.052 198.766 261.264C198.65 261.158 198.407 261.052 198.28 261.2C197.782 261.814 194.936 265.073 194.407 263.316C194.343 263.105 194.037 262.872 193.867 263.105C193.434 263.676 193.084 264.311 192.682 264.914C192.46 265.242 191.222 267.327 191.264 266.269C191.264 266.015 190.873 265.718 190.693 265.983C189.54 267.75 188.693 270.067 187.085 271.506C185.889 272.564 184.323 272.966 183.286 274.247L183.784 274.786C184.583 273.885 185.171 272.818 185.506 271.661C185.841 270.504 185.914 269.288 185.72 268.099C185.704 268.026 185.671 267.959 185.622 267.903C185.574 267.846 185.512 267.803 185.443 267.777C185.373 267.75 185.298 267.742 185.225 267.752C185.151 267.762 185.081 267.79 185.022 267.835C183.043 269.654 181.932 272.215 180.948 274.67C179.628 277.536 178.825 280.613 178.578 283.759C178.578 284.087 179.244 284.457 179.329 284.034C180.223 279.33 181.386 274.681 182.81 270.109C183.974 266.427 185.551 262.883 185.625 258.968L184.799 258.83C184.721 262.884 183.444 266.824 181.128 270.152C180.535 271.072 179.911 271.993 179.234 272.861C178.938 273.252 176.313 276.68 175.975 274.691C175.922 274.405 175.361 274.003 175.171 274.395L174.409 275.072L175.065 275.474C175.118 274.617 175.287 273.813 175.329 272.945C175.329 272.617 174.822 272.406 174.578 272.596C172.705 274.024 172.568 276.553 170.885 278.109L171.605 278.225C171.033 277.268 170.754 276.165 170.801 275.051C170.801 274.68 170.229 274.321 169.944 274.659C168.653 276.204 168.251 278.669 167.404 280.468C166.939 281.452 165.288 284.076 165.817 281.283C166.168 280.125 166.669 279.019 167.309 277.992L166.336 277.643C165.341 281.008 162.685 286.108 159.056 287.166C154.421 288.552 155.225 282.807 156.072 280.246C157.079 277.263 158.574 274.467 160.495 271.972C160.847 271.475 161.247 271.014 161.69 270.596C162.632 269.75 162.907 269.538 164.219 270.289C165.531 271.041 165.595 271.453 165.277 272.871C165.083 273.575 164.791 274.248 164.41 274.871C163.572 276.149 162.519 277.273 161.299 278.193C161.13 278.331 161.373 278.786 161.564 278.648L161.511 278.722Z" fill="#455A64"/>
<path d="M303.7 212.72C299.869 211.81 295.647 214.54 293.182 220.55C290.717 226.56 285.775 241.924 284.717 245.945C284.252 247.743 297.922 263.678 297.414 263.446C297.266 263.372 301.869 255.669 301.869 255.669L295.235 245.458L299.467 234.38L303.7 212.72Z" fill="#B16668"/>
<path d="M294.832 355.354C294.314 355.555 294.176 356.539 294.102 358.528C294.039 360.02 293.721 362.613 295.467 363.131C297.213 363.65 299.763 363.385 300.885 361.988C302.235 360.107 303.679 358.296 305.212 356.56C306.937 354.698 308.799 352.973 309.498 350.37C310.133 348.021 309.603 347.006 308.006 346.318C305.794 345.387 302.334 348.434 300.599 348.931C299.128 349.333 295.351 355.164 294.832 355.354Z" fill="#263238"/>
<path d="M294.832 353.533V355.945C295.738 356.525 296.785 356.847 297.861 356.877C298.936 356.907 300 356.643 300.937 356.115C301.043 355.882 301.572 352.655 301.572 352.655L294.832 353.533Z" fill="#B16668"/>
<path d="M312.799 368.189C312.381 369.482 312.027 370.796 311.741 372.125C311.434 373.585 311.011 376.029 311.529 377.119C312.048 378.209 314.026 378.928 317.127 378.907C319.126 378.907 322.248 380.251 324.385 381.447C326.533 382.5 328.962 382.837 331.316 382.41C334.067 382.082 336.924 380.484 337.368 379.352C337.812 378.22 337.241 377.659 330.755 374.897C330.691 374.897 323.92 371.807 320.777 368.347L312.799 368.189Z" fill="#263238"/>
<path d="M312.797 365.575C312.797 365.575 312.797 367.363 312.797 368.39C312.797 369.416 314.003 370.94 317.135 370.834C319.336 370.749 320.87 370.157 320.775 368.347V365.744L312.797 365.575Z" fill="#B16668"/>
<path d="M292.451 320.055C292.97 315.818 293.96 311.651 295.404 307.633C295.404 307.633 294.039 296.947 293.287 286.683C291.88 268.283 293.012 262.273 296.631 254.019C296.631 254.019 327.496 250.845 328.438 263.722C329.612 279.699 328.057 310.575 327.633 316.215C327.21 321.854 326.681 324.404 324.692 336.191C323.168 345.164 320.819 365.744 320.819 365.744C319.578 366.374 318.201 366.688 316.809 366.659C315.417 366.629 314.055 366.257 312.841 365.575C312.841 365.575 310.323 339.884 310.587 333.377C310.774 328.562 311.588 323.792 313.01 319.188C313.01 319.188 311.095 293.148 310.545 289C310.545 289 309.572 297.264 309.148 302.904C308.725 308.543 307.032 313.94 305.424 324.425C304.006 333.514 301.371 353.841 301.371 353.841C297.276 356.063 294.832 353.555 294.832 353.555C294.832 353.555 291.351 327.938 292.451 320.055Z" fill="#9F92FF"/>
<g opacity="0.35">
<path opacity="0.35" d="M292.453 320.056C292.972 315.819 293.962 311.652 295.405 307.634C295.405 307.634 294.04 296.947 293.289 286.684C291.881 268.284 293.014 262.274 296.632 254.02C296.632 254.02 327.497 250.846 328.439 263.723C329.613 279.7 328.058 310.576 327.635 316.216C327.211 321.855 326.682 324.405 324.693 336.192C323.169 345.165 320.821 365.745 320.821 365.745C319.579 366.375 318.202 366.689 316.81 366.66C315.419 366.63 314.056 366.258 312.842 365.576C312.842 365.576 310.324 339.885 310.589 333.378C310.775 328.563 311.589 323.793 313.012 319.189C313.012 319.189 311.097 293.149 310.546 289.001C310.546 289.001 309.573 297.265 309.15 302.905C308.726 308.544 307.033 313.941 305.425 324.426C304.007 333.515 301.373 353.842 301.373 353.842C297.278 356.064 294.834 353.556 294.834 353.556C294.834 353.556 291.352 327.939 292.453 320.056Z" fill="black"/>
</g>
<path d="M319.476 208.563L318.026 220.488L307.541 219.546L308.736 206.31L319.476 208.563Z" fill="#B16668"/>
<path d="M296.028 218.667C297.182 215.493 301.107 212.033 305.139 212.784L308.101 213.324C308.186 216.075 313.392 217.493 318.534 215.832C320.079 216.276 321.507 216.731 322.767 217.186C326.459 218.509 327.941 224.593 328.057 234.899C328.174 245.205 329.232 270.737 329.232 270.737L324.862 272.123L322.851 264.642L322.037 273.604C317.13 274.748 312.023 274.723 307.128 273.53C296.039 271.107 292.59 265.129 292.59 265.129C293.946 258.208 296.642 251.62 300.525 245.734C294.981 230.952 294.325 223.355 296.028 218.667Z" fill="#EBEBEB"/>
<path d="M327.274 193.41C327.901 191.985 328.157 190.425 328.019 188.874C327.88 187.324 327.351 185.834 326.48 184.543C322.957 179.02 316.174 178.078 308.133 180.236C305.326 181.096 302.853 182.802 301.052 185.12C299.251 187.438 298.209 190.255 298.07 193.188C297.679 199.081 314.132 203.43 313.751 207.472L327.274 193.41Z" fill="#263238"/>
<path d="M327.624 195.654C327.624 195.654 329.857 199.23 329.539 199.601C328.986 199.943 328.378 200.187 327.741 200.32L327.624 195.654Z" fill="#9A4A4D"/>
<path d="M320.819 184.323C323.041 185.55 326.893 187.814 327.676 196.173C328.48 204.744 326.491 207.664 325.295 208.754C324.491 209.495 320.417 209.654 318.322 208.945C315.698 208.045 310.027 205.061 307.456 200.575C304.429 195.284 303.964 188.354 307.688 185.762C309.576 184.429 311.771 183.598 314.068 183.346C316.365 183.095 318.688 183.431 320.819 184.323Z" fill="#B16668"/>
<path d="M321.475 184.691C321.475 184.691 323.232 192.542 320.735 197.389C320.735 197.389 319.444 194.309 316.799 195.114C314.153 195.918 314.291 199.441 316.312 201.293C316.828 201.822 317.484 202.195 318.203 202.367C318.922 202.539 319.675 202.504 320.375 202.266C319.484 204.488 318.148 206.505 316.449 208.192C316.449 208.192 308.63 211.673 301.869 204.033C295.721 197.103 296.864 184.988 306.271 182.162C315.677 179.337 321.475 184.691 321.475 184.691Z" fill="#263238"/>
<path d="M299.181 185.505C299.551 185.823 299.78 186.274 299.818 186.76C299.856 187.246 299.699 187.727 299.383 188.098L296.589 185.696C296.746 185.512 296.938 185.361 297.154 185.252C297.369 185.143 297.605 185.078 297.846 185.06C298.087 185.043 298.329 185.073 298.558 185.149C298.787 185.226 298.999 185.347 299.181 185.505Z" fill="#263238"/>
<path d="M349.334 236.116C350.858 234.38 351.45 230.508 353.461 227.862C355.471 225.217 356.233 223.281 357.037 224.434C358.095 225.968 355.704 229.026 356.233 229.333C356.762 229.64 358.751 233.671 358.952 235.914C359.153 238.158 353.217 243.787 353.217 243.787L349.334 236.116Z" fill="#B16668"/>
<path d="M356.064 228.984C356.064 228.984 363.238 228.37 364.286 228.984C365.333 229.598 365.016 232.708 364.286 234.613C363.556 236.518 359.895 237.787 356.498 240.052C356.498 239.713 356.064 228.984 356.064 228.984Z" fill="#B16668"/>
<path d="M321.879 216.9C324.958 217.958 327.656 219.217 330.534 224.624C334.227 231.575 340.956 245.183 340.956 245.183L349.336 236.115C349.336 236.115 350.553 234.401 352.818 238.146C355.082 241.892 354.087 242.929 354.087 242.929C354.087 242.929 344.342 255.986 342.554 257.647C340.766 259.308 337.824 258.017 335.898 255.404C333.973 252.79 321.879 237.649 321.879 237.649C321.879 237.649 315.265 228.951 321.879 216.9Z" fill="#B16668"/>
<path opacity="0.2" d="M310.545 288.977L309.952 282.745C306.594 282.245 303.382 281.029 300.535 279.179C300.535 279.179 302.546 282.353 308.048 283.856L308.619 291.792L308.958 304.806L310.545 288.977Z" fill="black"/>
<path d="M288.57 215.25C289.998 215.254 291.414 214.976 292.735 214.433C294.057 213.889 295.258 213.09 296.27 212.082C297.283 211.073 298.086 209.875 298.635 208.556C299.183 207.237 299.467 205.822 299.468 204.393V187.898C298.223 187.494 296.9 187.39 295.607 187.595C294.314 187.8 293.088 188.309 292.029 189.079C290.97 189.848 290.109 190.858 289.515 192.025C288.921 193.191 288.611 194.482 288.612 195.791L288.57 215.25Z" fill="#263238"/>
<path d="M328.29 245.703C328.29 245.703 322.27 237.937 320.344 234.815L328.502 252.041L328.29 245.703Z" fill="#E0E0E0"/>
<path d="M381.076 181.919C378.791 188.659 373.913 208.763 373.913 208.763C373.913 208.763 364.612 221.132 362.051 223.492C360.634 224.804 357.427 227.164 357.427 227.164L360.094 229.132C360.094 229.132 364.538 227.777 364.908 230.19C369.542 226.462 373.925 222.432 378.029 218.127C379.064 217.046 379.794 215.71 380.145 214.255L384.113 197.188C384.113 197.188 384.113 183.432 386.229 181.633C388.345 179.835 387.509 175.761 387.509 175.761C386.06 175.803 382.875 176.639 381.076 181.919Z" fill="#FFA8A7"/>
<path d="M387.588 175.083C388.237 176.904 389.022 178.672 389.937 180.374C390.869 181.972 383.748 210.699 383.271 212.837C382.795 214.974 368.987 227.428 368.987 227.428C366.492 226.372 364.51 224.382 363.464 221.883L373.431 208.911C373.431 208.911 376.531 195.304 378.161 189.061C379.79 182.818 381.526 175.761 387.588 175.083Z" fill="#9F92FF"/>
<path opacity="0.1" d="M387.588 175.083C388.237 176.904 389.022 178.672 389.937 180.374C390.869 181.972 383.748 210.699 383.271 212.837C382.795 214.974 368.987 227.428 368.987 227.428C366.492 226.372 364.51 224.382 363.464 221.883L373.431 208.911C373.431 208.911 376.531 195.304 378.161 189.061C379.79 182.818 381.526 175.761 387.588 175.083Z" fill="black"/>
<path d="M416.746 310.087H409.869V321.874H416.746V310.087Z" fill="#FFA8A7"/>
<path d="M388.604 312.945L381.726 313.188L381.388 300.713L388.604 300.48V312.945Z" fill="#FFA8A7"/>
<path d="M415.785 225.98C415.785 232.551 416.24 270.769 416.24 270.769C416.399 272.653 418.219 276.06 418.357 282.832C418.558 292.715 417.034 315.982 417.034 315.982C415.846 316.565 414.544 316.881 413.22 316.906C411.897 316.932 410.584 316.667 409.373 316.13C409.373 316.13 403.966 283.223 402.739 273.436C401.681 264.908 397.946 242.127 397.946 242.127L392.655 270.971C393.453 274.559 393.742 278.242 393.512 281.911C393.184 286.429 388.994 309.083 388.994 309.083C387.796 309.762 386.463 310.168 385.089 310.274C383.716 310.38 382.337 310.183 381.048 309.697C381.048 309.697 380.635 274.134 380.561 269.986C380.466 265.257 382.529 224.552 382.529 224.552L415.785 225.98Z" fill="#37474F"/>
<path d="M409.87 318.478V317.494C409.5 317.494 409.278 317.853 409.13 318.732C409.032 319.388 408.898 320.038 408.728 320.679C408.424 321.883 408.024 323.062 407.532 324.202C406.558 326.604 405.744 327.493 403.511 330.297C402.755 331.074 402.048 331.897 401.395 332.762C400.982 333.503 400.834 335.555 401.543 336.032C404.135 337.767 408.082 337.809 410.875 336.994C411.915 336.703 412.849 336.119 413.568 335.313C414.286 334.506 414.758 333.511 414.928 332.445C415.034 331.81 414.991 331.154 415.066 330.519C415.311 329.067 415.903 327.695 416.79 326.519C417.305 325.84 417.748 325.11 418.113 324.34C418.684 322.932 418.229 321.335 417.859 319.927C417.542 318.711 417.192 317.377 416.801 317.494V318.234C415.821 319.01 414.601 319.422 413.351 319.398C412.304 319.441 409.86 319.24 409.87 318.478Z" fill="#263238"/>
<path d="M381.652 311.06C381.292 311.06 381.006 311.578 380.213 312.435C379.034 313.621 377.669 314.604 376.171 315.345C373.589 316.636 368.584 318.614 366.309 319.641C364.891 320.276 364.965 321.99 366.425 322.963C367.886 323.937 371.43 324.635 375.673 323.693C377.98 323.175 380.964 321.037 382.9 321.154C384.836 321.27 388.371 321.238 389.778 320.265C391.185 319.292 390.624 317.228 390.222 315.451C389.788 313.514 389.249 310.478 388.603 310.615V311.282C387.778 312.541 383.503 313.049 381.694 312.128L381.652 311.06Z" fill="#263238"/>
<path d="M397.955 242.125C394.392 241.025 391.113 239.157 388.348 236.655C388.348 236.655 390.199 240.125 395.754 243.342L393.088 269.001L397.955 242.125Z" fill="#263238"/>
<path d="M403.848 175.55C406.197 176.122 410.916 176.894 411.974 181.56C413.244 187.158 413.657 199.358 413.657 199.358L414.09 226.509C409.35 229.958 391.944 231.799 381.967 224.551C381.967 224.551 383.194 191.962 383.194 186.883C383.194 181.804 386.009 175.709 393.775 175.244L403.848 175.55Z" fill="#F5F5F5"/>
<path d="M393.9 174.736C391.76 176.529 390.211 178.926 389.456 181.614C388.504 185.719 388.398 231.567 388.398 231.567C388.398 231.567 383.531 230.667 381.256 228.879C381.256 228.879 381.542 192.692 382.007 186.703C382.716 177.635 382.642 175.064 393.932 174.059L393.9 174.736Z" fill="#9F92FF"/>
<path d="M405.901 174.059C405.901 174.059 399.415 178.048 399.341 193.93C399.278 207.685 398.823 231.567 398.823 231.567C398.823 231.567 409.562 233.143 416.366 229.08C416.366 229.08 417.181 195.792 417.043 190.639C416.895 184.735 415.52 177.106 413.626 176.344C411.111 175.392 408.529 174.628 405.901 174.059Z" fill="#9F92FF"/>
<path d="M430.026 210.52C423.572 184.131 418.8 175.328 410.98 175.433C408.684 178.163 409.319 186.438 412.938 191.453C412.938 191.453 421.011 208.467 422.291 214.52C423.424 219.81 424.704 226.529 424.63 231.1C424.603 231.908 424.284 232.679 423.731 233.269C422.26 234.867 422.249 236.158 421.297 237.925C420.546 239.3 419.731 239.819 419.964 240.136C420.272 240.464 420.692 240.664 421.14 240.697C421.589 240.73 422.033 240.595 422.387 240.316C423.075 239.814 423.691 239.22 424.217 238.549C423.964 240.242 423.476 241.89 422.768 243.448C421.106 247.183 421.508 249.088 426.556 247.755C429.73 246.919 431.698 244.295 432.164 236.697C432.396 233.903 432.425 231.095 432.248 228.296C431.56 221.101 431.074 214.774 430.026 210.52Z" fill="#FFA8A7"/>
<path d="M409.617 175C409.617 175 414.812 174.767 417.627 177.613C420.441 180.46 424.24 186.448 427.922 199.537C431.604 212.626 432.736 222.191 432.916 229.555C432.916 229.555 428.303 231.672 424.049 229.259C424.049 229.259 422.166 217.863 420.494 211.8C418.822 205.738 412.59 192.966 412.59 192.966C412.59 192.966 406.633 184.11 409.617 175Z" fill="#9F92FF"/>
<path opacity="0.1" d="M409.617 175C409.617 175 414.812 174.767 417.627 177.613C420.441 180.46 424.24 186.448 427.922 199.537C431.604 212.626 432.736 222.191 432.916 229.555C432.916 229.555 428.303 231.672 424.049 229.259C424.049 229.259 422.166 217.863 420.494 211.8C418.822 205.738 412.59 192.966 412.59 192.966C412.59 192.966 406.633 184.11 409.617 175Z" fill="black"/>
<path opacity="0.1" d="M406.631 182.746L403.658 186.417L405.15 190.607L401.245 200.617L405.943 190.607L404.303 186.65L406.631 182.746Z" fill="black"/>
<path opacity="0.1" d="M385.683 181.559L386.328 185.358L383.757 188.712L387.333 199.97L384.561 188.839L386.931 185.707L385.683 181.559Z" fill="black"/>
<path d="M402.058 154.461C402.895 149.304 399.393 144.445 394.236 143.608C389.08 142.771 384.221 146.273 383.384 151.43C382.546 156.587 386.048 161.446 391.205 162.283C396.362 163.12 401.221 159.618 402.058 154.461Z" fill="#263238"/>
<path d="M409.064 159.656C409.064 159.656 407.53 166.862 406.948 168.047C406.536 168.773 405.862 169.315 405.064 169.56L405.17 164.492L409.064 159.656Z" fill="#263238"/>
<path d="M407.141 149.341C407.68 149.28 408.225 149.345 408.735 149.528C409.245 149.711 409.706 150.009 410.083 150.399C411.342 151.69 410.644 155.689 409.025 159.678L406.136 160.006L407.141 149.341Z" fill="#263238"/>
<path d="M405.278 159.995C405.86 160.334 406.685 159.223 407.394 158.482C407.673 158.154 408.032 157.903 408.436 157.754C408.84 157.605 409.276 157.562 409.701 157.631C410.126 157.699 410.527 157.875 410.864 158.143C411.201 158.411 411.464 158.761 411.627 159.16C412.812 161.657 410.568 164.958 408.77 165.508C405.595 166.503 405.13 164.45 405.13 164.45L404.897 176.206C402.707 179.009 397.797 182.311 395.152 181.835C393.036 181.464 392.581 177.898 394.602 175.56V172.111C393.203 172.333 391.784 172.404 390.369 172.322C388.041 171.963 386.581 170.132 385.872 167.614C384.74 163.572 384.306 160.313 385.269 152.356C386.327 143.637 396.464 143.553 401.934 146.991C407.405 150.43 405.278 159.995 405.278 159.995Z" fill="#FFA8A7"/>
<path d="M405.275 160.969C405.572 160.969 406.683 159.139 407.391 158.483C408.386 157.573 407.095 149.341 407.095 149.341C407.441 148.617 407.56 147.805 407.437 147.013C407.315 146.22 406.956 145.482 406.407 144.897C405.043 143.394 403.138 141.553 396.885 142.294C392.462 142.812 387.647 144.188 383.754 142.294C383.394 143.563 383.421 144.911 383.832 146.164C384.243 147.418 385.019 148.52 386.06 149.33C387.655 150.122 389.393 150.582 391.171 150.684C394.59 150.943 398.027 150.879 401.434 150.494C402.492 150.346 402.736 151.383 403.318 154.229C403.91 156.716 404.334 160.948 405.275 160.969Z" fill="#263238"/>
<path d="M407.138 149.986L410.641 148.103C410.528 147.867 410.369 147.656 410.173 147.483C409.977 147.31 409.748 147.179 409.5 147.097C409.252 147.015 408.99 146.984 408.73 147.006C408.469 147.028 408.216 147.102 407.985 147.224C407.52 147.492 407.174 147.926 407.017 148.438C406.86 148.951 406.903 149.504 407.138 149.986Z" fill="#263238"/>
<path d="M394.622 172.111C397.013 171.655 399.358 170.982 401.627 170.101C402.694 169.544 403.569 168.677 404.134 167.614C403.861 168.678 403.375 169.675 402.706 170.545C401.383 172.238 394.622 173.487 394.622 173.487V172.111Z" fill="#F28F8F"/>
<path d="M395.87 158.694C395.87 158.975 395.982 159.244 396.18 159.442C396.379 159.641 396.648 159.752 396.928 159.752C397.209 159.752 397.478 159.641 397.677 159.442C397.875 159.244 397.987 158.975 397.987 158.694C397.987 158.413 397.875 158.144 397.677 157.946C397.478 157.747 397.209 157.636 396.928 157.636C396.648 157.636 396.379 157.747 396.18 157.946C395.982 158.144 395.87 158.413 395.87 158.694Z" fill="#263238"/>
<path d="M396.971 154.769L399.193 155.996C399.351 155.69 399.385 155.335 399.289 155.004C399.192 154.673 398.972 154.392 398.674 154.219C398.527 154.139 398.365 154.09 398.199 154.075C398.032 154.059 397.864 154.078 397.705 154.13C397.546 154.181 397.399 154.264 397.272 154.374C397.146 154.484 397.044 154.618 396.971 154.769Z" fill="#263238"/>
<path d="M395.091 165.879L392.721 166.768C392.771 166.928 392.853 167.076 392.962 167.204C393.071 167.331 393.204 167.435 393.355 167.51C393.505 167.584 393.669 167.627 393.837 167.636C394.004 167.645 394.172 167.619 394.329 167.562C394.649 167.434 394.907 167.187 395.049 166.874C395.191 166.56 395.206 166.204 395.091 165.879Z" fill="#F28F8F"/>
<path d="M386.591 155.635L388.623 154.069C388.527 153.932 388.405 153.816 388.263 153.728C388.121 153.639 387.963 153.58 387.798 153.555C387.633 153.529 387.464 153.537 387.302 153.578C387.14 153.619 386.989 153.693 386.856 153.794C386.585 154.009 386.407 154.32 386.358 154.662C386.308 155.005 386.392 155.353 386.591 155.635Z" fill="#263238"/>
<path d="M387.214 158.355C387.214 158.636 387.326 158.905 387.524 159.103C387.723 159.302 387.992 159.413 388.272 159.413C388.553 159.413 388.822 159.302 389.021 159.103C389.219 158.905 389.331 158.636 389.331 158.355C389.331 158.075 389.219 157.805 389.021 157.607C388.822 157.409 388.553 157.297 388.272 157.297C387.992 157.297 387.723 157.409 387.524 157.607C387.326 157.805 387.214 158.075 387.214 158.355Z" fill="#263238"/>
<path d="M392.514 157.414L392.176 163.668L388.906 162.557L392.514 157.414Z" fill="#F28F8F"/>
<path d="M391.386 181.158C392.021 182.682 393.206 183.274 395.333 183.539C396.409 183.605 397.488 183.452 398.503 183.088C399.518 182.724 400.448 182.158 401.237 181.423L398.592 178.788L395.217 181.317L394.931 178.492L391.386 181.158Z" fill="#9F92FF"/>
<path opacity="0.1" d="M391.386 181.158C392.021 182.682 393.206 183.274 395.333 183.539C396.409 183.605 397.488 183.452 398.503 183.088C399.518 182.724 400.448 182.158 401.237 181.423L398.592 178.788L395.217 181.317L394.931 178.492L391.386 181.158Z" fill="black"/>
<path d="M393.054 180.333C392.742 181.248 392.623 182.217 392.705 183.18C392.806 184.037 393.135 184.852 393.657 185.539C393.992 185.755 394.373 185.891 394.77 185.935C395.166 185.979 395.568 185.93 395.943 185.793C396.627 185.205 397.177 184.476 397.555 183.656C397.933 182.837 398.13 181.945 398.133 181.042L395.212 181.37L393.054 180.333Z" fill="#9F92FF"/>
<path d="M393.639 185.538C393.639 185.538 390.179 204.584 390.042 206.15C389.904 207.716 392.02 213.154 393.343 213.197C394.666 213.239 397.247 208.298 397.279 206.848C397.311 205.399 395.925 185.739 395.925 185.739L393.639 185.538Z" fill="#9F92FF"/>
<path opacity="0.1" d="M395.947 185.792C395.577 185.955 395.171 186.018 394.77 185.973C394.368 185.929 393.986 185.778 393.661 185.538V185.845C393.991 186.108 394.38 186.288 394.794 186.369C395.209 186.45 395.637 186.43 396.042 186.31L395.947 185.792Z" fill="black"/>
<path d="M395.213 181.369L404.948 173.962V171.761C404.948 171.761 407.212 172.619 407.72 176.608C406.159 180.067 403.489 182.908 400.134 184.681L398.091 181.041L395.213 181.369Z" fill="#E0E0E0"/>
<path d="M394.619 172.767C393.347 172.968 392.206 173.665 391.445 174.704C390.471 176.302 390.694 182.449 390.694 182.449L393.021 180.333L395.138 181.391C394.937 179.349 394.534 175.624 394.534 175.624L394.619 172.767Z" fill="#E0E0E0"/>
<path d="M356.602 240.115C357.511 238.838 358.043 237.331 358.136 235.766C358.412 233.766 363.892 231.618 364.072 233.11C364.252 234.602 364.75 235.84 363.014 237.649C361.279 239.459 359.152 241.459 356.602 240.115Z" fill="#FFA8A7"/>
<path d="M356.889 227.197C355.577 228.89 354.773 232.181 354.075 233.292C353.376 234.403 352.551 235.408 354.075 235.567C355.598 235.725 357.81 232.805 358.635 231.006C358.955 230.295 359.441 229.671 360.053 229.186C360.294 228.994 360.561 228.837 360.847 228.721C360.138 228.477 360.508 225.621 360.011 225.229C360.011 225.229 357.429 226.287 356.889 227.197Z" fill="#FFA8A7"/>
</svg>
