<svg width="638" height="382" viewBox="0 0 638 382" fill="none" xmlns="http://www.w3.org/2000/svg">
<path d="M22.9391 25.6543L48.8672 25.6543V14.6975L22.9391 14.6975V25.6543Z" fill="#EBEBEB"/>
<path d="M37.3993 0.919138L50.2459 0.644974L56.7769 0.537266C58.9506 0.537266 61.1439 0.537265 63.3274 0.478516H63.7583V0.919138V11.8759V12.3655H63.2687L50.3046 12.297C45.9865 12.297 41.6587 12.1893 37.3406 12.1403H37.0664V11.8759C37.0664 10.0155 37.1447 8.16491 37.1937 6.33388L37.3993 0.919138ZM37.3993 0.919138L37.5364 6.45138C37.5364 8.27262 37.6441 10.0841 37.6637 11.8759L37.3993 11.6018C41.7174 11.5528 46.0453 11.4549 50.3634 11.4451L63.3274 11.3863L62.8379 11.8759L62.8868 0.919138L63.3274 1.34997C61.1929 1.34997 59.0583 1.34997 56.9139 1.34997L50.4809 1.24226L37.3993 0.919138Z" fill="#EBEBEB"/>
<path d="M8.47338 0.919214L21.3395 0.615674L27.8607 0.50797C30.0442 0.50797 32.2376 0.507968 34.4211 0.449219H34.8519V0.919214L34.9107 11.876V12.3656H34.4211L21.4374 12.2677C17.1096 12.2677 12.7915 12.16 8.47338 12.111H8.19922V11.8466C8.19922 9.98622 8.28734 8.13561 8.32651 6.30459L8.47338 0.919214ZM8.47338 0.919214L8.61046 6.42208C8.61046 8.24332 8.71817 10.0548 8.73776 11.8466L8.47338 11.5725C12.7915 11.5235 17.1096 11.4256 21.4374 11.4158L34.4015 11.357L33.9119 11.8466V0.889841L34.3525 1.32067C32.2082 1.32067 30.0834 1.32067 27.939 1.32067L21.4962 1.21296L8.47338 0.919214Z" fill="#EBEBEB"/>
<path d="M562.184 93.3429L575.031 93.0688L581.552 92.9611C583.736 92.9121 585.929 92.9611 588.112 92.9121H588.543V93.3527L588.602 104.31V104.799H588.112L575.148 104.711C570.83 104.711 566.502 104.593 562.184 104.545H561.91V104.28C561.91 102.42 561.988 100.569 562.037 98.7479L562.184 93.3429ZM562.184 93.3429L562.321 98.8752C562.321 100.706 562.429 102.508 562.449 104.3L562.184 104.035C566.502 103.986 570.83 103.879 575.148 103.869L588.112 103.81L587.623 104.3V93.3429L588.063 93.7836C585.929 93.7836 583.794 93.7836 581.65 93.7248L575.207 93.6171L562.184 93.3429Z" fill="#EBEBEB"/>
<path d="M576.65 90.4824H602.578V79.5256H576.65V90.4824Z" fill="#EBEBEB"/>
<path d="M327.88 199.747L340.736 199.473L347.257 199.365C349.431 199.365 351.624 199.365 353.808 199.307H354.248V199.747L354.297 210.704V211.194H353.798L340.834 211.125C336.516 211.125 332.198 211.017 327.87 210.968H327.605V210.704C327.605 208.844 327.694 206.993 327.733 205.162L327.88 199.747ZM327.88 199.747L328.017 205.279C328.066 207.101 328.134 208.912 328.154 210.704L327.88 210.43C332.208 210.381 336.526 210.283 340.844 210.273L353.808 210.214L353.318 210.704L353.377 199.747L353.808 200.178C351.673 200.178 349.548 200.178 347.404 200.129L340.961 200.021L327.88 199.747Z" fill="#EBEBEB"/>
<path d="M342.357 196.891H368.285V185.934H342.357V196.891Z" fill="#EBEBEB"/>
<path d="M547.727 79.5264L560.574 79.2522L567.095 79.1445C569.279 79.1445 571.472 79.1445 573.655 79.1445H574.086V79.5851L574.145 90.5419V91.0315H573.655L560.691 90.9728C556.363 90.9728 552.045 90.8651 547.727 90.8063H547.453V90.5419C547.453 88.6815 547.541 86.8309 547.58 85.0097L547.727 79.5264ZM547.727 79.5264L547.864 85.0684C547.864 86.8897 547.972 88.6913 547.992 90.4832L547.727 90.2188C552.045 90.2188 556.363 90.0621 560.691 90.0524L573.655 89.9936L573.166 90.4832V79.5264L573.606 79.967C571.472 79.967 569.337 79.967 567.193 79.9083L560.75 79.8006L547.727 79.5264Z" fill="#EBEBEB"/>
<path d="M591.819 0.919138L604.675 0.644974L611.197 0.537266C613.37 0.537266 615.564 0.537265 617.747 0.478516H618.188V0.919138L618.237 11.8759V12.3655H617.747L604.783 12.297C600.465 12.297 596.137 12.1893 591.819 12.1403H591.555V11.8759C591.555 10.0155 591.633 8.16491 591.682 6.33388L591.819 0.919138ZM591.819 0.919138L591.956 6.45138C591.956 8.27262 592.074 10.0841 592.083 11.8759L591.819 11.6018C596.137 11.5528 600.465 11.4549 604.783 11.4451L617.747 11.3863L617.258 11.8759L617.316 0.919138L617.747 1.34997C615.613 1.34997 613.478 1.34997 611.344 1.34997L604.92 1.16393L591.819 0.919138Z" fill="#EBEBEB"/>
<path d="M233.065 80.958L245.912 80.6839L252.433 80.5762C254.616 80.5762 256.81 80.5762 258.993 80.5762H259.424V81.0168L259.483 91.9736V92.4632H258.993L246.029 92.4044C241.701 92.4044 237.383 92.2967 233.065 92.2379H232.84V91.9736C232.84 90.1132 232.928 88.2626 232.967 86.4413L233.065 80.958ZM233.065 80.958L233.202 86.5001C233.202 88.3213 233.31 90.123 233.329 91.9148L233.065 91.6505C237.383 91.6505 241.701 91.4938 246.029 91.484L258.993 91.4252L258.504 91.9148L258.553 80.958L258.993 81.3987C256.849 81.3987 254.724 81.3987 252.58 81.3399L246.137 81.2322L233.065 80.958Z" fill="#EBEBEB"/>
<path d="M603.619 349.312H629.547V338.356H603.619V349.312Z" fill="#EBEBEB"/>
<path d="M153.173 263.489C150.021 257.445 146.894 251.38 143.793 245.296L134.56 227.006L125.444 208.647C122.421 202.517 119.428 196.365 116.465 190.189C119.618 196.228 122.741 202.292 125.835 208.382L135.069 226.663L144.185 245.032C147.214 251.162 150.21 257.314 153.173 263.489Z" fill="#EBEBEB"/>
<path d="M153.173 190.189C150.21 196.358 147.214 202.511 144.185 208.647L135.069 227.006L125.835 245.296C122.741 251.387 119.618 257.451 116.465 263.489C119.422 257.321 122.415 251.168 125.444 245.032L134.56 226.663L143.793 208.382C146.887 202.292 150.014 196.228 153.173 190.189Z" fill="#EBEBEB"/>
<path d="M108.1 254.482H98.9453V263.638H108.1V254.482Z" fill="white"/>
<path d="M169.086 268.914H118.355V364.088H169.086V268.914Z" fill="#C7C7C7"/>
<path d="M77.5728 292.424H75.497H73.9303L73.0393 290.622L71.786 292.424L70.092 288.703L68.4862 292.424H63.8842H61.7888L61.025 289.946L60.32 292.424H58.9492V268.914H77.5728V292.424Z" fill="white"/>
<path d="M165.587 358.431C161.84 351.518 158.119 344.579 154.424 337.614L143.419 316.7L132.55 295.697C128.947 288.686 125.379 281.649 121.848 274.586C125.608 281.499 129.332 288.435 133.02 295.393L144.026 316.308L154.884 337.321C158.488 344.331 162.055 351.368 165.587 358.431Z" fill="#DBDBDB"/>
<path d="M165.587 274.586C162.055 281.642 158.488 288.679 154.884 295.697L144.026 316.7L133.02 337.624C129.338 344.576 125.614 351.512 121.848 358.431C125.379 351.375 128.947 344.338 132.55 337.321L143.419 316.308L154.424 295.393C158.106 288.435 161.827 281.499 165.587 274.586Z" fill="#DBDBDB"/>
<path d="M37.4394 367.096H24.9453V378.199H37.4394V367.096Z" fill="#DBDBDB"/>
<path d="M37.4394 369.544L24.9453 371.052V367.096H37.4394V369.544Z" fill="#C7C7C7"/>
<path d="M102.771 367.096H90.2773V378.199H102.771V367.096Z" fill="#DBDBDB"/>
<path d="M102.771 369.544L90.2773 371.052V367.096H102.771V369.544Z" fill="#C7C7C7"/>
<path d="M168.115 367.096H155.621V378.199H168.115V367.096Z" fill="#DBDBDB"/>
<path d="M168.115 369.544L155.621 371.052V367.096H168.115V369.544Z" fill="#C7C7C7"/>
<path d="M175.002 364.09H18.0625V367.096H175.002V364.09Z" fill="#DBDBDB"/>
<path d="M175.002 378.199H18.0625V381.205H175.002V378.199Z" fill="#DBDBDB"/>
<path d="M290.392 272.783H207.938V364.09H290.392V272.783Z" fill="#EBEBEB"/>
<path d="M332.964 272.783H290.391V364.09H332.964V272.783Z" fill="#DBDBDB"/>
<path d="M330.029 357.803C326.876 351.314 323.753 344.786 320.658 338.219L311.425 318.578L302.299 298.857C299.277 292.264 296.284 285.655 293.32 279.029C296.473 285.518 299.6 292.046 302.701 298.612L311.934 318.254L321.05 337.975C324.079 344.561 327.072 351.17 330.029 357.803Z" fill="#EBEBEB"/>
<path d="M330.029 279.068C327.065 285.694 324.072 292.303 321.05 298.896L311.934 318.617L302.701 338.258C299.607 344.786 296.48 351.314 293.32 357.842C296.29 351.209 299.283 344.6 302.299 338.014L311.425 318.293L320.658 298.583C323.753 292.055 326.876 285.55 330.029 279.068Z" fill="#EBEBEB"/>
<path d="M294.939 157.035H233.977V219.897H294.939V157.035Z" fill="#EBEBEB"/>
<path d="M326.414 157.035H294.934V219.897H326.414V157.035Z" fill="#DBDBDB"/>
<path d="M269.634 171.625H268.342H267.372L266.814 170.499L266.041 171.625L264.993 169.314L263.994 171.625H261.135H259.833L259.363 170.087L258.922 171.625H258.07V157.035H269.634V171.625Z" fill="#DBDBDB"/>
<path d="M324.254 215.892C321.923 211.42 319.612 206.936 317.321 202.438L310.467 188.916L303.721 175.335C301.488 170.805 299.275 166.255 297.082 161.686C299.412 166.157 301.723 170.642 304.014 175.139L310.869 188.661L317.615 202.242C319.847 206.779 322.06 211.329 324.254 215.892Z" fill="#EBEBEB"/>
<path d="M324.254 161.686C322.06 166.255 319.847 170.805 317.615 175.335L310.869 188.916L304.014 202.438C301.723 206.929 299.412 211.414 297.082 215.892C299.275 211.322 301.488 206.773 303.721 202.242L310.467 188.661L317.321 175.139C319.612 170.615 321.923 166.131 324.254 161.686Z" fill="#EBEBEB"/>
<path d="M290.918 209.223H284.152V215.989H290.918V209.223Z" fill="white"/>
<path d="M244.419 216.441H244.762V211.575H244.419V216.441Z" fill="white"/>
<path d="M243.587 216.441H243.93V211.575H243.587V216.441Z" fill="white"/>
<path d="M242.767 216.441H243.109V211.575H242.767V216.441Z" fill="white"/>
<path d="M241.935 216.441H242.277V211.575H241.935V216.441Z" fill="white"/>
<path d="M241.11 216.441H241.453V211.575H241.11V216.441Z" fill="white"/>
<path d="M240.278 216.441H240.621V211.575H240.278V216.441Z" fill="white"/>
<path d="M239.458 216.441H239.801V211.575H239.458V216.441Z" fill="white"/>
<path d="M238.622 216.441H238.965V211.575H238.622V216.441Z" fill="white"/>
<path d="M237.802 216.441H238.145V211.575H237.802V216.441Z" fill="white"/>
<path d="M248.144 216.07L246.812 216.443H249.926L248.604 216.07V214.288C249.584 214.161 249.926 213.221 249.926 211.586H246.812C246.812 213.221 247.194 214.161 248.144 214.288V216.07Z" fill="white"/>
<path d="M250.648 214.063H251.461V216.443H253.547V214.063H254.369L252.509 211.586L250.648 214.063Z" fill="white"/>
<path d="M295.885 219.898H213.43V272.773H295.885V219.898Z" fill="#DBDBDB"/>
<path d="M338.461 219.898H295.887V272.783H338.461V219.898Z" fill="#C7C7C7"/>
<path d="M261.659 239.628H259.916H258.604L257.85 238.111L256.802 239.628L255.382 236.505L254.031 239.628H250.173H248.411L247.774 237.543L247.177 239.628H246.031V219.898H261.659V239.628Z" fill="white"/>
<path d="M335.521 269.639C332.368 265.788 329.245 261.933 326.151 258.075L316.917 246.453L307.791 234.781C304.776 230.865 301.783 226.948 298.812 223.031C301.965 226.87 305.092 230.721 308.193 234.585L317.426 246.208L326.542 257.879C329.571 261.79 332.564 265.71 335.521 269.639Z" fill="#DBDBDB"/>
<path d="M335.525 223.051C332.568 226.967 329.575 230.884 326.546 234.801L317.43 246.472L308.236 258.075C305.142 261.94 302.015 265.794 298.855 269.639C301.826 265.723 304.819 261.806 307.834 257.889L316.96 246.218L326.194 234.595C329.235 230.731 332.346 226.883 335.525 223.051Z" fill="#DBDBDB"/>
<path d="M218.428 367.096H205.934V378.199H218.428V367.096Z" fill="#DBDBDB"/>
<path d="M218.437 369.544L205.934 371.052V367.096H218.437V369.544Z" fill="#C7C7C7"/>
<path d="M283.764 367.096H271.27V378.199H283.764V367.096Z" fill="#DBDBDB"/>
<path d="M283.773 369.544L271.27 371.052V367.096H283.773V369.544Z" fill="#C7C7C7"/>
<path d="M349.103 367.096H336.609V378.199H349.103V367.096Z" fill="#DBDBDB"/>
<path d="M349.113 369.544L336.609 371.052V367.096H349.113V369.544Z" fill="#C7C7C7"/>
<path d="M355.99 364.09H199.051V367.096H355.99V364.09Z" fill="#DBDBDB"/>
<path d="M355.99 378.199H199.051V381.205H355.99V378.199Z" fill="#DBDBDB"/>
<path d="M410.871 35.4141H378.656V381.214H410.871V35.4141Z" fill="#C7C7C7"/>
<path d="M620.832 35.4141H588.617V381.214H620.832V35.4141Z" fill="#EBEBEB"/>
<path d="M588.613 69.332H391.871V80.9448H588.613V69.332Z" fill="#DBDBDB"/>
<path d="M588.613 144.396H391.871V156.009H588.613V144.396Z" fill="#DBDBDB"/>
<path d="M588.613 219.467H391.871V231.08H588.613V219.467Z" fill="#DBDBDB"/>
<path d="M588.613 294.527H391.871V306.14H588.613V294.527Z" fill="#DBDBDB"/>
<path d="M588.613 369.6H391.871V381.212H588.613V369.6Z" fill="#DBDBDB"/>
<path d="M475.621 81.5234H414.648V144.395H475.621V81.5234Z" fill="#EBEBEB"/>
<path d="M507.097 81.5234H475.617V144.395H507.097V81.5234Z" fill="#DBDBDB"/>
<path d="M450.308 96.1129H449.015H448.046L447.498 94.9967L446.724 96.1129L445.667 93.8021L444.668 96.1129H441.819H440.516L440.037 94.5756L439.596 96.1129H438.754V81.5234H450.308V96.1129Z" fill="#DBDBDB"/>
<path d="M504.937 140.382C502.607 135.917 500.296 131.433 498.005 126.928L491.151 113.406L484.482 99.8155C482.237 95.2852 480.024 90.7354 477.844 86.166C480.174 90.6375 482.485 95.1221 484.776 99.6197L491.63 113.142L498.377 126.723C500.557 131.266 502.744 135.819 504.937 140.382Z" fill="#EBEBEB"/>
<path d="M504.937 86.1738C502.744 90.7432 500.531 95.293 498.299 99.8233L491.552 113.404L484.698 126.926C482.407 131.431 480.096 135.915 477.766 140.38C479.959 135.811 482.172 131.261 484.404 126.731L491.151 113.15L498.005 99.6275C500.296 95.1364 502.607 90.6518 504.937 86.1738Z" fill="#EBEBEB"/>
<path d="M471.606 133.723H464.84V140.489H471.606V133.723Z" fill="white"/>
<path d="M514.023 180.359H453.051V219.467H514.023V180.359Z" fill="#DBDBDB"/>
<path d="M545.5 180.359H514.02V219.467H545.5V180.359Z" fill="#C7C7C7"/>
<path d="M488.702 194.949H487.42H486.45L485.892 193.823L485.119 194.949L484.061 192.638L483.063 194.949H480.213H478.911L478.441 193.412L478 194.949H477.148V180.359H488.702V194.949Z" fill="white"/>
<path d="M543.328 217.136C540.997 214.297 538.687 211.447 536.395 208.588L529.541 199.991L522.795 191.365C520.562 188.48 518.349 185.588 516.156 182.689C518.487 185.529 520.797 188.378 523.089 191.237L529.943 199.834L536.689 208.461C538.931 211.34 541.134 214.238 543.328 217.136Z" fill="#DBDBDB"/>
<path d="M543.328 182.689C541.134 185.627 538.931 188.476 536.689 191.355L529.943 199.991L523.089 208.588C520.797 211.447 518.487 214.297 516.156 217.136C518.349 214.238 520.562 211.346 522.795 208.461L529.541 199.834L536.395 191.237C538.687 188.385 540.997 185.536 543.328 182.689Z" fill="#DBDBDB"/>
<path d="M0 381.216L79.7525 380.971L159.495 380.893L319 380.727L478.505 380.893L558.257 380.971L638 381.216L558.257 381.451L478.505 381.539L319 381.706L159.495 381.539L79.7525 381.451L0 381.216Z" fill="#263238"/>
<path d="M415.344 32.6523H396.848V353.346H415.344V32.6523Z" fill="#37474F"/>
<path d="M407.295 44.7949H404.906V341.206H407.295V44.7949Z" fill="#263238"/>
<path d="M379.695 102.251L396.85 107.117V32.6523L379.695 37.5188V102.251Z" fill="#263238"/>
<path d="M425.047 104.141L415.344 111.445V283.229L425.047 290.533V104.141Z" fill="#263238"/>
<path d="M592.649 283.748H425.047V290.534L592.649 285.912V283.748Z" fill="#263238"/>
<path d="M379.458 357.705H44.0664V270.854H127.168H194.162H206.597H352.746L379.458 295.401V357.705Z" fill="#A79CFF"/>
<path opacity="0.2" d="M160.861 357.707H65.403C61.1114 349.498 59.0093 340.322 59.3 331.064C59.5906 321.807 62.264 312.78 67.062 304.858C71.8599 296.935 78.6202 290.383 86.6896 285.836C94.759 281.289 103.865 278.9 113.127 278.9C122.39 278.9 131.495 281.289 139.565 285.836C147.634 290.383 154.394 296.935 159.192 304.858C163.99 312.78 166.664 321.807 166.954 331.064C167.245 340.322 165.143 349.498 160.851 357.707H160.861Z" fill="black"/>
<path opacity="0.2" d="M379.462 295.392V357.706H319.342C315.32 349.977 313.234 341.388 313.262 332.676C313.29 323.963 315.431 315.388 319.502 307.685C323.573 299.982 329.452 293.382 336.635 288.451C343.818 283.52 352.089 280.405 360.741 279.373L361.867 279.256L379.462 295.392Z" fill="black"/>
<path opacity="0.2" d="M301.631 332.844H229.457L206.594 312.233V270.854H301.631V332.844Z" fill="black"/>
<path d="M352.75 270.854H396.851V281.507L379.461 295.391L352.75 270.854Z" fill="#37474F"/>
<g opacity="0.2">
<path opacity="0.2" d="M180.757 270.855H164.004L186.476 357.697H203.219L180.757 270.855Z" fill="white"/>
<path opacity="0.2" d="M192.313 270.855H187.594L210.065 357.697H214.785L192.313 270.855Z" fill="white"/>
</g>
<path d="M413.081 324.197L412.386 324.119L413.159 330.669L413.815 330.434C413.815 329.396 413.678 328.339 413.551 327.291C413.424 326.244 413.277 325.215 413.081 324.197ZM412.102 322.689L412.719 322.346C412.245 320.304 411.637 318.296 410.897 316.334H410.192L412.102 322.689ZM412.836 338.698L413.531 338.591C413.797 336.51 413.914 334.412 413.884 332.314L413.218 332.118L412.836 338.698ZM410.202 314.572C409.394 312.641 408.452 310.77 407.382 308.971L406.697 309.138L409.634 315.013L410.202 314.572ZM411.123 346.561H411.818C412.441 344.557 412.925 342.512 413.267 340.441L412.63 340.128L411.123 346.561ZM401.987 302.607L405.904 307.894L406.354 307.356C405.222 305.594 403.966 303.915 402.594 302.332L401.987 302.607ZM408.107 354.003L408.782 354.12C409.743 352.261 410.574 350.337 411.269 348.363L410.711 347.942L408.107 354.003ZM396.249 297.016L401.057 301.53L401.409 300.932C399.987 299.392 398.459 297.952 396.837 296.624L396.249 297.016ZM403.789 360.798L404.445 361.033C405.709 359.362 406.861 357.609 407.891 355.785L407.412 355.285L403.789 360.798ZM389.601 292.492L395.104 296.105L395.358 295.449C393.685 294.186 391.928 293.038 390.1 292.012L389.601 292.492ZM398.413 366.751L399.01 367.094C400.546 365.667 401.985 364.139 403.319 362.521L402.937 361.934L398.413 366.751ZM382.286 289.202L388.347 291.807L388.484 291.111C386.616 290.158 384.686 289.33 382.707 288.634L382.286 289.202ZM392.078 371.657L392.616 372.107C394.376 370.972 396.055 369.716 397.64 368.347L397.365 367.721L392.078 371.657ZM374.531 287.234L380.945 288.742V288.037C378.945 287.415 376.903 286.938 374.835 286.607L374.531 287.234ZM384.959 375.358L385.4 375.897C387.334 375.089 389.209 374.147 391.011 373.077L390.844 372.401L384.959 375.358ZM366.708 285.951L366.512 286.617L373.082 286.989L372.975 286.304C370.853 286.052 368.717 285.944 366.581 285.981L366.708 285.951ZM377.635 378.394C379.68 377.938 381.689 377.336 383.647 376.592L383.598 375.897L377.293 377.796L377.635 378.394ZM361.685 286.274C360.637 286.402 359.609 286.548 358.581 286.754L358.503 287.439L365.053 286.666L364.818 286.02C363.653 286.088 362.615 286.176 361.558 286.304L361.685 286.274ZM369.518 379.52C370.556 379.471 371.604 379.382 372.651 379.255C373.699 379.128 374.747 378.981 375.765 378.775L375.843 378.1L369.293 378.873L369.518 379.52ZM350.689 288.938L350.738 289.633L357.053 287.733L356.711 287.136C354.629 287.597 352.584 288.209 350.591 288.967L350.689 288.938ZM361.372 379.226C363.45 379.486 365.544 379.604 367.638 379.578L367.834 378.912L361.244 378.54L361.372 379.226ZM343.335 292.463L343.492 293.138L349.367 290.201L348.917 289.652C346.96 290.465 345.062 291.414 343.238 292.492L343.335 292.463ZM353.274 377.542C355.273 378.169 357.315 378.654 359.384 378.991L359.687 378.364L353.274 376.856V377.542ZM336.628 297.251L336.902 297.887L342.19 293.97L341.661 293.51C339.899 294.64 338.218 295.89 336.628 297.251ZM345.754 374.467C347.619 375.43 349.55 376.261 351.531 376.954L351.942 376.386L345.881 373.791L345.754 374.467ZM330.92 303.077L331.302 303.654L335.825 298.856L335.228 298.504C333.678 299.926 332.228 301.454 330.89 303.077H330.92ZM338.851 370.129C340.522 371.398 342.279 372.55 344.109 373.576L344.599 373.106L339.086 369.483L338.851 370.129ZM326.308 309.813L326.788 310.313L330.401 304.8L329.755 304.565C328.475 306.232 327.314 307.985 326.278 309.813H326.308ZM332.8 364.646C334.223 366.189 335.754 367.629 337.382 368.954L337.94 368.573L333.142 364.059L332.8 364.646ZM322.92 317.235L323.478 317.647L326.083 311.586L325.407 311.468C324.444 313.33 323.613 315.257 322.92 317.235ZM327.816 358.223C328.952 359.982 330.205 361.664 331.566 363.256L332.202 362.982L328.286 357.694L327.816 358.223ZM320.962 325.147L321.588 325.45L323.096 319.027H322.391C321.749 321.031 321.242 323.075 320.874 325.147H320.962ZM323.899 351.016C324.716 352.949 325.664 354.824 326.739 356.627L327.404 356.451L324.467 350.576L323.899 351.016ZM321.255 326.89L320.58 327.007C320.316 329.089 320.195 331.186 320.217 333.284L320.874 333.48L321.255 326.89ZM321.99 342.909L321.402 343.242C321.867 345.288 322.472 347.3 323.214 349.264L323.889 349.215L321.99 342.909ZM320.962 334.929L320.315 335.154C320.315 336.192 320.452 337.239 320.57 338.287C320.687 339.335 320.864 340.383 321.06 341.411L321.735 341.479L320.962 334.929Z" fill="#263238"/>
<path d="M413.164 330.671L413.82 330.436C413.82 331.063 413.879 331.689 413.879 332.316L413.213 332.12L412.831 338.7L413.526 338.592C413.458 339.219 413.36 339.836 413.262 340.453L412.626 340.139L411.118 346.563H411.813C411.637 347.163 411.441 347.761 411.225 348.355L410.667 347.934L408.112 354.004L408.787 354.122C408.513 354.68 408.21 355.248 407.896 355.786L407.417 355.287L403.794 360.8L404.45 361.035C404.078 361.534 403.676 362.014 403.284 362.523L402.903 361.936L398.32 366.753L398.917 367.096C398.467 367.517 397.987 367.938 397.507 368.349L397.233 367.722L391.946 371.639L392.484 372.089C391.956 372.432 391.427 372.775 390.879 373.069L390.712 372.393L384.837 375.33L385.278 375.869C384.7 376.124 384.122 376.349 383.525 376.564L383.476 375.869L377.17 377.769L377.513 378.366C376.906 378.513 376.289 378.63 375.672 378.748L375.751 378.072L369.2 378.846L369.425 379.492C368.772 379.492 368.146 379.511 367.545 379.551L367.741 378.885L361.151 378.513L361.279 379.198C360.652 379.13 360.035 379.041 359.408 378.934L359.712 378.307L353.279 376.858V377.543C352.682 377.357 352.074 377.171 351.487 376.956L351.898 376.388L345.837 373.793L345.71 374.469C345.152 374.195 344.613 373.891 344.065 373.578L344.555 373.108L339.042 369.485L338.807 370.131C338.307 369.749 337.828 369.367 337.338 368.966L337.896 368.584L333.098 364.07L332.756 364.658C332.325 364.197 331.904 363.737 331.493 363.257L332.129 362.983L328.212 357.696L327.772 358.225C327.419 357.696 327.096 357.167 326.793 356.629L327.458 356.452L324.521 350.577L323.982 351.028C323.747 350.45 323.503 349.872 323.297 349.275L323.973 349.226L322.073 342.92L321.486 343.253C321.348 342.646 321.221 342.039 321.113 341.422L321.789 341.491L321.016 334.94L320.369 335.165C320.369 334.548 320.311 333.922 320.301 333.295L320.957 333.491L321.339 326.901L320.663 327.019C320.732 326.392 320.82 325.775 320.927 325.158L321.554 325.462L323.062 319.039H322.357C322.543 318.441 322.749 317.844 322.954 317.247L323.512 317.658L326.117 311.597L325.441 311.48C325.725 310.921 326.029 310.363 326.332 309.825L326.812 310.324L330.425 304.811L329.779 304.576C330.151 304.077 330.543 303.597 330.944 303.088L331.326 303.666L335.85 298.868L335.253 298.515C335.703 298.085 336.173 297.673 336.653 297.262L336.927 297.899L342.214 293.982L341.686 293.522C342.205 293.179 342.743 292.846 343.291 292.543L343.448 293.218L349.323 290.281L348.873 289.732C349.46 289.478 350.048 289.253 350.635 289.037L350.684 289.732L357 287.833L356.657 287.236C357.264 287.089 357.881 286.961 358.498 286.854L358.419 287.539L364.97 286.766L364.735 286.119C365.371 286.07 365.998 286.061 366.625 286.051L366.429 286.717L372.999 287.089L372.891 286.403C373.518 286.472 374.135 286.56 374.762 286.677L374.448 287.304L380.862 288.812V288.107C381.459 288.293 382.066 288.489 382.654 288.704L382.233 289.272L388.294 291.877L388.431 291.182C388.989 291.475 389.537 291.769 390.085 292.082L389.586 292.562L395.089 296.175L395.343 295.519C395.843 295.911 396.323 296.293 396.822 296.694L396.235 297.086L401.042 301.6L401.395 301.003C401.826 301.453 402.247 301.923 402.648 302.403L402.012 302.677L405.928 307.964L406.379 307.426C406.731 307.955 407.057 308.493 407.358 309.041L406.672 309.208L409.61 315.083L410.148 314.632C410.403 315.21 410.638 315.798 410.844 316.395H410.139L412.048 322.71L412.665 322.368C412.792 322.985 412.929 323.592 413.037 324.218L412.342 324.14L413.164 330.671Z" fill="#263238"/>
<path d="M364.926 286.697L358.375 287.47L358.463 286.785L358.688 284.65L363.966 284.023L364.691 286.05L364.926 286.697Z" fill="#263238"/>
<path d="M356.955 287.762L350.639 289.662L350.59 288.967L350.453 286.842L355.545 285.305L356.612 287.165L356.955 287.762Z" fill="#263238"/>
<path d="M349.281 290.211L343.396 293.178L343.24 292.492L342.73 290.417L347.479 288.018L348.831 289.663L349.281 290.211Z" fill="#263238"/>
<path d="M342.158 293.933L336.87 297.888L336.586 297.252L335.734 295.284L339.994 292.111L341.629 293.482L342.158 293.933Z" fill="#263238"/>
<path d="M335.786 298.848L331.272 303.655L330.89 303.078L329.695 301.295L333.338 297.418L335.198 298.505L335.786 298.848Z" fill="#263238"/>
<path d="M330.37 304.799L326.757 310.312L326.277 309.813L324.789 308.266L327.707 303.82L329.724 304.564L330.37 304.799Z" fill="#263238"/>
<path d="M326.066 311.585L323.461 317.646L322.903 317.245L321.18 315.972L323.275 311.086L325.38 311.468L326.066 311.585Z" fill="#263238"/>
<path d="M323.009 319.027L321.501 325.451L320.874 325.147L318.945 324.197L320.169 319.018L322.314 319.027H323.009Z" fill="#263238"/>
<path d="M321.289 326.893L320.908 333.482L320.252 333.286L318.195 332.689L318.499 327.372L320.614 327.01L321.289 326.893Z" fill="#263238"/>
<path d="M320.966 334.928L321.74 341.478L321.064 341.41L318.91 341.165L318.293 335.897L320.32 335.153L320.966 334.928Z" fill="#263238"/>
<path d="M323.916 349.214L323.24 349.263L321.096 349.4L319.559 344.308L321.429 343.241L322.016 342.908L323.916 349.214Z" fill="#263238"/>
<path d="M327.432 356.461L326.766 356.627L324.67 357.137L322.281 352.388L323.926 351.017L324.465 350.566L327.432 356.461Z" fill="#263238"/>
<path d="M332.144 362.983L331.508 363.257L329.54 364.128L326.367 359.859L327.758 358.224L328.198 357.695L332.144 362.983Z" fill="#263238"/>
<path d="M337.915 368.584L337.357 368.966L335.555 370.161L331.688 366.518L332.774 364.658L333.117 364.07L337.915 368.584Z" fill="#263238"/>
<path d="M344.57 373.105L344.08 373.575L342.523 375.054L338.078 372.146L338.822 370.129L339.057 369.482L344.57 373.105Z" fill="#263238"/>
<path d="M351.914 376.388L351.503 376.956L350.24 378.689L345.344 376.574L345.726 374.469L345.853 373.793L351.914 376.388Z" fill="#263238"/>
<path d="M359.708 378.365L359.405 378.992L358.465 380.901L353.285 379.687L353.295 377.543V376.857L359.708 378.365Z" fill="#263238"/>
<path d="M367.738 378.944L367.542 379.61L366.945 381.676L361.638 381.373L361.276 379.258L361.148 378.572L367.738 378.944Z" fill="#263238"/>
<path d="M375.748 378.133L375.67 378.808L375.435 380.953L370.157 381.579L369.422 379.553L369.188 378.906L375.748 378.133Z" fill="#263238"/>
<path d="M383.474 375.926L383.523 376.621L383.67 378.756L378.578 380.293L377.511 378.423L377.168 377.825L383.474 375.926Z" fill="#263238"/>
<path d="M391.392 375.181L386.643 377.57L385.273 375.925L384.832 375.387L390.717 372.43L390.883 373.105L391.392 375.181Z" fill="#263238"/>
<path d="M398.386 370.308L394.127 373.49L392.492 372.109L391.953 371.659L397.241 367.723L397.515 368.349L398.386 370.308Z" fill="#263238"/>
<path d="M404.424 364.305L400.772 368.173L398.921 367.096L398.324 366.753L402.848 361.936L403.23 362.523L404.424 364.305Z" fill="#263238"/>
<path d="M409.323 357.332L406.415 361.777L404.398 361.033L403.742 360.798L407.365 355.285L407.845 355.785L409.323 357.332Z" fill="#263238"/>
<path d="M412.943 349.626L410.837 354.512L408.732 354.12L408.047 354.002L410.661 347.941L411.219 348.362L412.943 349.626Z" fill="#263238"/>
<path d="M415.157 341.402L413.953 346.582L411.818 346.572L411.113 346.562L412.621 340.139L413.258 340.452L415.157 341.402Z" fill="#263238"/>
<path d="M415.932 332.91L415.629 338.227L413.523 338.589L412.828 338.697L413.2 332.117L413.876 332.313L415.932 332.91Z" fill="#263238"/>
<path d="M415.211 324.434L415.837 329.712L413.82 330.437L413.164 330.672L412.391 324.121L413.086 324.199L415.211 324.434Z" fill="#263238"/>
<path d="M414.557 321.291L412.706 322.348L412.089 322.701L410.18 316.375L410.885 316.336L413.019 316.199L414.557 321.291Z" fill="#263238"/>
<path d="M411.832 313.214L410.197 314.575L409.658 315.025L406.691 309.14L407.377 308.974L409.453 308.465L411.832 313.214Z" fill="#263238"/>
<path d="M407.758 305.742L406.377 307.357L405.926 307.896L401.98 302.618L402.617 302.334L404.565 301.473L407.758 305.742Z" fill="#263238"/>
<path d="M402.431 299.084L401.363 300.934L401.011 301.532L396.203 297.018L396.791 296.626L398.573 295.441L402.431 299.084Z" fill="#263238"/>
<path d="M396.047 293.451L395.312 295.449L395.067 296.105L389.555 292.492L390.054 292.012L391.601 290.533L396.047 293.451Z" fill="#263238"/>
<path d="M388.769 289.015L388.397 291.111L388.26 291.806L382.199 289.201L382.62 288.633L383.883 286.91L388.769 289.015Z" fill="#263238"/>
<path d="M380.839 285.911L380.83 288.036L380.82 288.741L374.406 287.233L374.71 286.597L375.66 284.687L380.839 285.911Z" fill="#263238"/>
<path d="M372.967 287.02L366.387 286.648L366.583 285.982L367.18 283.936L372.487 284.239L372.849 286.334L372.967 287.02Z" fill="#263238"/>
<path d="M404.607 328.357C405.485 335.783 404.141 343.302 400.746 349.963C397.35 356.625 392.056 362.13 385.532 365.783C379.008 369.435 371.547 371.071 364.093 370.484C356.639 369.897 349.527 367.112 343.655 362.483C337.784 357.853 333.417 351.587 331.107 344.475C328.797 337.364 328.648 329.728 330.678 322.531C332.708 315.335 336.826 308.903 342.512 304.047C348.198 299.191 355.196 296.131 362.621 295.252C367.551 294.669 372.549 295.062 377.327 296.41C382.106 297.758 386.572 300.034 390.471 303.108C394.37 306.183 397.625 309.995 400.05 314.327C402.476 318.659 404.024 323.427 404.607 328.357Z" fill="#37474F"/>
<path d="M391.225 329.917C391.792 334.696 390.929 339.536 388.745 343.824C386.562 348.113 383.155 351.658 378.957 354.01C374.758 356.363 369.956 357.417 365.158 357.041C360.361 356.664 355.782 354.873 352.002 351.894C348.222 348.916 345.41 344.883 343.923 340.306C342.435 335.729 342.337 330.814 343.643 326.182C344.949 321.55 347.599 317.409 351.258 314.283C354.917 311.157 359.421 309.186 364.2 308.62C370.608 307.861 377.055 309.678 382.123 313.672C387.191 317.666 390.465 323.509 391.225 329.917Z" fill="#455A64"/>
<path d="M377.754 331.53C378.001 333.646 377.615 335.787 376.645 337.683C375.675 339.579 374.165 341.146 372.305 342.184C370.445 343.222 368.32 343.685 366.196 343.515C364.073 343.345 362.048 342.549 360.377 341.229C358.706 339.908 357.464 338.122 356.809 336.095C356.153 334.069 356.112 331.894 356.693 329.844C357.273 327.795 358.448 325.964 360.068 324.582C361.689 323.2 363.683 322.33 365.799 322.081C367.204 321.916 368.628 322.03 369.99 322.415C371.352 322.801 372.624 323.451 373.734 324.328C374.845 325.206 375.771 326.294 376.461 327.529C377.151 328.765 377.59 330.125 377.754 331.53Z" fill="#263238"/>
<path d="M368.705 346.729C365.949 347.055 363.158 346.556 360.686 345.296C358.213 344.035 356.17 342.07 354.815 339.648C353.459 337.226 352.852 334.457 353.071 331.69C353.289 328.924 354.323 326.284 356.042 324.105C357.761 321.926 360.087 320.306 362.727 319.449C365.367 318.592 368.201 318.538 370.872 319.292C373.543 320.046 375.93 321.575 377.731 323.686C379.533 325.797 380.668 328.395 380.993 331.151C381.427 334.846 380.376 338.562 378.072 341.482C375.768 344.403 372.399 346.29 368.705 346.729ZM365.562 320.126C363.063 320.423 360.709 321.454 358.797 323.089C356.884 324.723 355.499 326.888 354.816 329.31C354.132 331.731 354.182 334.301 354.959 336.694C355.735 339.087 357.204 341.196 359.178 342.756C361.153 344.315 363.545 345.254 366.053 345.454C368.561 345.654 371.072 345.107 373.269 343.881C375.466 342.655 377.251 340.805 378.397 338.566C379.544 336.326 380.001 333.797 379.711 331.298C379.306 327.945 377.591 324.888 374.94 322.794C372.289 320.701 368.918 319.742 365.562 320.126Z" fill="#263238"/>
<path d="M367.081 313.524C367.142 313.972 367.068 314.429 366.869 314.835C366.669 315.241 366.354 315.579 365.962 315.806C365.57 316.032 365.12 316.137 364.668 316.107C364.217 316.076 363.784 315.913 363.426 315.636C363.068 315.359 362.8 314.983 362.657 314.553C362.513 314.124 362.501 313.662 362.621 313.225C362.741 312.789 362.988 312.398 363.33 312.103C363.673 311.807 364.096 311.62 364.545 311.566C365.14 311.493 365.74 311.658 366.215 312.025C366.689 312.391 367.001 312.93 367.081 313.524Z" fill="#263238"/>
<path d="M357.443 316.101C357.713 316.462 357.869 316.895 357.892 317.345C357.915 317.795 357.805 318.242 357.574 318.63C357.344 319.017 357.004 319.327 356.597 319.522C356.19 319.716 355.735 319.785 355.289 319.721C354.843 319.657 354.426 319.462 354.09 319.161C353.755 318.86 353.516 318.467 353.404 318.03C353.292 317.594 353.311 317.134 353.46 316.708C353.61 316.283 353.881 315.911 354.241 315.64C354.482 315.46 354.755 315.328 355.046 315.253C355.337 315.179 355.64 315.162 355.938 315.205C356.236 315.248 356.522 315.349 356.78 315.502C357.038 315.656 357.264 315.859 357.443 316.101Z" fill="#263238"/>
<path d="M350.386 323.148C350.799 323.327 351.15 323.625 351.394 324.004C351.638 324.383 351.765 324.826 351.758 325.276C351.751 325.727 351.61 326.165 351.354 326.536C351.098 326.907 350.738 327.194 350.319 327.361C349.9 327.527 349.442 327.566 349.001 327.472C348.56 327.378 348.157 327.155 347.842 326.832C347.528 326.509 347.316 326.101 347.234 325.657C347.151 325.214 347.202 324.757 347.38 324.342C347.498 324.066 347.67 323.816 347.885 323.606C348.1 323.396 348.355 323.231 348.634 323.12C348.914 323.009 349.212 322.955 349.513 322.959C349.813 322.964 350.11 323.028 350.386 323.148Z" fill="#263238"/>
<path d="M347.786 332.777C348.235 332.716 348.691 332.79 349.098 332.989C349.504 333.188 349.842 333.504 350.068 333.896C350.295 334.288 350.399 334.738 350.369 335.19C350.339 335.641 350.175 336.073 349.899 336.432C349.622 336.79 349.245 337.058 348.816 337.201C348.387 337.345 347.924 337.357 347.488 337.237C347.052 337.117 346.661 336.87 346.365 336.527C346.07 336.185 345.883 335.762 345.828 335.313C345.758 334.718 345.924 334.119 346.29 333.645C346.656 333.171 347.193 332.859 347.786 332.777Z" fill="#263238"/>
<path d="M350.341 342.411C350.702 342.141 351.135 341.985 351.586 341.962C352.036 341.939 352.483 342.049 352.87 342.28C353.257 342.51 353.568 342.85 353.762 343.257C353.956 343.664 354.026 344.119 353.962 344.565C353.897 345.011 353.703 345.428 353.402 345.764C353.101 346.099 352.707 346.338 352.27 346.45C351.834 346.562 351.374 346.543 350.949 346.393C350.523 346.244 350.152 345.973 349.881 345.612C349.518 345.126 349.363 344.517 349.449 343.916C349.535 343.316 349.856 342.775 350.341 342.411Z" fill="#263238"/>
<path d="M357.405 349.502C357.583 349.087 357.88 348.735 358.259 348.489C358.637 348.243 359.08 348.115 359.531 348.121C359.982 348.127 360.422 348.267 360.794 348.523C361.165 348.778 361.453 349.138 361.62 349.558C361.787 349.977 361.826 350.436 361.733 350.878C361.639 351.319 361.416 351.723 361.092 352.037C360.769 352.352 360.36 352.564 359.916 352.646C359.472 352.728 359.014 352.677 358.599 352.498C358.046 352.257 357.609 351.807 357.386 351.246C357.162 350.685 357.169 350.058 357.405 349.502Z" fill="#263238"/>
<path d="M367.044 352.063C366.983 351.614 367.057 351.158 367.257 350.751C367.456 350.345 367.772 350.007 368.163 349.781C368.555 349.554 369.006 349.449 369.457 349.48C369.909 349.51 370.341 349.674 370.699 349.95C371.057 350.227 371.325 350.604 371.469 351.033C371.612 351.462 371.625 351.925 371.505 352.361C371.385 352.797 371.138 353.188 370.795 353.484C370.452 353.779 370.029 353.966 369.58 354.021C368.985 354.093 368.385 353.928 367.91 353.562C367.436 353.195 367.125 352.657 367.044 352.063Z" fill="#263238"/>
<path d="M376.678 349.498C376.407 349.137 376.25 348.704 376.226 348.253C376.202 347.802 376.312 347.355 376.542 346.967C376.773 346.578 377.113 346.267 377.52 346.073C377.927 345.878 378.383 345.809 378.83 345.873C379.276 345.937 379.694 346.133 380.029 346.435C380.365 346.736 380.604 347.131 380.715 347.568C380.826 348.006 380.805 348.466 380.655 348.892C380.505 349.317 380.231 349.688 379.87 349.959C379.385 350.318 378.777 350.471 378.179 350.385C377.581 350.299 377.042 349.98 376.678 349.498Z" fill="#263238"/>
<path d="M383.736 342.45C383.322 342.272 382.969 341.975 382.723 341.596C382.478 341.218 382.35 340.775 382.356 340.324C382.362 339.872 382.501 339.433 382.757 339.061C383.013 338.689 383.373 338.402 383.792 338.234C384.211 338.067 384.67 338.028 385.112 338.122C385.553 338.216 385.957 338.439 386.272 338.762C386.586 339.086 386.798 339.495 386.88 339.939C386.962 340.383 386.911 340.841 386.733 341.255C386.494 341.811 386.044 342.249 385.482 342.473C384.92 342.697 384.292 342.689 383.736 342.45Z" fill="#263238"/>
<path d="M386.334 332.855C385.886 332.915 385.429 332.842 385.023 332.642C384.616 332.443 384.279 332.127 384.052 331.735C383.826 331.344 383.721 330.893 383.751 330.442C383.781 329.99 383.945 329.558 384.222 329.2C384.498 328.841 384.875 328.574 385.305 328.43C385.734 328.287 386.196 328.274 386.632 328.394C387.069 328.514 387.46 328.761 387.755 329.104C388.051 329.447 388.238 329.869 388.292 330.319C388.367 330.914 388.203 331.516 387.836 331.991C387.469 332.466 386.929 332.777 386.334 332.855Z" fill="#263238"/>
<path d="M383.754 323.182C383.393 323.452 382.96 323.61 382.509 323.634C382.058 323.658 381.611 323.548 381.222 323.318C380.834 323.087 380.523 322.747 380.329 322.34C380.134 321.933 380.064 321.477 380.129 321.03C380.193 320.583 380.389 320.166 380.69 319.83C380.992 319.495 381.387 319.256 381.824 319.145C382.261 319.033 382.722 319.054 383.147 319.205C383.573 319.355 383.944 319.628 384.214 319.99C384.576 320.474 384.731 321.083 384.645 321.681C384.559 322.28 384.238 322.82 383.754 323.182Z" fill="#263238"/>
<path d="M376.715 316.122C376.538 316.537 376.241 316.889 375.864 317.136C375.486 317.382 375.043 317.511 374.592 317.506C374.141 317.501 373.702 317.363 373.33 317.108C372.957 316.853 372.669 316.494 372.501 316.076C372.332 315.657 372.292 315.198 372.384 314.757C372.477 314.315 372.698 313.911 373.02 313.595C373.343 313.28 373.751 313.067 374.194 312.983C374.638 312.899 375.096 312.949 375.511 313.126C376.066 313.365 376.505 313.814 376.73 314.375C376.956 314.937 376.951 315.565 376.715 316.122Z" fill="#263238"/>
<path d="M159.159 324.196L158.474 324.118L159.247 330.668L159.894 330.433C159.894 329.395 159.766 328.338 159.639 327.29C159.512 326.243 159.404 325.214 159.159 324.196ZM158.18 322.688L158.797 322.346C158.331 320.302 157.726 318.294 156.985 316.334H156.28L158.18 322.688ZM158.914 338.727L159.61 338.619C159.87 336.538 159.988 334.44 159.962 332.343L159.286 332.147L158.914 338.727ZM156.28 314.6C155.473 312.67 154.53 310.798 153.46 309L152.775 309.166L155.713 315.041L156.28 314.6ZM157.201 346.59H157.896C158.519 344.585 159.003 342.541 159.345 340.47L158.709 340.156L157.201 346.59ZM148.055 302.635L151.972 307.923L152.423 307.384C151.284 305.624 150.025 303.946 148.653 302.361L148.055 302.635ZM154.136 354.031L154.821 354.149C155.778 352.287 156.609 350.364 157.309 348.391L156.741 347.97L154.136 354.031ZM142.288 297.044L147.096 301.558L147.448 300.961C146.026 299.42 144.498 297.981 142.876 296.652L142.288 297.044ZM149.828 360.826L150.484 361.061C151.748 359.393 152.897 357.639 153.921 355.813L153.451 355.314L149.828 360.826ZM135.63 292.52L141.143 296.133L141.387 295.477C139.716 294.213 137.959 293.064 136.129 292.041L135.63 292.52ZM144.442 366.78L145.04 367.122C146.574 365.697 148.011 364.17 149.338 362.55L148.956 361.962L144.442 366.78ZM128.316 289.23L134.377 291.835L134.504 291.14C132.64 290.184 130.713 289.357 128.737 288.662L128.316 289.23ZM138.107 371.685L138.646 372.136C140.404 370.998 142.082 369.742 143.669 368.376L143.395 367.749L138.107 371.685ZM120.551 287.262L126.974 288.77V288.065C124.971 287.444 122.926 286.966 120.854 286.636L120.551 287.262ZM130.979 375.387L131.429 375.925C133.362 375.115 135.237 374.173 137.04 373.105L136.874 372.43L130.979 375.387ZM112.727 285.98L112.532 286.645L119.112 287.018L119.004 286.332C116.899 286.073 114.779 285.956 112.659 285.98H112.727ZM123.665 378.422C125.709 377.964 127.718 377.362 129.677 376.62V375.925L123.371 377.825L123.665 378.422ZM107.714 286.303C106.666 286.43 105.629 286.577 104.61 286.783L104.532 287.468L111.082 286.694L110.847 286.048C109.741 286.087 108.693 286.175 107.646 286.303H107.714ZM115.547 379.548C116.585 379.499 117.643 379.411 118.691 379.284C119.738 379.156 120.786 379.009 121.804 378.804L121.873 378.128L115.322 378.902L115.547 379.548ZM96.728 288.966V289.661L103.044 287.762L102.701 287.164C100.654 287.622 98.6412 288.224 96.6791 288.966H96.728ZM107.401 379.254C109.482 379.515 111.58 379.632 113.677 379.607L113.873 378.941L107.283 378.569L107.401 379.254ZM89.3647 292.491L89.5312 293.167L95.4061 290.229L94.9557 289.681C93.0139 290.488 91.1296 291.427 89.3158 292.491H89.3647ZM99.4207 377.541C101.424 378.169 103.469 378.653 105.54 378.99L105.844 378.363L99.4207 376.855V377.541ZM82.726 297.25L83.0002 297.886L88.2877 293.97L87.7589 293.509C85.9839 294.642 84.2862 295.892 82.6771 297.25H82.726ZM91.842 374.466C93.704 375.429 95.6311 376.26 97.6092 376.953L98.0205 376.385L91.9595 373.791L91.842 374.466ZM77.0078 303.076L77.3896 303.653L81.9036 298.856L81.3063 298.503C79.7566 299.922 78.3103 301.45 76.9784 303.076H77.0078ZM84.9389 370.128C86.6083 371.4 88.3654 372.551 90.197 373.575L90.6866 373.105L85.1739 369.482L84.9389 370.128ZM72.3959 309.812L72.8659 310.312L76.479 304.799L75.8328 304.564C74.5569 306.231 73.3987 307.985 72.3665 309.812H72.3959ZM78.8779 364.645C80.3014 366.188 81.8327 367.628 83.4604 368.953L84.0283 368.572L79.2304 364.058L78.8779 364.645ZM69.008 317.225L69.5759 317.636L72.1805 311.575L71.4951 311.457C70.5261 313.324 69.6854 315.254 68.9787 317.234L69.008 317.225ZM73.9038 358.212C75.0435 359.972 76.2996 361.653 77.6638 363.245L78.3002 362.971L74.3836 357.683L73.9038 358.212ZM67.0497 325.136L67.6666 325.44L69.1745 319.016H68.4793C67.8276 321.021 67.3204 323.069 66.9616 325.146L67.0497 325.136ZM70.1047 351.006C70.9217 352.937 71.8671 354.811 72.9345 356.616L73.6003 356.44L70.6628 350.565L70.1047 351.006ZM67.363 326.889L66.6874 327.006C66.4333 329.089 66.3123 331.185 66.3251 333.283L66.991 333.479L67.363 326.889ZM68.1072 342.908L67.5197 343.241C67.9807 345.287 68.5827 347.299 69.3214 349.263L70.0068 349.214L68.1072 342.908ZM67.0399 334.928L66.4035 335.153C66.4035 336.191 66.5308 337.239 66.658 338.286C66.7853 339.334 66.942 340.382 67.1378 341.41L67.8135 341.478L67.0399 334.928Z" fill="#263238"/>
<path d="M159.242 330.669L159.888 330.434C159.888 331.061 159.947 331.688 159.957 332.314L159.281 332.118L158.909 338.728L159.604 338.62C159.536 339.247 159.438 339.864 159.34 340.48L158.704 340.167L157.196 346.561H157.891C157.705 347.158 157.519 347.756 157.303 348.353L156.735 347.932L154.131 353.993L154.816 354.11C154.532 354.668 154.239 355.236 153.915 355.775L153.445 355.276L149.823 360.788L150.479 361.023C150.097 361.523 149.705 362.002 149.304 362.511L148.922 361.924L144.408 366.741L145.005 367.084C144.555 367.505 144.026 367.926 143.595 368.337L143.321 367.711L138.034 371.627L138.572 372.078C138.043 372.421 137.505 372.763 136.966 373.057L136.8 372.381L130.925 375.319L131.375 375.857C130.798 376.112 130.22 376.337 129.623 376.553V375.857L123.317 377.757L123.659 378.354C123.043 378.501 122.436 378.619 121.819 378.736L121.887 378.061L115.337 378.834L115.562 379.48C114.945 379.48 114.318 379.529 113.692 379.539L113.887 378.873L107.298 378.501L107.415 379.187C106.789 379.118 106.172 379.03 105.555 378.922L105.858 378.296L99.4351 376.788V377.473C98.8378 377.287 98.2405 377.101 97.6432 376.886L98.0545 376.318L91.9935 373.723L91.876 374.398C91.3179 374.124 90.7695 373.821 90.231 373.507L90.7206 373.037L85.2079 369.415L84.9729 370.061C84.4736 369.679 83.9938 369.297 83.4944 368.896L84.0623 368.514L79.2644 364L78.9119 364.587C78.4811 364.127 78.0699 363.667 77.6586 363.187L78.2951 362.913L74.3784 357.625L73.9378 358.154C73.5951 357.625 73.272 357.097 72.9586 356.558L73.6245 356.382L70.687 350.507L70.1485 350.957C69.9037 350.38 69.6687 349.802 69.4533 349.205L70.1387 349.156L68.2391 342.85L67.6516 343.183C67.5047 342.576 67.3872 341.969 67.2697 341.352L67.9453 341.42L67.1718 334.87L66.5354 335.095C66.5354 334.478 66.4766 333.852 66.457 333.225L67.1229 333.421L67.4949 326.831L66.8193 326.948C66.8879 326.322 66.976 325.705 67.0935 325.088L67.7104 325.392L69.2183 318.968H68.5231C68.7058 318.368 68.9017 317.77 69.1105 317.176L69.6785 317.588L72.283 311.527L71.5976 311.409C71.8914 310.851 72.1851 310.293 72.4984 309.754L72.9684 310.254L76.5815 304.741L75.9353 304.506C76.3172 304.007 76.699 303.527 77.1103 303.018L77.4922 303.596L82.0061 298.798L81.4088 298.445C81.869 298.014 82.3292 297.603 82.809 297.192L83.0831 297.828L88.3706 293.912L87.8419 293.451C88.3706 293.109 88.9091 292.776 89.4477 292.472L89.6141 293.148L95.4891 290.21L95.0387 289.662C95.6164 289.408 96.2039 289.182 96.8012 288.967V289.662L103.117 287.763L102.774 287.165C103.391 287.018 103.998 286.891 104.625 286.783L104.546 287.469L111.097 286.695L110.862 286.049C111.489 286 112.115 285.99 112.742 285.98L112.546 286.646L119.126 287.018L119.018 286.333C119.645 286.401 120.262 286.49 120.879 286.607L120.565 287.234L126.989 288.742V288.037C127.586 288.223 128.183 288.419 128.78 288.634L128.359 289.202L134.42 291.806L134.548 291.111C135.106 291.405 135.664 291.699 136.202 292.012L135.703 292.492L141.216 296.105L141.461 295.449C141.96 295.841 142.44 296.222 142.949 296.624L142.361 297.016L147.169 301.53L147.522 300.932C147.952 301.383 148.364 301.853 148.765 302.332L148.129 302.607L152.045 307.894L152.496 307.355C152.838 307.884 153.181 308.423 153.475 308.971L152.789 309.138L155.727 315.013L156.275 314.562C156.53 315.14 156.755 315.727 156.97 316.325H156.265L158.165 322.64L158.782 322.297C158.919 322.914 159.056 323.521 159.154 324.148L158.469 324.07L159.242 330.669Z" fill="#263238"/>
<path d="M111.012 286.697L104.461 287.47L104.539 286.785L104.774 284.65L110.042 284.023L110.777 286.05L111.012 286.697Z" fill="#263238"/>
<path d="M103.031 287.762L96.7153 289.662L96.6761 288.967L96.5391 286.842L101.631 285.305L102.688 287.165L103.031 287.762Z" fill="#263238"/>
<path d="M95.3651 290.211L89.4803 293.178L89.3139 292.492L88.8047 290.417L93.5536 288.018L94.9146 289.663L95.3651 290.211Z" fill="#263238"/>
<path d="M88.2358 293.933L82.9581 297.888L82.6742 297.252L81.8125 295.284L86.0816 292.111L87.707 293.482L88.2358 293.933Z" fill="#263238"/>
<path d="M81.8716 298.848L77.3577 303.655L76.9758 303.078L75.7812 301.295L79.4237 297.418L81.2743 298.505L81.8716 298.848Z" fill="#263238"/>
<path d="M76.4464 304.799L72.8333 310.312L72.3633 309.813L70.875 308.266L73.7929 303.82L75.8002 304.564L76.4464 304.799Z" fill="#263238"/>
<path d="M72.1458 311.585L69.5412 317.646L68.9733 317.245L67.25 315.972L69.3552 311.086L71.4604 311.468L72.1458 311.585Z" fill="#263238"/>
<path d="M69.085 319.027L67.5771 325.451L66.9602 325.147L65.0312 324.197L66.2552 319.018L68.3898 319.027H69.085Z" fill="#263238"/>
<path d="M67.3598 326.893L66.9877 333.482L66.3219 333.286L64.2656 332.689L64.579 327.372L66.6841 327.01L67.3598 326.893Z" fill="#263238"/>
<path d="M67.0364 334.928L67.8099 341.478L67.1343 341.41L64.9899 341.165L64.3633 335.897L66.3999 335.153L67.0364 334.928Z" fill="#263238"/>
<path d="M70.0018 349.214L69.3164 349.263L67.1818 349.4L65.6445 344.308L67.5147 343.241L68.1022 342.908L70.0018 349.214Z" fill="#263238"/>
<path d="M73.5098 356.461L72.8439 356.627L70.7583 357.137L68.3594 352.388L70.0142 351.017L70.5527 350.566L73.5098 356.461Z" fill="#263238"/>
<path d="M78.2204 362.983L77.5937 363.257L75.6256 364.128L72.4531 359.859L73.8337 358.224L74.2744 357.695L78.2204 362.983Z" fill="#263238"/>
<path d="M83.9951 368.584L83.4271 368.966L81.6353 370.161L77.7578 366.518L78.8447 364.658L79.1972 364.07L83.9951 368.584Z" fill="#263238"/>
<path d="M90.6559 373.105L90.1663 373.575L88.6094 375.054L84.1641 372.146L84.9082 370.129L85.1432 369.482L90.6559 373.105Z" fill="#263238"/>
<path d="M97.99 376.388L97.5788 376.956L96.3157 378.689L91.4297 376.574L91.8116 374.469L91.9291 373.793L97.99 376.388Z" fill="#263238"/>
<path d="M105.792 378.365L105.489 378.992L104.539 380.901L99.3594 379.687L99.3692 377.543V376.857L105.792 378.365Z" fill="#263238"/>
<path d="M113.824 378.944L113.628 379.61L113.031 381.676L107.714 381.373L107.352 379.258L107.234 378.572L113.824 378.944Z" fill="#263238"/>
<path d="M121.824 378.133L121.755 378.808L121.511 380.953L116.243 381.579L115.499 379.553L115.273 378.906L121.824 378.133Z" fill="#263238"/>
<path d="M129.56 375.926L129.609 376.621L129.756 378.756L124.654 380.293L123.597 378.423L123.254 377.825L129.56 375.926Z" fill="#263238"/>
<path d="M137.476 375.181L132.727 377.57L131.357 375.925L130.906 375.387L136.791 372.43L136.967 373.105L137.476 375.181Z" fill="#263238"/>
<path d="M144.472 370.308L140.213 373.49L138.578 372.109L138.039 371.659L143.327 367.723L143.601 368.349L144.472 370.308Z" fill="#263238"/>
<path d="M150.501 364.305L146.858 368.173L145.007 367.096L144.41 366.753L148.924 361.936L149.306 362.523L150.501 364.305Z" fill="#263238"/>
<path d="M155.396 357.332L152.488 361.777L150.48 361.033L149.824 360.798L153.447 355.285L153.917 355.785L155.396 357.332Z" fill="#263238"/>
<path d="M159.029 349.626L156.923 354.512L154.818 354.12L154.133 354.002L156.737 347.941L157.305 348.362L159.029 349.626Z" fill="#263238"/>
<path d="M161.243 341.402L160.029 346.582L157.894 346.572L157.199 346.562L158.707 340.139L159.344 340.452L161.243 341.402Z" fill="#263238"/>
<path d="M162.018 332.91L161.714 338.227L159.609 338.589L158.914 338.697L159.286 332.117L159.962 332.313L162.018 332.91Z" fill="#263238"/>
<path d="M161.289 324.434L161.915 329.712L159.889 330.437L159.242 330.672L158.469 324.121L159.154 324.199L161.289 324.434Z" fill="#263238"/>
<path d="M160.633 321.291L158.782 322.348L158.165 322.701L156.266 316.375L156.971 316.336L159.095 316.199L160.633 321.291Z" fill="#263238"/>
<path d="M157.91 313.214L156.275 314.575L155.727 315.025L152.77 309.14L153.455 308.974L155.521 308.465L157.91 313.214Z" fill="#263238"/>
<path d="M153.832 305.742L152.461 307.357L152.01 307.896L148.055 302.618L148.691 302.334L150.649 301.473L153.832 305.742Z" fill="#263238"/>
<path d="M148.511 299.084L147.443 300.934L147.091 301.532L142.273 297.018L142.871 296.626L144.643 295.441L148.511 299.084Z" fill="#263238"/>
<path d="M142.121 293.451L141.386 295.449L141.142 296.105L135.629 292.492L136.128 292.012L137.675 290.533L142.121 293.451Z" fill="#263238"/>
<path d="M134.851 289.015L134.47 291.111L134.342 291.806L128.281 289.201L128.702 288.633L129.965 286.91L134.851 289.015Z" fill="#263238"/>
<path d="M126.923 285.911L126.914 288.036L126.904 288.741L120.48 287.233L120.794 286.597L121.744 284.688L126.923 285.911Z" fill="#263238"/>
<path d="M119.041 287.02L112.461 286.648L112.657 285.982L113.254 283.936L118.571 284.239L118.933 286.334L119.041 287.02Z" fill="#263238"/>
<path d="M150.677 328.357C151.555 335.783 150.211 343.302 146.816 349.964C143.42 356.626 138.125 362.132 131.601 365.785C125.076 369.437 117.615 371.073 110.16 370.485C102.706 369.897 95.5936 367.111 89.7224 362.481C83.8512 357.851 79.4849 351.583 77.1758 344.471C74.8668 337.359 74.7186 329.722 76.75 322.526C78.7815 315.33 82.9013 308.897 88.5885 304.043C94.2757 299.188 101.275 296.129 108.701 295.252C113.631 294.669 118.627 295.062 123.405 296.41C128.183 297.759 132.649 300.035 136.547 303.109C140.445 306.183 143.699 309.995 146.124 314.328C148.548 318.66 150.096 323.427 150.677 328.357Z" fill="#37474F"/>
<path d="M137.303 329.916C137.87 334.695 137.007 339.536 134.823 343.825C132.639 348.114 129.232 351.659 125.033 354.011C120.834 356.364 116.032 357.418 111.234 357.041C106.435 356.663 101.857 354.872 98.0769 351.892C94.2971 348.912 91.4859 344.878 89.9989 340.301C88.5119 335.723 88.416 330.807 89.7231 326.175C91.0303 321.543 93.6819 317.402 97.3425 314.277C101.003 311.152 105.508 309.183 110.288 308.619C116.694 307.863 123.139 309.681 128.204 313.675C133.27 317.668 136.543 323.51 137.303 329.916Z" fill="#455A64"/>
<path d="M123.836 331.531C124.083 333.647 123.697 335.787 122.727 337.683C121.758 339.579 120.248 341.145 118.389 342.183C116.529 343.221 114.404 343.685 112.281 343.515C110.159 343.346 108.134 342.551 106.463 341.231C104.792 339.912 103.549 338.126 102.892 336.101C102.236 334.075 102.194 331.9 102.773 329.851C103.351 327.802 104.525 325.97 106.144 324.587C107.763 323.205 109.756 322.333 111.871 322.083C113.277 321.916 114.703 322.028 116.065 322.413C117.428 322.798 118.702 323.448 119.813 324.326C120.924 325.203 121.852 326.292 122.542 327.528C123.233 328.764 123.672 330.125 123.836 331.531Z" fill="#263238"/>
<path d="M114.793 346.727C112.037 347.05 109.247 346.55 106.776 345.288C104.304 344.026 102.263 342.06 100.909 339.637C99.5547 337.215 98.9493 334.446 99.1691 331.68C99.3888 328.914 100.424 326.275 102.143 324.097C103.863 321.919 106.189 320.3 108.829 319.444C111.468 318.588 114.302 318.534 116.973 319.289C119.643 320.043 122.029 321.573 123.831 323.684C125.632 325.795 126.766 328.392 127.091 331.148C127.522 334.844 126.469 338.56 124.163 341.48C121.858 344.401 118.488 346.288 114.793 346.727ZM111.64 320.123C109.145 320.427 106.796 321.464 104.889 323.102C102.982 324.74 101.602 326.905 100.925 329.326C100.247 331.747 100.301 334.314 101.08 336.704C101.859 339.094 103.329 341.2 105.303 342.756C107.277 344.312 109.668 345.248 112.174 345.447C114.68 345.646 117.189 345.099 119.384 343.874C121.579 342.65 123.363 340.802 124.509 338.566C125.656 336.329 126.115 333.802 125.828 331.305C125.636 329.637 125.116 328.023 124.298 326.557C123.48 325.09 122.38 323.8 121.061 322.761C119.743 321.722 118.231 320.953 116.614 320.501C114.997 320.048 113.307 319.92 111.64 320.123Z" fill="#263238"/>
<path d="M113.155 313.525C113.216 313.973 113.142 314.43 112.943 314.836C112.744 315.242 112.428 315.58 112.036 315.807C111.644 316.033 111.194 316.138 110.742 316.108C110.291 316.078 109.859 315.914 109.5 315.637C109.142 315.361 108.874 314.984 108.731 314.554C108.587 314.125 108.575 313.663 108.695 313.227C108.815 312.79 109.062 312.399 109.405 312.104C109.747 311.808 110.17 311.621 110.619 311.567C111.215 311.492 111.816 311.656 112.292 312.022C112.767 312.389 113.077 312.93 113.155 313.525Z" fill="#263238"/>
<path d="M103.522 316.1C103.792 316.461 103.95 316.894 103.974 317.345C103.998 317.796 103.888 318.243 103.657 318.631C103.427 319.02 103.087 319.331 102.68 319.525C102.272 319.72 101.817 319.789 101.37 319.725C100.923 319.661 100.506 319.465 100.17 319.163C99.8345 318.862 99.5959 318.467 99.4846 318.03C99.3732 317.593 99.3941 317.132 99.5446 316.706C99.695 316.281 99.9683 315.91 100.33 315.639C100.814 315.277 101.423 315.123 102.021 315.209C102.62 315.295 103.159 315.616 103.522 316.1Z" fill="#263238"/>
<path d="M96.4632 323.15C96.8778 323.328 97.2303 323.625 97.4761 324.004C97.7219 324.382 97.8499 324.825 97.8439 325.276C97.838 325.728 97.6983 326.167 97.4427 326.539C97.187 326.911 96.8268 327.198 96.4076 327.366C95.9884 327.533 95.5291 327.572 95.0877 327.478C94.6463 327.384 94.2427 327.161 93.9279 326.838C93.6131 326.514 93.4013 326.105 93.3193 325.661C93.2372 325.217 93.2886 324.759 93.467 324.345C93.706 323.789 94.1559 323.351 94.7178 323.127C95.2796 322.903 95.9074 322.911 96.4632 323.15Z" fill="#263238"/>
<path d="M93.8685 332.777C94.3169 332.716 94.7733 332.79 95.1796 332.989C95.586 333.188 95.9238 333.504 96.1503 333.896C96.3767 334.288 96.4815 334.738 96.4512 335.19C96.421 335.641 96.2572 336.073 95.9806 336.432C95.704 336.79 95.3271 337.058 94.8979 337.201C94.4687 337.345 94.0065 337.357 93.5701 337.237C93.1337 337.117 92.7429 336.87 92.4473 336.527C92.1517 336.185 91.9647 335.762 91.9101 335.313C91.8404 334.718 92.0063 334.119 92.3723 333.645C92.7383 333.171 93.2754 332.859 93.8685 332.777Z" fill="#263238"/>
<path d="M96.4384 342.411C96.7999 342.141 97.233 341.985 97.6832 341.962C98.1333 341.939 98.5802 342.049 98.9676 342.28C99.3549 342.51 99.6653 342.85 99.8596 343.257C100.054 343.664 100.123 344.119 100.059 344.565C99.9951 345.011 99.8002 345.428 99.4993 345.764C99.1983 346.099 98.8047 346.338 98.3681 346.45C97.9316 346.562 97.4716 346.543 97.0462 346.393C96.6209 346.244 96.2492 345.973 95.9782 345.612C95.7974 345.372 95.6659 345.099 95.5911 344.808C95.5164 344.516 95.5 344.213 95.5427 343.916C95.5855 343.618 95.6866 343.332 95.8403 343.074C95.9941 342.816 96.1973 342.59 96.4384 342.411Z" fill="#263238"/>
<path d="M103.49 349.502C103.668 349.087 103.965 348.735 104.344 348.489C104.722 348.243 105.165 348.115 105.616 348.121C106.067 348.127 106.507 348.267 106.879 348.523C107.251 348.778 107.538 349.138 107.705 349.558C107.872 349.977 107.912 350.436 107.818 350.878C107.724 351.319 107.501 351.723 107.177 352.037C106.854 352.352 106.445 352.564 106.001 352.646C105.557 352.728 105.099 352.677 104.684 352.498C104.129 352.259 103.691 351.809 103.467 351.247C103.243 350.686 103.251 350.058 103.49 349.502Z" fill="#263238"/>
<path d="M113.118 352.063C113.058 351.614 113.132 351.158 113.331 350.751C113.53 350.345 113.846 350.007 114.238 349.781C114.629 349.554 115.08 349.449 115.531 349.48C115.983 349.51 116.415 349.674 116.773 349.95C117.132 350.227 117.4 350.604 117.543 351.033C117.686 351.462 117.699 351.925 117.579 352.361C117.459 352.797 117.212 353.188 116.869 353.484C116.526 353.779 116.104 353.966 115.654 354.021C115.06 354.091 114.461 353.925 113.987 353.559C113.513 353.193 113.201 352.656 113.118 352.063Z" fill="#263238"/>
<path d="M122.752 349.499C122.483 349.138 122.327 348.705 122.304 348.255C122.281 347.805 122.391 347.358 122.622 346.97C122.852 346.583 123.192 346.273 123.599 346.078C124.006 345.884 124.461 345.815 124.907 345.879C125.353 345.943 125.77 346.138 126.106 346.439C126.441 346.74 126.68 347.133 126.792 347.57C126.904 348.006 126.884 348.466 126.735 348.892C126.586 349.317 126.314 349.689 125.954 349.96C125.468 350.322 124.858 350.477 124.258 350.391C123.658 350.305 123.117 349.984 122.752 349.499Z" fill="#263238"/>
<path d="M129.822 342.45C129.408 342.272 129.055 341.975 128.809 341.596C128.564 341.218 128.436 340.775 128.442 340.324C128.448 339.872 128.587 339.433 128.843 339.061C129.099 338.689 129.459 338.402 129.878 338.234C130.297 338.067 130.756 338.028 131.198 338.122C131.639 338.216 132.043 338.439 132.358 338.762C132.672 339.086 132.884 339.495 132.966 339.939C133.048 340.383 132.997 340.841 132.819 341.255C132.577 341.809 132.127 342.245 131.566 342.469C131.005 342.693 130.378 342.686 129.822 342.45Z" fill="#263238"/>
<path d="M132.406 332.854C132.108 332.888 131.807 332.864 131.518 332.782C131.23 332.7 130.961 332.563 130.726 332.377C130.491 332.191 130.294 331.96 130.148 331.699C130.002 331.437 129.909 331.149 129.875 330.851C129.84 330.553 129.864 330.252 129.946 329.964C130.028 329.675 130.166 329.406 130.352 329.171C130.538 328.936 130.768 328.74 131.03 328.594C131.292 328.448 131.579 328.355 131.877 328.32C132.175 328.285 132.476 328.31 132.765 328.391C133.053 328.473 133.322 328.611 133.557 328.797C133.792 328.983 133.989 329.213 134.135 329.475C134.281 329.737 134.374 330.025 134.408 330.322C134.443 330.62 134.419 330.922 134.337 331.21C134.255 331.498 134.117 331.768 133.931 332.003C133.745 332.238 133.515 332.434 133.253 332.58C132.991 332.726 132.704 332.819 132.406 332.854Z" fill="#263238"/>
<path d="M129.84 323.182C129.479 323.452 129.045 323.61 128.595 323.634C128.144 323.658 127.696 323.548 127.308 323.318C126.92 323.087 126.609 322.747 126.415 322.34C126.22 321.933 126.15 321.477 126.215 321.03C126.279 320.583 126.475 320.166 126.776 319.83C127.078 319.495 127.473 319.256 127.91 319.145C128.347 319.033 128.808 319.054 129.233 319.205C129.659 319.355 130.03 319.628 130.3 319.99C130.66 320.475 130.813 321.083 130.727 321.681C130.641 322.278 130.322 322.818 129.84 323.182Z" fill="#263238"/>
<path d="M122.792 316.119C122.614 316.534 122.316 316.887 121.938 317.132C121.56 317.378 121.117 317.506 120.665 317.5C120.214 317.494 119.775 317.355 119.403 317.099C119.031 316.843 118.743 316.483 118.576 316.064C118.409 315.645 118.37 315.185 118.464 314.744C118.558 314.303 118.781 313.899 119.104 313.584C119.427 313.269 119.837 313.058 120.281 312.976C120.724 312.893 121.183 312.945 121.597 313.123C122.153 313.362 122.591 313.812 122.815 314.374C123.039 314.936 123.03 315.564 122.792 316.119Z" fill="#263238"/>
<path d="M171.251 332.855H165.171C164.983 319.18 159.419 306.129 149.683 296.525C139.946 286.921 126.82 281.536 113.143 281.536C99.4671 281.536 86.3407 286.921 76.604 296.525C66.8673 306.129 61.3033 319.18 61.1157 332.855H55.0352C55.2335 317.574 61.4429 302.987 72.3187 292.251C83.1946 281.516 97.8614 275.496 113.143 275.496C128.425 275.496 143.092 281.516 153.968 292.251C164.844 302.987 171.053 317.574 171.251 332.855Z" fill="#A79CFF"/>
<path opacity="0.2" d="M171.251 332.855H165.171C164.983 319.18 159.419 306.129 149.683 296.525C139.946 286.921 126.82 281.536 113.143 281.536C99.4671 281.536 86.3407 286.921 76.604 296.525C66.8673 306.129 61.3033 319.18 61.1157 332.855H55.0352C55.2335 317.574 61.4429 302.987 72.3187 292.251C83.1946 281.516 97.8614 275.496 113.143 275.496C128.425 275.496 143.092 281.516 153.968 292.251C164.844 302.987 171.053 317.574 171.251 332.855Z" fill="white"/>
<path d="M315.086 332.853H308.996C309.017 317.448 315.146 302.68 326.04 291.787C336.935 280.895 351.704 274.768 367.109 274.75V280.831C353.317 280.846 340.093 286.332 330.341 296.085C320.588 305.838 315.102 319.061 315.086 332.853Z" fill="#A79CFF"/>
<path opacity="0.2" d="M315.086 332.853H308.996C309.017 317.448 315.146 302.68 326.04 291.787C336.935 280.895 351.704 274.768 367.109 274.75V280.831C353.317 280.846 340.093 286.332 330.341 296.085C320.588 305.838 315.102 319.061 315.086 332.853Z" fill="white"/>
<path d="M127.422 254.531H51.4884L44.0664 270.854H127.422V254.531Z" fill="#A79CFF"/>
<path opacity="0.1" d="M127.422 254.531H51.4884L44.0664 270.854H127.422V254.531Z" fill="black"/>
<path d="M127.422 199.09H51.4883V254.52H127.422V199.09Z" fill="#A79CFF"/>
<g opacity="0.1">
<path opacity="0.1" d="M120.617 204.826H88.3047V208.067H120.617V204.826Z" fill="black"/>
<path opacity="0.1" d="M120.617 211.699H88.3047V214.94H120.617V211.699Z" fill="black"/>
<path opacity="0.1" d="M120.617 218.582H88.3047V221.823H120.617V218.582Z" fill="black"/>
<path opacity="0.1" d="M120.617 225.457H88.3047V228.698H120.617V225.457Z" fill="black"/>
<path opacity="0.1" d="M120.617 232.34H88.3047V235.581H120.617V232.34Z" fill="black"/>
</g>
<path d="M328.18 99.3914H300.578V97.3254H327.319L331.725 92.9192V51.7945H310.605L288.495 66.2959L287.359 64.5726L309.988 49.7285H333.791V93.7808L328.18 99.3914Z" fill="#263238"/>
<path d="M328.4 54.6367H312.215V92.3931H328.4V54.6367Z" fill="#263238"/>
<path d="M332.75 85.2129H328.402V87.2789H332.75V85.2129Z" fill="#263238"/>
<path d="M332.75 61.8457H328.402V63.9117H332.75V61.8457Z" fill="#263238"/>
<path d="M292.047 125.963L250.844 167.166L256.279 172.601L297.482 131.398L292.047 125.963Z" fill="#263238"/>
<path d="M290.933 158.985L283.668 166.251L271.301 157.585L282.032 146.854L290.933 158.985Z" fill="#37474F"/>
<path d="M289.035 160.877L285.746 164.166L305.783 184.203L309.072 180.914L289.035 160.877Z" fill="#263238"/>
<path d="M336.366 270.853L315.256 169.559L266.689 27.0037H128.638L127.424 199.091H113.48L121.343 19.6992H271.566L327.329 165.721L352.748 270.853H336.366Z" fill="#37474F"/>
<path d="M315.251 169.561L297.039 193.09V223.032L278.023 270.854H336.362L315.251 169.561Z" fill="#263238"/>
<path d="M231.35 270.854H127.422V198.465H206.401L231.35 270.854Z" fill="#37474F"/>
<path d="M222.348 182.545H139.766V198.476H222.348V182.545Z" fill="#263238"/>
<path d="M128.473 108.059L139.772 182.543H162.44L143.101 104.27L128.473 108.059Z" fill="#263238"/>
<path d="M195.395 69.8539C192.398 68.5517 183.909 69.2077 180.404 72.86C176.898 76.5122 175.802 83.3174 177.055 84.2476C178.308 85.1778 184.379 85.8338 188.903 84.3749C193.426 82.9159 196.873 70.4904 195.395 69.8539Z" fill="#263238"/>
<path d="M195.403 69.873C195.511 69.873 195.56 69.6968 195.403 69.6674C192.681 69.0701 189.528 69.4128 186.806 69.6674C184.548 69.7357 182.329 70.2795 180.295 71.2634C179.341 71.778 178.511 72.4938 177.862 73.3611C177.213 74.2285 176.76 75.2267 176.535 76.2865C175.874 78.8326 175.874 81.5052 176.535 84.0513C176.535 84.1198 176.682 84.1198 176.682 84.0513C176.31 79.2436 176.29 73.4568 181.44 71.2243C185.837 69.3149 190.801 69.9612 195.403 69.873Z" fill="#263238"/>
<path d="M177.74 83.1699C174.93 82.9937 166.803 86.8124 164.59 91.7865C162.377 96.7606 165.099 105.279 166.333 106.102C167.566 106.924 174.587 103.106 177.28 99.8254C179.071 97.6419 178.592 94.5771 178.552 91.6201C178.484 87.2236 178.18 83.1699 177.74 83.1699Z" fill="#263238"/>
<path d="M179.05 99.4628C180.901 94.3222 178.923 88.4767 178.071 83.3361C178.071 83.3231 178.066 83.3106 178.057 83.3015C178.048 83.2923 178.035 83.2871 178.022 83.2871C178.009 83.2871 177.997 83.2923 177.988 83.3015C177.978 83.3106 177.973 83.3231 177.973 83.3361C178.071 88.1242 180.029 92.7947 179.168 97.622C178.978 99.047 178.447 100.405 177.62 101.581C176.794 102.757 175.695 103.717 174.419 104.378C172.088 105.494 169.396 105.69 166.87 106.062C166.703 106.062 166.762 106.337 166.87 106.317C171.912 105.69 177.141 104.78 179.05 99.4628Z" fill="#263238"/>
<path d="M177.024 83.5219C177.171 83.5219 177.122 83.238 176.975 83.2771C172.715 84.364 167.506 86.1363 164.647 89.671C161.563 93.4996 162.943 98.4149 164.197 102.664C164.197 102.723 164.305 102.664 164.285 102.664C163.071 98.366 161.925 93.0981 165.264 89.436C168.211 86.2734 173.029 84.599 177.024 83.5219Z" fill="#263238"/>
<path d="M166.988 105.502C168.643 106.775 170.748 110.398 170.689 114.197C170.592 120.679 173.196 119.876 179.766 122.794C185.318 125.271 185.377 131.998 181.725 134.652C181.725 134.652 184.251 130.97 180.745 128.287C176.486 125.085 164.893 128.062 160.751 120.454C155.317 110.662 166.988 105.502 166.988 105.502Z" fill="#263238"/>
<path d="M168.93 108.863C168.872 108.765 169.038 108.657 169.107 108.755C169.758 109.688 170.229 110.734 170.497 111.84C170.849 113.279 170.614 114.718 170.859 116.168C171.486 119.849 175.677 120.486 178.693 121.259C182.697 122.238 185.547 125.352 184.979 129.66C184.979 129.673 184.974 129.686 184.964 129.695C184.955 129.704 184.943 129.709 184.93 129.709C184.917 129.709 184.904 129.704 184.895 129.695C184.886 129.686 184.881 129.673 184.881 129.66C185.031 128.329 184.813 126.982 184.252 125.765C183.691 124.548 182.808 123.508 181.699 122.757C179.505 121.328 176.744 121.367 174.394 120.329C172.778 119.614 171.231 118.596 170.752 116.814C170.568 115.816 170.493 114.802 170.526 113.788C170.425 112.037 169.875 110.341 168.93 108.863Z" fill="#263238"/>
<path d="M165.78 106.07C165.78 106.07 165.868 106.07 165.78 106.139C163.068 107.989 160.219 109.82 158.926 112.993C157.565 116.43 158.76 120.337 161.168 123C163.871 125.937 167.445 125.438 171.077 125.389C173.702 125.389 176.345 125.526 178.676 126.848C178.744 126.848 178.676 127.005 178.607 126.975C174.769 125.321 170.882 125.84 166.857 125.761C165.346 125.768 163.863 125.348 162.579 124.55C161.296 123.751 160.263 122.606 159.602 121.247C156.086 114.932 160.032 109.145 165.78 106.07Z" fill="#263238"/>
<path d="M193.556 66.5228C193.418 66.2631 193.183 66.0688 192.902 65.9825C192.621 65.8961 192.318 65.925 192.058 66.0626C191.798 66.2003 191.604 66.4354 191.518 66.7164C191.431 66.9973 191.46 67.301 191.598 67.5607C191.735 67.8204 191.971 68.0148 192.252 68.1011C192.532 68.1874 192.836 68.1586 193.096 68.0209C193.356 67.8833 193.55 67.6481 193.636 67.3672C193.723 67.0862 193.694 66.7825 193.556 66.5228Z" fill="#A79CFF"/>
<path d="M194.042 68.4828C193.888 68.2535 193.653 68.0897 193.385 68.0231C193.117 67.9565 192.833 67.9918 192.59 68.1222C192.346 68.2526 192.159 68.4689 192.066 68.729C191.972 68.9892 191.979 69.2748 192.084 69.5305C192.238 69.7597 192.472 69.9235 192.74 69.9901C193.009 70.0567 193.292 70.0214 193.536 69.891C193.78 69.7606 193.966 69.5444 194.06 69.2842C194.153 69.0241 194.147 68.7385 194.042 68.4828Z" fill="#A79CFF"/>
<path d="M194.876 70.4399C194.721 70.2159 194.488 70.0567 194.223 69.9924C193.958 69.9281 193.678 69.9631 193.437 70.0909C193.196 70.2187 193.01 70.4303 192.915 70.6859C192.819 70.9414 192.82 71.2231 192.918 71.4778C193.074 71.7018 193.306 71.8611 193.572 71.9254C193.837 71.9897 194.116 71.9546 194.357 71.8268C194.598 71.6991 194.784 71.4874 194.88 71.2319C194.976 70.9763 194.974 70.6946 194.876 70.4399Z" fill="#A79CFF"/>
<path d="M195.919 72.1821C195.764 71.9581 195.531 71.7989 195.266 71.7346C195.001 71.6703 194.721 71.7053 194.48 71.8331C194.239 71.9609 194.053 72.1725 193.958 72.4281C193.862 72.6836 193.863 72.9653 193.961 73.22C194.117 73.444 194.349 73.6032 194.614 73.6675C194.88 73.7319 195.159 73.6968 195.4 73.569C195.641 73.4413 195.827 73.2296 195.923 72.9741C196.019 72.7185 196.017 72.4368 195.919 72.1821Z" fill="#A79CFF"/>
<path d="M197.283 73.7485C197.127 73.5245 196.894 73.3653 196.629 73.301C196.364 73.2367 196.085 73.2717 195.844 73.3995C195.602 73.5273 195.416 73.7389 195.321 73.9945C195.225 74.25 195.226 74.5317 195.324 74.7864C195.48 75.0104 195.713 75.1696 195.978 75.2339C196.243 75.2983 196.522 75.2632 196.764 75.1354C197.005 75.0077 197.191 74.796 197.286 74.5405C197.382 74.2849 197.381 74.0032 197.283 73.7485Z" fill="#A79CFF"/>
<path d="M198.849 75.0024C198.693 74.7784 198.461 74.6192 198.196 74.5549C197.931 74.4906 197.651 74.5256 197.41 74.6534C197.169 74.7812 196.983 74.9928 196.887 75.2484C196.792 75.5039 196.793 75.7856 196.891 76.0403C197.047 76.2643 197.279 76.4236 197.544 76.4879C197.809 76.5522 198.089 76.5171 198.33 76.3893C198.571 76.2616 198.757 76.0499 198.853 75.7944C198.948 75.5388 198.947 75.2571 198.849 75.0024Z" fill="#A79CFF"/>
<path d="M283.493 270.287C281.447 271.012 222.168 270.111 219.907 268.711C219.642 268.554 218.301 257.196 218.301 257.196L224.078 213.261L262.98 212.82L256.39 250.371C256.39 250.371 265.046 254.102 272.203 257.372C275.33 258.695 278.375 260.206 281.319 261.896C283.64 263.697 285.53 269.572 283.493 270.287Z" fill="#D3766A"/>
<path d="M283.493 270.287C281.456 271.012 222.159 270.111 219.916 268.721C219.642 268.554 218.301 257.196 218.301 257.196L220.102 243.654L257.448 244.467L256.41 250.342C256.41 250.342 265.065 254.073 272.223 257.343C275.354 258.665 278.401 260.175 281.349 261.867C283.64 263.707 285.53 269.582 283.493 270.287Z" fill="#EBEBEB"/>
<path d="M283.471 270.365C281.385 271.07 221.784 271.138 219.464 269.699C218.592 269.17 218.073 260.475 217.75 249.959V249.626L256.231 249.146V249.803C256.231 249.803 279.075 259.986 281.415 261.836C283.755 263.687 285.557 269.66 283.471 270.365Z" fill="#A79CFF"/>
<path d="M282.772 268.045C272.716 267.81 232.13 267.82 222.172 268.349C222.094 268.349 222.094 268.408 222.172 268.418C232.14 268.868 272.716 268.535 282.772 268.212C282.997 268.231 282.997 268.055 282.772 268.045Z" fill="#263238"/>
<path d="M259.452 249.911C255.486 249.177 250.639 249.794 247.633 252.614C247.516 252.721 247.633 252.888 247.8 252.849C251.58 251.626 255.479 250.808 259.432 250.41C259.491 250.401 259.544 250.372 259.583 250.328C259.623 250.284 259.646 250.228 259.648 250.169C259.65 250.11 259.632 250.052 259.596 250.005C259.56 249.958 259.509 249.925 259.452 249.911Z" fill="#263238"/>
<path d="M262.297 251.635C258.381 250.901 253.485 251.508 250.489 254.338C250.371 254.445 250.489 254.612 250.655 254.573C254.433 253.34 258.333 252.523 262.288 252.134C262.346 252.124 262.398 252.094 262.437 252.049C262.475 252.004 262.496 251.948 262.498 251.889C262.499 251.83 262.479 251.772 262.443 251.726C262.406 251.68 262.355 251.648 262.297 251.635Z" fill="#263238"/>
<path d="M265.145 253.349C261.229 252.614 256.333 253.231 253.337 256.051C253.219 256.159 253.337 256.325 253.503 256.286C257.286 255.061 261.189 254.244 265.145 253.848C265.203 253.836 265.255 253.805 265.292 253.76C265.33 253.714 265.35 253.657 265.35 253.598C265.35 253.539 265.33 253.482 265.292 253.437C265.255 253.391 265.203 253.36 265.145 253.349Z" fill="#263238"/>
<path d="M259.334 245.807L217.749 246.032C217.749 246.032 230.292 182.72 228.755 180.703C227.09 178.519 177.084 190.602 163.748 173.653C154.662 162.089 160.468 138.197 160.468 138.197L209.651 138.834C209.651 138.834 209.72 139.989 209.759 145.688C209.759 145.688 231.633 143.073 248.71 145.277C262.643 147.068 269.762 158.29 269.713 165.584C269.497 197.789 259.334 245.807 259.334 245.807Z" fill="#455A64"/>
<path d="M258.629 238.445C253.832 238.102 249.034 238.014 244.216 237.936C239.399 237.857 234.611 237.847 229.803 237.936C227.091 237.994 224.388 238.19 221.676 238.249C221.655 238.249 221.635 238.257 221.621 238.272C221.606 238.286 221.598 238.306 221.598 238.327C221.598 238.348 221.606 238.368 221.621 238.383C221.635 238.397 221.655 238.406 221.676 238.406C224.095 238.406 226.503 238.611 228.922 238.66C231.34 238.709 233.69 238.748 236.079 238.768C240.887 238.768 245.695 238.768 250.493 238.768C253.205 238.768 255.907 238.699 258.62 238.592C258.737 238.641 258.737 238.454 258.629 238.445Z" fill="#263238"/>
<path d="M193.112 142.438C193.053 142.614 192.978 142.785 192.887 142.947C192.875 142.961 192.869 142.978 192.869 142.996C192.869 143.014 192.875 143.031 192.887 143.045C192.319 144.611 192.054 146.295 191.516 147.862C190.997 149.547 189.91 151 188.441 151.975C185.367 153.933 181.724 154.804 178.199 155.558C178.082 155.558 178.121 155.744 178.199 155.754C180.222 155.826 182.244 155.582 184.192 155.03C186.017 154.586 187.748 153.82 189.303 152.768C190.764 151.737 191.828 150.237 192.319 148.518C192.568 147.603 192.764 146.675 192.906 145.737C193.143 144.664 193.297 143.574 193.366 142.477C193.355 142.454 193.339 142.434 193.318 142.419C193.298 142.404 193.274 142.394 193.249 142.39C193.224 142.387 193.199 142.389 193.175 142.397C193.151 142.405 193.129 142.419 193.112 142.438Z" fill="#263238"/>
<path d="M224.603 234.566C227.765 219.047 235.941 177.521 234.58 175.435C233.934 175.043 228.921 175.523 223.114 176.072C207.575 177.54 181.549 179.988 171.522 172.85C160.967 165.33 164.766 142.261 164.933 141.282C164.933 141.067 165.393 140.655 165.354 141.282C165.354 141.527 161.819 164.948 171.973 172.194C181.764 179.175 207.604 176.728 223.046 175.269C230.527 174.564 234.159 174.241 235.04 174.789C237.42 176.267 227.305 225.029 224.955 234.919C224.906 235.125 224.407 235.536 224.603 234.566Z" fill="#263238"/>
<path d="M211.393 118.567L213.605 146.356C213.605 146.356 168.701 144.104 157.617 142.586C157.617 142.586 171.414 97.8091 184.231 85.5892C190.644 79.4792 197.645 80.4192 201.856 85.2563C202.913 86.4802 213.331 101.569 214.31 108.492C214.558 110.282 214.427 112.104 213.924 113.84C213.421 115.576 212.559 117.187 211.393 118.567Z" fill="#EBEBEB"/>
<path d="M213.615 146.354L211.393 118.565C212.56 117.185 213.424 115.575 213.93 113.839C214.436 112.103 214.572 110.281 214.33 108.49C213.351 101.557 202.933 86.4782 201.875 85.2542C201.482 84.7962 201.053 84.3705 200.592 83.9813L207.251 104.886L189.303 82.1895C187.384 82.9284 185.655 84.0858 184.241 85.5773C171.414 97.7875 157.617 142.574 157.617 142.574C168.701 144.102 213.615 146.354 213.615 146.354Z" fill="#A79CFF"/>
<path d="M162.242 127.8L212.424 131.433L212.081 126.998L163.672 123.512C163.221 125 162.634 126.43 162.242 127.8Z" fill="#EBEBEB"/>
<path d="M159.793 135.369L213.049 139.207L212.687 134.772L161.174 131.061C160.723 132.627 160.155 134.086 159.793 135.369Z" fill="#EBEBEB"/>
<path d="M192.074 83.0138C192.143 83.9244 195.413 90.2498 199.428 90.6904C200.74 90.8372 201.836 83.7286 201.836 83.7286L202.042 83.2194L204.852 76.1303L197.097 69.2174L195.961 68.2383C195.961 68.2383 195.325 70.1966 194.551 72.713L194.434 73.0655C194.434 73.2124 194.346 73.3397 194.307 73.467C194.189 73.8391 194.062 74.2209 193.954 74.6028C193.846 74.9847 193.778 75.1707 193.7 75.4743C193.621 75.7778 193.533 76.0813 193.445 76.3849C192.837 78.5607 192.379 80.7755 192.074 83.0138Z" fill="#D3766A"/>
<path d="M194.551 72.762C194.965 74.9445 195.85 77.0105 197.143 78.8165C198.437 80.6224 200.108 82.1249 202.041 83.2194L204.852 76.1303L197.097 69.2174L195.961 68.2383C195.961 68.2383 195.324 70.2749 194.551 72.762Z" fill="#263238"/>
<path d="M218.001 66.1811C217.463 79.5564 209.395 80.7411 206.516 80.6236C203.892 80.5257 194.991 79.8207 194.139 66.465C193.287 53.1093 199.672 49.1241 205.674 49.0556C211.676 48.987 218.53 52.8156 218.001 66.1811Z" fill="#D3766A"/>
<path d="M215.321 62.2048C215.014 62.1725 214.71 62.1202 214.41 62.0482C214.081 62.0405 213.764 61.9234 213.509 61.7153C213.443 61.6319 213.406 61.5283 213.406 61.4215C213.406 61.3147 213.443 61.2111 213.509 61.1278C213.658 60.9793 213.843 60.8723 214.045 60.8174C214.248 60.7624 214.462 60.7614 214.665 60.8144C215.091 60.8612 215.485 61.0634 215.771 61.3823C215.833 61.4608 215.871 61.5558 215.879 61.6555C215.888 61.7551 215.867 61.8551 215.818 61.9428C215.77 62.0305 215.698 62.1022 215.609 62.1488C215.521 62.1954 215.42 62.2149 215.321 62.2048Z" fill="#263238"/>
<path d="M206.089 62.0595C206.402 62.0595 206.686 61.9714 206.999 61.9224C207.328 61.9155 207.646 61.806 207.91 61.6091C207.973 61.5244 208.008 61.4213 208.008 61.3154C208.008 61.2094 207.973 61.1064 207.91 61.0216C207.766 60.8689 207.584 60.7568 207.383 60.6966C207.182 60.6364 206.968 60.6303 206.764 60.6789C206.334 60.7177 205.934 60.9128 205.638 61.2272C205.573 61.3054 205.532 61.4015 205.522 61.5029C205.512 61.6044 205.532 61.7066 205.581 61.7962C205.629 61.8859 205.704 61.9589 205.794 62.0059C205.885 62.0528 205.987 62.0715 206.089 62.0595Z" fill="#263238"/>
<path d="M207.938 65.6035C207.938 65.6035 207.87 65.6035 207.87 65.6819C207.87 66.5925 207.703 67.6402 206.891 67.9045C206.891 67.9045 206.891 67.9633 206.891 67.9045C207.88 67.8556 208.085 66.4652 207.938 65.6035Z" fill="#263238"/>
<path d="M207.156 64.6135C205.697 64.4568 205.472 67.3845 206.823 67.551C208.175 67.7174 208.351 64.7604 207.156 64.6135Z" fill="#263238"/>
<path d="M206.574 64.733C206.3 64.8798 206.025 65.154 205.712 65.154C205.399 65.154 205.115 64.8407 204.899 64.5273H204.851C204.792 65.0855 204.968 65.6827 205.565 65.81C206.163 65.9373 206.544 65.4575 206.721 64.9092C206.76 64.8309 206.682 64.6742 206.574 64.733Z" fill="#263238"/>
<path d="M213.251 65.7891C213.251 65.7891 213.32 65.7891 213.31 65.8772C213.202 66.778 213.242 67.8355 214.035 68.2076C214.035 68.2076 214.035 68.2663 214.035 68.2076C212.997 68.0313 212.967 66.6311 213.251 65.7891Z" fill="#263238"/>
<path d="M214.107 64.9082C215.576 64.9082 215.439 67.8457 214.107 67.8457C212.775 67.8457 212.873 64.8984 214.107 64.9082Z" fill="#263238"/>
<path d="M214.702 65.133C214.927 65.2995 215.152 65.5932 215.426 65.6226C215.701 65.652 215.994 65.3484 216.219 65.0547C216.219 65.6226 216.004 66.2003 215.456 66.2786C214.907 66.357 214.614 65.8576 214.477 65.2995C214.526 65.2211 214.614 65.0645 214.702 65.133Z" fill="#263238"/>
<path d="M211.698 69.8634C211.753 70.5342 211.773 71.2075 211.757 71.8805C211.757 71.9392 211.6 71.9588 211.385 71.9588C210.827 72.0213 210.264 71.9302 209.755 71.6955C209.246 71.4608 208.81 71.0914 208.496 70.6271C208.496 70.5586 208.545 70.4998 208.604 70.539C209.384 71.154 210.343 71.4978 211.336 71.5182C211.385 71.3419 211.081 69.178 211.179 69.178C211.675 69.2533 212.16 69.3949 212.618 69.599C212.491 66.7399 211.913 63.9199 211.825 61.0706C211.825 61.0472 211.834 61.0248 211.851 61.0082C211.868 60.9917 211.89 60.9824 211.913 60.9824C211.937 60.9824 211.959 60.9917 211.976 61.0082C211.992 61.0248 212.001 61.0472 212.001 61.0706C212.712 64.071 213.126 67.1343 213.235 70.2159C213.255 70.5586 211.953 69.9907 211.698 69.8634Z" fill="#263238"/>
<path d="M196.227 67.5819C196.227 67.5819 193.858 63.0679 191.841 63.8611C189.824 64.6542 191.244 70.9404 193.349 72.0468C193.61 72.2054 193.9 72.3098 194.202 72.3537C194.504 72.3977 194.812 72.3803 195.107 72.3026C195.402 72.2249 195.679 72.0885 195.92 71.9016C196.161 71.7146 196.362 71.481 196.511 71.2145L196.227 67.5819Z" fill="#D3766A"/>
<path d="M192.291 65.6543C192.291 65.6543 192.242 65.6543 192.291 65.713C192.957 66.1559 193.522 66.7332 193.95 67.4078C194.378 68.0824 194.66 68.8393 194.778 69.6297C194.708 69.4634 194.602 69.3144 194.469 69.1928C194.335 69.0711 194.177 68.9797 194.005 68.9249C193.833 68.87 193.651 68.853 193.472 68.8749C193.293 68.8968 193.121 68.9572 192.967 69.052V69.1401C193.25 69.0847 193.544 69.1202 193.806 69.2416C194.068 69.3629 194.285 69.5638 194.426 69.8157C194.665 70.2333 194.855 70.6768 194.994 71.1376C195.053 71.2845 195.317 71.2453 195.278 71.0788C195.571 69.0814 194.387 66.1243 192.291 65.6543Z" fill="#263238"/>
<path d="M194.735 66.1126C196.184 66.1126 200.277 62.4898 200.972 55.5279C200.972 55.5279 199.914 61.7358 199.366 62.6171C198.818 63.4983 201.657 60.5608 202.303 54.9502C203.969 56.3662 205.829 57.5368 207.826 58.4263C210.411 59.4054 212.046 59.4935 212.252 59.3173C212.457 59.141 208.648 57.594 207.699 56.2819C207.699 56.2819 214.484 60.1985 217.715 60.6783C218.087 60.7371 219.184 53.0311 214.425 49.3299C209.667 45.6287 201.403 48.5074 199.092 50.3972C199.092 50.3972 196.546 50.544 193.501 54.0396C190.456 57.5352 193.178 66.0735 194.735 66.1126Z" fill="#263238"/>
<path d="M219.123 57.8091C219.123 57.8091 217.586 42.7398 204.132 44.0029C190.679 45.266 191.971 60.3451 191.971 60.3451L219.123 57.8091Z" fill="#A79CFF"/>
<path d="M191.075 61.4789L220.227 58.7695L220.028 56.6344L190.877 59.3438L191.075 61.4789Z" fill="#A79CFF"/>
<path d="M205.656 57.9857L211.727 57.4177L208.926 42.7695L202.855 43.3374L205.656 57.9857Z" fill="#A79CFF"/>
<path opacity="0.1" d="M205.656 57.9857L211.727 57.4177L208.926 42.7695L202.855 43.3374L205.656 57.9857Z" fill="black"/>
<path d="M184.662 97.2603C186.963 112.79 195.815 138.385 200.221 140.754C208.456 145.278 233.287 148.108 241.757 147.883C245.409 147.785 247.965 125.117 245.869 121.818C244.636 119.859 212.226 120.917 211.54 120.359C210.483 119.507 200.397 101.97 194.15 94.2836C184.917 82.9548 183.389 88.6143 184.662 97.2603Z" fill="#D3766A"/>
<path d="M241.197 121.357C241.197 121.357 252.644 120.505 259.704 120.377C263.62 120.309 270.406 120.789 273.324 122.052C277.691 123.951 294.738 134.693 292.221 138.884C289.94 142.673 276.476 131.589 276.476 131.589C276.476 131.589 291.056 141.566 287.472 145.63C283.889 149.693 270.337 135.143 270.337 135.143C270.337 135.143 285.093 145.738 280.736 149.341C277.446 152.063 264.433 139.549 264.433 139.549C264.433 139.549 277.044 148.744 273.784 151.691C270.181 154.952 257.432 144.181 257.432 144.181C247.885 150.271 240.835 149.263 235.89 147.951C234.725 147.657 241.197 121.357 241.197 121.357Z" fill="#D3766A"/>
<path d="M271.651 127.801C273.403 128.917 275.195 130.023 276.84 131.287C278.485 132.55 280.101 133.872 281.628 135.282C283.657 137.09 285.474 139.123 287.043 141.343C283.968 137.602 278.133 132.99 276.478 131.727C274.823 130.464 273.247 129.132 271.582 127.869L271.651 127.801Z" fill="#263238"/>
<path d="M266.983 133.685C269.167 135.193 271.389 136.623 273.504 138.228C275.619 139.834 277.421 141.538 279.448 143.291C279.595 143.418 279.448 143.457 279.321 143.291C277.264 141.626 275.237 140.245 273.162 138.61C271.086 136.975 269.069 135.252 266.944 133.714C266.915 133.705 266.954 133.656 266.983 133.685Z" fill="#263238"/>
<path d="M262.075 138.004C265.472 140.249 268.628 142.838 271.494 145.729C271.641 145.867 271.494 145.896 271.318 145.729C268.234 143.096 265.835 141.02 261.997 138.082C261.938 138.082 261.997 138.004 262.075 138.004Z" fill="#263238"/>
<path d="M204.435 106.805L187.134 116.851C187.134 116.851 182.649 101.282 183.462 92.372C184.274 83.4617 188.358 85.1067 192.578 90.1004C196.798 95.0941 204.435 106.805 204.435 106.805Z" fill="#EBEBEB"/>
<path d="M201.434 104.714C201.541 104.645 201.629 104.714 201.522 104.782C196.85 107.87 191.991 110.663 186.971 113.144C186.971 113.144 186.913 113.144 186.971 113.086C189.145 111.392 200.2 105.439 201.434 104.714Z" fill="#263238"/>
<path d="M195.803 94.0864C198.819 98.2576 201.864 102.742 204.684 106.904C204.733 106.982 203.921 107.285 203.607 107.432C203.48 107.491 203.46 107.344 203.607 107.276C203.824 107.153 204.027 107.009 204.214 106.845C201.355 102.634 198.516 98.4143 195.794 94.1158C195.735 94.0864 195.784 94.057 195.803 94.0864Z" fill="#263238"/>
<path d="M595.135 210.209H428.746V280.405H595.135V210.209Z" fill="#A79CFF"/>
<path opacity="0.1" d="M595.135 210.209H428.746V280.405H595.135V210.209Z" fill="#263238"/>
<path opacity="0.2" d="M595.123 210.209H521.441V280.405H595.123V210.209Z" fill="black"/>
<path d="M591.498 275.569C585.812 270.575 580.175 265.568 574.588 260.548L557.942 245.45L541.492 230.283C536.035 225.224 530.637 220.145 525.297 215.047C530.983 220.028 536.632 225.028 542.246 230.048L558.892 245.146L575.342 260.304C580.773 265.376 586.158 270.464 591.498 275.569Z" fill="#A79CFF"/>
<path d="M591.502 215.047C586.155 220.138 580.757 225.217 575.306 230.283L558.896 245.45L542.25 260.548C536.669 265.568 531.032 270.575 525.34 275.569C530.686 270.464 536.085 265.382 541.535 260.323L557.916 245.166L574.562 230.048C580.163 225.041 585.809 220.041 591.502 215.047Z" fill="#A79CFF"/>
<path opacity="0.7" d="M467.961 220.843H469.273L470.33 219.961L471.31 220.843H471.907H472.543H473.454L473.797 220.529L474.237 220.843H475.334H475.608H475.97L476.127 220.617L476.45 220.843L476.92 220.451L477.439 220.843H478.183V210.209H467.961V220.843Z" fill="white"/>
<path d="M443.128 275.82H443.617V268.878H443.128V275.82Z" fill="white"/>
<path d="M441.944 275.82H442.434V268.878H441.944V275.82Z" fill="white"/>
<path d="M440.76 275.82H441.25V268.878H440.76V275.82Z" fill="white"/>
<path d="M439.577 275.82H440.066V268.878H439.577V275.82Z" fill="white"/>
<path d="M438.397 275.82H438.887V268.878H438.397V275.82Z" fill="white"/>
<path d="M437.229 275.82H437.719V268.878H437.229V275.82Z" fill="white"/>
<path d="M436.046 275.82H436.535V268.878H436.046V275.82Z" fill="white"/>
<path d="M434.87 275.82H435.359V268.878H434.87V275.82Z" fill="white"/>
<path d="M433.682 275.82H434.172V268.878H433.682V275.82Z" fill="white"/>
<path d="M448.45 275.292L446.551 275.811H450.996L449.106 275.282V272.737C450.458 272.551 450.996 271.219 450.996 268.879H446.551C446.551 271.209 447.089 272.551 448.45 272.737V275.292Z" fill="white"/>
<path d="M452.031 272.414H453.187V275.811H456.163V272.414H457.329L454.675 268.879L452.031 272.414Z" fill="white"/>
<path opacity="0.1" d="M428.746 280.404V277.721L521.443 271.611V280.394L428.746 280.404Z" fill="black"/>
<path d="M529.772 140.012H430.906V210.208H529.772V140.012Z" fill="#A79CFF"/>
<path opacity="0.1" d="M529.772 140.012H430.906V210.208H529.772V140.012Z" fill="#263238"/>
<path opacity="0.2" d="M529.765 140.012H496.102V210.208H529.765V140.012Z" fill="black"/>
<path d="M527.444 205.371C524.957 200.378 522.486 195.371 520.032 190.351L512.727 175.213L505.521 160.046C503.132 154.981 500.765 149.902 498.422 144.811C500.915 149.791 503.386 154.798 505.834 159.831L513.139 174.929L520.345 190.097C522.734 195.188 525.101 200.28 527.444 205.371Z" fill="#A79CFF"/>
<path d="M527.444 144.859C525.107 149.951 522.741 155.03 520.345 160.095L513.139 175.213L505.834 190.312C503.386 195.332 500.915 200.339 498.422 205.332C500.765 200.241 503.132 195.159 505.521 190.087L512.727 174.929L520.032 159.831C522.48 154.837 524.951 149.847 527.444 144.859Z" fill="#A79CFF"/>
<path opacity="0.7" d="M456.902 154.405H458.214L459.272 153.201L460.251 154.405H460.858H461.485H462.395L462.738 153.975L463.179 154.405H464.285H464.55H464.912L465.068 154.102L465.401 154.405L465.862 153.867L466.381 154.405H467.125V140.012H456.902V154.405Z" fill="white"/>
<path d="M445.28 205.627H445.77V198.685H445.28V205.627Z" fill="white"/>
<path d="M444.112 205.627H444.602V198.685H444.112V205.627Z" fill="white"/>
<path d="M442.928 205.627H443.418V198.685H442.928V205.627Z" fill="white"/>
<path d="M441.737 205.627H442.227V198.685H441.737V205.627Z" fill="white"/>
<path d="M440.565 205.627H441.055V198.685H440.565V205.627Z" fill="white"/>
<path d="M439.382 205.627H439.871V198.685H439.382V205.627Z" fill="white"/>
<path d="M438.206 205.627H438.695V198.685H438.206V205.627Z" fill="white"/>
<path d="M437.022 205.627H437.512V198.685H437.022V205.627Z" fill="white"/>
<path d="M435.842 205.627H436.332V198.685H435.842V205.627Z" fill="white"/>
<path d="M450.603 205.097L448.713 205.616H453.149L451.249 205.087V202.541C452.61 202.355 453.149 201.024 453.149 198.684H448.703C448.703 201.014 449.242 202.355 450.593 202.541L450.603 205.097Z" fill="white"/>
<path d="M454.184 202.228H455.349V205.626H458.316V202.228H459.481L456.827 198.684L454.184 202.228Z" fill="white"/>
<path opacity="0.1" d="M430.906 210.211V207.528L496.099 201.418V210.201L430.906 210.211Z" fill="black"/>
<path d="M600.061 140.012H501.195V210.208H600.061V140.012Z" fill="#A79CFF"/>
<path opacity="0.1" d="M600.061 140.012H501.195V210.208H600.061V140.012Z" fill="#263238"/>
<path opacity="0.2" d="M600.054 140.012H566.391V210.208H600.054V140.012Z" fill="black"/>
<path d="M597.725 205.371C595.238 200.378 592.771 195.371 590.323 190.351L583.018 175.213L575.802 160.046C573.413 155.013 571.04 149.951 568.684 144.859C571.184 149.84 573.654 154.847 576.096 159.88L583.4 174.978L590.607 190.145C593.009 195.204 595.382 200.28 597.725 205.371Z" fill="#A79CFF"/>
<path d="M597.729 144.859C595.392 149.951 593.026 155.03 590.63 160.095L583.424 175.213L576.119 190.312C573.671 195.332 571.201 200.339 568.707 205.332C571.057 200.241 573.423 195.159 575.806 190.087L583.022 174.929L590.327 159.831C592.768 154.837 595.236 149.847 597.729 144.859Z" fill="#A79CFF"/>
<path opacity="0.7" d="M527.191 154.405H528.504L529.561 153.201L530.55 154.405H531.147H531.784H532.684L533.037 153.975L533.478 154.405H534.574H534.839H535.211L535.367 154.102L535.69 154.405L536.151 153.867L536.679 154.405H537.414V140.012H527.191V154.405Z" fill="white"/>
<path d="M515.569 205.627H516.059V198.685H515.569V205.627Z" fill="white"/>
<path d="M514.393 205.627H514.883V198.685H514.393V205.627Z" fill="white"/>
<path d="M513.21 205.627H513.699V198.685H513.21V205.627Z" fill="white"/>
<path d="M512.038 205.627H512.527V198.685H512.038V205.627Z" fill="white"/>
<path d="M510.846 205.627H511.336V198.685H510.846V205.627Z" fill="white"/>
<path d="M509.674 205.627H510.164V198.685H509.674V205.627Z" fill="white"/>
<path d="M508.483 205.627H508.973V198.685H508.483V205.627Z" fill="white"/>
<path d="M507.303 205.627H507.793V198.685H507.303V205.627Z" fill="white"/>
<path d="M506.132 205.627H506.621V198.685H506.132V205.627Z" fill="white"/>
<path d="M520.886 205.097L518.996 205.616H523.441L521.542 205.087V202.541C522.903 202.355 523.441 201.024 523.441 198.684H518.996C518.996 201.014 519.535 202.355 520.886 202.541V205.097Z" fill="white"/>
<path d="M524.48 202.228H525.636V205.626H528.603V202.228H529.768L527.124 198.684L524.48 202.228Z" fill="white"/>
<path opacity="0.1" d="M501.195 210.211V207.528L566.388 201.418V210.201L501.195 210.211Z" fill="black"/>
<path d="M564.811 69.8164H445.285V140.012H564.811V69.8164Z" fill="#A79CFF"/>
<path opacity="0.1" d="M564.811 69.8164H445.285V140.012H564.811V69.8164Z" fill="#263238"/>
<path opacity="0.2" d="M564.812 69.8164H531.148V140.012H564.812V69.8164Z" fill="black"/>
<path d="M562.487 135.176C559.993 130.182 557.523 125.176 555.075 120.156L547.77 105.057L540.564 89.89C538.168 84.8245 535.802 79.7459 533.465 74.6543C535.952 79.648 538.419 84.6548 540.867 89.6746L548.172 104.773L555.388 119.94C557.777 125.006 560.144 130.084 562.487 135.176Z" fill="#A79CFF"/>
<path d="M562.487 74.6543C560.137 79.7459 557.771 84.8245 555.388 89.89L548.172 105.057L540.867 120.156C538.426 125.176 535.958 130.182 533.465 135.176C535.808 130.084 538.175 125.006 540.564 119.94L547.77 104.773L555.075 89.6746C557.523 84.6548 559.993 79.648 562.487 74.6543Z" fill="#A79CFF"/>
<path opacity="0.7" d="M483.102 84.21H484.423L485.481 83.0155L486.46 84.21H487.057H487.694H488.595L488.947 83.7792L489.388 84.21H490.484H490.759H491.121L491.278 83.9065L491.601 84.21L492.071 83.6715L492.59 84.21H493.324V69.8164H483.102V84.21Z" fill="white"/>
<path d="M459.655 135.43H460.145V128.487H459.655V135.43Z" fill="white"/>
<path d="M458.483 135.43H458.973V128.487H458.483V135.43Z" fill="white"/>
<path d="M457.299 135.43H457.789V128.487H457.299V135.43Z" fill="white"/>
<path d="M456.124 135.43H456.613V128.487H456.124V135.43Z" fill="white"/>
<path d="M454.928 135.43H455.418V128.487H454.928V135.43Z" fill="white"/>
<path d="M453.753 135.43H454.242V128.487H453.753V135.43Z" fill="white"/>
<path d="M452.577 135.43H453.066V128.487H452.577V135.43Z" fill="white"/>
<path d="M451.393 135.43H451.883V128.487H451.393V135.43Z" fill="white"/>
<path d="M450.217 135.43H450.707V128.487H450.217V135.43Z" fill="white"/>
<path d="M464.972 134.9L463.082 135.429H467.527L465.628 134.89V132.344C466.989 132.168 467.527 130.827 467.527 128.486H463.082C463.082 130.817 463.621 132.168 464.972 132.344V134.9Z" fill="white"/>
<path d="M468.559 132.031H469.724V135.429H472.691V132.031H473.856L471.212 128.486L468.559 132.031Z" fill="white"/>
<path opacity="0.1" d="M445.285 140.014V137.34L531.148 131.221V140.004L445.285 140.014Z" fill="black"/>
<path d="M449.619 283.576H436.43V295.297H449.619V283.576Z" fill="#A79CFF"/>
<path opacity="0.3" d="M449.619 283.576H436.43V295.297H449.619V283.576Z" fill="black"/>
<path opacity="0.3" d="M449.609 286.161L436.43 287.757V283.576H449.609V286.161Z" fill="black"/>
<path d="M518.564 283.576H505.375V295.297H518.564V283.576Z" fill="#A79CFF"/>
<path opacity="0.3" d="M518.564 283.576H505.375V295.297H518.564V283.576Z" fill="black"/>
<path opacity="0.3" d="M518.564 286.161L505.375 287.757V283.576H518.564V286.161Z" fill="black"/>
<path d="M587.517 283.576H574.328V295.297H587.517V283.576Z" fill="#A79CFF"/>
<path opacity="0.3" d="M587.517 283.576H574.328V295.297H587.517V283.576Z" fill="black"/>
<path opacity="0.3" d="M587.517 286.161L574.328 287.757V283.576H587.517V286.161Z" fill="black"/>
<path d="M594.779 280.406H429.164V283.579H594.779V280.406Z" fill="#A79CFF"/>
<path opacity="0.3" d="M594.779 280.406H429.164V283.579H594.779V280.406Z" fill="black"/>
<path d="M594.779 295.297H429.164V298.469H594.779V295.297Z" fill="#A79CFF"/>
<path opacity="0.3" d="M594.779 295.297H429.164V298.469H594.779V295.297Z" fill="black"/>
</svg>
